<svg width="20" height="20" viewBox="0 0 20 20" fill="none" xmlns="http://www.w3.org/2000/svg">
<path d="M10.0017 1.66669C14.5964 1.66669 18.3336 5.40505 18.3337 9.99969C18.3337 14.5945 14.5965 18.3337 10.0017 18.3337C8.30716 18.3336 6.73528 17.8295 5.41772 16.9567L2.77905 17.7995C2.54495 17.8743 2.32491 17.6517 2.40308 17.4186L3.25366 14.8845C2.2547 13.5126 1.66675 11.8226 1.66675 9.99969C1.66692 5.40408 5.40321 1.66679 9.9978 1.66669H10.0017ZM6.86304 5.47821C6.5443 5.47821 6.21154 5.57185 6.0105 5.77704C5.76571 6.02704 5.15796 6.60953 5.15796 7.80536C5.15803 9.00114 6.03049 10.1576 6.14819 10.319C6.27263 10.4829 7.84923 12.969 10.2966 13.9831C12.2111 14.7768 12.7802 14.7027 13.2156 14.61C13.852 14.4725 14.6503 14.002 14.8513 13.4343C15.0523 12.8656 15.0522 12.3811 14.9939 12.278C14.9345 12.1749 14.7728 12.1167 14.5281 11.9938C14.2831 11.8719 13.0929 11.2829 12.8679 11.2048C12.6472 11.1215 12.4369 11.1512 12.2703 11.3864C12.036 11.7144 11.8053 12.0477 11.6189 12.2487C11.472 12.405 11.232 12.4248 11.031 12.3415C10.7609 12.2289 10.0067 11.9642 9.0769 11.1364C8.35663 10.4952 7.86735 9.69685 7.72534 9.45673C7.58368 9.21193 7.7105 9.06949 7.823 8.93719C7.94576 8.78533 8.06254 8.67727 8.1853 8.53583C8.3082 8.39418 8.37672 8.31962 8.45483 8.15302C8.53817 7.99156 8.47905 7.82476 8.41968 7.70184C8.36075 7.57743 7.87155 6.38314 7.67065 5.89911C7.5092 5.51265 7.38615 5.49839 7.14136 5.48798C7.05824 5.48382 6.96583 5.47823 6.86304 5.47821Z" fill="#BDA67A"/>
</svg>
