<svg width="20" height="20" viewBox="0 0 20 20" fill="none" xmlns="http://www.w3.org/2000/svg">
<path d="M10.0053 2.485C12.4559 2.485 12.7462 2.49575 13.7099 2.53874C14.6056 2.57815 15.0893 2.72863 15.4118 2.85403C15.8381 3.01884 16.1463 3.21948 16.4651 3.53835C16.7876 3.8608 16.9846 4.16534 17.1495 4.5917C17.2749 4.91415 17.4253 5.40142 17.4647 6.29354C17.5077 7.26091 17.5185 7.55112 17.5185 9.99819C17.5185 12.4488 17.5077 12.7391 17.4647 13.7028C17.4253 14.5985 17.2749 15.0822 17.1495 15.4047C16.9846 15.831 16.784 16.1392 16.4651 16.458C16.1427 16.7805 15.8381 16.9775 15.4118 17.1423C15.0893 17.2677 14.6021 17.4182 13.7099 17.4576C12.7426 17.5006 12.4524 17.5114 10.0053 17.5114C7.55464 17.5114 7.26443 17.5006 6.30065 17.4576C5.40494 17.4182 4.92126 17.2677 4.59881 17.1423C4.17245 16.9775 3.86433 16.7769 3.54545 16.458C3.223 16.1356 3.02594 15.831 2.86113 15.4047C2.73573 15.0822 2.58526 14.595 2.54584 13.7028C2.50285 12.7355 2.4921 12.4453 2.4921 9.99819C2.4921 7.54753 2.50285 7.25732 2.54584 6.29354C2.58526 5.39784 2.73573 4.91415 2.86113 4.5917C3.02594 4.16534 3.22658 3.85722 3.54545 3.53835C3.86791 3.21589 4.17245 3.01884 4.59881 2.85403C4.92126 2.72863 5.40852 2.57815 6.30065 2.53874C7.26443 2.49575 7.55464 2.485 10.0053 2.485ZM10.0053 0.833313C7.51523 0.833313 7.20352 0.844061 6.22541 0.887055C5.25088 0.930049 4.58089 1.08769 4.00047 1.31341C3.39497 1.54988 2.88263 1.86158 2.37387 2.37393C1.86152 2.88269 1.54982 3.39504 1.31335 3.99695C1.08763 4.58095 0.929988 5.24736 0.886994 6.22189C0.844 7.20358 0.833252 7.51529 0.833252 10.0054C0.833252 12.4954 0.844 12.8071 0.886994 13.7852C0.929988 14.7598 1.08763 15.4298 1.31335 16.0102C1.54982 16.6157 1.86152 17.128 2.37387 17.6368C2.88263 18.1455 3.39497 18.4608 3.99689 18.6937C4.58089 18.9194 5.2473 19.0771 6.22183 19.1201C7.19994 19.1631 7.51164 19.1738 10.0017 19.1738C12.4918 19.1738 12.8035 19.1631 13.7816 19.1201C14.7561 19.0771 15.4261 18.9194 16.0065 18.6937C16.6084 18.4608 17.1208 18.1455 17.6296 17.6368C18.1383 17.128 18.4536 16.6157 18.6865 16.0138C18.9122 15.4298 19.0699 14.7633 19.1128 13.7888C19.1558 12.8107 19.1666 12.499 19.1666 10.0089C19.1666 7.51887 19.1558 7.20716 19.1128 6.22905C19.0699 5.25452 18.9122 4.58453 18.6865 4.00412C18.4608 3.39504 18.1491 2.88269 17.6367 2.37393C17.128 1.86517 16.6156 1.54988 16.0137 1.31699C15.4297 1.09128 14.7633 0.933632 13.7888 0.890638C12.8071 0.844061 12.4954 0.833313 10.0053 0.833313Z" fill="#BDA67A"/>
<path d="M10.0053 5.29393C7.40416 5.29393 5.29387 7.40422 5.29387 10.0054C5.29387 12.6065 7.40416 14.7168 10.0053 14.7168C12.6064 14.7168 14.7167 12.6065 14.7167 10.0054C14.7167 7.40422 12.6064 5.29393 10.0053 5.29393ZM10.0053 13.0615C8.31778 13.0615 6.94914 11.6929 6.94914 10.0054C6.94914 8.31784 8.31778 6.9492 10.0053 6.9492C11.6928 6.9492 13.0614 8.31784 13.0614 10.0054C13.0614 11.6929 11.6928 13.0615 10.0053 13.0615Z" fill="#BDA67A"/>
<path d="M16.0029 5.10764C16.0029 5.71672 15.5085 6.20757 14.903 6.20757C14.2939 6.20757 13.8031 5.71314 13.8031 5.10764C13.8031 4.49856 14.2975 4.00771 14.903 4.00771C15.5085 4.00771 16.0029 4.50214 16.0029 5.10764Z" fill="#BDA67A"/>
</svg>
