<svg width="20" height="20" viewBox="0 0 20 20" fill="none" xmlns="http://www.w3.org/2000/svg">
<g clip-path="url(#clip0_3390_1938)">
<path d="M14.7435 9.26961C14.6574 9.22832 14.5699 9.18858 14.4812 9.15053C14.3269 6.30606 12.7726 4.6776 10.1628 4.66094C10.151 4.66086 10.1392 4.66086 10.1274 4.66086C8.56637 4.66086 7.26811 5.32718 6.46904 6.53966L7.90435 7.52425C8.50129 6.61857 9.43812 6.4255 10.1281 6.4255C10.136 6.4255 10.144 6.4255 10.1519 6.42557C11.0112 6.43105 11.6597 6.6809 12.0794 7.16813C12.3848 7.52284 12.589 8.01302 12.6902 8.63165C11.9283 8.50216 11.1044 8.46234 10.2235 8.51284C7.74224 8.65577 6.14707 10.1029 6.25421 12.1137C6.30857 13.1337 6.81672 14.0112 7.68498 14.5845C8.41908 15.0691 9.36456 15.306 10.3472 15.2524C11.6449 15.1812 12.6629 14.6861 13.3731 13.7808C13.9125 13.0933 14.2536 12.2024 14.4042 11.0798C15.0227 11.453 15.481 11.9442 15.7341 12.5346C16.1646 13.5382 16.1897 15.1875 14.8439 16.5321C13.6649 17.71 12.2476 18.2196 10.1057 18.2353C7.72969 18.2177 5.93277 17.4557 4.76447 15.9705C3.67045 14.5798 3.10505 12.571 3.08396 10C3.10505 7.42894 3.67045 5.42017 4.76447 4.02945C5.93277 2.54426 7.72965 1.78229 10.1056 1.76464C12.4988 1.78243 14.3271 2.54806 15.5401 4.04042C16.1349 4.77225 16.5833 5.69258 16.8789 6.76566L18.5609 6.3169C18.2026 4.99606 17.6387 3.85789 16.8714 2.91396C15.3163 1.0007 13.042 0.0203279 10.1115 0H10.0998C7.17525 0.0202573 4.92634 1.00435 3.41553 2.92493C2.07111 4.634 1.37762 7.01205 1.35432 9.99297L1.35425 10L1.35432 10.007C1.37762 12.9879 2.07111 15.366 3.41553 17.0751C4.92634 18.9956 7.17525 19.9798 10.0998 20H10.1115C12.7115 19.982 14.5442 19.3013 16.054 17.7928C18.0294 15.8194 17.9699 13.3457 17.3188 11.8272C16.8517 10.7382 15.9612 9.85377 14.7435 9.26961ZM10.2543 13.4903C9.1668 13.5516 8.037 13.0634 7.98129 12.0179C7.94 11.2427 8.53298 10.3777 10.321 10.2747C10.5258 10.2629 10.7267 10.2571 10.9241 10.2571C11.5736 10.2571 12.1812 10.3202 12.7336 10.4409C12.5276 13.0141 11.319 13.4319 10.2543 13.4903Z" fill="#BDA67A"/>
</g>
<defs>
<clipPath id="clip0_3390_1938">
<rect width="20" height="20" fill="white"/>
</clipPath>
</defs>
</svg>
