<svg width="320" height="175" viewBox="0 0 320 175" fill="none" xmlns="http://www.w3.org/2000/svg">
<g clip-path="url(#clip0_2004_2292)">
<path d="M341 -11H-15V184H341V-11Z" fill="#F2ECE1"/>
<path d="M341 -11H-15V184H341V-11Z" fill="url(#paint0_linear_2004_2292)"/>
<path d="M8.76703 -16.0218C10.057 -12.6418 10.147 -8.23177 13.337 -6.53177C16.377 -4.91177 20.247 -7.01177 23.527 -5.94177C30.257 -3.74177 28.057 8.29823 34.487 11.2582C35.587 11.7682 36.867 11.9382 37.807 12.6982C38.937 13.6082 39.317 15.1382 39.637 16.5582C39.957 17.9982 40.267 19.5682 39.637 20.8982C38.677 22.9182 36.027 23.4582 33.797 23.2682C29.047 22.8482 24.537 20.1682 21.917 16.1782C20.997 14.7882 20.267 13.2082 18.927 12.2082C16.857 10.6682 13.937 10.9782 11.497 11.8282C9.05703 12.6782 6.73703 13.9882 4.16703 14.2682C-1.52297 14.8982 -6.58297 10.2082 -8.95297 4.99823C-9.56297 3.64823 -10.173 2.11823 -11.523 1.50823C-12.343 1.13823 -13.273 1.18823 -14.163 1.14823C-21.043 0.84823 -26.643 -5.39177 -27.813 -12.1518C-28.653 -16.9718 -26.663 -23.0618 -21.853 -23.9018C-18.333 -24.5218 -15.653 -22.0218 -12.353 -21.5718C-9.18297 -21.1518 -7.56297 -22.8218 -4.48297 -23.2718C0.807029 -24.0418 6.81703 -21.1318 8.76703 -16.0118V-16.0218Z" fill="white"/>
<path d="M267.447 7.46822C268.027 8.97822 268.067 10.9582 269.487 11.7182C270.847 12.4482 272.587 11.5082 274.047 11.9782C277.057 12.9582 276.077 18.3582 278.957 19.6782C279.447 19.9082 280.027 19.9782 280.447 20.3282C280.957 20.7382 281.127 21.4182 281.267 22.0582C281.407 22.7082 281.547 23.4082 281.267 23.9982C280.837 24.9082 279.647 25.1482 278.647 25.0582C276.517 24.8682 274.497 23.6682 273.327 21.8882C272.917 21.2682 272.587 20.5582 271.987 20.1082C271.057 19.4182 269.757 19.5582 268.657 19.9382C267.557 20.3182 266.527 20.9082 265.377 21.0282C262.827 21.3082 260.557 19.2082 259.497 16.8782C259.227 16.2782 258.947 15.5882 258.347 15.3182C257.977 15.1482 257.567 15.1782 257.167 15.1582C254.097 15.0182 251.587 12.2282 251.057 9.19822C250.677 7.03822 251.577 4.31822 253.727 3.93822C255.307 3.65822 256.507 4.77822 257.977 4.97822C259.447 5.17822 260.117 4.41822 261.497 4.21822C263.867 3.87822 266.557 5.17822 267.427 7.46822H267.447Z" fill="white"/>
<path d="M249.607 99.5982C252.477 107.128 252.677 116.968 259.787 120.758C266.567 124.368 275.197 119.688 282.497 122.078C297.497 126.968 292.597 153.828 306.927 160.418C309.387 161.548 312.227 161.938 314.327 163.638C316.847 165.668 317.697 169.078 318.397 172.238C319.107 175.448 319.797 178.948 318.397 181.918C316.257 186.428 310.347 187.628 305.377 187.188C294.787 186.258 284.747 180.268 278.897 171.388C276.857 168.288 275.207 164.768 272.227 162.548C267.607 159.118 261.107 159.818 255.677 161.698C250.247 163.578 245.067 166.508 239.347 167.128C226.657 168.518 215.377 158.088 210.107 146.458C208.747 143.458 207.377 140.038 204.377 138.678C202.557 137.858 200.477 137.968 198.487 137.878C183.197 137.188 170.727 123.278 168.097 108.208C166.227 97.4782 170.657 83.9082 181.387 82.0282C189.237 80.6482 195.207 86.2282 202.567 87.2082C209.637 88.1482 213.237 84.4082 220.107 83.4082C231.897 81.6882 245.287 88.1682 249.637 99.5882L249.607 99.5982Z" fill="url(#paint1_linear_2004_2292)"/>
<path d="M183.247 17.5581C182.717 17.4881 182.187 17.4281 181.657 17.3781C180.597 17.2681 179.537 17.1881 178.477 17.1281C176.977 17.0381 175.467 16.9881 173.967 16.9581C174.787 16.1081 175.587 15.2381 176.377 14.3581C176.977 13.6781 177.567 12.9881 178.147 12.2781C178.437 11.9281 178.717 11.5681 178.997 11.2081C179.277 10.8481 179.547 10.4781 179.817 10.0981C179.437 10.3581 179.077 10.6381 178.707 10.9181C178.347 11.1981 177.987 11.4781 177.637 11.7681C176.927 12.3481 176.237 12.9381 175.557 13.5381C174.677 14.3281 173.807 15.1281 172.957 15.9481C172.937 14.4481 172.877 12.9381 172.787 11.4381C172.717 10.3781 172.637 9.31812 172.537 8.25812C172.487 7.72812 172.427 7.19813 172.357 6.66813C172.287 6.13813 172.217 5.60812 172.117 5.07812C172.017 5.60812 171.947 6.13813 171.877 6.66813C171.807 7.19813 171.747 7.72812 171.697 8.25812C171.587 9.31812 171.507 10.3781 171.447 11.4381C171.357 12.9381 171.307 14.4381 171.277 15.9481C170.427 15.1281 169.557 14.3281 168.677 13.5381C167.997 12.9381 167.307 12.3481 166.597 11.7681C166.247 11.4781 165.887 11.1981 165.527 10.9181C165.167 10.6381 164.797 10.3681 164.417 10.0981C164.677 10.4781 164.957 10.8381 165.237 11.2081C165.517 11.5681 165.797 11.9281 166.087 12.2781C166.667 12.9881 167.257 13.6781 167.857 14.3581C168.637 15.2381 169.447 16.1081 170.267 16.9581C168.767 16.9781 167.267 17.0381 165.757 17.1281C164.697 17.1981 163.637 17.2781 162.577 17.3781C162.047 17.4381 161.517 17.4881 160.987 17.5581C160.457 17.6281 159.927 17.6981 159.397 17.7981C159.927 17.8981 160.457 17.9681 160.987 18.0381C161.517 18.1081 162.047 18.1681 162.577 18.2181C163.637 18.3281 164.697 18.4081 165.757 18.4681C167.257 18.5581 168.757 18.6081 170.267 18.6381C169.447 19.4881 168.647 20.3581 167.857 21.2381C167.257 21.9181 166.667 22.6081 166.087 23.3181C165.797 23.6681 165.517 24.0281 165.237 24.3881C164.957 24.7481 164.687 25.1181 164.417 25.4981C164.797 25.2381 165.157 24.9581 165.527 24.6781C165.887 24.3981 166.247 24.1181 166.597 23.8281C167.307 23.2481 167.997 22.6581 168.677 22.0581C169.557 21.2781 170.427 20.4681 171.277 19.6481C171.297 21.1481 171.357 22.6481 171.447 24.1581C171.517 25.2181 171.597 26.2781 171.697 27.3381C171.757 27.8681 171.807 28.3981 171.877 28.9281C171.947 29.4581 172.017 29.9881 172.117 30.5181C172.217 29.9881 172.287 29.4581 172.357 28.9281C172.427 28.3981 172.487 27.8681 172.537 27.3381C172.647 26.2781 172.727 25.2181 172.787 24.1581C172.877 22.6581 172.927 21.1581 172.957 19.6481C173.807 20.4681 174.677 21.2681 175.557 22.0581C176.237 22.6581 176.927 23.2481 177.637 23.8281C177.987 24.1181 178.347 24.3981 178.707 24.6781C179.067 24.9581 179.437 25.2281 179.817 25.4981C179.557 25.1181 179.277 24.7581 178.997 24.3881C178.717 24.0281 178.437 23.6681 178.147 23.3181C177.567 22.6081 176.977 21.9181 176.377 21.2381C175.587 20.3581 174.787 19.4881 173.967 18.6381C175.467 18.6181 176.977 18.5581 178.477 18.4681C179.537 18.3981 180.597 18.3181 181.657 18.2181C182.187 18.1681 182.717 18.1081 183.247 18.0381C183.777 17.9681 184.307 17.8981 184.837 17.7981C184.307 17.6981 183.777 17.6281 183.247 17.5581Z" fill="#D5BB8D"/>
<path d="M298.707 102.978C300.027 106.448 300.117 110.978 303.397 112.728C306.517 114.388 310.497 112.238 313.857 113.338C320.767 115.598 318.507 127.968 325.117 131.008C326.247 131.528 327.557 131.708 328.527 132.488C329.687 133.428 330.077 134.998 330.407 136.448C330.737 137.928 331.057 139.538 330.407 140.908C329.417 142.988 326.697 143.538 324.407 143.338C319.527 142.908 314.897 140.148 312.207 136.058C311.267 134.628 310.507 133.008 309.137 131.988C307.007 130.408 304.017 130.728 301.507 131.598C298.997 132.468 296.617 133.808 293.987 134.098C288.137 134.738 282.947 129.928 280.517 124.578C279.887 123.198 279.257 121.618 277.877 120.998C277.037 120.618 276.077 120.668 275.157 120.628C268.117 120.308 262.367 113.898 261.157 106.958C260.297 102.018 262.337 95.7582 267.277 94.8982C270.897 94.2682 273.647 96.8382 277.037 97.2882C280.297 97.7282 281.957 95.9982 285.117 95.5382C290.547 94.7482 296.717 97.7282 298.727 102.998L298.707 102.978Z" fill="#F2ECE1"/>
<path d="M50.497 47.6983C49.137 45.1983 46.217 43.6483 43.387 43.9283C40.557 44.2083 37.987 46.2883 37.137 49.0083C34.537 48.3783 32.577 46.2983 30.317 44.8583C24.927 41.4483 17.327 42.0383 12.527 46.2283C7.72701 50.4283 6.13701 57.8883 8.80701 63.6783C11.437 69.3783 17.327 72.8283 23.177 75.1183C29.027 77.4083 35.277 78.9383 40.467 82.4683C42.887 84.1183 45.017 86.1583 47.407 87.8483C56.147 93.9983 68.417 94.6583 77.767 89.4883C82.817 86.6983 88.077 82.1883 93.577 83.9483C95.127 84.4483 96.597 85.4383 98.217 85.3083C99.447 85.2083 100.547 84.4583 101.347 83.5183C104.267 80.0783 103.077 74.2583 99.407 71.6383C95.737 69.0183 90.437 69.4183 86.707 71.9483C81.067 65.5683 72.277 62.1183 63.797 62.9683C62.937 63.0583 61.897 63.1083 61.397 62.4083C60.987 61.8483 61.137 61.0683 61.227 60.3783C62.177 52.5683 53.337 52.9183 50.507 47.7083L50.497 47.6983Z" fill="#AC8E60"/>
<path d="M195.117 33.8183C194.877 36.8083 190.697 37.8983 187.987 36.5983C185.277 35.2983 183.527 32.6383 181.257 30.6783C177.447 27.3683 170.977 26.3683 167.617 30.1383C165.487 32.5183 165.237 36.1883 166.407 39.1583C167.567 42.1283 169.947 44.4883 172.557 46.3283C176.407 49.0383 180.917 50.8083 185.577 51.4283C190.197 52.0483 195.727 51.9583 198.387 55.7883C199.207 56.9583 199.617 58.3683 200.397 59.5683C203.147 63.8383 209.397 64.1383 214.197 62.4983C217.847 61.2483 222.067 59.2283 225.237 61.4183C227.217 62.7883 227.927 65.3283 229.127 67.4283C233.317 74.7583 243.177 76.2083 251.617 76.0983C253.327 76.0783 255.127 76.0483 256.617 76.8783C257.587 77.4183 258.327 78.2783 259.207 78.9483C263.437 82.1683 269.477 80.3483 274.377 78.2783C279.277 76.2083 285.087 74.0683 289.617 76.8483C291.437 77.9583 292.757 79.7383 294.527 80.9283C299.157 84.0183 306.127 81.8383 308.907 77.0183C311.687 72.1983 310.547 65.7083 306.947 61.4683C303.347 57.2183 297.707 55.0683 292.147 54.7783C288.617 54.5983 284.897 55.1783 282.097 57.3383C278.447 60.1583 271.757 57.8583 268.927 54.2183C259.957 42.6683 249.437 44.1883 239.697 39.1683C238.217 38.4083 236.697 37.6183 235.597 36.3683C233.917 34.4683 233.467 31.8183 232.937 29.3383C232.407 26.8583 231.597 24.2083 229.527 22.7383C227.457 21.2783 223.837 21.9683 223.367 24.4683C218.327 19.8683 211.387 16.7383 204.707 18.1183C198.027 19.4983 192.467 26.5883 194.397 33.1283C194.927 32.2683 194.597 34.6683 195.127 33.8083L195.117 33.8183Z" fill="#AC8E60"/>
<path d="M286.377 23.7482C285.757 24.9182 285.097 26.1182 284.357 27.2682C283.507 28.6082 282.557 29.8682 281.437 30.9282C281.507 31.0082 281.577 31.0982 281.637 31.1982C282.177 31.9782 282.327 33.0082 282.167 33.9582C281.997 35.0182 281.477 35.9882 280.867 36.8682C280.327 37.6682 279.747 38.4182 279.097 39.1082C278.617 39.6082 278.097 40.0782 277.527 40.4882C277.607 40.6782 277.677 40.8682 277.717 41.0582C278.227 43.1582 276.677 45.4682 274.717 46.5482C272.577 47.7382 270.047 47.9482 267.687 48.5882C267.057 48.7582 266.347 49.0282 266.107 49.6382C265.677 50.7282 266.957 51.6482 268.007 52.1582C272.257 54.1882 276.127 57.0282 279.357 60.4682C279.607 60.7382 279.867 61.0382 279.937 61.3982C280.097 62.2982 279.067 62.9182 278.217 63.2382C275.557 64.2582 272.857 65.2882 270.047 65.6082C269.557 65.6682 269.067 65.6982 268.567 65.7082H268.247C265.017 65.6882 261.617 64.3882 259.917 61.6382C258.557 59.4282 258.367 56.4782 256.417 54.7582C253.977 52.6182 250.247 53.5382 247.017 53.9082C242.897 54.3882 238.637 53.7182 234.857 51.9882C234.007 51.6082 233.137 51.1282 232.677 50.3082C232.357 49.7482 232.167 48.9582 232.367 48.3982C232.457 48.1582 232.617 47.9582 232.867 47.8382C232.467 47.7382 232.077 47.6382 231.687 47.5382C231.567 47.5182 231.457 47.4882 231.347 47.4582C229.337 46.9682 227.137 46.3282 226.047 44.5782C225.507 43.7082 225.297 42.7082 225.997 42.0882C226.057 42.0382 226.127 41.9882 226.197 41.9382C225.977 41.8982 225.757 41.8582 225.537 41.8182C223.857 41.4882 222.167 41.0582 220.817 40.0282C219.297 38.8582 218.397 36.6382 219.317 34.9582C226.747 34.7682 233.917 37.4382 241.277 38.5082C242.337 38.6582 243.697 38.5782 244.327 37.8582C244.477 37.6882 244.587 37.4782 244.637 37.2282C244.707 36.9082 244.647 36.5982 244.517 36.3182C244.267 35.7782 243.737 35.3282 243.187 35.0682C242.337 34.6682 241.367 34.5282 240.587 34.0082C240.677 32.8082 242.407 32.7182 243.377 31.9982C244.647 31.0782 244.477 29.1682 245.077 27.7282C245.887 25.7882 248.137 24.7782 250.237 24.7582C251.957 24.7282 253.827 25.3582 254.717 26.8382C255.337 27.8682 255.397 29.1182 255.667 30.2782C255.937 31.4482 256.587 32.6882 257.747 32.9782C258.637 32.5782 259.517 32.1882 260.407 31.7882C266.967 28.8282 273.187 23.9782 278.967 19.6882C280.137 18.8282 281.287 17.8682 282.677 17.4182C284.057 16.9582 285.767 17.1182 286.717 18.2282C287.987 19.7282 287.307 22.0182 286.377 23.7482Z" fill="#F2ECE1"/>
<path d="M251.567 48.5481C251.397 48.8981 250.857 48.7581 250.527 48.5481C248.127 47.0181 246.377 44.5081 245.777 41.7281C245.437 40.1681 244.917 39.1581 244.327 37.8581C244.477 37.6881 244.587 37.4781 244.637 37.2281C244.707 36.9081 244.647 36.5981 244.517 36.3181H244.637C247.377 36.4081 246.827 42.3781 247.747 44.3081C248.417 45.7281 249.497 46.9981 250.917 47.6781C251.277 47.8581 251.747 48.1781 251.567 48.5481Z" fill="#D5BB8D"/>
<path d="M248.647 31.7482C249.216 31.7482 249.677 31.2871 249.677 30.7182C249.677 30.1494 249.216 29.6882 248.647 29.6882C248.078 29.6882 247.617 30.1494 247.617 30.7182C247.617 31.2871 248.078 31.7482 248.647 31.7482Z" fill="#750D33"/>
<path d="M281.437 30.9283C281.507 31.0083 281.577 31.0983 281.637 31.1983C280.017 32.2683 278.137 33.0983 277.007 33.6383C275.147 34.5183 273.277 35.3783 271.397 36.1983C270.217 36.7183 268.977 37.2383 267.697 37.1483C267.477 37.1383 267.217 37.0783 267.127 36.8783C266.997 36.5983 267.277 36.3183 267.527 36.1483C268.957 35.1883 270.567 34.5683 272.147 33.9183C274.467 32.9583 276.757 31.9183 278.927 30.6683C280.237 29.9083 282.777 27.3383 284.357 27.2683C283.507 28.6083 282.557 29.8683 281.437 30.9283Z" fill="#D5BB8D"/>
<path d="M277.527 40.4882C277.607 40.6782 277.677 40.8682 277.717 41.0582C275.887 41.7782 274.047 42.4682 272.177 43.0582C271.107 43.3982 269.977 43.7182 268.867 43.5382C268.607 43.4982 268.297 43.3782 268.277 43.1182C268.247 42.8482 268.527 42.6682 268.767 42.5582C270.587 41.7182 272.537 41.2682 274.457 40.7482C275.807 40.3882 277.607 39.4182 279.097 39.1082C278.617 39.6082 278.097 40.0782 277.527 40.4882Z" fill="#D5BB8D"/>
<path d="M270.047 65.6083C269.557 65.6683 269.067 65.6983 268.567 65.7083H268.247C267.707 65.3183 267.217 64.7983 266.977 64.5483C265.327 62.8183 263.817 60.9383 262.647 58.8383C262.347 58.3083 262.077 57.6183 262.427 57.1183C262.617 57.0083 262.827 57.2183 262.947 57.3983C264.447 59.7083 266.247 61.8183 268.267 63.6783C268.647 64.0183 270.087 64.8883 270.047 65.6083Z" fill="#D5BB8D"/>
<path d="M268.557 56.8082C268.077 56.2682 267.497 55.6682 266.667 55.6482C266.457 56.0582 266.817 56.5082 267.167 56.8582C268.037 57.7382 274.707 64.7082 275.527 64.1682C276.717 63.3882 269.357 57.7082 268.547 56.8082H268.557Z" fill="#D5BB8D"/>
<path d="M238.857 43.5683C238.627 43.7783 238.337 43.9183 238.027 43.9583C237.657 44.0183 237.277 43.9183 236.907 43.8283C234.787 43.2683 232.667 42.6083 230.487 42.3483C229.107 42.1883 227.347 42.5583 225.997 42.0883C226.057 42.0383 226.127 41.9883 226.197 41.9383C225.977 41.8983 225.757 41.8583 225.537 41.8183C226.897 41.0883 229.217 41.4383 230.737 41.6583C232.817 41.9683 234.867 42.5083 236.957 42.7183C237.677 42.7983 238.537 42.9183 238.857 43.5683Z" fill="#D5BB8D"/>
<path d="M243.137 48.0082C242.757 48.5582 241.927 48.3982 241.287 48.2182C238.607 47.4682 235.717 47.4682 233.037 48.2182C232.807 48.2782 232.587 48.3482 232.367 48.3882C232.457 48.1482 232.617 47.9482 232.867 47.8282C232.467 47.7282 232.077 47.6282 231.687 47.5282C233.547 46.2182 239.837 47.1082 241.437 47.2482C242.087 47.2982 242.827 47.4282 243.137 47.9982V48.0082Z" fill="#D5BB8D"/>
<path d="M20.6872 11.2683C19.3772 10.5083 17.8272 10.3183 16.3272 10.1583C13.9672 9.9083 11.5572 9.6683 9.23725 10.1683C7.22725 10.5983 5.22725 11.7183 4.40725 13.6083C3.31725 16.1383 4.72725 19.0883 6.60725 21.1183C9.37725 24.1183 13.2472 26.0783 17.2972 26.5483C20.2872 26.8983 23.4272 26.4783 26.2272 27.5783C28.9672 28.6483 31.5272 31.1383 34.3672 30.3783C36.3272 29.8583 37.6272 27.6683 37.3172 25.6583C36.5372 20.5983 31.2672 22.4283 28.0872 20.7383C24.2872 18.7283 24.3972 13.4383 20.6872 11.2683Z" fill="#D5BB8D"/>
<path d="M29.3872 121.148C27.4672 119.018 26.0772 116.428 24.0272 114.428C18.1172 108.678 6.98718 109.968 2.54718 116.918C1.13718 119.118 0.367181 121.748 0.527181 124.358C0.777181 128.408 3.22718 132.088 6.41718 134.588C7.46718 135.408 8.58718 136.118 9.75718 136.738C13.4472 138.698 16.1272 142.018 17.5472 145.958C18.6372 148.998 21.0672 151.728 23.9372 153.318C28.7272 155.968 34.4272 156.248 39.9072 156.468C45.3872 156.688 51.0872 156.988 55.8572 159.668C60.8872 162.488 64.5072 167.758 70.0272 169.428C74.0172 170.628 78.3672 169.708 82.2272 168.128C84.1772 167.328 86.1372 166.298 87.2972 164.538C88.8372 162.188 88.5472 158.968 87.1372 156.538C85.7272 154.108 83.3972 152.348 80.9472 150.978C76.4072 148.438 71.2672 146.978 66.0772 146.768C65.0672 141.678 64.0272 136.518 61.6172 131.928C59.2072 127.338 55.1872 123.318 50.1272 122.168C42.1972 120.358 35.9472 128.448 29.3772 121.138L29.3872 121.148Z" fill="#AC8E60"/>
<path d="M273.667 159.478C270.897 159.798 267.017 158.258 265.107 156.218C263.417 154.408 262.107 152.268 260.497 150.388C257.247 146.598 252.637 143.848 247.657 143.428C242.677 143.008 237.427 145.148 234.617 149.278C231.207 154.298 232.017 161.478 235.737 166.268C239.457 171.058 245.597 173.588 251.657 173.888C254.657 174.038 257.707 173.688 260.657 174.258C265.787 175.248 269.997 178.828 274.797 180.898C278.157 182.348 282.437 182.748 285.587 181.298C288.447 179.988 291.687 179.988 294.757 180.708C296.547 181.128 298.377 181.168 300.247 180.518C302.257 179.808 303.837 178.098 304.067 175.978C304.437 172.528 301.227 170.438 298.177 169.888C297.887 169.838 297.597 169.798 297.307 169.758C293.757 169.328 290.507 167.528 288.127 164.868C284.797 161.148 278.447 158.938 273.667 159.488V159.478Z" fill="#AC8E60"/>
<path d="M44.2672 103.548C43.9272 103.508 43.5872 103.468 43.2472 103.428C42.5672 103.358 41.8872 103.308 41.1972 103.268C40.2272 103.208 39.2572 103.178 38.2972 103.158C38.8272 102.608 39.3472 102.048 39.8472 101.478C40.2372 101.038 40.6172 100.598 40.9872 100.138C41.1772 99.9083 41.3572 99.6783 41.5372 99.4483C41.7172 99.2183 41.8972 98.9783 42.0672 98.7383C41.8272 98.9083 41.5872 99.0883 41.3572 99.2683C41.1272 99.4483 40.8972 99.6283 40.6672 99.8183C40.2172 100.188 39.7672 100.568 39.3272 100.958C38.7572 101.468 38.1972 101.978 37.6472 102.508C37.6272 101.538 37.5972 100.568 37.5372 99.6083C37.4972 98.9283 37.4472 98.2483 37.3772 97.5583C37.3372 97.2183 37.3072 96.8783 37.2572 96.5383C37.2172 96.1983 37.1672 95.8583 37.1072 95.5183C37.0472 95.8583 36.9972 96.1983 36.9572 96.5383C36.9172 96.8783 36.8772 97.2183 36.8372 97.5583C36.7672 98.2383 36.7172 98.9183 36.6772 99.6083C36.6172 100.578 36.5872 101.548 36.5672 102.508C36.0172 101.978 35.4572 101.458 34.8872 100.958C34.4472 100.568 34.0072 100.188 33.5472 99.8183C33.3172 99.6283 33.0872 99.4483 32.8572 99.2683C32.6272 99.0883 32.3872 98.9083 32.1472 98.7383C32.3172 98.9783 32.4972 99.2183 32.6772 99.4483C32.8572 99.6783 33.0372 99.9083 33.2272 100.138C33.5972 100.588 33.9772 101.038 34.3672 101.478C34.8772 102.048 35.3872 102.608 35.9172 103.148C34.9472 103.168 33.9772 103.198 33.0172 103.258C32.3372 103.298 31.6572 103.348 30.9672 103.418C30.6272 103.458 30.2872 103.488 29.9472 103.538C29.6072 103.578 29.2672 103.628 28.9272 103.688C29.2672 103.748 29.6072 103.798 29.9472 103.838C30.2872 103.878 30.6272 103.918 30.9672 103.958C31.6472 104.028 32.3272 104.078 33.0172 104.118C33.9872 104.178 34.9572 104.208 35.9172 104.228C35.3872 104.778 34.8772 105.338 34.3672 105.898C33.9772 106.338 33.5972 106.778 33.2272 107.238C33.0372 107.468 32.8572 107.698 32.6772 107.928C32.4972 108.158 32.3172 108.398 32.1472 108.638C32.3872 108.468 32.6272 108.288 32.8572 108.108C33.0872 107.928 33.3172 107.748 33.5472 107.558C33.9972 107.188 34.4472 106.808 34.8872 106.418C35.4572 105.908 36.0172 105.398 36.5572 104.868C36.5772 105.838 36.6072 106.808 36.6672 107.768C36.7072 108.448 36.7572 109.128 36.8272 109.818C36.8672 110.158 36.8972 110.498 36.9472 110.838C36.9872 111.178 37.0372 111.518 37.0972 111.858C37.1572 111.518 37.2072 111.178 37.2472 110.838C37.2872 110.498 37.3272 110.158 37.3672 109.818C37.4372 109.138 37.4872 108.458 37.5272 107.768C37.5872 106.798 37.6172 105.828 37.6372 104.868C38.1872 105.398 38.7472 105.908 39.3172 106.418C39.7572 106.808 40.1972 107.188 40.6572 107.558C40.8872 107.748 41.1172 107.928 41.3472 108.108C41.5772 108.288 41.8172 108.468 42.0572 108.638C41.8872 108.398 41.7072 108.158 41.5272 107.928C41.3472 107.698 41.1672 107.468 40.9772 107.238C40.6072 106.788 40.2272 106.338 39.8372 105.898C39.3272 105.328 38.8172 104.768 38.2872 104.218C39.2572 104.198 40.2272 104.168 41.1872 104.108C41.8672 104.068 42.5472 104.018 43.2372 103.948C43.5772 103.908 43.9172 103.878 44.2572 103.828C44.5972 103.788 44.9372 103.738 45.2772 103.678C44.9372 103.618 44.5972 103.568 44.2572 103.528L44.2672 103.548Z" fill="white"/>
<path d="M247.047 115.788C246.657 115.738 246.267 115.698 245.877 115.658C245.097 115.578 244.317 115.518 243.537 115.468C242.427 115.398 241.317 115.358 240.217 115.348C240.817 114.718 241.417 114.078 241.997 113.428C242.437 112.928 242.877 112.418 243.297 111.898C243.507 111.638 243.717 111.378 243.927 111.108C244.137 110.838 244.337 110.568 244.527 110.298C244.247 110.488 243.977 110.698 243.717 110.898C243.447 111.108 243.187 111.318 242.927 111.528C242.407 111.948 241.897 112.388 241.397 112.828C240.747 113.408 240.107 113.998 239.477 114.608C239.457 113.498 239.417 112.388 239.357 111.288C239.307 110.508 239.247 109.728 239.167 108.948C239.127 108.558 239.087 108.168 239.037 107.778C238.987 107.388 238.937 106.998 238.867 106.608C238.797 106.998 238.747 107.388 238.697 107.778C238.647 108.168 238.607 108.558 238.567 108.948C238.487 109.728 238.427 110.508 238.377 111.288C238.307 112.398 238.267 113.498 238.257 114.608C237.627 114.008 236.987 113.408 236.337 112.838C235.837 112.398 235.327 111.958 234.807 111.538C234.547 111.328 234.287 111.118 234.017 110.908C233.747 110.698 233.477 110.498 233.197 110.308C233.387 110.588 233.597 110.858 233.797 111.128C234.007 111.398 234.217 111.658 234.427 111.918C234.847 112.438 235.287 112.948 235.727 113.448C236.307 114.098 236.897 114.738 237.497 115.368C236.387 115.388 235.287 115.428 234.177 115.488C233.397 115.538 232.617 115.598 231.837 115.678C231.447 115.718 231.057 115.758 230.667 115.808C230.277 115.858 229.887 115.918 229.497 115.988C229.887 116.058 230.277 116.118 230.667 116.168C231.057 116.218 231.447 116.258 231.837 116.298C232.617 116.378 233.397 116.438 234.177 116.488C235.287 116.558 236.387 116.588 237.497 116.608C236.897 117.238 236.297 117.868 235.727 118.528C235.287 119.028 234.847 119.538 234.427 120.058C234.217 120.318 234.007 120.578 233.797 120.848C233.587 121.118 233.387 121.388 233.197 121.668C233.477 121.478 233.747 121.268 234.017 121.068C234.287 120.858 234.547 120.648 234.807 120.438C235.327 120.018 235.837 119.578 236.337 119.138C236.987 118.558 237.627 117.968 238.257 117.368C238.277 118.478 238.317 119.578 238.377 120.688C238.427 121.468 238.487 122.248 238.567 123.028C238.607 123.418 238.647 123.808 238.697 124.198C238.747 124.588 238.807 124.978 238.877 125.368C238.947 124.978 239.007 124.588 239.057 124.198C239.107 123.808 239.147 123.418 239.187 123.028C239.267 122.248 239.327 121.468 239.377 120.688C239.447 119.578 239.487 118.478 239.497 117.368C240.127 117.968 240.767 118.568 241.417 119.138C241.917 119.578 242.427 120.018 242.947 120.438C243.207 120.648 243.467 120.858 243.737 121.068C244.007 121.278 244.277 121.478 244.547 121.668C244.357 121.388 244.147 121.118 243.947 120.858C243.737 120.588 243.527 120.328 243.317 120.068C242.897 119.548 242.457 119.038 242.017 118.538C241.437 117.888 240.847 117.248 240.237 116.618C241.347 116.598 242.457 116.558 243.557 116.498C244.337 116.448 245.117 116.388 245.897 116.308C246.287 116.268 246.677 116.228 247.067 116.178C247.457 116.128 247.847 116.078 248.237 116.008C247.847 115.938 247.457 115.888 247.067 115.838L247.047 115.788Z" fill="#FBD1A6"/>
<path d="M71.097 136.708L67.747 131.168L60.897 132.668L62.297 137.548L69.937 137.918L71.097 136.708Z" fill="#D5BB8D"/>
<path d="M83.117 110.558C83.117 110.558 83.087 110.538 83.077 110.538C82.987 110.058 83.277 109.518 83.627 109.058C83.837 108.808 84.057 108.578 84.247 108.398C85.117 107.588 85.787 106.508 85.877 105.318C85.957 104.138 85.357 102.868 84.277 102.388C83.527 102.048 82.657 102.118 81.857 102.268C79.377 102.748 77.117 103.968 74.977 105.298C72.667 106.728 70.457 108.318 68.357 110.028C68.307 110.058 68.267 110.098 68.227 110.128C68.737 109.198 69.337 108.188 69.607 107.148C69.697 106.818 69.757 106.488 69.767 106.158C69.827 104.768 69.027 103.238 67.667 102.938C67.367 102.878 67.037 102.858 66.737 102.808C66.457 102.748 66.197 102.648 66.007 102.428C66.067 102.388 66.117 102.348 66.167 102.298C66.857 101.738 67.197 100.748 66.997 99.8683C66.777 98.9283 65.937 98.1483 64.977 98.0183C64.447 97.9383 63.907 98.0483 63.387 98.1783C59.077 99.2783 55.497 102.498 53.317 106.378C51.137 110.248 50.657 115.078 50.467 119.528C48.707 118.188 46.397 117.448 44.247 117.948C42.097 118.448 40.227 120.348 40.147 122.558C40.107 123.428 40.317 124.398 39.797 125.098C39.157 125.988 37.547 126.148 37.437 127.248C38.827 126.948 40.357 127.538 41.187 128.688C41.767 129.488 42.007 130.478 42.317 131.418C43.517 135.018 46.087 138.128 49.377 139.998C52.677 141.868 56.677 142.458 60.377 141.638C62.557 142.498 63.227 145.178 64.527 147.118C65.907 149.188 68.227 150.518 70.657 151.068C71.177 151.188 71.697 151.268 72.227 151.328C72.737 151.378 73.247 151.408 73.767 151.408C75.197 151.438 76.647 151.288 78.067 151.058C78.217 151.028 78.377 150.998 78.537 150.968C79.017 150.868 79.507 150.728 79.967 150.548C81.237 150.048 82.317 149.218 82.427 147.918C78.237 144.978 74.527 141.358 71.497 137.248C71.097 136.708 70.707 136.158 70.137 135.818C68.397 134.798 66.107 136.318 64.187 135.708C63.947 135.338 64.167 134.828 64.537 134.578C64.897 134.338 65.347 134.298 65.777 134.248C71.837 133.548 77.497 130.018 80.807 124.908C81.457 123.908 82.037 122.758 81.847 121.578C81.687 120.628 80.797 119.768 79.897 119.748C79.687 119.738 79.477 119.778 79.277 119.878C79.377 119.248 79.807 118.608 80.327 118.118C80.577 117.878 80.847 117.668 81.117 117.518C82.417 116.788 83.347 115.508 83.907 114.128C84.167 113.488 84.357 112.798 84.267 112.108C84.167 111.428 83.757 110.778 83.117 110.558Z" fill="white"/>
<path d="M83.117 110.558C83.117 110.558 83.087 110.538 83.077 110.538C82.987 110.058 83.277 109.518 83.627 109.058C83.837 108.808 84.057 108.578 84.247 108.398C85.117 107.588 85.787 106.508 85.877 105.318C85.957 104.138 85.357 102.868 84.277 102.388C83.527 102.048 82.657 102.118 81.857 102.268C79.377 102.748 77.117 103.968 74.977 105.298C72.667 106.728 70.457 108.318 68.357 110.028C68.307 110.058 68.267 110.098 68.227 110.128C68.737 109.198 69.337 108.188 69.607 107.148C69.697 106.818 69.757 106.488 69.767 106.158C69.827 104.768 69.027 103.238 67.667 102.938C67.367 102.878 67.037 102.858 66.737 102.808C66.457 102.748 66.197 102.648 66.007 102.428C66.067 102.388 66.117 102.348 66.167 102.298C66.857 101.738 67.197 100.748 66.997 99.8683C66.777 98.9283 65.937 98.1483 64.977 98.0183C64.447 97.9383 63.907 98.0483 63.387 98.1783C59.077 99.2783 55.497 102.498 53.317 106.378C51.137 110.248 50.657 115.078 50.467 119.528C48.707 118.188 46.397 117.448 44.247 117.948C42.097 118.448 40.227 120.348 40.147 122.558C40.107 123.428 40.317 124.398 39.797 125.098C39.157 125.988 37.547 126.148 37.437 127.248C38.827 126.948 40.357 127.538 41.187 128.688C41.767 129.488 42.007 130.478 42.317 131.418C43.517 135.018 46.087 138.128 49.377 139.998C52.677 141.868 56.677 142.458 60.377 141.638C62.557 142.498 63.227 145.178 64.527 147.118C65.907 149.188 68.227 150.518 70.657 151.068C71.177 151.188 71.697 151.268 72.227 151.328C72.737 151.378 73.247 151.408 73.767 151.408C75.197 151.438 76.647 151.288 78.067 151.058C78.217 151.028 78.377 150.998 78.537 150.968C79.017 150.868 79.507 150.728 79.967 150.548C81.237 150.048 82.317 149.218 82.427 147.918C78.237 144.978 74.527 141.358 71.497 137.248C71.097 136.708 70.707 136.158 70.137 135.818C68.397 134.798 66.107 136.318 64.187 135.708C63.947 135.338 64.167 134.828 64.537 134.578C64.897 134.338 65.347 134.298 65.777 134.248C71.837 133.548 77.497 130.018 80.807 124.908C81.457 123.908 82.037 122.758 81.847 121.578C81.687 120.628 80.797 119.768 79.897 119.748C79.687 119.738 79.477 119.778 79.277 119.878C79.377 119.248 79.807 118.608 80.327 118.118C80.577 117.878 80.847 117.668 81.117 117.518C82.417 116.788 83.347 115.508 83.907 114.128C84.167 113.488 84.357 112.798 84.267 112.108C84.167 111.428 83.757 110.778 83.117 110.558Z" fill="url(#paint2_linear_2004_2292)"/>
<path d="M68.2272 110.128C68.2272 110.128 68.3172 110.058 68.3572 110.028C67.2072 111.118 66.0172 112.158 64.7472 113.088C63.0272 114.348 61.1472 115.408 59.6472 116.918C58.8772 117.688 58.0972 118.618 57.1472 119.018C56.7972 119.168 56.4772 118.738 56.7072 118.438C57.2472 117.718 57.8872 117.068 58.5272 116.438C59.9072 115.078 61.3272 113.768 62.7972 112.508C64.0872 111.398 65.4172 110.328 66.7772 109.298C67.2772 108.918 68.6072 107.628 69.6172 107.148C69.3472 108.188 68.7472 109.198 68.2372 110.128H68.2272Z" fill="#D5BB8D"/>
<path d="M43.5469 123.978C43.8369 124.248 44.2969 124.188 44.6769 124.058C45.3969 123.808 46.0469 123.378 46.5469 122.808C46.7369 123.158 46.5869 123.598 46.3369 123.908C45.8169 124.538 44.9769 124.778 44.1769 124.918C43.8369 124.978 43.4669 125.018 43.1769 124.828C43.0169 124.718 42.9069 124.558 42.8269 124.388C42.7269 124.188 42.6569 123.978 42.6169 123.758C42.5569 123.448 42.6269 122.778 43.0969 122.988C43.4269 123.138 43.2869 123.728 43.5469 123.978Z" fill="#750D33"/>
<path d="M66.737 102.808C66.677 102.958 66.567 103.108 66.437 103.218C66.127 103.488 65.717 103.608 65.337 103.758C63.077 104.618 61.187 106.268 59.677 108.158C58.167 110.048 56.997 112.178 55.797 114.278C55.567 114.678 54.977 115.818 54.697 115.068C54.457 114.438 55.397 113.138 55.667 112.658C56.767 110.648 58.017 108.728 59.397 106.898C60.127 105.948 60.897 105.008 61.857 104.278C63.127 103.318 64.647 102.778 66.167 102.298C66.117 102.348 66.067 102.388 66.007 102.428C66.197 102.648 66.457 102.748 66.737 102.808Z" fill="#D5BB8D"/>
<path d="M83.0772 110.538C83.0772 110.538 83.1072 110.548 83.1172 110.558C82.6272 110.828 82.1072 111.028 81.9172 111.098C79.0572 112.078 76.7172 114.128 74.2372 115.868C71.3572 117.888 68.2272 119.528 65.1072 121.158C64.7472 121.348 64.3572 121.538 63.9672 121.568C63.7872 121.578 63.6672 121.358 63.7672 121.198C64.1972 120.498 64.8972 119.978 65.5872 119.498C67.2272 118.338 68.9072 117.218 70.6072 116.138C73.5672 114.268 76.5972 112.518 79.6972 110.888C80.4072 110.518 82.5972 108.918 83.6272 109.058C83.2772 109.518 82.9872 110.058 83.0772 110.538Z" fill="#D5BB8D"/>
<path d="M79.2772 119.878C79.4772 119.778 79.6872 119.738 79.8972 119.748C79.5472 120.038 79.1172 120.258 78.7072 120.468C76.8272 121.448 75.0472 122.588 73.3772 123.888C72.2472 124.778 71.1572 125.738 69.9172 126.448C68.9672 126.998 67.8972 127.398 66.8172 127.458C66.5772 127.458 66.4772 127.148 66.6772 127.018C67.1472 126.718 67.6472 126.338 67.8472 126.208C68.5372 125.778 69.2272 125.318 69.9072 124.858C71.2572 123.928 72.5872 122.958 73.9372 122.008C75.3072 121.048 76.6872 120.098 78.1172 119.238C78.5372 118.988 79.7372 118.038 80.2272 118.088C80.2672 118.088 80.2972 118.088 80.3272 118.118C79.8072 118.608 79.3772 119.248 79.2772 119.878Z" fill="#D5BB8D"/>
<path d="M73.7671 151.318C73.7671 151.318 73.7771 151.378 73.7671 151.408C73.2471 151.408 72.7371 151.378 72.2271 151.328C71.3771 150.618 70.5571 149.848 69.9471 148.918C69.0471 147.508 68.6671 145.778 67.5771 144.508C67.0971 143.948 66.4471 143.278 66.7471 142.608C67.8771 143.228 68.6271 144.348 69.3771 145.408C70.1771 146.518 71.0171 147.608 71.8971 148.658C72.5271 149.408 73.6871 150.258 73.7671 151.318Z" fill="#D5BB8D"/>
<path d="M79.9668 150.548C79.5068 150.728 79.0168 150.868 78.5368 150.968C77.3468 150.238 76.5568 148.948 75.7068 147.878C74.2368 146.008 72.3568 144.528 70.7068 142.808C70.3168 142.398 69.9168 141.778 70.2268 141.308C73.2568 143.668 76.0868 146.288 78.6668 149.128C78.9368 149.438 79.6668 150.018 79.9668 150.548Z" fill="#D5BB8D"/>
<path d="M95.0071 15.4583C94.6671 16.0883 94.3171 16.7383 93.9171 17.3583C93.4571 18.0783 92.9471 18.7683 92.3371 19.3383C92.3771 19.3783 92.4171 19.4283 92.4471 19.4883C92.7371 19.9083 92.8171 20.4683 92.7371 20.9783C92.6471 21.5483 92.3671 22.0783 92.0371 22.5483C91.7471 22.9783 91.4271 23.3883 91.0771 23.7583C90.8171 24.0283 90.5371 24.2783 90.2271 24.5083C90.2671 24.6083 90.3071 24.7183 90.3271 24.8183C90.6071 25.9583 89.7671 27.1983 88.7071 27.7883C87.5471 28.4283 86.1771 28.5483 84.9071 28.8883C84.5671 28.9783 84.1871 29.1283 84.0571 29.4583C83.8271 30.0483 84.5171 30.5483 85.0871 30.8183C87.3871 31.9183 89.4771 33.4483 91.2271 35.3083C91.3671 35.4583 91.5071 35.6183 91.5371 35.8083C91.6271 36.2983 91.0671 36.6283 90.6071 36.7983C89.1671 37.3483 87.7071 37.9083 86.1871 38.0783C85.9271 38.1083 85.6571 38.1283 85.3871 38.1283H85.2171C83.4671 38.1183 81.6371 37.4183 80.7171 35.9283C79.9771 34.7383 79.8771 33.1383 78.8271 32.2083C77.5071 31.0483 75.4871 31.5483 73.7471 31.7483C71.5171 32.0083 69.2171 31.6483 67.1771 30.7083C66.7171 30.4983 66.2471 30.2483 65.9971 29.7983C65.8271 29.4983 65.7171 29.0683 65.8271 28.7683C65.8771 28.6383 65.9671 28.5283 66.0971 28.4683C65.8771 28.4183 65.6671 28.3583 65.4571 28.3083C65.3971 28.2983 65.3371 28.2783 65.2771 28.2683C64.1871 28.0083 62.9971 27.6583 62.4071 26.7083C62.1171 26.2383 61.9971 25.6983 62.3771 25.3583C62.4071 25.3283 62.4471 25.3083 62.4871 25.2783C62.3671 25.2583 62.2471 25.2383 62.1271 25.2183C61.2171 25.0383 60.3071 24.8083 59.5771 24.2483C58.7571 23.6183 58.2671 22.4183 58.7671 21.5083C62.7871 21.4083 66.6571 22.8483 70.6371 23.4283C71.2071 23.5083 71.9471 23.4683 72.2871 23.0783C72.3671 22.9883 72.4271 22.8683 72.4571 22.7383C72.4971 22.5683 72.4571 22.3983 72.3971 22.2483C72.2571 21.9583 71.9771 21.7083 71.6771 21.5683C71.2171 21.3483 70.6971 21.2783 70.2671 20.9983C70.3171 20.3483 71.2471 20.2983 71.7771 19.9083C72.4671 19.4083 72.3671 18.3783 72.6971 17.5983C73.1371 16.5483 74.3471 16.0083 75.4871 15.9883C76.4171 15.9683 77.4271 16.3083 77.9071 17.1083C78.2471 17.6683 78.2771 18.3383 78.4171 18.9683C78.5671 19.5983 78.9171 20.2683 79.5371 20.4283C80.0171 20.2083 80.4971 19.9983 80.9771 19.7883C84.5271 18.1883 87.8871 15.5683 91.0071 13.2483C91.6371 12.7883 92.2571 12.2683 93.0171 12.0183C93.7671 11.7683 94.6871 11.8583 95.1971 12.4583C95.8871 13.2683 95.5171 14.5083 95.0171 15.4383L95.0071 15.4583Z" fill="white"/>
<path d="M76.1869 28.8683C76.0969 29.0583 75.8069 28.9783 75.6269 28.8683C74.3269 28.0383 73.3869 26.6883 73.0569 25.1783C72.8769 24.3383 72.5869 23.7883 72.2769 23.0883C72.3569 22.9983 72.4169 22.8783 72.4469 22.7483C72.4869 22.5783 72.4469 22.4083 72.3869 22.2583H72.4469C73.9269 22.3083 73.6269 25.5383 74.1269 26.5783C74.4869 27.3483 75.0769 28.0283 75.8369 28.3983C76.0269 28.4983 76.2869 28.6683 76.1869 28.8683Z" fill="#D5BB8D"/>
<path d="M74.6069 19.7885C74.9162 19.7885 75.1669 19.5377 75.1669 19.2285C75.1669 18.9192 74.9162 18.6685 74.6069 18.6685C74.2976 18.6685 74.0469 18.9192 74.0469 19.2285C74.0469 19.5377 74.2976 19.7885 74.6069 19.7885Z" fill="#750D33"/>
<path d="M92.3371 19.3384C92.3371 19.3384 92.4171 19.4284 92.4471 19.4884C91.5671 20.0684 90.5571 20.5184 89.9471 20.8084C88.9371 21.2884 87.9271 21.7484 86.9171 22.1884C86.2771 22.4684 85.6071 22.7484 84.9171 22.6984C84.7971 22.6984 84.6571 22.6584 84.6071 22.5484C84.5371 22.3984 84.6871 22.2484 84.8271 22.1584C85.5971 21.6384 86.4671 21.3084 87.3271 20.9484C88.5771 20.4284 89.8171 19.8684 90.9971 19.1884C91.7071 18.7784 93.0771 17.3884 93.9371 17.3484C93.4771 18.0684 92.9671 18.7584 92.3571 19.3284L92.3371 19.3384Z" fill="#D5BB8D"/>
<path d="M90.2173 24.5083C90.2573 24.6083 90.2973 24.7183 90.3173 24.8183C89.3273 25.2083 88.3373 25.5783 87.3173 25.8983C86.7373 26.0783 86.1273 26.2583 85.5273 26.1583C85.3873 26.1383 85.2173 26.0683 85.2073 25.9283C85.1873 25.7783 85.3473 25.6883 85.4673 25.6283C86.4473 25.1783 87.5073 24.9283 88.5473 24.6483C89.2773 24.4583 90.2473 23.9283 91.0573 23.7583C90.7973 24.0283 90.5173 24.2783 90.2073 24.5083H90.2173Z" fill="#D5BB8D"/>
<path d="M86.1772 38.0882C85.9172 38.1182 85.6471 38.1382 85.3771 38.1382H85.2072C84.9172 37.9282 84.6471 37.6482 84.5171 37.5082C83.6271 36.5682 82.8072 35.5582 82.1772 34.4182C82.0172 34.1282 81.8671 33.7582 82.0571 33.4882C82.1571 33.4282 82.2771 33.5382 82.3371 33.6382C83.1471 34.8882 84.1172 36.0282 85.2172 37.0382C85.4272 37.2182 86.1972 37.6882 86.1772 38.0782V38.0882Z" fill="#D5BB8D"/>
<path d="M85.3669 33.3282C85.1069 33.0382 84.7969 32.7082 84.3469 32.6982C84.2269 32.9182 84.4269 33.1582 84.6169 33.3482C85.0869 33.8182 88.6969 37.5982 89.1369 37.2982C89.7769 36.8782 85.7969 33.8082 85.3669 33.3182V33.3282Z" fill="#D5BB8D"/>
<path d="M69.3072 26.1784C69.1872 26.2884 69.0272 26.3684 68.8572 26.3884C68.6572 26.4184 68.4472 26.3684 68.2472 26.3184C67.0972 26.0184 65.9572 25.6584 64.7772 25.5184C64.0272 25.4284 63.0772 25.6284 62.3472 25.3784C62.3772 25.3484 62.4172 25.3284 62.4572 25.2984C62.3372 25.2784 62.2172 25.2584 62.0972 25.2384C62.8372 24.8484 64.0872 25.0284 64.9072 25.1484C66.0272 25.3184 67.1372 25.6084 68.2672 25.7184C68.6572 25.7584 69.1172 25.8284 69.2972 26.1784H69.3072Z" fill="#D5BB8D"/>
<path d="M71.627 28.5783C71.417 28.8783 70.977 28.7883 70.627 28.6883C69.177 28.2783 67.617 28.2783 66.167 28.6883C66.047 28.7183 65.927 28.7583 65.807 28.7783C65.857 28.6483 65.947 28.5383 66.077 28.4783C65.857 28.4283 65.647 28.3683 65.437 28.3183C66.447 27.6083 69.847 28.0883 70.707 28.1683C71.057 28.1983 71.457 28.2683 71.627 28.5783Z" fill="#D5BB8D"/>
<path d="M79.5668 74.6883C87.8953 74.6883 94.6468 67.9368 94.6468 59.6083C94.6468 51.2799 87.8953 44.5283 79.5668 44.5283C71.2384 44.5283 64.4868 51.2799 64.4868 59.6083C64.4868 67.9368 71.2384 74.6883 79.5668 74.6883Z" fill="url(#paint3_radial_2004_2292)"/>
<path d="M90.0769 59.3784C89.5769 59.3084 89.0769 59.2584 88.5769 59.2084C87.5769 59.1084 86.5769 59.0284 85.5769 58.9684C84.1569 58.8884 82.7369 58.8384 81.3169 58.8084C82.0869 58.0084 82.8469 57.1884 83.5969 56.3484C84.1669 55.7084 84.7269 55.0484 85.2669 54.3884C85.5369 54.0584 85.8069 53.7184 86.0769 53.3784C86.3369 53.0384 86.5969 52.6884 86.8469 52.3384C86.4869 52.5884 86.1469 52.8484 85.8069 53.1084C85.4669 53.3684 85.1269 53.6384 84.7969 53.9184C84.1269 54.4584 83.4769 55.0184 82.8369 55.5884C81.9969 56.3284 81.1869 57.0884 80.3769 57.8684C80.3569 56.4484 80.3069 55.0284 80.2169 53.6084C80.1569 52.6084 80.0769 51.6084 79.9769 50.6084C79.9269 50.1084 79.8669 49.6084 79.8069 49.1084C79.7469 48.6084 79.6769 48.1084 79.5869 47.6084C79.4969 48.1084 79.4269 48.6084 79.3669 49.1084C79.2969 49.6084 79.2469 50.1084 79.1969 50.6084C79.0969 51.6084 79.0169 52.6084 78.9569 53.6084C78.8769 55.0284 78.8269 56.4484 78.7969 57.8684C77.9969 57.0984 77.1769 56.3384 76.3369 55.5884C75.6969 55.0184 75.0469 54.4584 74.3769 53.9184C74.0469 53.6484 73.7069 53.3784 73.3669 53.1184C73.0269 52.8584 72.6769 52.5984 72.3169 52.3484C72.5669 52.7084 72.8269 53.0484 73.0869 53.3984C73.3469 53.7384 73.6169 54.0784 73.8869 54.4084C74.4269 55.0784 74.9869 55.7284 75.5569 56.3684C76.2969 57.2084 77.0569 58.0184 77.8269 58.8284C76.4069 58.8484 74.9869 58.8984 73.5669 58.9884C72.5669 59.0484 71.5669 59.1284 70.5669 59.2284C70.0669 59.2784 69.5669 59.3384 69.0669 59.3984C68.5669 59.4584 68.0669 59.5384 67.5669 59.6284C68.0669 59.7184 68.5669 59.7884 69.0669 59.8584C69.5669 59.9284 70.0669 59.9784 70.5669 60.0284C71.5669 60.1284 72.5669 60.2084 73.5669 60.2684C74.9869 60.3484 76.4069 60.3984 77.8269 60.4284C77.0569 61.2284 76.2969 62.0484 75.5569 62.8884C74.9869 63.5284 74.4269 64.1784 73.8869 64.8484C73.6169 65.1784 73.3469 65.5184 73.0869 65.8584C72.8269 66.1984 72.5669 66.5484 72.3169 66.9084C72.6769 66.6584 73.0169 66.3984 73.3669 66.1384C73.7069 65.8784 74.0469 65.6084 74.3769 65.3384C75.0469 64.7984 75.6969 64.2384 76.3369 63.6684C77.1769 62.9284 77.9869 62.1684 78.7969 61.3984C78.8169 62.8184 78.8669 64.2384 78.9569 65.6584C79.0169 66.6584 79.0969 67.6584 79.1969 68.6584C79.2469 69.1584 79.3069 69.6584 79.3669 70.1584C79.4269 70.6584 79.5069 71.1584 79.5969 71.6584C79.6869 71.1584 79.7569 70.6584 79.8269 70.1584C79.8969 69.6584 79.9469 69.1584 79.9969 68.6584C80.0969 67.6584 80.1769 66.6584 80.2369 65.6584C80.3169 64.2384 80.3669 62.8184 80.3969 61.3984C81.1969 62.1684 82.0169 62.9284 82.8569 63.6684C83.4969 64.2384 84.1569 64.7984 84.8169 65.3384C85.1469 65.6084 85.4869 65.8784 85.8269 66.1484C86.1669 66.4084 86.5169 66.6684 86.8669 66.9184C86.6169 66.5584 86.3569 66.2184 86.0969 65.8784C85.8369 65.5384 85.5669 65.1984 85.2869 64.8684C84.7469 64.1984 84.1869 63.5484 83.6169 62.9084C82.8769 62.0684 82.1169 61.2584 81.3369 60.4484C82.7569 60.4284 84.1769 60.3784 85.5969 60.2884C86.5969 60.2284 87.5969 60.1484 88.5969 60.0484C89.0969 59.9984 89.5969 59.9384 90.0969 59.8784C90.5969 59.8184 91.0969 59.7484 91.5969 59.6584C91.0969 59.5684 90.5969 59.4984 90.0969 59.4384L90.0769 59.3784Z" fill="white"/>
<path d="M165.707 42.3784C165.707 42.3784 165.967 65.7084 177.897 71.6484C186.647 76.0084 233.577 81.5584 223.107 119.048C223.107 119.048 218.867 137.658 193.407 135.988C193.407 135.988 149.727 132.948 145.917 97.5684C142.107 62.1884 165.707 42.3784 165.707 42.3784Z" fill="#1F1912"/>
<path d="M165.707 42.3784C165.707 42.3784 165.967 65.7084 177.897 71.6484C186.647 76.0084 233.577 81.5584 223.107 119.048C223.107 119.048 218.867 137.658 193.407 135.988C193.407 135.988 149.727 132.948 145.917 97.5684C142.107 62.1884 165.707 42.3784 165.707 42.3784Z" fill="url(#paint4_linear_2004_2292)"/>
<path d="M126.647 96.8484C126.647 96.8484 111.577 77.5184 125.457 52.3184L156.537 96.4884L126.647 96.8484Z" fill="#1F1912"/>
<path d="M126.647 96.8484C126.647 96.8484 111.577 77.5184 125.457 52.3184L156.537 96.4884L126.647 96.8484Z" fill="url(#paint5_linear_2004_2292)"/>
<path d="M157.337 71.2383C156.597 72.1383 155.437 73.4383 153.977 74.9083C152.937 75.9483 151.747 77.0483 150.427 78.1683C148.867 79.5183 147.117 80.8583 145.247 82.0383C140.957 84.7783 136.077 86.6683 131.427 85.8883C127.287 85.1983 124.687 81.3383 122.837 77.9083C118.327 69.6083 116.027 60.4183 116.057 51.3283C116.057 49.0883 116.207 46.8783 116.487 44.6883C116.577 44.0283 116.667 43.3783 116.797 42.7283V42.7083C117.367 39.3183 118.317 35.9483 120.137 33.0083C131.437 14.8383 165.327 24.1283 165.937 44.8483C166.197 53.8783 163.187 64.0683 157.327 71.2283L157.337 71.2383Z" fill="#1F1912"/>
<path d="M156.537 96.4884L136.607 98.5284L135.637 89.0784L133.747 70.5784L133.237 65.6484L153.167 63.5984L156.537 96.4884Z" fill="#FBD1A6"/>
<path d="M151.017 77.4284C151.017 77.4284 145.177 88.2584 135.637 89.0784L133.747 70.5784L134.327 69.3284L151.017 77.4284Z" fill="#D5BB8D"/>
<path d="M135.637 89.0785C135.637 89.0785 149.157 91.3485 154.957 81.0685L154.527 76.8485C154.527 76.8485 162.037 75.8285 162.797 87.4285C162.797 87.4285 173.907 94.2885 190.937 92.3485C207.967 90.4085 220.247 130.178 207.747 169.078L202.787 190.739H89.187C89.187 190.739 91.557 109.909 112.967 100.319L131.217 95.6885C131.217 95.6885 128.777 87.5885 135.257 85.3785L135.637 89.0785Z" fill="#AC8E60"/>
<path d="M207.737 169.078L202.777 190.738H89.187C89.187 190.738 91.557 109.908 112.967 100.318L126.647 96.8484L131.217 95.6884C131.217 95.6884 130.087 91.9184 131.417 88.8284C132.027 87.3784 133.187 86.0784 135.257 85.3784L135.637 89.0784C135.637 89.0784 149.157 91.3484 154.957 81.0684L154.517 76.8484C154.517 76.8484 162.027 75.8184 162.787 87.4184C162.787 87.4184 173.897 94.2784 190.927 92.3384C207.957 90.3984 220.237 130.168 207.737 169.078Z" fill="url(#paint6_linear_2004_2292)"/>
<path d="M159.287 104.028C160.067 105.248 159.637 106.848 159.077 108.188C157.657 111.558 153.557 118.168 149.267 118.068C149.517 115.718 151.057 112.428 152.307 110.398C153.977 107.688 156.407 105.418 159.287 104.028Z" fill="#AC8E60"/>
<path d="M125.997 101.479C124.937 103.139 125.517 105.329 126.277 107.149C128.217 111.749 133.807 120.769 139.667 120.619C139.327 117.409 137.217 112.919 135.517 110.159C133.237 106.459 129.927 103.369 125.997 101.479Z" fill="#AC8E60"/>
<path d="M188.917 169.268C178.727 150.588 160.687 138.548 160.687 138.548" stroke="#D5BB8D" stroke-width="0.5" stroke-miterlimit="10"/>
<path d="M177.897 153.908C177.897 153.908 183.617 146.238 193.417 153.908" stroke="#D5BB8D" stroke-width="0.5" stroke-miterlimit="10"/>
<path d="M122.327 138.548C122.327 138.548 103.197 162.038 105.927 177.758" stroke="#AC8E60" stroke-width="0.5" stroke-miterlimit="10"/>
<path d="M99.0869 167.438C99.0869 167.438 100.057 153.528 113.127 152.198" stroke="#AC8E60" stroke-width="0.5" stroke-miterlimit="10"/>
<path d="M147.677 151.068L144.887 154.128C144.887 154.128 159.727 195.908 179.797 195.248H126.647C126.647 195.248 138.667 167.448 137.677 154.458L133.237 149.048L141.507 143.268L147.447 148.698L147.687 151.068H147.677Z" fill="url(#paint7_linear_2004_2292)"/>
<path d="M135.637 89.0785C135.637 89.0785 133.707 89.1185 131.417 88.8285C131.857 87.7685 132.597 86.7985 133.767 86.0785C134.277 86.0685 134.797 86.0385 135.317 85.9685L135.637 89.0785Z" fill="#1F1912"/>
<path d="M145.917 102.298C145.917 102.298 133.277 109.838 126.647 96.8485L131.217 95.6885C131.217 95.6885 134.007 105.368 145.917 102.298Z" fill="#1F1912"/>
<path d="M166.947 57.6784C166.957 56.0284 166.267 54.1784 164.707 53.6284C163.807 53.3084 162.807 53.4884 161.897 53.7484C160.017 54.3184 158.517 55.2984 156.957 56.4284C156.677 56.6384 156.437 56.8584 156.197 57.0584C155.857 54.3384 155.057 51.6484 153.397 49.3784C151.147 46.3084 147.587 44.2884 143.947 42.7684C138.787 40.6184 133.147 39.2784 127.557 39.5784C123.707 39.7884 120.027 40.9184 116.807 42.7484C116.677 43.4084 116.587 44.0484 116.497 44.7084C116.217 46.8984 116.077 49.1184 116.067 51.3484C116.037 60.4384 118.337 69.6184 122.847 77.9284C124.707 81.3584 127.307 85.2184 131.437 85.9084C136.077 86.6884 140.957 84.7984 145.257 82.0584C147.117 80.8784 148.867 79.5384 150.437 78.1884C152.557 75.5584 154.117 72.5284 155.107 69.3284C156.937 69.3984 158.787 68.9384 160.367 68.0184C161.947 67.0984 163.247 65.7384 164.327 64.2684C165.757 62.3584 166.917 60.0984 166.957 57.6984L166.947 57.6784Z" fill="white"/>
<path d="M166.947 57.6784C166.907 60.0884 165.747 62.3384 164.317 64.2484C163.237 65.7184 161.937 67.0784 160.357 67.9984C158.787 68.9284 156.937 69.3784 155.107 69.3084C154.107 72.5184 152.557 75.5484 150.437 78.1784C148.867 79.5284 147.117 80.8684 145.257 82.0484C142.147 84.0284 138.727 85.5684 135.317 85.9684C134.797 86.0384 134.277 86.0684 133.767 86.0784C132.987 86.0884 132.207 86.0284 131.437 85.8984C127.307 85.2084 124.697 81.3484 122.847 77.9184C118.337 69.6084 116.037 60.4284 116.067 51.3384C116.067 49.0984 116.217 46.8884 116.497 44.6984C116.587 44.0384 116.677 43.3884 116.807 42.7384C120.027 40.9084 123.707 39.7784 127.557 39.5684C133.147 39.2684 138.787 40.6084 143.947 42.7584C147.577 44.2884 151.147 46.3084 153.397 49.3684C155.057 51.6484 155.847 54.3384 156.197 57.0584C156.427 56.8484 156.667 56.6384 156.947 56.4284C158.507 55.2984 160.017 54.3184 161.897 53.7484C162.807 53.4784 163.807 53.2984 164.707 53.6284C166.267 54.1784 166.957 56.0384 166.947 57.6784Z" fill="url(#paint8_linear_2004_2292)"/>
<path d="M134.217 59.2683C134.217 59.2683 136.787 63.7783 143.597 61.1983C143.597 61.1983 135.497 66.9083 134.217 59.2683Z" fill="#1F1912"/>
<path d="M119.237 59.1782C119.237 59.1782 120.797 64.1782 126.117 61.4382C126.117 61.4382 119.687 67.3482 119.237 59.1782Z" fill="#1F1912"/>
<path d="M125.647 73.1983C125.647 73.1983 129.277 77.1183 137.107 72.9683C137.107 72.9683 128.127 80.5383 125.647 73.1983Z" fill="#750D33"/>
<path d="M164.437 57.0684C164.437 57.0684 158.397 57.3284 157.387 62.6284C157.387 62.6284 160.257 62.7784 159.177 65.5684C159.177 65.5684 164.827 61.9884 164.437 57.0684Z" fill="url(#paint9_linear_2004_2292)"/>
<path d="M127.557 39.5684C127.557 39.5684 140.047 57.8384 156.197 57.0584L159.427 48.4584L146.237 36.3784L127.557 39.5684Z" fill="#1F1912"/>
<path d="M127.557 39.5683C127.557 39.5683 117.257 43.0283 116.057 51.3383C116.057 51.3383 105.447 39.7983 120.147 33.0183L127.557 39.5683Z" fill="#1F1912"/>
<path d="M128.407 125.288C130.357 119.818 135.337 115.198 135.337 115.198C137.157 115.078 138.737 116.658 136.067 121.158C133.387 125.658 134.247 127.118 134.247 127.118C151.147 108.518 153.827 111.428 153.827 111.428C155.107 112.228 154.537 113.978 153.217 115.958C157.757 112.188 158.577 113.978 158.577 113.978C159.777 114.698 159.067 116.608 157.567 118.838C159.367 117.628 159.867 118.228 159.867 118.228C162.167 119.528 159.327 124.068 156.397 127.798C158.757 125.888 159.427 127.108 159.427 127.108C162.227 129.178 150.797 140.358 150.797 140.358L135.357 151.058L122.347 138.538C122.347 138.538 126.477 130.758 128.427 125.288H128.407Z" fill="#FBD1A6"/>
<path d="M128.407 125.288C130.357 119.818 135.337 115.198 135.337 115.198C137.157 115.078 138.737 116.658 136.067 121.158C133.387 125.658 134.247 127.118 134.247 127.118C151.147 108.518 153.827 111.428 153.827 111.428C155.107 112.228 154.537 113.978 153.217 115.958C157.757 112.188 158.577 113.978 158.577 113.978C159.777 114.698 159.067 116.608 157.567 118.838C159.367 117.628 159.867 118.228 159.867 118.228C162.167 119.528 159.327 124.068 156.397 127.798C158.757 125.888 159.427 127.108 159.427 127.108C162.227 129.178 150.797 140.358 150.797 140.358L135.357 151.058L122.347 138.538C122.347 138.538 126.477 130.758 128.427 125.288H128.407Z" fill="url(#paint10_linear_2004_2292)"/>
<path d="M153.197 115.958L144.207 125.168" stroke="#AC8E60" stroke-width="0.63" stroke-linecap="round" stroke-linejoin="round"/>
<path d="M157.547 118.848L147.447 129.918" stroke="#AC8E60" stroke-width="0.63" stroke-linecap="round" stroke-linejoin="round"/>
<path d="M156.377 127.808L150.467 134.158" stroke="#AC8E60" stroke-width="0.63" stroke-linecap="round" stroke-linejoin="round"/>
<path d="M154.607 125.288C152.657 119.818 147.677 115.198 147.677 115.198C145.857 115.078 144.277 116.658 146.947 121.158C149.627 125.658 148.767 127.118 148.767 127.118C131.867 108.518 129.187 111.428 129.187 111.428C127.907 112.228 128.477 113.978 129.797 115.958C125.257 112.188 124.437 113.978 124.437 113.978C123.237 114.698 123.947 116.608 125.447 118.838C123.647 117.628 123.147 118.228 123.147 118.228C120.847 119.528 123.687 124.068 126.617 127.798C124.257 125.888 123.587 127.108 123.587 127.108C120.787 129.178 132.217 140.358 132.217 140.358L147.657 151.058L160.667 138.538C160.667 138.538 156.537 130.758 154.587 125.288H154.607Z" fill="white"/>
<path d="M154.607 125.288C152.657 119.818 147.677 115.198 147.677 115.198C145.857 115.078 144.277 116.658 146.947 121.158C149.627 125.658 148.767 127.118 148.767 127.118C131.867 108.518 129.187 111.428 129.187 111.428C127.907 112.228 128.477 113.978 129.797 115.958C125.257 112.188 124.437 113.978 124.437 113.978C123.237 114.698 123.947 116.608 125.447 118.838C123.647 117.628 123.147 118.228 123.147 118.228C120.847 119.528 123.687 124.068 126.617 127.798C124.257 125.888 123.587 127.108 123.587 127.108C120.787 129.178 132.217 140.358 132.217 140.358L147.657 151.058L160.667 138.538C160.667 138.538 156.537 130.758 154.587 125.288H154.607Z" fill="url(#paint11_linear_2004_2292)"/>
<path d="M129.807 115.958L138.797 125.168" stroke="#AC8E60" stroke-width="0.63" stroke-linecap="round" stroke-linejoin="round"/>
<path d="M125.457 118.848L135.567 129.918" stroke="#AC8E60" stroke-width="0.63" stroke-linecap="round" stroke-linejoin="round"/>
<path d="M126.637 127.808L132.547 134.158" stroke="#AC8E60" stroke-width="0.63" stroke-linecap="round" stroke-linejoin="round"/>
<path d="M125.217 132.738C124.437 134.388 123.697 135.868 123.167 136.918C118.787 118.588 108.767 103.328 108.627 103.128L111.127 101.468C111.647 102.248 120.477 115.688 125.217 132.738Z" fill="#AC8E60"/>
<path d="M146.517 115.028C145.577 115.788 144.527 116.708 143.347 117.798C143.837 112.538 143.227 106.768 142.737 104.008L145.687 103.478C145.757 103.878 146.667 109.148 146.517 115.028Z" fill="#AC8E60"/>
<path d="M179.207 129.998C179.077 130.638 176.917 141.408 173.877 149.688C173.067 148.878 172.277 148.118 171.507 147.408C173.687 141.048 175.517 133.148 176.267 129.408L179.207 129.998Z" fill="#D5BB8D"/>
<path d="M104.547 118.788C104.137 120.718 105.457 122.558 106.817 123.988C110.257 127.608 118.677 134.058 124.107 131.858C122.657 128.978 119.097 125.518 116.527 123.538C113.077 120.878 108.897 119.168 104.557 118.788H104.547Z" fill="#AC8E60"/>
<path d="M192.557 133.628C192.967 135.558 191.647 137.398 190.287 138.828C186.847 142.448 178.427 148.898 172.997 146.698C174.447 143.818 178.007 140.358 180.577 138.378C184.027 135.718 188.207 134.008 192.547 133.628H192.557Z" fill="#D5BB8D"/>
<path d="M150.237 103.408C149.257 102.788 147.547 102.468 146.147 102.298C147.537 102.128 149.257 101.808 150.237 101.188C151.407 100.448 151.717 99.1784 151.787 98.3384C151.827 97.8184 151.527 97.3384 151.037 97.1584C150.247 96.8684 148.967 96.5984 147.797 97.3384C147.107 97.7684 146.397 98.5984 145.777 99.4584C146.177 98.4684 146.487 97.4284 146.487 96.6184C146.487 95.2384 145.577 94.2884 144.907 93.7884C144.497 93.4784 143.927 93.4784 143.507 93.7884C142.837 94.2984 141.927 95.2384 141.927 96.6184C141.927 97.4284 142.247 98.4784 142.637 99.4584C142.017 98.5984 141.297 97.7684 140.617 97.3384C139.447 96.5984 138.167 96.8684 137.377 97.1584C136.887 97.3384 136.587 97.8184 136.627 98.3384C136.697 99.1784 137.007 100.448 138.177 101.188C139.157 101.808 140.867 102.128 142.267 102.298C140.877 102.468 139.157 102.788 138.177 103.408C137.007 104.148 136.697 105.418 136.627 106.258C136.587 106.778 136.887 107.258 137.377 107.438C138.167 107.738 139.447 107.998 140.617 107.258C141.307 106.818 142.017 105.998 142.647 105.128C142.247 106.118 141.927 107.168 141.927 107.978C141.927 109.358 142.837 110.298 143.507 110.808C143.917 111.118 144.487 111.118 144.897 110.808C145.567 110.298 146.477 109.358 146.477 107.978C146.477 107.158 146.157 106.118 145.757 105.128C146.377 105.998 147.097 106.828 147.787 107.258C148.957 107.998 150.237 107.728 151.027 107.438C151.517 107.258 151.817 106.778 151.767 106.258C151.697 105.418 151.387 104.148 150.217 103.408H150.237Z" fill="white"/>
<path d="M144.207 103.738C143.407 103.738 142.757 103.088 142.757 102.288C142.757 101.488 143.407 100.838 144.207 100.838C145.007 100.838 145.657 101.488 145.657 102.288C145.657 103.088 145.007 103.738 144.207 103.738Z" fill="#FBD1A6"/>
<path d="M178.077 100.828C178.007 100.958 173.997 107.998 170.507 118.398C170.077 119.698 169.647 121.048 169.237 122.448C167.497 128.398 166.047 135.178 165.597 142.248C164.487 141.348 163.517 140.598 162.747 140.028C163.367 133.038 164.847 126.428 166.597 120.638C167.357 118.128 168.167 115.768 168.967 113.608C172.087 105.268 175.207 99.7984 175.477 99.3284L178.077 100.828Z" fill="#AC8E60"/>
<path d="M170.507 118.398C170.077 119.698 169.647 121.048 169.237 122.448C168.307 122.038 167.427 121.418 166.597 120.638C163.067 117.348 160.507 111.408 159.527 107.958C158.997 106.058 158.687 103.818 159.947 102.298C163.607 104.658 166.517 108.128 168.317 112.088C168.527 112.558 168.747 113.068 168.967 113.608C169.547 115.058 170.107 116.738 170.507 118.398Z" fill="#D5BB8D"/>
<path d="M192.357 102.408C190.317 101.118 186.737 100.438 183.827 100.088C186.737 99.7382 190.307 99.0582 192.347 97.7682C194.777 96.2282 195.427 93.5683 195.577 91.8283C195.667 90.7483 195.037 89.7483 194.027 89.3683C192.387 88.7583 189.707 88.1982 187.277 89.7382C185.847 90.6482 184.357 92.3682 183.057 94.1682C183.887 92.1082 184.547 89.9282 184.547 88.2382C184.547 85.3582 182.647 83.3883 181.247 82.3283C180.387 81.6683 179.197 81.6683 178.337 82.3283C176.937 83.3883 175.047 85.3582 175.047 88.2382C175.047 89.9382 175.707 92.1082 176.537 94.1682C175.237 92.3682 173.757 90.6482 172.317 89.7382C169.887 88.1982 167.207 88.7483 165.567 89.3683C164.557 89.7483 163.917 90.7483 164.007 91.8283C164.157 93.5783 164.807 96.2282 167.237 97.7682C169.277 99.0582 172.847 99.7382 175.757 100.088C172.847 100.438 169.277 101.118 167.237 102.408C164.807 103.948 164.157 106.608 164.007 108.348C163.917 109.428 164.547 110.428 165.557 110.808C167.197 111.428 169.877 111.978 172.307 110.438C173.747 109.528 175.237 107.798 176.537 105.998C175.707 108.068 175.037 110.248 175.037 111.948C175.037 114.828 176.937 116.798 178.337 117.848C179.197 118.498 180.387 118.498 181.247 117.848C182.647 116.788 184.547 114.828 184.547 111.948C184.547 110.248 183.887 108.068 183.047 105.998C184.347 107.808 185.837 109.538 187.277 110.438C189.707 111.978 192.387 111.428 194.027 110.808C195.037 110.428 195.667 109.428 195.577 108.348C195.427 106.608 194.787 103.948 192.347 102.408H192.357Z" fill="white"/>
<path d="M179.796 103.098C178.126 103.098 176.776 101.748 176.776 100.078C176.776 98.4084 178.126 97.0583 179.796 97.0583C181.466 97.0583 182.816 98.4084 182.816 100.078C182.816 101.748 181.466 103.098 179.796 103.098Z" fill="#750D33"/>
<path d="M177.897 153.908C177.897 153.908 183.617 146.238 193.417 153.908" stroke="#D5BB8D" stroke-width="0.5" stroke-miterlimit="10"/>
<path d="M182.367 130.828C181.377 130.198 179.647 129.878 178.237 129.708C179.647 129.538 181.377 129.208 182.367 128.588C183.547 127.838 183.857 126.558 183.937 125.708C183.977 125.188 183.677 124.698 183.187 124.518C182.387 124.218 181.097 123.958 179.917 124.698C179.227 125.138 178.507 125.968 177.877 126.848C178.277 125.848 178.597 124.798 178.597 123.978C178.597 122.588 177.677 121.628 176.997 121.118C176.577 120.798 176.007 120.798 175.587 121.118C174.907 121.628 173.987 122.588 173.987 123.978C173.987 124.798 174.307 125.858 174.707 126.848C174.077 125.978 173.357 125.138 172.667 124.698C171.487 123.948 170.187 124.218 169.397 124.518C168.907 124.698 168.597 125.188 168.647 125.708C168.717 126.558 169.037 127.838 170.217 128.588C171.207 129.218 172.937 129.538 174.347 129.708C172.937 129.878 171.207 130.208 170.217 130.828C169.037 131.578 168.727 132.858 168.657 133.708C168.617 134.228 168.917 134.718 169.407 134.898C170.197 135.198 171.497 135.468 172.677 134.718C173.377 134.278 174.097 133.438 174.727 132.568C174.327 133.568 174.007 134.628 174.007 135.448C174.007 136.848 174.927 137.798 175.607 138.308C176.027 138.628 176.597 138.628 177.017 138.308C177.697 137.798 178.617 136.838 178.617 135.448C178.617 134.628 178.297 133.568 177.897 132.568C178.527 133.448 179.247 134.278 179.947 134.718C181.127 135.468 182.427 135.198 183.217 134.898C183.707 134.718 184.017 134.228 183.967 133.708C183.897 132.858 183.587 131.578 182.407 130.828H182.367Z" fill="#FBD1A6"/>
<path d="M176.277 131.169C175.467 131.169 174.817 130.519 174.817 129.709C174.817 128.899 175.467 128.249 176.277 128.249C177.087 128.249 177.737 128.899 177.737 129.709C177.737 130.519 177.087 131.169 176.277 131.169Z" fill="white"/>
<path d="M119.107 103.978C117.627 103.038 115.037 102.548 112.927 102.298C115.037 102.038 117.627 101.548 119.107 100.618C120.867 99.4984 121.337 97.5784 121.447 96.3084C121.517 95.5284 121.057 94.7984 120.317 94.5284C119.127 94.0884 117.187 93.6784 115.417 94.7984C114.377 95.4584 113.297 96.6984 112.357 98.0084C112.957 96.5184 113.437 94.9384 113.437 93.7084C113.437 91.6184 112.057 90.1884 111.047 89.4284C110.427 88.9484 109.567 88.9484 108.937 89.4284C107.927 90.1984 106.547 91.6284 106.547 93.7084C106.547 94.9384 107.027 96.5184 107.627 98.0084C106.687 96.6984 105.607 95.4584 104.567 94.7984C102.807 93.6784 100.857 94.0884 99.6668 94.5284C98.9268 94.8084 98.4668 95.5284 98.5368 96.3084C98.6468 97.5784 99.1168 99.4984 100.877 100.618C102.357 101.558 104.947 102.048 107.057 102.298C104.947 102.548 102.357 103.048 100.877 103.978C99.1168 105.098 98.6468 107.018 98.5368 108.288C98.4768 109.068 98.9268 109.798 99.6668 110.068C100.857 110.518 102.797 110.918 104.567 109.798C105.607 109.138 106.687 107.888 107.637 106.578C107.037 108.078 106.557 109.658 106.557 110.888C106.557 112.978 107.937 114.398 108.947 115.168C109.567 115.638 110.427 115.638 111.057 115.168C112.067 114.398 113.447 112.978 113.447 110.888C113.447 109.658 112.967 108.078 112.367 106.578C113.307 107.888 114.387 109.138 115.437 109.798C117.197 110.918 119.147 110.508 120.337 110.068C121.067 109.798 121.527 109.068 121.467 108.288C121.357 107.028 120.887 105.098 119.127 103.978H119.107Z" fill="white"/>
<path d="M110.007 104.488C108.797 104.488 107.817 103.508 107.817 102.298C107.817 101.088 108.797 100.108 110.007 100.108C111.217 100.108 112.197 101.088 112.197 102.298C112.197 103.508 111.217 104.488 110.007 104.488Z" fill="#750D33"/>
<path d="M120.207 141.078C118.807 142.808 117.467 144.878 116.457 146.528C112.157 144.338 107.777 141.028 107.427 137.148C110.657 137.118 115.357 138.698 118.297 140.078C118.947 140.378 119.587 140.718 120.207 141.078Z" fill="#AC8E60"/>
<path d="M212.847 145.758C219.789 145.758 225.417 140.13 225.417 133.188C225.417 126.246 219.789 120.618 212.847 120.618C205.905 120.618 200.277 126.246 200.277 133.188C200.277 140.13 205.905 145.758 212.847 145.758Z" fill="url(#paint12_radial_2004_2292)"/>
<path d="M221.607 132.998C221.187 132.948 220.777 132.898 220.357 132.858C219.527 132.778 218.687 132.708 217.857 132.658C216.677 132.588 215.487 132.548 214.307 132.528C214.947 131.858 215.587 131.178 216.207 130.478C216.677 129.938 217.147 129.398 217.597 128.848C217.827 128.568 218.047 128.288 218.267 128.008C218.487 127.728 218.707 127.438 218.907 127.138C218.607 127.348 218.317 127.558 218.037 127.778C217.747 127.998 217.467 128.218 217.197 128.448C216.637 128.898 216.097 129.368 215.567 129.838C214.867 130.458 214.187 131.088 213.517 131.738C213.497 130.558 213.457 129.368 213.387 128.188C213.337 127.358 213.277 126.518 213.187 125.688C213.147 125.268 213.097 124.858 213.047 124.438C212.997 124.018 212.937 123.608 212.857 123.188C212.787 123.608 212.727 124.018 212.667 124.438C212.617 124.858 212.567 125.268 212.527 125.688C212.447 126.518 212.377 127.358 212.327 128.188C212.257 129.368 212.217 130.558 212.197 131.738C211.527 131.098 210.847 130.458 210.147 129.838C209.607 129.368 209.067 128.898 208.517 128.448C208.237 128.218 207.957 127.998 207.677 127.778C207.397 127.558 207.107 127.338 206.807 127.138C207.017 127.438 207.227 127.728 207.447 128.008C207.667 128.298 207.887 128.578 208.117 128.848C208.567 129.408 209.037 129.948 209.507 130.478C210.127 131.178 210.757 131.858 211.397 132.528C210.217 132.548 209.027 132.588 207.847 132.658C207.017 132.708 206.177 132.768 205.347 132.858C204.927 132.898 204.517 132.948 204.097 132.998C203.677 133.048 203.267 133.108 202.847 133.188C203.267 133.268 203.677 133.318 204.097 133.378C204.517 133.428 204.927 133.478 205.347 133.518C206.177 133.598 207.017 133.668 207.847 133.718C209.027 133.788 210.217 133.828 211.397 133.848C210.757 134.518 210.117 135.198 209.507 135.898C209.037 136.438 208.567 136.978 208.117 137.528C207.887 137.808 207.667 138.088 207.447 138.368C207.227 138.648 207.007 138.938 206.807 139.238C207.107 139.028 207.397 138.818 207.677 138.598C207.967 138.378 208.247 138.158 208.517 137.928C209.077 137.478 209.617 137.008 210.147 136.538C210.847 135.918 211.527 135.288 212.197 134.648C212.217 135.828 212.257 137.018 212.327 138.198C212.377 139.028 212.437 139.868 212.527 140.698C212.567 141.118 212.617 141.528 212.667 141.948C212.717 142.368 212.777 142.778 212.857 143.198C212.937 142.778 212.987 142.368 213.047 141.948C213.097 141.528 213.147 141.118 213.187 140.698C213.267 139.868 213.337 139.028 213.387 138.198C213.457 137.018 213.497 135.828 213.517 134.648C214.187 135.288 214.867 135.928 215.567 136.548C216.107 137.018 216.647 137.488 217.197 137.938C217.477 138.168 217.757 138.388 218.037 138.608C218.317 138.828 218.607 139.048 218.907 139.248C218.697 138.948 218.487 138.658 218.267 138.378C218.047 138.088 217.827 137.808 217.597 137.538C217.147 136.978 216.677 136.438 216.207 135.908C215.587 135.208 214.957 134.528 214.307 133.858C215.487 133.838 216.677 133.798 217.857 133.728C218.687 133.678 219.527 133.618 220.357 133.528C220.777 133.488 221.187 133.438 221.607 133.388C222.027 133.338 222.437 133.278 222.857 133.198C222.437 133.128 222.027 133.068 221.607 133.008V132.998Z" fill="white"/>
<path d="M60.697 81.2082C61.8071 81.2082 62.707 80.3083 62.707 79.1982C62.707 78.0881 61.8071 77.1882 60.697 77.1882C59.5869 77.1882 58.687 78.0881 58.687 79.1982C58.687 80.3083 59.5869 81.2082 60.697 81.2082Z" fill="#F2ECE1"/>
<path d="M188.917 66.1982C190.027 66.1982 190.927 65.2983 190.927 64.1882C190.927 63.0781 190.027 62.1782 188.917 62.1782C187.807 62.1782 186.907 63.0781 186.907 64.1882C186.907 65.2983 187.807 66.1982 188.917 66.1982Z" fill="#FBD1A6"/>
<path d="M246.337 155.918C247.447 155.918 248.347 155.018 248.347 153.908C248.347 152.798 247.447 151.898 246.337 151.898C245.227 151.898 244.327 152.798 244.327 153.908C244.327 155.018 245.227 155.918 246.337 155.918Z" fill="#D5BB8D"/>
<path d="M279.097 87.9783C280.207 87.9783 281.107 87.0783 281.107 85.9683C281.107 84.8582 280.207 83.9583 279.097 83.9583C277.987 83.9583 277.087 84.8582 277.087 85.9683C277.087 87.0783 277.987 87.9783 279.097 87.9783Z" fill="#F2ECE1"/>
<path d="M112.357 21.7983C113.467 21.7983 114.367 20.8984 114.367 19.7883C114.367 18.6782 113.467 17.7783 112.357 17.7783C111.247 17.7783 110.347 18.6782 110.347 19.7883C110.347 20.8984 111.247 21.7983 112.357 21.7983Z" fill="#D5BB8D"/>
<rect width="320" height="260" fill="url(#paint13_linear_2004_2292)"/>
</g>
<defs>
<linearGradient id="paint0_linear_2004_2292" x1="163" y1="-11" x2="163" y2="184" gradientUnits="userSpaceOnUse">
<stop stop-color="#D7BD8F" stop-opacity="0.02"/>
<stop offset="0.18" stop-color="#D7BD8F" stop-opacity="0.36"/>
<stop offset="0.34" stop-color="#D7BD8F" stop-opacity="0.63"/>
<stop offset="0.47" stop-color="#D7BD8F" stop-opacity="0.83"/>
<stop offset="0.57" stop-color="#D7BD8F" stop-opacity="0.95"/>
<stop offset="0.63" stop-color="#D7BD8F" stop-opacity="0.99"/>
<stop offset="1" stop-color="#D7BD8F"/>
</linearGradient>
<linearGradient id="paint1_linear_2004_2292" x1="167.657" y1="134.548" x2="319.207" y2="134.548" gradientUnits="userSpaceOnUse">
<stop offset="0.06" stop-color="#1F1912" stop-opacity="0"/>
<stop offset="0.37" stop-color="#1F1912" stop-opacity="0.17"/>
<stop offset="0.75" stop-color="#1F1912" stop-opacity="0.66"/>
<stop offset="0.95" stop-color="#1F1912"/>
</linearGradient>
<linearGradient id="paint2_linear_2004_2292" x1="61.667" y1="97.9883" x2="61.667" y2="151.408" gradientUnits="userSpaceOnUse">
<stop stop-color="#D7BD8F" stop-opacity="0"/>
<stop offset="0.34" stop-color="#D7BD8F" stop-opacity="0"/>
<stop offset="0.49" stop-color="#D7BD8F" stop-opacity="0.04"/>
<stop offset="0.59" stop-color="#D7BD8F" stop-opacity="0.1"/>
<stop offset="0.68" stop-color="#D7BD8F" stop-opacity="0.18"/>
<stop offset="0.75" stop-color="#D7BD8F" stop-opacity="0.29"/>
<stop offset="0.82" stop-color="#D7BD8F" stop-opacity="0.42"/>
<stop offset="0.88" stop-color="#D7BD8F" stop-opacity="0.58"/>
<stop offset="0.94" stop-color="#D7BD8F" stop-opacity="0.76"/>
<stop offset="0.99" stop-color="#D7BD8F" stop-opacity="0.96"/>
<stop offset="1" stop-color="#D7BD8F"/>
</linearGradient>
<radialGradient id="paint3_radial_2004_2292" cx="0" cy="0" r="1" gradientUnits="userSpaceOnUse" gradientTransform="translate(79.5668 59.6083) scale(15.08)">
<stop stop-color="#FBD1A6" stop-opacity="0"/>
<stop offset="0.15" stop-color="#FBD1A6" stop-opacity="0.01"/>
<stop offset="0.28" stop-color="#FBD1A6" stop-opacity="0.06"/>
<stop offset="0.4" stop-color="#FBD1A6" stop-opacity="0.13"/>
<stop offset="0.52" stop-color="#FBD1A6" stop-opacity="0.23"/>
<stop offset="0.63" stop-color="#FBD1A6" stop-opacity="0.35"/>
<stop offset="0.74" stop-color="#FBD1A6" stop-opacity="0.51"/>
<stop offset="0.85" stop-color="#FBD1A6" stop-opacity="0.7"/>
<stop offset="0.96" stop-color="#FBD1A6" stop-opacity="0.91"/>
<stop offset="1" stop-color="#FBD1A6"/>
</radialGradient>
<linearGradient id="paint4_linear_2004_2292" x1="185.057" y1="136.098" x2="185.057" y2="42.3784" gradientUnits="userSpaceOnUse">
<stop stop-color="#AE9060" stop-opacity="0"/>
<stop offset="0.22" stop-color="#AE9060" stop-opacity="0.02"/>
<stop offset="0.37" stop-color="#AE9060" stop-opacity="0.07"/>
<stop offset="0.5" stop-color="#AE9060" stop-opacity="0.16"/>
<stop offset="0.63" stop-color="#AE9060" stop-opacity="0.29"/>
<stop offset="0.74" stop-color="#AE9060" stop-opacity="0.45"/>
<stop offset="0.85" stop-color="#AE9060" stop-opacity="0.65"/>
<stop offset="0.96" stop-color="#AE9060" stop-opacity="0.89"/>
<stop offset="1" stop-color="#AE9060"/>
</linearGradient>
<linearGradient id="paint5_linear_2004_2292" x1="138.057" y1="52.3184" x2="138.057" y2="96.8484" gradientUnits="userSpaceOnUse">
<stop stop-color="#AE9060" stop-opacity="0"/>
<stop offset="0.22" stop-color="#AE9060" stop-opacity="0.02"/>
<stop offset="0.37" stop-color="#AE9060" stop-opacity="0.07"/>
<stop offset="0.5" stop-color="#AE9060" stop-opacity="0.16"/>
<stop offset="0.63" stop-color="#AE9060" stop-opacity="0.29"/>
<stop offset="0.74" stop-color="#AE9060" stop-opacity="0.45"/>
<stop offset="0.85" stop-color="#AE9060" stop-opacity="0.65"/>
<stop offset="0.96" stop-color="#AE9060" stop-opacity="0.89"/>
<stop offset="1" stop-color="#AE9060"/>
</linearGradient>
<linearGradient id="paint6_linear_2004_2292" x1="212.847" y1="133.778" x2="89.187" y2="133.778" gradientUnits="userSpaceOnUse">
<stop offset="0.06" stop-color="#1F1912" stop-opacity="0"/>
<stop offset="0.37" stop-color="#1F1912" stop-opacity="0.17"/>
<stop offset="0.75" stop-color="#1F1912" stop-opacity="0.66"/>
<stop offset="0.95" stop-color="#1F1912"/>
</linearGradient>
<linearGradient id="paint7_linear_2004_2292" x1="153.217" y1="195.258" x2="153.217" y2="143.278" gradientUnits="userSpaceOnUse">
<stop offset="0.06" stop-color="#1F1912" stop-opacity="0"/>
<stop offset="0.37" stop-color="#1F1912" stop-opacity="0.17"/>
<stop offset="0.75" stop-color="#1F1912" stop-opacity="0.66"/>
<stop offset="0.95" stop-color="#1F1912"/>
</linearGradient>
<linearGradient id="paint8_linear_2004_2292" x1="116.067" y1="62.7984" x2="166.947" y2="62.7984" gradientUnits="userSpaceOnUse">
<stop offset="0.06" stop-color="#FBD1A6" stop-opacity="0"/>
<stop offset="0.09" stop-color="#FBD1A6" stop-opacity="0.07"/>
<stop offset="0.2" stop-color="#FBD1A6" stop-opacity="0.28"/>
<stop offset="0.3" stop-color="#FBD1A6" stop-opacity="0.48"/>
<stop offset="0.41" stop-color="#FBD1A6" stop-opacity="0.64"/>
<stop offset="0.52" stop-color="#FBD1A6" stop-opacity="0.77"/>
<stop offset="0.63" stop-color="#FBD1A6" stop-opacity="0.87"/>
<stop offset="0.74" stop-color="#FBD1A6" stop-opacity="0.94"/>
<stop offset="0.86" stop-color="#FBD1A6" stop-opacity="0.99"/>
<stop offset="1" stop-color="#FBD1A6"/>
</linearGradient>
<linearGradient id="paint9_linear_2004_2292" x1="157.527" y1="60.9531" x2="164.143" y2="61.5203" gradientUnits="userSpaceOnUse">
<stop stop-color="#D7BD8F" stop-opacity="0.02"/>
<stop offset="0.18" stop-color="#D7BD8F" stop-opacity="0.36"/>
<stop offset="0.34" stop-color="#D7BD8F" stop-opacity="0.63"/>
<stop offset="0.47" stop-color="#D7BD8F" stop-opacity="0.83"/>
<stop offset="0.57" stop-color="#D7BD8F" stop-opacity="0.95"/>
<stop offset="0.63" stop-color="#D7BD8F" stop-opacity="0.99"/>
<stop offset="1" stop-color="#D7BD8F"/>
</linearGradient>
<linearGradient id="paint10_linear_2004_2292" x1="122.327" y1="131.168" x2="160.687" y2="131.168" gradientUnits="userSpaceOnUse">
<stop stop-color="#AE9060" stop-opacity="0"/>
<stop offset="0.18" stop-color="#AE9060" stop-opacity="0.02"/>
<stop offset="0.33" stop-color="#AE9060" stop-opacity="0.08"/>
<stop offset="0.47" stop-color="#AE9060" stop-opacity="0.18"/>
<stop offset="0.61" stop-color="#AE9060" stop-opacity="0.32"/>
<stop offset="0.74" stop-color="#AE9060" stop-opacity="0.51"/>
<stop offset="0.87" stop-color="#AE9060" stop-opacity="0.73"/>
<stop offset="1" stop-color="#AE9060"/>
</linearGradient>
<linearGradient id="paint11_linear_2004_2292" x1="122.327" y1="131.168" x2="160.687" y2="131.168" gradientUnits="userSpaceOnUse">
<stop offset="0.06" stop-color="#FBD1A6" stop-opacity="0"/>
<stop offset="0.09" stop-color="#FBD1A6" stop-opacity="0.07"/>
<stop offset="0.2" stop-color="#FBD1A6" stop-opacity="0.28"/>
<stop offset="0.3" stop-color="#FBD1A6" stop-opacity="0.48"/>
<stop offset="0.41" stop-color="#FBD1A6" stop-opacity="0.64"/>
<stop offset="0.52" stop-color="#FBD1A6" stop-opacity="0.77"/>
<stop offset="0.63" stop-color="#FBD1A6" stop-opacity="0.87"/>
<stop offset="0.74" stop-color="#FBD1A6" stop-opacity="0.94"/>
<stop offset="0.86" stop-color="#FBD1A6" stop-opacity="0.99"/>
<stop offset="1" stop-color="#FBD1A6"/>
</linearGradient>
<radialGradient id="paint12_radial_2004_2292" cx="0" cy="0" r="1" gradientUnits="userSpaceOnUse" gradientTransform="translate(212.847 133.188) scale(12.57)">
<stop stop-color="#FBD1A6" stop-opacity="0"/>
<stop offset="0.15" stop-color="#FBD1A6" stop-opacity="0.01"/>
<stop offset="0.28" stop-color="#FBD1A6" stop-opacity="0.06"/>
<stop offset="0.4" stop-color="#FBD1A6" stop-opacity="0.13"/>
<stop offset="0.52" stop-color="#FBD1A6" stop-opacity="0.23"/>
<stop offset="0.63" stop-color="#FBD1A6" stop-opacity="0.35"/>
<stop offset="0.74" stop-color="#FBD1A6" stop-opacity="0.51"/>
<stop offset="0.85" stop-color="#FBD1A6" stop-opacity="0.7"/>
<stop offset="0.96" stop-color="#FBD1A6" stop-opacity="0.91"/>
<stop offset="1" stop-color="#FBD1A6"/>
</radialGradient>
<linearGradient id="paint13_linear_2004_2292" x1="160" y1="0" x2="160" y2="260" gradientUnits="userSpaceOnUse">
<stop stop-color="#F5E6D1" stop-opacity="0"/>
<stop offset="0.6" stop-color="#F5E6D1" stop-opacity="0"/>
<stop offset="1" stop-color="#261A0D" stop-opacity="0.25"/>
</linearGradient>
<clipPath id="clip0_2004_2292">
<rect width="320" height="175" rx="16" fill="white"/>
</clipPath>
</defs>
</svg>
