<svg width="16" height="16" viewBox="0 0 16 16" fill="none" xmlns="http://www.w3.org/2000/svg">
<g clip-path="url(#clip0_3535_8907)">
<path d="M13.4998 5.6H12.1248V3.6C12.1248 2.64522 11.6902 1.72955 10.9167 1.05442C10.1431 0.379285 9.09386 0 7.99984 0C6.90582 0 5.85661 0.379285 5.08302 1.05442C4.30943 1.72955 3.87484 2.64522 3.87484 3.6V5.6H2.49984C2.01361 5.6 1.54729 5.76857 1.20347 6.06863C0.859658 6.36869 0.666504 6.77565 0.666504 7.2V14.4C0.666504 14.8243 0.859658 15.2313 1.20347 15.5314C1.54729 15.8314 2.01361 16 2.49984 16H13.4998C13.9861 16 14.4524 15.8314 14.7962 15.5314C15.14 15.2313 15.3332 14.8243 15.3332 14.4V7.2C15.3332 6.77565 15.14 6.36869 14.7962 6.06863C14.4524 5.76857 13.9861 5.6 13.4998 5.6ZM8.9165 12C8.9165 12.2122 8.81993 12.4157 8.64802 12.5657C8.47611 12.7157 8.24295 12.8 7.99984 12.8C7.75672 12.8 7.52356 12.7157 7.35166 12.5657C7.17975 12.4157 7.08317 12.2122 7.08317 12V9.6C7.08317 9.38783 7.17975 9.18434 7.35166 9.03431C7.52356 8.88429 7.75672 8.8 7.99984 8.8C8.24295 8.8 8.47611 8.88429 8.64802 9.03431C8.81993 9.18434 8.9165 9.38783 8.9165 9.6V12ZM10.2915 5.6H5.70817V3.6C5.70817 3.06957 5.94961 2.56086 6.37938 2.18579C6.80916 1.81071 7.39205 1.6 7.99984 1.6C8.60763 1.6 9.19052 1.81071 9.62029 2.18579C10.0501 2.56086 10.2915 3.06957 10.2915 3.6V5.6Z" fill="#AF9160"/>
</g>
<defs>
<clipPath id="clip0_3535_8907">
<rect width="16" height="16" fill="white"/>
</clipPath>
</defs>
</svg>
