<svg width="25" height="23" viewBox="0 0 25 23" fill="none" xmlns="http://www.w3.org/2000/svg">
<path d="M17.2999 22.727L16.9028 22.0964C18.0239 21.1776 18.966 20.1733 19.7291 19.0832C20.4921 18.0088 21.076 16.8253 21.4809 15.5329C21.8857 14.2404 22.0882 12.8156 22.0882 11.2584C22.0882 8.95378 21.6366 6.93723 20.7334 5.20876C19.8458 3.48029 18.569 1.94647 16.9028 0.607299L17.2999 0C18.8882 0.794162 20.2273 1.75183 21.3174 2.873C22.4074 3.99417 23.2327 5.26327 23.7933 6.6803C24.3539 8.08176 24.6342 9.61558 24.6342 11.2818C24.6342 12.9791 24.3539 14.5441 23.7933 15.9767C23.2327 17.4093 22.4074 18.6861 21.3174 19.8073C20.2273 20.9441 18.8882 21.9173 17.2999 22.727Z" fill="#707070"/>
<path d="M16.9803 10.781V12.6697H7.68738V10.781H16.9803Z" fill="#AF9160" stroke="#AF9160" stroke-width="0.3"/>
<path d="M7.33431 22.727C5.76156 21.9173 4.43017 20.9441 3.34015 19.8073C2.25012 18.6861 1.41703 17.4093 0.840877 15.9767C0.280292 14.5441 0 12.9791 0 11.2818C0 9.61558 0.280292 8.08176 0.840877 6.6803C1.40146 5.26327 2.22677 3.99417 3.31679 2.873C4.40682 1.75183 5.74599 0.794162 7.33431 0L7.75475 0.607299C6.08857 1.94647 4.8039 3.48029 3.90073 5.20876C2.99757 6.93723 2.54599 8.95378 2.54599 11.2584C2.54599 12.8156 2.74842 14.2404 3.15329 15.5329C3.55815 16.8253 4.1421 18.0088 4.90511 19.0832C5.6837 20.1733 6.63358 21.1776 7.75475 22.0964L7.33431 22.727Z" fill="#707070"/>
</svg>
