<svg width="48" height="48" viewBox="0 0 48 48" fill="none" xmlns="http://www.w3.org/2000/svg">
<g clip-path="url(#clip0_2714_2298)">
<path d="M48 11.7524V36.2576C48 37.9079 47.66 39.4682 47.05 40.8985C45.25 45.0794 41.09 48.01 36.25 48.01H11.75C6.91 48.01 2.75 45.0894 0.95 40.8985C0.34 39.4682 0 37.8979 0 36.2576V11.7524C0 5.2611 5.26 0 11.75 0H36.25C42.74 0 48 5.2611 48 11.7524Z" fill="#F9F7F3"/>
<path opacity="0.3" d="M24.28 44.7794C34.3537 44.7794 42.52 42.1283 42.52 38.8581C42.52 35.5879 34.3537 32.9369 24.28 32.9369C14.2064 32.9369 6.04004 35.5879 6.04004 38.8581C6.04004 42.1283 14.2064 44.7794 24.28 44.7794Z" fill="#D2B88A"/>
<path d="M23.8496 38.9081C33.3545 38.9081 41.0597 31.2013 41.0597 21.6945C41.0597 12.1877 33.3545 4.4809 23.8496 4.4809C14.3448 4.4809 6.63965 12.1877 6.63965 21.6945C6.63965 31.2013 14.3448 38.9081 23.8496 38.9081Z" fill="url(#paint0_radial_2714_2298)"/>
<path d="M34.9996 9.50143C35.7508 9.50143 36.3596 8.89254 36.3596 8.14143C36.3596 7.39033 35.7508 6.78143 34.9996 6.78143C34.2485 6.78143 33.6396 7.39033 33.6396 8.14143C33.6396 8.89254 34.2485 9.50143 34.9996 9.50143Z" fill="#A98B60"/>
<path d="M7.6598 24.4746C8.41091 24.4746 9.0198 23.8657 9.0198 23.1146C9.0198 22.3635 8.41091 21.7546 7.6598 21.7546C6.9087 21.7546 6.2998 22.3635 6.2998 23.1146C6.2998 23.8657 6.9087 24.4746 7.6598 24.4746Z" fill="#D2B88A"/>
<path d="M40.2199 27.5852C40.971 27.5852 41.5799 26.9763 41.5799 26.2252C41.5799 25.4741 40.971 24.8652 40.2199 24.8652C39.4688 24.8652 38.8599 25.4741 38.8599 26.2252C38.8599 26.9763 39.4688 27.5852 40.2199 27.5852Z" fill="#D2B88A"/>
<path d="M33.1302 24.4052C31.6102 22.1947 30.5002 14.8832 30.5002 14.8832L24.2802 14.5531L18.0602 14.8832C18.0602 14.8832 16.9402 22.1947 15.4302 24.4052C14.0802 26.3756 9.4102 31.7667 13.4702 35.8075C14.3702 36.6977 15.5302 37.2778 16.7602 37.5779L24.2802 39.4483L31.8002 37.5779C33.0302 37.2678 34.1902 36.6977 35.0902 35.8075C39.1602 31.7767 34.4802 26.3756 33.1302 24.4052Z" fill="#1F1912"/>
<path d="M31.1302 25.8855C30.1302 25.3353 28.9702 25.0353 27.7202 25.0353H20.8302C16.1402 25.0353 12.7102 29.4762 13.9002 34.0171L14.1902 35.1474L15.5802 40.4285C15.8102 41.3087 16.6102 41.9188 17.5102 41.9188H31.0302C31.9402 41.9188 32.7302 41.3087 32.9602 40.4285L34.3502 35.1474L34.6502 34.0171C35.5202 30.6765 33.9102 27.4058 31.1302 25.8955V25.8855Z" fill="#D2B88A"/>
<path d="M31.1302 25.8855C30.1302 25.3353 28.9702 25.0353 27.7202 25.0353H20.8302C16.1402 25.0353 12.7102 29.4762 13.9002 34.0171L14.1902 35.1474L15.5802 40.4285C15.8102 41.3087 16.6102 41.9188 17.5102 41.9188H31.0302C31.9402 41.9188 32.7302 41.3087 32.9602 40.4285L34.3502 35.1474L34.6502 34.0171C35.5202 30.6765 33.9102 27.4058 31.1302 25.8955V25.8855Z" fill="url(#paint1_linear_2714_2298)"/>
<path opacity="0.3" d="M31.1302 25.8853C27.9702 27.9053 23.9802 27.3453 23.9802 27.3453L23.6602 25.0353H27.7302C28.9702 25.0353 30.1302 25.3453 31.1402 25.8853H31.1302Z" fill="#1F1912"/>
<path d="M24.0003 33.3967C24.4089 33.3967 24.7403 33.0654 24.7403 32.6567C24.7403 32.248 24.4089 31.9167 24.0003 31.9167C23.5916 31.9167 23.2603 32.248 23.2603 32.6567C23.2603 33.0654 23.5916 33.3967 24.0003 33.3967Z" fill="#750D33"/>
<path d="M23.9802 30.5161C24.3889 30.5161 24.7202 30.1848 24.7202 29.7761C24.7202 29.3674 24.3889 29.0361 23.9802 29.0361C23.5715 29.0361 23.2402 29.3674 23.2402 29.7761C23.2402 30.1848 23.5715 30.5161 23.9802 30.5161Z" fill="#750D33"/>
<path d="M32.0702 17.1536C32.8702 17.3636 33.3402 18.1936 33.1302 18.9836L32.6602 20.7136C32.4502 21.5136 31.6202 21.9837 30.8302 21.7737C30.0302 21.5637 29.5602 20.7337 29.7702 19.9437L30.2402 18.2136C30.4502 17.4136 31.2802 16.9436 32.0702 17.1536Z" fill="#E4B78E"/>
<path d="M15.6403 17.1536C14.8403 17.3636 14.3703 18.1936 14.5803 18.9836L15.0503 20.7136C15.2603 21.5136 16.0903 21.9837 16.8803 21.7737C17.6803 21.5637 18.1503 20.7337 17.9403 19.9437L17.4703 18.2136C17.2603 17.4136 16.4303 16.9436 15.6403 17.1536Z" fill="#E4B78E"/>
<path d="M31.99 15.9134C31.99 16.3035 31.96 16.7336 31.89 17.1736C31.29 21.3745 27.98 27.3458 23.97 27.3458C19.96 27.3458 16.62 21.3045 16.05 17.1036C15.99 16.6835 15.96 16.2835 15.96 15.9134C15.96 11.7825 19.55 8.43182 23.96 8.43182C28.37 8.43182 31.97 11.7825 31.97 15.9134H31.99Z" fill="#F8CEA3"/>
<path d="M27.9101 19.2941C27.9101 19.2941 26.4101 20.7841 24.8701 19.2941" stroke="#1F1912" stroke-width="0.71" stroke-linecap="round" stroke-linejoin="round"/>
<path d="M19.79 19.2941C19.79 19.2941 21.29 20.7841 22.83 19.2941" stroke="#1F1912" stroke-width="0.71" stroke-linecap="round" stroke-linejoin="round"/>
<path d="M22.1001 23.1149C22.1001 23.1149 23.7401 24.6049 25.6101 23.1149" stroke="#750D33" stroke-width="0.71" stroke-linecap="round" stroke-linejoin="round"/>
<path d="M31.99 15.9134C31.99 16.3035 31.96 16.7336 31.89 17.1736C27.76 17.3637 26.57 13.0128 26.57 13.0128C24.25 17.6637 16.05 17.1036 16.05 17.1036C15.99 16.6835 15.96 16.2835 15.96 15.9134C15.96 11.7825 19.55 8.43182 23.96 8.43182C28.37 8.43182 31.97 11.7825 31.97 15.9134H31.99Z" fill="#1F1912"/>
</g>
<defs>
<radialGradient id="paint0_radial_2714_2298" cx="0" cy="0" r="1" gradientUnits="userSpaceOnUse" gradientTransform="translate(23.8496 21.6945) scale(17.21 17.2136)">
<stop stop-color="#F8CEA3" stop-opacity="0"/>
<stop offset="0.15" stop-color="#F8CEA3" stop-opacity="0.01"/>
<stop offset="0.28" stop-color="#F8CEA3" stop-opacity="0.06"/>
<stop offset="0.41" stop-color="#F8CEA3" stop-opacity="0.13"/>
<stop offset="0.52" stop-color="#F8CEA3" stop-opacity="0.23"/>
<stop offset="0.64" stop-color="#F8CEA3" stop-opacity="0.36"/>
<stop offset="0.75" stop-color="#F8CEA3" stop-opacity="0.52"/>
<stop offset="0.86" stop-color="#F8CEA3" stop-opacity="0.71"/>
<stop offset="0.96" stop-color="#F8CEA3" stop-opacity="0.92"/>
<stop offset="1" stop-color="#F8CEA3"/>
</radialGradient>
<linearGradient id="paint1_linear_2714_2298" x1="24.2802" y1="25.0253" x2="24.2802" y2="41.9088" gradientUnits="userSpaceOnUse">
<stop offset="0.06" stop-color="#1F1912" stop-opacity="0"/>
<stop offset="0.49" stop-color="#1F1912" stop-opacity="0.37"/>
<stop offset="1" stop-color="#1F1912"/>
</linearGradient>
<clipPath id="clip0_2714_2298">
<rect width="48" height="48" fill="white"/>
</clipPath>
</defs>
</svg>
