<svg width="180" height="180" viewBox="0 0 180 180" fill="none" xmlns="http://www.w3.org/2000/svg">
<path opacity="0.5" d="M92.2613 141.1C128.839 141.1 158.491 111.448 158.491 74.8699C158.491 38.2921 128.839 8.63989 92.2613 8.63989C55.6834 8.63989 26.0312 38.2921 26.0312 74.8699C26.0312 111.448 55.6834 141.1 92.2613 141.1Z" fill="url(#paint0_radial_2714_2592)"/>
<path d="M92.262 126.55C120.804 126.55 143.942 103.412 143.942 74.8699C143.942 46.3279 120.804 23.1899 92.262 23.1899C63.72 23.1899 40.582 46.3279 40.582 74.8699C40.582 103.412 63.72 126.55 92.262 126.55Z" fill="url(#paint1_radial_2714_2592)"/>
<path d="M93.7902 171.61C128.198 171.61 156.09 164.549 156.09 155.84C156.09 147.13 128.198 140.07 93.7902 140.07C59.3829 140.07 31.4902 147.13 31.4902 155.84C31.4902 164.549 59.3829 171.61 93.7902 171.61Z" fill="url(#paint2_linear_2714_2592)"/>
<path d="M28.9203 138.11C28.8003 140.13 30.4203 141.8 32.0203 143.04C36.0603 146.18 45.5903 151.44 50.7503 148.38C48.8403 145.68 44.7003 142.72 41.7903 141.11C37.8903 138.94 33.3803 137.84 28.9203 138.12V138.11Z" fill="#382F25"/>
<path d="M28.9203 138.11C28.8003 140.13 30.4203 141.8 32.0203 143.04C36.0603 146.18 45.5903 151.44 50.7503 148.38C48.8403 145.68 44.7003 142.72 41.7903 141.11C37.8903 138.94 33.3803 137.84 28.9203 138.12V138.11Z" fill="url(#paint3_linear_2714_2592)"/>
<path d="M52.5897 128.19C53.9997 129.14 54.2997 131.07 54.3097 132.78C54.3597 137.09 53.0297 146.15 48.3397 148.05C47.5097 145.39 47.6297 141.11 48.0297 138.34C48.5697 134.62 50.1297 131.04 52.5797 128.2L52.5897 128.19Z" fill="#382F25"/>
<path d="M34.7109 116.05C34.7109 116.05 38.3809 149.01 65.6909 155.69" stroke="#382F25" stroke-width="3.27" stroke-miterlimit="10"/>
<path d="M47.4607 118.41C45.3807 117.1 41.7507 116.41 38.8007 116.05C41.7507 115.69 45.3807 115 47.4507 113.69C49.9207 112.13 50.5807 109.43 50.7307 107.66C50.8207 106.56 50.1807 105.55 49.1507 105.16C47.4807 104.54 44.7607 103.98 42.2907 105.54C40.8407 106.46 39.3307 108.21 38.0107 110.04C38.8507 107.95 39.5207 105.74 39.5207 104.02C39.5207 101.1 37.5907 99.0998 36.1707 98.0198C35.3007 97.3498 34.0907 97.3498 33.2207 98.0198C31.8007 99.0898 29.8807 101.1 29.8807 104.02C29.8807 105.74 30.5507 107.95 31.3907 110.04C30.0707 108.21 28.5607 106.46 27.1107 105.54C24.6407 103.98 21.9207 104.54 20.2507 105.16C19.2207 105.55 18.5807 106.56 18.6707 107.66C18.8207 109.43 19.4807 112.13 21.9507 113.69C24.0207 115 27.6507 115.69 30.6007 116.05C27.6507 116.41 24.0207 117.09 21.9407 118.41C19.4707 119.97 18.8107 122.67 18.6607 124.44C18.5707 125.53 19.2107 126.55 20.2407 126.94C21.9007 127.57 24.6207 128.13 27.1007 126.56C28.5607 125.64 30.0707 123.88 31.3907 122.05C30.5507 124.15 29.8707 126.36 29.8707 128.09C29.8707 131.01 31.8007 133.01 33.2207 134.09C34.0907 134.75 35.3007 134.75 36.1707 134.09C37.5907 133.02 39.5207 131.02 39.5207 128.09C39.5207 126.36 38.8407 124.15 38.0007 122.05C39.3207 123.89 40.8307 125.64 42.2907 126.56C44.7607 128.12 47.4807 127.56 49.1507 126.94C50.1807 126.55 50.8207 125.54 50.7307 124.44C50.5807 122.67 49.9207 119.97 47.4507 118.41H47.4607Z" fill="#D2B88A"/>
<path d="M47.4607 118.41C45.3807 117.1 41.7507 116.41 38.8007 116.05C41.7507 115.69 45.3807 115 47.4507 113.69C49.9207 112.13 50.5807 109.43 50.7307 107.66C50.8207 106.56 50.1807 105.55 49.1507 105.16C47.4807 104.54 44.7607 103.98 42.2907 105.54C40.8407 106.46 39.3307 108.21 38.0107 110.04C38.8507 107.95 39.5207 105.74 39.5207 104.02C39.5207 101.1 37.5907 99.0998 36.1707 98.0198C35.3007 97.3498 34.0907 97.3498 33.2207 98.0198C31.8007 99.0898 29.8807 101.1 29.8807 104.02C29.8807 105.74 30.5507 107.95 31.3907 110.04C30.0707 108.21 28.5607 106.46 27.1107 105.54C24.6407 103.98 21.9207 104.54 20.2507 105.16C19.2207 105.55 18.5807 106.56 18.6707 107.66C18.8207 109.43 19.4807 112.13 21.9507 113.69C24.0207 115 27.6507 115.69 30.6007 116.05C27.6507 116.41 24.0207 117.09 21.9407 118.41C19.4707 119.97 18.8107 122.67 18.6607 124.44C18.5707 125.53 19.2107 126.55 20.2407 126.94C21.9007 127.57 24.6207 128.13 27.1007 126.56C28.5607 125.64 30.0707 123.88 31.3907 122.05C30.5507 124.15 29.8707 126.36 29.8707 128.09C29.8707 131.01 31.8007 133.01 33.2207 134.09C34.0907 134.75 35.3007 134.75 36.1707 134.09C37.5907 133.02 39.5207 131.02 39.5207 128.09C39.5207 126.36 38.8407 124.15 38.0007 122.05C39.3207 123.89 40.8307 125.64 42.2907 126.56C44.7607 128.12 47.4807 127.56 49.1507 126.94C50.1807 126.55 50.8207 125.54 50.7307 124.44C50.5807 122.67 49.9207 119.97 47.4507 118.41H47.4607Z" fill="url(#paint4_linear_2714_2592)"/>
<path d="M34.7104 119.11C33.0204 119.11 31.6504 117.74 31.6504 116.05C31.6504 114.36 33.0204 112.99 34.7104 112.99C36.4004 112.99 37.7704 114.36 37.7704 116.05C37.7704 117.74 36.4004 119.11 34.7104 119.11Z" fill="#750D33"/>
<path d="M82.9211 151.84C71.9311 151.84 63.4511 146.03 59.0011 135.43C57.3011 131.38 56.9311 126.67 57.9511 122.16L70.8811 65.0799C72.0711 59.8399 75.0411 55.5799 79.0411 53.3899L83.6211 50.8799C84.9411 50.1499 86.6111 50.6399 87.3311 51.9599C88.0611 53.2799 87.5711 54.9499 86.2511 55.6699L81.6711 58.1799C79.0811 59.5999 77.0411 62.6299 76.2111 66.2899L63.2811 123.37C62.5211 126.73 62.7911 130.36 64.0411 133.32C66.5511 139.3 71.8611 146.38 82.9211 146.38C83.0411 146.38 83.1611 146.38 83.2811 146.38H83.3211C84.8111 146.38 86.0311 147.58 86.0511 149.08C86.0711 150.59 84.8611 151.83 83.3511 151.85C83.2011 151.85 83.0611 151.85 82.9111 151.85L82.9211 151.84Z" fill="#AC8E60"/>
<path d="M82.9211 151.84C71.9311 151.84 63.4511 146.03 59.0011 135.43C57.3011 131.38 56.9311 126.67 57.9511 122.16L70.8811 65.0799C72.0711 59.8399 75.0411 55.5799 79.0411 53.3899L83.6211 50.8799C84.9411 50.1499 86.6111 50.6399 87.3311 51.9599C88.0611 53.2799 87.5711 54.9499 86.2511 55.6699L81.6711 58.1799C79.0811 59.5999 77.0411 62.6299 76.2111 66.2899L63.2811 123.37C62.5211 126.73 62.7911 130.36 64.0411 133.32C66.5511 139.3 71.8611 146.38 82.9211 146.38C83.0411 146.38 83.1611 146.38 83.2811 146.38H83.3211C84.8111 146.38 86.0311 147.58 86.0511 149.08C86.0711 150.59 84.8611 151.83 83.3511 151.85C83.2011 151.85 83.0611 151.85 82.9111 151.85L82.9211 151.84Z" fill="url(#paint5_linear_2714_2592)"/>
<path d="M99.2098 151.84C110.2 151.84 118.68 146.03 123.13 135.43C124.83 131.38 125.2 126.67 124.18 122.16L111.25 65.0799C110.06 59.8399 107.09 55.5799 103.09 53.3899L98.5098 50.8799C97.1898 50.1499 95.5198 50.6399 94.7998 51.9599C94.0698 53.2799 94.5598 54.9499 95.8798 55.6699L100.46 58.1799C103.05 59.5999 105.09 62.6299 105.92 66.2899L118.85 123.37C119.61 126.73 119.34 130.36 118.09 133.32C115.58 139.3 110.27 146.38 99.2098 146.38C99.0898 146.38 98.9698 146.38 98.8498 146.38H98.8098C97.3198 146.38 96.0998 147.58 96.0798 149.08C96.0598 150.59 97.2698 151.83 98.7798 151.85C98.9298 151.85 99.0698 151.85 99.2198 151.85L99.2098 151.84Z" fill="#AC8E60"/>
<path d="M99.2098 151.84C110.2 151.84 118.68 146.03 123.13 135.43C124.83 131.38 125.2 126.67 124.18 122.16L111.25 65.0799C110.06 59.8399 107.09 55.5799 103.09 53.3899L98.5098 50.8799C97.1898 50.1499 95.5198 50.6399 94.7998 51.9599C94.0698 53.2799 94.5598 54.9499 95.8798 55.6699L100.46 58.1799C103.05 59.5999 105.09 62.6299 105.92 66.2899L118.85 123.37C119.61 126.73 119.34 130.36 118.09 133.32C115.58 139.3 110.27 146.38 99.2098 146.38C99.0898 146.38 98.9698 146.38 98.8498 146.38H98.8098C97.3198 146.38 96.0998 147.58 96.0798 149.08C96.0598 150.59 97.2698 151.83 98.7798 151.85C98.9298 151.85 99.0698 151.85 99.2198 151.85L99.2098 151.84Z" fill="url(#paint6_linear_2714_2592)"/>
<path d="M96.3302 55.6499H86.0202C82.4502 55.6499 79.3402 53.3599 78.2802 49.9499L72.3502 30.8899C71.5702 28.3999 72.0202 25.7699 73.5602 23.6699C75.1002 21.5699 77.4902 20.3699 80.0902 20.3699H102.78C105.43 20.3699 107.83 21.5999 109.37 23.7499C110.91 25.8999 111.31 28.5699 110.46 31.0799L104.01 50.1399C102.89 53.4399 99.8102 55.6499 96.3302 55.6499ZM80.0902 24.9299C78.9502 24.9299 77.9102 25.4599 77.2302 26.3799C76.5502 27.2999 76.3602 28.4499 76.7002 29.5399L82.6302 48.5999C83.1002 50.0899 84.4602 51.0999 86.0202 51.0999H96.3302C97.8502 51.0999 99.2102 50.1299 99.7002 48.6899L106.15 29.6299C106.52 28.5299 106.35 27.3599 105.67 26.4199C104.99 25.4799 103.94 24.9399 102.78 24.9399H80.0902V24.9299Z" fill="#AC8E60"/>
<path d="M96.3302 55.6499H86.0202C82.4502 55.6499 79.3402 53.3599 78.2802 49.9499L72.3502 30.8899C71.5702 28.3999 72.0202 25.7699 73.5602 23.6699C75.1002 21.5699 77.4902 20.3699 80.0902 20.3699H102.78C105.43 20.3699 107.83 21.5999 109.37 23.7499C110.91 25.8999 111.31 28.5699 110.46 31.0799L104.01 50.1399C102.89 53.4399 99.8102 55.6499 96.3302 55.6499ZM80.0902 24.9299C78.9502 24.9299 77.9102 25.4599 77.2302 26.3799C76.5502 27.2999 76.3602 28.4499 76.7002 29.5399L82.6302 48.5999C83.1002 50.0899 84.4602 51.0999 86.0202 51.0999H96.3302C97.8502 51.0999 99.2102 50.1299 99.7002 48.6899L106.15 29.6299C106.52 28.5299 106.35 27.3599 105.67 26.4199C104.99 25.4799 103.94 24.9399 102.78 24.9399H80.0902V24.9299Z" fill="url(#paint7_linear_2714_2592)"/>
<path d="M94.4715 45.2598H87.7715V53.2698H94.4715V45.2598Z" fill="#382F25"/>
<path d="M112.631 118.77C112.631 136.88 103.141 143.68 91.4209 143.68C79.7009 143.68 70.2109 136.88 70.2109 118.77C70.2109 108.82 76.6209 92.9697 82.3909 80.7197C85.9909 73.0797 96.8609 73.0797 100.451 80.7197C106.221 92.9697 112.631 108.82 112.631 118.77Z" fill="#F1EBE0"/>
<path d="M112.631 118.77C112.631 136.88 103.141 143.68 91.4209 143.68C79.7009 143.68 70.2109 136.88 70.2109 118.77C70.2109 108.82 76.6209 92.9697 82.3909 80.7197C85.9909 73.0797 96.8609 73.0797 100.451 80.7197C106.221 92.9697 112.631 108.82 112.631 118.77Z" fill="white"/>
<path d="M112.631 118.77C112.631 136.88 103.141 143.68 91.4209 143.68C79.7009 143.68 70.2109 136.88 70.2109 118.77C70.2109 108.82 76.6209 92.9697 82.3909 80.7197C85.9909 73.0797 96.8609 73.0797 100.451 80.7197C106.221 92.9697 112.631 108.82 112.631 118.77Z" fill="url(#paint8_linear_2714_2592)"/>
<path d="M92.6802 108.72H91.1602V116.81H92.6802V108.72Z" fill="#382F25"/>
<path d="M97.3112 114.68H86.5312V136.21H97.3112V114.68Z" fill="url(#paint9_linear_2714_2592)"/>
<path d="M98.4512 92.2499C97.4812 92.2499 96.6213 91.6399 96.2913 90.7299C93.8913 84.0599 91.6013 79.5599 91.5312 79.4399L95.5813 77.3499C95.8413 77.8599 98.1813 82.4499 100.611 89.1599C101.151 90.6599 100.041 92.2399 98.4512 92.2399V92.2499Z" fill="white"/>
<path d="M102.541 136.13L98.4707 134.09C102.551 125.96 102.371 115.82 100.641 106.48C100.381 105.07 101.451 103.76 102.891 103.76C104.011 103.76 104.951 104.56 105.151 105.66C107.001 115.78 107.151 126.94 102.521 136.13H102.541Z" fill="white"/>
<path d="M109.811 134.02C111.341 134.02 112.421 135.59 111.811 136.99C110.151 140.78 105.391 143.87 99.1815 145.28C96.7815 145.84 94.1715 146.14 91.4315 146.14H91.3215C81.5315 146.11 73.3115 142.22 71.0415 136.98C70.4315 135.58 71.5215 134.03 73.0415 134.03H109.811V134.02Z" fill="#AC8E60"/>
<path d="M104.882 161.15H77.9617C75.6317 161.15 74.0817 158.73 75.0517 156.61C76.7717 152.84 80.5817 150.22 85.0017 150.22H97.8417C100.862 150.22 103.592 151.44 105.572 153.42C105.712 153.56 105.842 153.7 105.982 153.86C106.732 154.69 107.352 155.65 107.822 156.69C108.762 158.79 107.182 161.16 104.882 161.16V161.15Z" fill="#AC8E60"/>
<path d="M105.991 153.86C94.4411 157.13 81.8711 151.33 81.8711 151.33L88.6411 150.22H97.8511C100.871 150.22 103.601 151.44 105.581 153.42C105.721 153.56 105.851 153.7 105.991 153.86Z" fill="url(#paint10_linear_2714_2592)"/>
<path d="M105.681 134.02L99.1811 145.28C96.7811 145.84 94.1711 146.14 91.4311 146.14H91.3211L91.1211 146.02L98.0511 134.02H105.681Z" fill="#D2B88A"/>
<path d="M100.982 144.28H81.8718C79.9222 144.28 78.3418 145.86 78.3418 147.81C78.3418 149.759 79.9222 151.34 81.8718 151.34H100.982C102.931 151.34 104.512 149.759 104.512 147.81C104.512 145.86 102.931 144.28 100.982 144.28Z" fill="#AC8E60"/>
<path d="M97.3116 54.73H84.9316V65.07H97.3116V54.73Z" fill="#382F25"/>
<path d="M86.6905 59.6099H95.5505C98.2905 59.6099 100.51 61.8299 100.51 64.5699V78.3899H81.7305V64.5699C81.7305 61.8299 83.9505 59.6099 86.6905 59.6099Z" fill="#AC8E60"/>
<path d="M100.51 64.5699V78.3999H81.7305V64.5699C81.7305 61.8299 83.9405 59.6099 86.6905 59.6099H95.5405C98.2805 59.6099 100.5 61.8299 100.5 64.5699H100.51Z" fill="url(#paint11_linear_2714_2592)"/>
<path d="M100.671 74.8699H81.5612C79.6117 74.8699 78.0312 76.4503 78.0312 78.3999C78.0312 80.3494 79.6117 81.9299 81.5612 81.9299H100.671C102.621 81.9299 104.201 80.3494 104.201 78.3999C104.201 76.4503 102.621 74.8699 100.671 74.8699Z" fill="#AC8E60"/>
<path d="M100.51 53.1698V53.3798C100.51 54.8298 99.3305 56.0098 97.8805 56.0098H84.3605C82.9105 56.0098 81.7305 54.8298 81.7305 53.3798V53.1698C81.7305 51.7098 82.9105 50.5298 84.3605 50.5298H97.8805C99.3305 50.5298 100.51 51.7098 100.51 53.1698Z" fill="#AC8E60"/>
<path d="M91.1216 47.8298C86.2916 47.8298 82.3516 43.8998 82.3516 39.0698C82.3516 34.2398 86.2816 30.2998 91.1216 30.2998C95.9616 30.2998 99.8916 34.2298 99.8916 39.0698C99.8916 43.9098 95.9616 47.8298 91.1216 47.8298ZM91.1216 33.9498C88.3016 33.9498 86.0016 36.2498 86.0016 39.0698C86.0016 41.8898 88.3016 44.1898 91.1216 44.1898C93.9416 44.1898 96.2416 41.8898 96.2416 39.0698C96.2416 36.2498 93.9416 33.9498 91.1216 33.9498Z" fill="#750D33"/>
<path d="M94.4708 50.5298H90.0508V55.9998H94.4708V50.5298Z" fill="url(#paint12_linear_2714_2592)"/>
<path d="M94.4708 59.6099H90.0508V79.4399H94.4708V59.6099Z" fill="url(#paint13_linear_2714_2592)"/>
<path d="M137.681 107.35C137.681 107.35 139.101 129.82 124.781 145.51" stroke="#382F25" stroke-width="3.27" stroke-miterlimit="10"/>
<path d="M152.14 115.44C152.79 117.35 151.68 119.39 150.47 121.02C147.41 125.12 139.63 132.73 133.84 131.15C134.96 128.04 138.16 124.08 140.54 121.75C143.72 118.62 147.77 116.36 152.15 115.44H152.14Z" fill="#382F25"/>
<path d="M146.16 104.46C144.51 103.97 141.93 104.19 139.87 104.51C141.79 103.71 144.11 102.56 145.26 101.28C146.63 99.7599 146.56 97.8099 146.33 96.5899C146.18 95.8299 145.56 95.2699 144.79 95.1999C143.55 95.0999 141.6 95.2299 140.23 96.7599C139.42 97.6599 138.74 99.1199 138.19 100.61C138.36 99.0399 138.4 97.4199 138.07 96.2599C137.52 94.2899 135.84 93.2999 134.67 92.8499C133.95 92.5699 133.14 92.7899 132.68 93.4099C131.93 94.3999 131.01 96.1199 131.56 98.0899C131.89 99.2499 132.76 100.62 133.72 101.87C132.48 100.89 131.13 99.9899 129.98 99.6499C128.02 99.0599 126.29 99.9599 125.28 100.69C124.66 101.15 124.42 101.95 124.69 102.68C125.13 103.85 126.09 105.54 128.05 106.13C129.7 106.62 132.28 106.4 134.34 106.08C132.42 106.88 130.1 108.03 128.94 109.31C127.57 110.83 127.64 112.78 127.87 114C128.02 114.76 128.64 115.32 129.41 115.39C130.65 115.5 132.59 115.36 133.97 113.84C134.78 112.94 135.47 111.47 136.01 109.98C135.84 111.56 135.8 113.18 136.13 114.35C136.68 116.32 138.36 117.31 139.53 117.76C140.25 118.04 141.06 117.81 141.52 117.2C142.27 116.21 143.2 114.49 142.64 112.52C142.31 111.35 141.44 109.99 140.47 108.73C141.71 109.72 143.06 110.62 144.22 110.96C146.18 111.55 147.91 110.65 148.92 109.91C149.54 109.46 149.78 108.65 149.51 107.93C149.07 106.76 148.12 105.07 146.16 104.48V104.46Z" fill="url(#paint14_linear_2714_2592)"/>
<path d="M137.679 107.35C136.539 107.67 135.349 107.01 135.029 105.86C134.709 104.71 135.379 103.53 136.519 103.21C137.659 102.89 138.849 103.55 139.169 104.7C139.489 105.85 138.819 107.03 137.679 107.35Z" fill="#D2B88A"/>
<path d="M122.65 156.3C122.65 156.3 138.45 160.36 147.54 140.07" stroke="#382F25" stroke-width="3.27" stroke-miterlimit="10"/>
<path d="M158.721 142.14C156.901 140.99 153.721 140.39 151.141 140.08C153.721 139.77 156.901 139.16 158.721 138.02C160.881 136.65 161.461 134.29 161.591 132.74C161.671 131.78 161.111 130.89 160.211 130.55C158.751 130 156.371 129.51 154.201 130.88C152.931 131.69 151.611 133.22 150.451 134.82C151.181 132.99 151.771 131.05 151.771 129.55C151.771 126.99 150.081 125.24 148.841 124.3C148.071 123.72 147.021 123.72 146.251 124.3C145.011 125.24 143.321 126.99 143.321 129.55C143.321 131.06 143.911 132.99 144.641 134.82C143.481 133.22 142.161 131.69 140.891 130.88C138.731 129.51 136.341 130 134.891 130.55C133.991 130.89 133.421 131.78 133.511 132.74C133.641 134.29 134.221 136.66 136.391 138.02C138.201 139.17 141.381 139.77 143.971 140.08C141.391 140.39 138.211 140.99 136.391 142.14C134.231 143.51 133.651 145.87 133.521 147.42C133.441 148.38 134.001 149.27 134.901 149.61C136.361 150.16 138.741 150.65 140.901 149.28C142.181 148.47 143.501 146.94 144.661 145.33C143.921 147.17 143.331 149.11 143.331 150.62C143.331 153.18 145.021 154.93 146.261 155.87C147.031 156.45 148.081 156.45 148.851 155.87C150.091 154.93 151.781 153.18 151.781 150.62C151.781 149.11 151.191 147.17 150.451 145.33C151.611 146.94 152.931 148.47 154.211 149.28C156.371 150.65 158.761 150.16 160.211 149.61C161.111 149.27 161.671 148.38 161.591 147.42C161.461 145.87 160.881 143.51 158.721 142.14Z" fill="#AC8E60"/>
<path d="M158.721 142.14C156.901 140.99 153.721 140.39 151.141 140.08C153.721 139.77 156.901 139.16 158.721 138.02C160.881 136.65 161.461 134.29 161.591 132.74C161.671 131.78 161.111 130.89 160.211 130.55C158.751 130 156.371 129.51 154.201 130.88C152.931 131.69 151.611 133.22 150.451 134.82C151.181 132.99 151.771 131.05 151.771 129.55C151.771 126.99 150.081 125.24 148.841 124.3C148.071 123.72 147.021 123.72 146.251 124.3C145.011 125.24 143.321 126.99 143.321 129.55C143.321 131.06 143.911 132.99 144.641 134.82C143.481 133.22 142.161 131.69 140.891 130.88C138.731 129.51 136.341 130 134.891 130.55C133.991 130.89 133.421 131.78 133.511 132.74C133.641 134.29 134.221 136.66 136.391 138.02C138.201 139.17 141.381 139.77 143.971 140.08C141.391 140.39 138.211 140.99 136.391 142.14C134.231 143.51 133.651 145.87 133.521 147.42C133.441 148.38 134.001 149.27 134.901 149.61C136.361 150.16 138.741 150.65 140.901 149.28C142.181 148.47 143.501 146.94 144.661 145.33C143.921 147.17 143.331 149.11 143.331 150.62C143.331 153.18 145.021 154.93 146.261 155.87C147.031 156.45 148.081 156.45 148.851 155.87C150.091 154.93 151.781 153.18 151.781 150.62C151.781 149.11 151.191 147.17 150.451 145.33C151.611 146.94 152.931 148.47 154.211 149.28C156.371 150.65 158.761 150.16 160.211 149.61C161.111 149.27 161.671 148.38 161.591 147.42C161.461 145.87 160.881 143.51 158.721 142.14Z" fill="url(#paint15_linear_2714_2592)"/>
<path d="M147.551 142.76C146.071 142.76 144.871 141.56 144.871 140.08C144.871 138.6 146.071 137.4 147.551 137.4C149.031 137.4 150.231 138.6 150.231 140.08C150.231 141.56 149.031 142.76 147.551 142.76Z" fill="#D2B88A"/>
<path d="M69.3802 50.2798C68.8102 50.2098 68.2402 50.1398 67.6702 50.0798C66.5302 49.9598 65.3802 49.8798 64.2402 49.8098C62.6202 49.7098 61.0002 49.6598 59.3702 49.6298C60.2502 48.7098 61.1202 47.7798 61.9702 46.8198C62.6202 46.0898 63.2602 45.3398 63.8802 44.5798C64.1902 44.1998 64.5002 43.8098 64.8002 43.4198C65.1002 43.0298 65.4002 42.6398 65.6802 42.2298C65.2702 42.5098 64.8802 42.8098 64.4902 43.1098C64.1002 43.4098 63.7202 43.7198 63.3302 44.0298C62.5702 44.6498 61.8202 45.2898 61.0902 45.9398C60.1402 46.7898 59.2002 47.6598 58.2802 48.5398C58.2502 46.9198 58.2002 45.2998 58.1002 43.6698C58.0302 42.5298 57.9402 41.3798 57.8302 40.2398C57.7702 39.6698 57.7102 39.0998 57.6302 38.5298C57.5602 37.9598 57.4802 37.3898 57.3702 36.8198C57.2702 37.3898 57.1902 37.9598 57.1102 38.5298C57.0402 39.0998 56.9702 39.6698 56.9102 40.2398C56.7902 41.3798 56.7102 42.5298 56.6402 43.6698C56.5402 45.2898 56.4902 46.9098 56.4602 48.5298C55.5402 47.6498 54.6102 46.7798 53.6502 45.9298C52.9202 45.2798 52.1702 44.6398 51.4102 44.0198C51.0302 43.7098 50.6402 43.3998 50.2502 43.0998C49.8602 42.7998 49.4602 42.4998 49.0602 42.2198C49.3402 42.6298 49.6402 43.0198 49.9402 43.4098C50.2402 43.7998 50.5502 44.1798 50.8602 44.5698C51.4802 45.3298 52.1202 46.0798 52.7702 46.8098C53.6202 47.7598 54.4802 48.6998 55.3702 49.6098C53.7502 49.6398 52.1302 49.6898 50.5102 49.7898C49.3702 49.8598 48.2202 49.9498 47.0802 50.0598C46.5102 50.1198 45.9402 50.1798 45.3702 50.2598C44.8002 50.3298 44.2302 50.4098 43.6602 50.5198C44.2302 50.6198 44.8002 50.6998 45.3702 50.7798C45.9402 50.8498 46.5102 50.9198 47.0802 50.9798C48.2202 51.0998 49.3702 51.1798 50.5102 51.2498C52.1302 51.3498 53.7502 51.3998 55.3702 51.4298C54.4902 52.3498 53.6202 53.2798 52.7702 54.2298C52.1202 54.9598 51.4802 55.7098 50.8602 56.4698C50.5502 56.8498 50.2402 57.2398 49.9402 57.6298C49.6402 58.0198 49.3402 58.4198 49.0602 58.8198C49.4702 58.5398 49.8602 58.2398 50.2502 57.9398C50.6402 57.6398 51.0202 57.3298 51.4102 57.0198C52.1702 56.3998 52.9202 55.7598 53.6502 55.1098C54.6002 54.2598 55.5402 53.3998 56.4502 52.5098C56.4802 54.1298 56.5302 55.7498 56.6302 57.3698C56.7002 58.5098 56.7902 59.6598 56.9002 60.7998C56.9602 61.3698 57.0202 61.9398 57.1002 62.5098C57.1702 63.0798 57.2502 63.6498 57.3602 64.2198C57.4602 63.6498 57.5402 63.0798 57.6202 62.5098C57.6902 61.9398 57.7602 61.3698 57.8202 60.7998C57.9402 59.6598 58.0202 58.5098 58.0902 57.3698C58.1902 55.7498 58.2402 54.1298 58.2702 52.5098C59.1902 53.3898 60.1202 54.2598 61.0802 55.1098C61.8102 55.7598 62.5602 56.3998 63.3202 57.0198C63.7002 57.3298 64.0902 57.6398 64.4802 57.9398C64.8702 58.2398 65.2602 58.5398 65.6702 58.8198C65.3902 58.4098 65.0902 58.0198 64.7902 57.6298C64.4902 57.2398 64.1802 56.8598 63.8702 56.4698C63.2502 55.7098 62.6102 54.9598 61.9602 54.2298C61.1102 53.2798 60.2402 52.3398 59.3602 51.4198C60.9802 51.3898 62.6002 51.3398 64.2302 51.2398C65.3702 51.1698 66.5202 51.0798 67.6602 50.9698C68.2302 50.9098 68.8002 50.8498 69.3702 50.7698C69.9402 50.6998 70.5102 50.6198 71.0802 50.5098C70.5102 50.4098 69.9402 50.3298 69.3702 50.2498L69.3802 50.2798Z" fill="white"/>
<path d="M139.311 76.1199C138.881 76.0599 138.441 76.0199 138.011 75.9699C137.141 75.8799 136.271 75.8199 135.411 75.7599C134.181 75.6899 132.951 75.6399 131.721 75.6199C132.391 74.9199 133.051 74.2099 133.691 73.4899C134.181 72.9299 134.671 72.3699 135.141 71.7899C135.381 71.4999 135.611 71.2099 135.841 70.9099C136.071 70.6099 136.291 70.3099 136.511 69.9999C136.201 70.2199 135.901 70.4399 135.601 70.6699C135.301 70.8999 135.011 71.1299 134.721 71.3699C134.141 71.8399 133.581 72.3299 133.021 72.8199C132.301 73.4599 131.591 74.1199 130.891 74.7899C130.871 73.5599 130.831 72.3299 130.751 71.0999C130.701 70.2299 130.631 69.3599 130.541 68.4999C130.501 68.0699 130.451 67.6299 130.391 67.1999C130.331 66.7699 130.271 66.3299 130.201 65.8999C130.121 66.3299 130.061 66.7699 130.011 67.1999C129.951 67.6299 129.911 68.0699 129.861 68.4999C129.771 69.3699 129.711 70.2399 129.651 71.0999C129.581 72.3299 129.531 73.5599 129.511 74.7899C128.811 74.1199 128.101 73.4599 127.381 72.8199C126.821 72.3299 126.261 71.8399 125.681 71.3699C125.391 71.1299 125.101 70.8999 124.801 70.6699C124.501 70.4399 124.201 70.2199 123.891 69.9999C124.111 70.3099 124.331 70.6099 124.561 70.9099C124.791 71.2099 125.021 71.4999 125.261 71.7899C125.731 72.3699 126.221 72.9299 126.711 73.4899C127.351 74.2099 128.011 74.9199 128.681 75.6199C127.451 75.6399 126.221 75.6799 124.991 75.7599C124.121 75.8099 123.251 75.8799 122.391 75.9699C121.961 76.0199 121.521 76.0599 121.091 76.1199C120.661 76.1799 120.221 76.2399 119.791 76.3199C120.221 76.3999 120.661 76.4599 121.091 76.5199C121.521 76.5799 121.961 76.6199 122.391 76.6699C123.261 76.7599 124.131 76.8199 124.991 76.8799C126.221 76.9499 127.451 76.9999 128.681 77.0199C128.011 77.7199 127.351 78.4299 126.711 79.1499C126.221 79.7099 125.731 80.2699 125.261 80.8499C125.021 81.1399 124.791 81.4299 124.561 81.7299C124.331 82.0299 124.111 82.3299 123.891 82.6399C124.201 82.4199 124.501 82.1999 124.801 81.9699C125.101 81.7399 125.391 81.5099 125.681 81.2699C126.261 80.7999 126.821 80.3099 127.381 79.8199C128.101 79.1799 128.811 78.5199 129.511 77.8499C129.531 79.0799 129.571 80.3099 129.651 81.5399C129.701 82.4099 129.771 83.2799 129.861 84.1399C129.911 84.5699 129.951 85.0099 130.011 85.4399C130.071 85.8699 130.131 86.3099 130.211 86.7399C130.291 86.3099 130.351 85.8699 130.411 85.4399C130.471 85.0099 130.511 84.5699 130.561 84.1399C130.651 83.2699 130.711 82.3999 130.771 81.5399C130.841 80.3099 130.891 79.0799 130.911 77.8499C131.611 78.5199 132.321 79.1799 133.041 79.8199C133.601 80.3099 134.161 80.7999 134.741 81.2699C135.031 81.5099 135.321 81.7399 135.621 81.9699C135.921 82.1999 136.221 82.4199 136.531 82.6399C136.311 82.3299 136.091 82.0299 135.861 81.7299C135.631 81.4299 135.401 81.1399 135.161 80.8499C134.691 80.2699 134.201 79.7099 133.711 79.1499C133.071 78.4299 132.411 77.7199 131.741 77.0199C132.971 76.9999 134.201 76.9599 135.431 76.8799C136.301 76.8299 137.171 76.7599 138.031 76.6699C138.461 76.6299 138.901 76.5799 139.331 76.5199C139.761 76.4599 140.201 76.3999 140.631 76.3299C140.201 76.2499 139.761 76.1899 139.331 76.1399L139.311 76.1199Z" fill="white"/>
<path d="M122.651 56.0098C123.805 56.0098 124.741 55.0741 124.741 53.9198C124.741 52.7656 123.805 51.8298 122.651 51.8298C121.496 51.8298 120.561 52.7656 120.561 53.9198C120.561 55.0741 121.496 56.0098 122.651 56.0098Z" fill="#AC8E60"/>
<path d="M54.3205 84.0198C55.4747 84.0198 56.4105 83.0841 56.4105 81.9298C56.4105 80.7756 55.4747 79.8398 54.3205 79.8398C53.1662 79.8398 52.2305 80.7756 52.2305 81.9298C52.2305 83.0841 53.1662 84.0198 54.3205 84.0198Z" fill="#AC8E60"/>
<path d="M143.082 35.7699C144.777 35.7699 146.152 34.3954 146.152 32.6999C146.152 31.0044 144.777 29.6299 143.082 29.6299C141.386 29.6299 140.012 31.0044 140.012 32.6999C140.012 34.3954 141.386 35.7699 143.082 35.7699Z" fill="#D2B88A"/>
<path d="M25.8512 157.47C27.5468 157.47 28.9212 156.095 28.9212 154.4C28.9212 152.704 27.5468 151.33 25.8512 151.33C24.1557 151.33 22.7812 152.704 22.7812 154.4C22.7812 156.095 24.1557 157.47 25.8512 157.47Z" fill="#D2B88A"/>
<defs>
<radialGradient id="paint0_radial_2714_2592" cx="0" cy="0" r="1" gradientUnits="userSpaceOnUse" gradientTransform="translate(92.2613 74.8699) scale(66.23)">
<stop stop-color="#D4BA8C" stop-opacity="0"/>
<stop offset="0.18" stop-color="#D4BA8C" stop-opacity="0.35"/>
<stop offset="0.33" stop-color="#D4BA8C" stop-opacity="0.63"/>
<stop offset="0.47" stop-color="#D4BA8C" stop-opacity="0.82"/>
<stop offset="0.57" stop-color="#D4BA8C" stop-opacity="0.95"/>
<stop offset="0.63" stop-color="#D4BA8C" stop-opacity="0.99"/>
<stop offset="1" stop-color="#D4BA8C"/>
</radialGradient>
<radialGradient id="paint1_radial_2714_2592" cx="0" cy="0" r="1" gradientUnits="userSpaceOnUse" gradientTransform="translate(92.262 74.8699) scale(51.68)">
<stop stop-color="#D4BA8C" stop-opacity="0"/>
<stop offset="0.15" stop-color="#D4BA8C" stop-opacity="0.02"/>
<stop offset="0.29" stop-color="#D4BA8C" stop-opacity="0.07"/>
<stop offset="0.42" stop-color="#D4BA8C" stop-opacity="0.16"/>
<stop offset="0.55" stop-color="#D4BA8C" stop-opacity="0.29"/>
<stop offset="0.68" stop-color="#D4BA8C" stop-opacity="0.45"/>
<stop offset="0.81" stop-color="#D4BA8C" stop-opacity="0.65"/>
<stop offset="0.94" stop-color="#D4BA8C" stop-opacity="0.88"/>
<stop offset="1" stop-color="#D4BA8C"/>
</radialGradient>
<linearGradient id="paint2_linear_2714_2592" x1="31.4802" y1="155.84" x2="156.09" y2="155.84" gradientUnits="userSpaceOnUse">
<stop stop-color="#D4BA8C" stop-opacity="0"/>
<stop offset="0.18" stop-color="#D4BA8C" stop-opacity="0.35"/>
<stop offset="0.33" stop-color="#D4BA8C" stop-opacity="0.63"/>
<stop offset="0.47" stop-color="#D4BA8C" stop-opacity="0.82"/>
<stop offset="0.57" stop-color="#D4BA8C" stop-opacity="0.95"/>
<stop offset="0.63" stop-color="#D4BA8C" stop-opacity="0.99"/>
<stop offset="1" stop-color="#D4BA8C"/>
</linearGradient>
<linearGradient id="paint3_linear_2714_2592" x1="28.9103" y1="143.69" x2="50.7503" y2="143.69" gradientUnits="userSpaceOnUse">
<stop stop-color="#AB8D60" stop-opacity="0"/>
<stop offset="0.1" stop-color="#AB8D60" stop-opacity="0.1"/>
<stop offset="0.3" stop-color="#AB8D60" stop-opacity="0.36"/>
<stop offset="0.58" stop-color="#AB8D60" stop-opacity="0.76"/>
<stop offset="0.72" stop-color="#AB8D60" stop-opacity="0.99"/>
<stop offset="1" stop-color="#AB8D60"/>
</linearGradient>
<linearGradient id="paint4_linear_2714_2592" x1="50.7507" y1="116.05" x2="18.6707" y2="116.05" gradientUnits="userSpaceOnUse">
<stop stop-color="#AB8D60" stop-opacity="0"/>
<stop offset="0.1" stop-color="#AB8D60" stop-opacity="0.1"/>
<stop offset="0.3" stop-color="#AB8D60" stop-opacity="0.36"/>
<stop offset="0.58" stop-color="#AB8D60" stop-opacity="0.76"/>
<stop offset="0.72" stop-color="#AB8D60" stop-opacity="0.99"/>
<stop offset="1" stop-color="#AB8D60"/>
</linearGradient>
<linearGradient id="paint5_linear_2714_2592" x1="57.3811" y1="101.18" x2="87.6611" y2="101.18" gradientUnits="userSpaceOnUse">
<stop offset="0.06" stop-color="#1F1912" stop-opacity="0"/>
<stop offset="0.37" stop-color="#1F1912" stop-opacity="0.17"/>
<stop offset="0.75" stop-color="#1F1912" stop-opacity="0.66"/>
<stop offset="0.95" stop-color="#1F1912"/>
</linearGradient>
<linearGradient id="paint6_linear_2714_2592" x1="124.75" y1="101.18" x2="94.4598" y2="101.18" gradientUnits="userSpaceOnUse">
<stop offset="0.06" stop-color="#1F1912" stop-opacity="0"/>
<stop offset="0.37" stop-color="#1F1912" stop-opacity="0.17"/>
<stop offset="0.75" stop-color="#1F1912" stop-opacity="0.66"/>
<stop offset="0.95" stop-color="#1F1912"/>
</linearGradient>
<linearGradient id="paint7_linear_2714_2592" x1="91.4302" y1="20.3699" x2="91.4302" y2="55.6499" gradientUnits="userSpaceOnUse">
<stop offset="0.06" stop-color="#1F1912" stop-opacity="0"/>
<stop offset="0.37" stop-color="#1F1912" stop-opacity="0.17"/>
<stop offset="0.75" stop-color="#1F1912" stop-opacity="0.66"/>
<stop offset="0.95" stop-color="#1F1912"/>
</linearGradient>
<linearGradient id="paint8_linear_2714_2592" x1="91.4209" y1="143.69" x2="91.4209" y2="74.9897" gradientUnits="userSpaceOnUse">
<stop stop-color="#D4BA8C" stop-opacity="0"/>
<stop offset="0.18" stop-color="#D4BA8C" stop-opacity="0.02"/>
<stop offset="0.32" stop-color="#D4BA8C" stop-opacity="0.06"/>
<stop offset="0.45" stop-color="#D4BA8C" stop-opacity="0.14"/>
<stop offset="0.57" stop-color="#D4BA8C" stop-opacity="0.25"/>
<stop offset="0.68" stop-color="#D4BA8C" stop-opacity="0.4"/>
<stop offset="0.8" stop-color="#D4BA8C" stop-opacity="0.58"/>
<stop offset="0.9" stop-color="#D4BA8C" stop-opacity="0.78"/>
<stop offset="1" stop-color="#D4BA8C"/>
</linearGradient>
<linearGradient id="paint9_linear_2714_2592" x1="91.9212" y1="136.21" x2="91.9212" y2="114.68" gradientUnits="userSpaceOnUse">
<stop stop-color="#750D33"/>
<stop offset="0.12" stop-color="#781336"/>
<stop offset="0.28" stop-color="#82253F"/>
<stop offset="0.47" stop-color="#92434E"/>
<stop offset="0.68" stop-color="#A96C64"/>
<stop offset="0.9" stop-color="#C6A07F"/>
<stop offset="1" stop-color="#D4BA8C"/>
</linearGradient>
<linearGradient id="paint10_linear_2714_2592" x1="105.991" y1="152.54" x2="81.8711" y2="152.54" gradientUnits="userSpaceOnUse">
<stop offset="0.06" stop-color="#1F1912" stop-opacity="0"/>
<stop offset="0.37" stop-color="#1F1912" stop-opacity="0.17"/>
<stop offset="0.75" stop-color="#1F1912" stop-opacity="0.66"/>
<stop offset="0.95" stop-color="#1F1912"/>
</linearGradient>
<linearGradient id="paint11_linear_2714_2592" x1="91.1205" y1="59.6099" x2="91.1205" y2="78.3999" gradientUnits="userSpaceOnUse">
<stop offset="0.06" stop-color="#1F1912" stop-opacity="0"/>
<stop offset="0.37" stop-color="#1F1912" stop-opacity="0.17"/>
<stop offset="0.75" stop-color="#1F1912" stop-opacity="0.66"/>
<stop offset="0.95" stop-color="#1F1912"/>
</linearGradient>
<linearGradient id="paint12_linear_2714_2592" x1="92.2608" y1="55.9998" x2="92.2608" y2="50.5298" gradientUnits="userSpaceOnUse">
<stop stop-color="#D4BA8C" stop-opacity="0"/>
<stop offset="0.18" stop-color="#D4BA8C" stop-opacity="0.02"/>
<stop offset="0.32" stop-color="#D4BA8C" stop-opacity="0.06"/>
<stop offset="0.45" stop-color="#D4BA8C" stop-opacity="0.14"/>
<stop offset="0.57" stop-color="#D4BA8C" stop-opacity="0.25"/>
<stop offset="0.68" stop-color="#D4BA8C" stop-opacity="0.4"/>
<stop offset="0.8" stop-color="#D4BA8C" stop-opacity="0.58"/>
<stop offset="0.9" stop-color="#D4BA8C" stop-opacity="0.78"/>
<stop offset="1" stop-color="#D4BA8C"/>
</linearGradient>
<linearGradient id="paint13_linear_2714_2592" x1="92.2608" y1="79.4399" x2="92.2608" y2="59.6099" gradientUnits="userSpaceOnUse">
<stop stop-color="#D4BA8C" stop-opacity="0"/>
<stop offset="0.18" stop-color="#D4BA8C" stop-opacity="0.02"/>
<stop offset="0.32" stop-color="#D4BA8C" stop-opacity="0.06"/>
<stop offset="0.45" stop-color="#D4BA8C" stop-opacity="0.14"/>
<stop offset="0.57" stop-color="#D4BA8C" stop-opacity="0.25"/>
<stop offset="0.68" stop-color="#D4BA8C" stop-opacity="0.4"/>
<stop offset="0.8" stop-color="#D4BA8C" stop-opacity="0.58"/>
<stop offset="0.9" stop-color="#D4BA8C" stop-opacity="0.78"/>
<stop offset="1" stop-color="#D4BA8C"/>
</linearGradient>
<linearGradient id="paint14_linear_2714_2592" x1="124.58" y1="105.28" x2="149.62" y2="105.28" gradientUnits="userSpaceOnUse">
<stop stop-color="#750D33"/>
<stop offset="0.12" stop-color="#781336"/>
<stop offset="0.28" stop-color="#82253F"/>
<stop offset="0.47" stop-color="#92434E"/>
<stop offset="0.68" stop-color="#A96C64"/>
<stop offset="0.9" stop-color="#C6A07F"/>
<stop offset="1" stop-color="#D4BA8C"/>
</linearGradient>
<linearGradient id="paint15_linear_2714_2592" x1="133.501" y1="140.08" x2="161.591" y2="140.08" gradientUnits="userSpaceOnUse">
<stop offset="0.06" stop-color="#1F1912" stop-opacity="0"/>
<stop offset="0.45" stop-color="#1F1912" stop-opacity="0.09"/>
<stop offset="0.69" stop-color="#1F1912" stop-opacity="0.36"/>
<stop offset="0.89" stop-color="#1F1912" stop-opacity="0.84"/>
<stop offset="0.95" stop-color="#1F1912"/>
</linearGradient>
</defs>
</svg>
