<svg width="48" height="48" viewBox="0 0 48 48" fill="none" xmlns="http://www.w3.org/2000/svg">
<g clip-path="url(#clip0_2714_2325)">
<path d="M48 11.7524V36.2576C48 37.9079 47.66 39.4682 47.05 40.8985C45.25 45.0794 41.09 48.01 36.25 48.01H11.75C6.91 48.01 2.75 45.0894 0.95 40.8985C0.34 39.4682 0 37.8979 0 36.2576V11.7524C0 5.2611 5.26 0 11.75 0H36.25C42.74 0 48 5.2611 48 11.7524Z" fill="#F9F7F3"/>
<path d="M24.5504 30.4963C32.1111 30.4963 38.2404 24.3658 38.2404 16.8035C38.2404 9.24112 32.1111 3.11063 24.5504 3.11063C16.9896 3.11063 10.8604 9.24112 10.8604 16.8035C10.8604 24.3658 16.9896 30.4963 24.5504 30.4963Z" fill="url(#paint0_radial_2714_2325)"/>
<path opacity="0.3" d="M24.78 44.7794C34.8537 44.7794 43.02 42.1284 43.02 38.8582C43.02 35.5879 34.8537 32.9369 24.78 32.9369C14.7064 32.9369 6.54004 35.5879 6.54004 38.8582C6.54004 42.1284 14.7064 44.7794 24.78 44.7794Z" fill="#D2B88A"/>
<path d="M26.3 33.1569L25.99 34.3172L24.69 39.3182L24.57 39.7683C24.33 40.6785 23.51 41.3086 22.57 41.3086H8.62998C7.69998 41.3086 6.86998 40.6785 6.62998 39.7683L5.20998 34.3172L4.90998 33.1569C3.67998 28.4759 7.21998 23.895 12.05 23.895H19.16C20.44 23.895 21.64 24.2151 22.67 24.7752C23.78 25.3853 24.72 26.2655 25.39 27.3257C26.44 28.976 26.85 31.0565 26.3 33.1569Z" fill="#D2B88A"/>
<path d="M26.31 33.1569L26 34.3172L24.69 39.3182L24.57 39.7683C24.33 40.6785 23.51 41.3186 22.58 41.3186H8.62998C7.69998 41.3186 6.86998 40.6785 6.62998 39.7683L5.20998 34.3172L4.90998 33.1569C3.67998 28.476 7.21998 23.905 12.05 23.905H19.16C20.11 23.905 21.03 24.075 21.86 24.4051H21.87C22.15 24.5151 22.41 24.6452 22.67 24.7852H22.68C23.79 25.3953 24.73 26.2755 25.4 27.3357C26.45 28.9861 26.85 31.0565 26.31 33.1569Z" fill="url(#paint1_linear_2714_2325)"/>
<path d="M11.17 22.6848L9.27002 24.4751L11.28 29.0961C11.7 30.0663 13.04 30.1763 13.61 29.2861L15.6 26.1855L11.16 22.6848H11.17Z" fill="#750D33"/>
<path d="M21.9399 24.4751L21.5399 25.3953L19.9299 29.0861C19.5099 30.0663 18.1699 30.1663 17.5999 29.2761L15.6999 26.3155L15.6099 26.1855L18.4999 23.905L20.0499 22.6848L21.8599 24.4051H21.8699L21.9399 24.4751Z" fill="#750D33"/>
<path opacity="0.3" d="M22.6702 24.7848C22.3002 25.0248 21.9202 25.2248 21.5402 25.3948C19.1602 26.4548 16.6502 26.3948 15.7002 26.3148C15.4402 26.3148 15.3002 26.2848 15.3002 26.2848L14.9702 23.9048H18.5002L20.0502 22.6848L21.8602 24.4048H21.8702C22.1502 24.5148 22.4102 24.6448 22.6702 24.7848Z" fill="#1F1912"/>
<path d="M23.6399 15.7733C24.4599 15.9934 24.9499 16.8435 24.7299 17.6637L24.2499 19.4541C24.0299 20.2743 23.1799 20.7644 22.3599 20.5443C21.5399 20.3243 21.0499 19.4741 21.2699 18.6539L21.7499 16.8635C21.9699 16.0434 22.8199 15.5533 23.6399 15.7733Z" fill="#E4B78E"/>
<path d="M6.69976 15.7733C5.87976 15.9934 5.38976 16.8435 5.60976 17.6637L6.08976 19.4541C6.30976 20.2743 7.15976 20.7644 7.97976 20.5443C8.79976 20.3243 9.28976 19.4741 9.06976 18.6539L8.58976 16.8635C8.36976 16.0434 7.51976 15.5533 6.69976 15.7733Z" fill="#E4B78E"/>
<path d="M23.5598 14.493C23.5598 14.8931 23.5298 15.3432 23.4598 15.7833C23.3098 16.8235 23.0098 17.9738 22.5598 19.114C21.1598 22.7148 18.4398 26.2855 15.2998 26.2855C12.1598 26.2855 9.4498 22.7348 8.0498 19.144C7.5998 17.9738 7.2898 16.7835 7.1398 15.7233C7.0798 15.2932 7.0498 14.8831 7.0498 14.493C7.0498 11.6124 8.7398 9.11192 11.2398 7.79164C12.4398 7.15151 13.8298 6.78143 15.3098 6.78143C16.7898 6.78143 18.1998 7.15151 19.4098 7.80165C21.8998 9.13192 23.5798 11.6324 23.5798 14.493H23.5598Z" fill="#F8CEA3"/>
<path d="M23.5598 14.493C23.5598 14.8931 23.5298 15.3432 23.4598 15.7833C23.3098 16.8235 23.0098 17.9738 22.5598 19.114L22.5298 19.074C21.8598 18.0238 21.4998 16.8235 21.4998 15.5733V13.7929C21.4998 12.5226 20.4598 11.4824 19.1898 11.4824H11.4198C10.1398 11.4824 9.10978 12.5226 9.10978 13.7929V15.5733C9.10978 16.8135 8.74978 18.0238 8.07978 19.074L8.02978 19.144C7.57978 17.9738 7.26978 16.7835 7.11978 15.7233C7.05978 15.2932 7.02979 14.8831 7.02979 14.493C7.02979 11.6124 8.71979 9.11192 11.2198 7.79164C12.4198 7.15151 13.8098 6.78143 15.2898 6.78143C16.7698 6.78143 18.1798 7.15151 19.3898 7.80165C21.8798 9.13192 23.5598 11.6324 23.5598 14.493Z" fill="#1F1912"/>
<path d="M19.3502 17.9838C19.3502 17.9838 17.8102 19.5238 16.2202 17.9838" stroke="#1F1912" stroke-width="0.74" stroke-linecap="round" stroke-linejoin="round"/>
<path d="M10.98 17.9838C10.98 17.9838 12.52 19.5238 14.11 17.9838" stroke="#1F1912" stroke-width="0.74" stroke-linecap="round" stroke-linejoin="round"/>
<path d="M37.4797 21.9246H31.1597C29.2377 21.9246 27.6797 23.4829 27.6797 25.4053C27.6797 27.3276 29.2377 28.886 31.1597 28.886H37.4797C39.4016 28.886 40.9597 27.3276 40.9597 25.4053C40.9597 23.4829 39.4016 21.9246 37.4797 21.9246Z" fill="#1F1912"/>
<path d="M40.9198 26.5255C39.9898 26.0254 38.9198 25.7354 37.7798 25.7354H31.4198C27.0898 25.7354 23.9298 29.8262 25.0298 34.0171L25.2998 35.0573L26.5798 39.9283C26.7898 40.7385 27.5298 41.3086 28.3598 41.3086H40.8298C41.6698 41.3086 42.3998 40.7385 42.6098 39.9283L43.8898 35.0573L44.1698 34.0171C44.9698 30.9365 43.4898 27.9158 40.9198 26.5255Z" fill="#D2B88A"/>
<path d="M40.9198 26.5255C39.9898 26.0254 38.9198 25.7354 37.7798 25.7354H31.4198C27.0898 25.7354 23.9298 29.8262 25.0298 34.0171L25.2998 35.0573L26.5798 39.9283C26.7898 40.7385 27.5298 41.3086 28.3598 41.3086H40.8298C41.6698 41.3086 42.3998 40.7385 42.6098 39.9283L43.8898 35.0573L44.1698 34.0171C44.9698 30.9365 43.4898 27.9158 40.9198 26.5255Z" fill="url(#paint2_linear_2714_2325)"/>
<path d="M34.5898 27.0757V35.8575" stroke="#1F1912" stroke-linecap="round" stroke-linejoin="round"/>
<path opacity="0.3" d="M40.9098 26.5254C37.9998 28.3854 34.3098 27.8654 34.3098 27.8654L34.0098 25.7354H37.7598C38.8998 25.7354 39.9798 26.0154 40.8998 26.5254H40.9098Z" fill="#1F1912"/>
<path d="M41.7793 18.4638C42.5193 18.6638 42.9493 19.4238 42.7493 20.1538L42.3193 21.7538C42.1193 22.4938 41.3593 22.9238 40.6293 22.7238C39.8893 22.5238 39.4593 21.7638 39.6593 21.0338L40.0893 19.4338C40.2893 18.6938 41.0493 18.2638 41.7793 18.4638Z" fill="#E4B78E"/>
<path d="M26.6196 18.4638C25.8796 18.6638 25.4496 19.4238 25.6496 20.1538L26.0796 21.7538C26.2796 22.4938 27.0396 22.9238 27.7696 22.7238C28.5096 22.5238 28.9396 21.7638 28.7396 21.0338L28.3096 19.4338C28.1096 18.6938 27.3496 18.2638 26.6196 18.4638Z" fill="#E4B78E"/>
<path d="M41.7097 17.3236C41.7097 17.6637 41.6797 18.0438 41.6297 18.4439C41.6297 18.4639 41.6297 18.4739 41.6297 18.4939C41.0797 22.3647 38.0197 27.8758 34.3297 27.8758C30.6397 27.8758 27.5597 22.3147 27.0297 18.4439V18.4238C26.9697 18.0338 26.9497 17.6737 26.9497 17.3236C26.9497 13.5128 30.2597 10.4222 34.3397 10.4222C38.4197 10.4222 41.7397 13.5128 41.7397 17.3236H41.7097Z" fill="#F8CEA3"/>
<path d="M37.9499 20.4443C37.9499 20.4443 36.5699 21.8243 35.1499 20.4443" stroke="#1F1912" stroke-width="0.66" stroke-linecap="round" stroke-linejoin="round"/>
<path d="M30.46 20.4443C30.46 20.4443 31.84 21.8243 33.26 20.4443" stroke="#1F1912" stroke-width="0.66" stroke-linecap="round" stroke-linejoin="round"/>
<path d="M32.5801 23.965C32.5801 23.965 34.0901 25.335 35.8201 23.965" stroke="#750D33" stroke-width="0.66" stroke-linecap="round" stroke-linejoin="round"/>
<path d="M41.7099 17.3236C41.7099 17.6637 41.6799 18.0438 41.6299 18.4439C41.4199 18.3338 40.5199 17.8037 39.8599 16.8135C39.1999 15.8233 38.1399 15.2232 36.9599 15.2232H31.6699C30.4899 15.2232 29.4199 15.8433 28.7699 16.8335C28.1199 17.8237 27.2499 18.3238 27.0199 18.4539V18.4339C26.9599 18.0438 26.9399 17.6837 26.9399 17.3336C26.9399 13.5228 30.2499 10.4322 34.3299 10.4322C38.4099 10.4322 41.7299 13.5228 41.7299 17.3336L41.7099 17.3236Z" fill="#1F1912"/>
<path d="M28.3097 23.9646C28.8067 23.9646 29.2097 23.5617 29.2097 23.0646C29.2097 22.5676 28.8067 22.1646 28.3097 22.1646C27.8126 22.1646 27.4097 22.5676 27.4097 23.0646C27.4097 23.5617 27.8126 23.9646 28.3097 23.9646Z" fill="white"/>
<path d="M40.0895 23.9646C40.5865 23.9646 40.9895 23.5617 40.9895 23.0646C40.9895 22.5676 40.5865 22.1646 40.0895 22.1646C39.5924 22.1646 39.1895 22.5676 39.1895 23.0646C39.1895 23.5617 39.5924 23.9646 40.0895 23.9646Z" fill="white"/>
<path d="M13.78 20.9944H15.33C15.33 22.0044 14.51 22.8144 13.51 22.8144H11.96C11.96 21.8044 12.78 20.9944 13.78 20.9944Z" fill="#1F1912"/>
<path d="M18.6299 22.8148H17.0799C16.0699 22.8148 15.2599 21.9948 15.2599 20.9948H16.8099C17.8199 20.9948 18.6299 21.8148 18.6299 22.8148Z" fill="#1F1912"/>
<path d="M28.3097 9.50143C29.0608 9.50143 29.6697 8.89254 29.6697 8.14143C29.6697 7.39033 29.0608 6.78143 28.3097 6.78143C27.5586 6.78143 26.9497 7.39033 26.9497 8.14143C26.9497 8.89254 27.5586 9.50143 28.3097 9.50143Z" fill="#D2B88A"/>
<path d="M9.11977 34.8867C9.87087 34.8867 10.4798 34.2778 10.4798 33.5267C10.4798 32.7756 9.87087 32.1667 9.11977 32.1667C8.36866 32.1667 7.75977 32.7756 7.75977 33.5267C7.75977 34.2778 8.36866 34.8867 9.11977 34.8867Z" fill="#A98B60"/>
<path d="M39.61 36.7971C40.3611 36.7971 40.97 36.1882 40.97 35.4371C40.97 34.686 40.3611 34.0771 39.61 34.0771C38.8589 34.0771 38.25 34.686 38.25 35.4371C38.25 36.1882 38.8589 36.7971 39.61 36.7971Z" fill="#D2B88A"/>
</g>
<defs>
<radialGradient id="paint0_radial_2714_2325" cx="0" cy="0" r="1" gradientUnits="userSpaceOnUse" gradientTransform="translate(24.5504 16.8035) scale(13.69 13.6929)">
<stop stop-color="#F8CEA3" stop-opacity="0"/>
<stop offset="0.15" stop-color="#F8CEA3" stop-opacity="0.01"/>
<stop offset="0.28" stop-color="#F8CEA3" stop-opacity="0.06"/>
<stop offset="0.41" stop-color="#F8CEA3" stop-opacity="0.13"/>
<stop offset="0.52" stop-color="#F8CEA3" stop-opacity="0.23"/>
<stop offset="0.64" stop-color="#F8CEA3" stop-opacity="0.36"/>
<stop offset="0.75" stop-color="#F8CEA3" stop-opacity="0.52"/>
<stop offset="0.86" stop-color="#F8CEA3" stop-opacity="0.71"/>
<stop offset="0.96" stop-color="#F8CEA3" stop-opacity="0.92"/>
<stop offset="1" stop-color="#F8CEA3"/>
</radialGradient>
<linearGradient id="paint1_linear_2714_2325" x1="4.65998" y1="32.6068" x2="26.55" y2="32.6068" gradientUnits="userSpaceOnUse">
<stop offset="0.06" stop-color="#1F1912" stop-opacity="0"/>
<stop offset="0.37" stop-color="#1F1912" stop-opacity="0.17"/>
<stop offset="0.75" stop-color="#1F1912" stop-opacity="0.66"/>
<stop offset="0.95" stop-color="#1F1912"/>
</linearGradient>
<linearGradient id="paint2_linear_2714_2325" x1="34.5898" y1="25.7354" x2="34.5898" y2="41.3086" gradientUnits="userSpaceOnUse">
<stop offset="0.06" stop-color="#1F1912" stop-opacity="0"/>
<stop offset="0.49" stop-color="#1F1912" stop-opacity="0.37"/>
<stop offset="1" stop-color="#1F1912"/>
</linearGradient>
<clipPath id="clip0_2714_2325">
<rect width="48" height="48" fill="white"/>
</clipPath>
</defs>
</svg>
