<svg width="130" height="130" viewBox="0 0 130 130" fill="none" xmlns="http://www.w3.org/2000/svg">
<path opacity="0.3" d="M28.7 53.34C25.51 53.76 22.5 55.31 19.96 57.28C16.31 60.11 14.27 64.64 13.53 69.2C11 84.71 19.43 96.08 33.99 100.84C47.07 105.12 61.98 106.18 75.28 102.35C92.31 97.45 106.77 84.35 113.34 67.9C116.33 60.41 117.74 52.17 116.41 44.22C115.08 36.27 110.84 28.66 104.19 24.11C95.07 17.87 79.71 18.38 71.11 25.26C66.6 28.87 63.27 31.86 61.43 37.11C59.58 42.38 55.81 48.35 50.56 49.73C42.14 51.95 36.74 52.27 28.7 53.34Z" fill="#D2B88A"/>
<path d="M61.4299 52.1802H24.4299V55.6802H61.4299V52.1802Z" fill="#A98B60"/>
<path d="M61.6199 89.6401H27.2499V93.1401H61.6199V89.6401Z" fill="#A98B60"/>
<path d="M26.2099 37.1101H20.5499V87.3901H26.2099V37.1101Z" fill="#D2B88A"/>
<path d="M26.2099 37.1101H20.5499V87.3901H26.2099V37.1101Z" fill="url(#paint0_linear_2714_2375)"/>
<path d="M26.33 77.03H20.43C19.4138 77.03 18.59 77.8538 18.59 78.87V78.88C18.59 79.8962 19.4138 80.72 20.43 80.72H26.33C27.3462 80.72 28.17 79.8962 28.17 78.88V78.87C28.17 77.8538 27.3462 77.03 26.33 77.03Z" fill="#1F1912"/>
<path d="M26.31 83.0601H20.45C19.4227 83.0601 18.59 83.8928 18.59 84.9201V97.5901C18.59 98.6173 19.4227 99.4501 20.45 99.4501H26.31C27.3372 99.4501 28.17 98.6173 28.17 97.5901V84.9201C28.17 83.8928 27.3372 83.0601 26.31 83.0601Z" fill="#1F1912"/>
<path d="M20.55 37.1101L18.59 39.9101L20.55 48.3701H26.22L20.55 37.1101Z" fill="url(#paint1_linear_2714_2375)"/>
<path d="M26.28 37.1101L28.24 39.9101L26.28 48.3701H20.62L26.28 37.1101Z" fill="url(#paint2_linear_2714_2375)"/>
<path d="M26.33 33.8201H20.43C19.4138 33.8201 18.59 34.6439 18.59 35.6601V35.6701C18.59 36.6863 19.4138 37.5101 20.43 37.5101H26.33C27.3462 37.5101 28.17 36.6863 28.17 35.6701V35.6601C28.17 34.6439 27.3462 33.8201 26.33 33.8201Z" fill="#1F1912"/>
<path d="M43.9199 42.3601V98.5001H40.4199V48.0801C40.5799 47.9101 40.7099 47.7401 40.8399 47.5701C41.4499 46.7701 42.0099 45.8501 42.4999 44.8201C42.9199 43.9301 43.3999 43.1101 43.9199 42.3601Z" fill="#D2B88A"/>
<path d="M54.0499 35.27V98.5H50.5499V36.66C51.7299 36.07 52.9199 35.61 54.0499 35.27Z" fill="#D2B88A"/>
<path d="M61.22 34.1602C60.21 34.1602 57.34 34.2602 54.05 35.2702C52.92 35.6102 51.73 36.0702 50.55 36.6602C48.14 37.8802 45.77 39.6802 43.92 42.3602C43.4 43.1102 42.92 43.9302 42.5 44.8202C42.01 45.8502 41.45 46.7702 40.84 47.5702C40.71 47.7402 40.58 47.9102 40.42 48.0802C38.48 50.4602 35.85 52.1102 32.63 52.9902L31.96 53.1702L31.52 53.2902V98.5002H62.94V34.1602H61.22ZM59.94 95.5002H34.52V55.5502C36.26 54.9702 37.86 54.1702 39.29 53.1702C39.68 52.9002 40.06 52.6202 40.42 52.3102C41.47 51.4502 42.41 50.4702 43.23 49.3802C43.47 49.0702 43.7 48.7402 43.92 48.3902C44.39 47.6902 44.81 46.9302 45.21 46.1102C46.5 43.3702 48.45 41.4702 50.55 40.1502C51.7 39.4302 52.9 38.8802 54.05 38.4702C56.4 37.6302 58.59 37.3302 59.94 37.2202V95.5002Z" fill="#A98B60"/>
<path d="M61.22 34.1602C60.21 34.1602 57.34 34.2602 54.05 35.2702C52.92 35.6102 51.73 36.0702 50.55 36.6602C48.14 37.8802 45.77 39.6802 43.92 42.3602C43.4 43.1102 42.92 43.9302 42.5 44.8202C42.01 45.8502 41.45 46.7702 40.84 47.5702C40.71 47.7402 40.58 47.9102 40.42 48.0802C38.48 50.4602 35.85 52.1102 32.63 52.9902L31.96 53.1702L31.52 53.2902V98.5002H62.94V34.1602H61.22ZM59.94 95.5002H34.52V55.5502C36.26 54.9702 37.86 54.1702 39.29 53.1702C39.68 52.9002 40.06 52.6202 40.42 52.3102C41.47 51.4502 42.41 50.4702 43.23 49.3802C43.47 49.0702 43.7 48.7402 43.92 48.3902C44.39 47.6902 44.81 46.9302 45.21 46.1102C46.5 43.3702 48.45 41.4702 50.55 40.1502C51.7 39.4302 52.9 38.8802 54.05 38.4702C56.4 37.6302 58.59 37.3302 59.94 37.2202V95.5002Z" fill="#D2B88A"/>
<path d="M68.5698 55.6702L105.57 55.6702V52.1702L68.5698 52.1702V55.6702Z" fill="#A98B60"/>
<path d="M68.3799 93.1401H102.75V89.6401H68.3799V93.1401Z" fill="#A98B60"/>
<path d="M103.79 87.3901H109.45V37.1101H103.79V87.3901Z" fill="#D2B88A"/>
<path d="M103.79 87.3901H109.45V37.1101H103.79V87.3901Z" fill="url(#paint3_linear_2714_2375)"/>
<path d="M103.66 80.73H109.56C110.576 80.73 111.4 79.9062 111.4 78.89V78.88C111.4 77.8638 110.576 77.04 109.56 77.04H103.66C102.644 77.04 101.82 77.8638 101.82 78.88V78.89C101.82 79.9062 102.644 80.73 103.66 80.73Z" fill="#1F1912"/>
<path d="M103.68 99.46H109.54C110.567 99.46 111.4 98.6272 111.4 97.6V84.93C111.4 83.9027 110.567 83.07 109.54 83.07H103.68C102.653 83.07 101.82 83.9027 101.82 84.93V97.6C101.82 98.6272 102.653 99.46 103.68 99.46Z" fill="#1F1912"/>
<path d="M109.45 37.1101L111.41 39.9101L109.45 48.3701H103.78L109.45 37.1101Z" fill="url(#paint4_linear_2714_2375)"/>
<path d="M103.72 37.1101L101.76 39.9101L103.72 48.3701H109.38L103.72 37.1101Z" fill="url(#paint5_linear_2714_2375)"/>
<path d="M103.66 37.51H109.56C110.576 37.51 111.4 36.6862 111.4 35.67V35.66C111.4 34.6438 110.576 33.82 109.56 33.82H103.66C102.644 33.82 101.82 34.6438 101.82 35.66V35.67C101.82 36.6862 102.644 37.51 103.66 37.51Z" fill="#1F1912"/>
<path d="M86.08 42.3601V98.5001H89.58V48.0801C89.42 47.9101 89.29 47.7401 89.16 47.5701C88.55 46.7701 87.99 45.8501 87.5 44.8201C87.08 43.9301 86.6 43.1101 86.08 42.3601Z" fill="#D2B88A"/>
<path d="M75.95 35.27V98.5H79.45V36.66C78.27 36.07 77.08 35.61 75.95 35.27Z" fill="#D2B88A"/>
<path d="M67.0599 34.1602V98.5002H98.4799V53.2902L98.0399 53.1702L97.3699 52.9902C94.1499 52.1102 91.5199 50.4602 89.5799 48.0802C89.4199 47.9102 89.2899 47.7402 89.1599 47.5702C88.5499 46.7702 87.9899 45.8502 87.4999 44.8202C87.0799 43.9302 86.5999 43.1102 86.0799 42.3602C84.2299 39.6802 81.8599 37.8802 79.4499 36.6602C78.2699 36.0702 77.0799 35.6102 75.9499 35.2702C72.6599 34.2602 69.7899 34.1602 68.7799 34.1602H67.0599ZM70.0599 37.2202C71.4099 37.3302 73.5999 37.6302 75.9499 38.4702C77.0999 38.8802 78.2999 39.4302 79.4499 40.1502C81.5499 41.4702 83.4999 43.3702 84.7899 46.1102C85.1899 46.9302 85.6099 47.6902 86.0799 48.3902C86.2999 48.7402 86.5299 49.0702 86.7699 49.3802C87.5899 50.4702 88.5299 51.4502 89.5799 52.3102C89.9399 52.6202 90.3199 52.9002 90.7099 53.1702C92.1399 54.1702 93.7399 54.9702 95.4799 55.5502V95.5002H70.0599V37.2202Z" fill="#A98B60"/>
<path d="M67.0599 34.1602V98.5002H98.4799V53.2902L98.0399 53.1702L97.3699 52.9902C94.1499 52.1102 91.5199 50.4602 89.5799 48.0802C89.4199 47.9102 89.2899 47.7402 89.1599 47.5702C88.5499 46.7702 87.9899 45.8502 87.4999 44.8202C87.0799 43.9302 86.5999 43.1102 86.0799 42.3602C84.2299 39.6802 81.8599 37.8802 79.4499 36.6602C78.2699 36.0702 77.0799 35.6102 75.9499 35.2702C72.6599 34.2602 69.7899 34.1602 68.7799 34.1602H67.0599ZM70.0599 37.2202C71.4099 37.3302 73.5999 37.6302 75.9499 38.4702C77.0999 38.8802 78.2999 39.4302 79.4499 40.1502C81.5499 41.4702 83.4999 43.3702 84.7899 46.1102C85.1899 46.9302 85.6099 47.6902 86.0799 48.3902C86.2999 48.7402 86.5299 49.0702 86.7699 49.3802C87.5899 50.4702 88.5299 51.4502 89.5799 52.3102C89.9399 52.6202 90.3199 52.9002 90.7099 53.1702C92.1399 54.1702 93.7399 54.9702 95.4799 55.5502V95.5002H70.0599V37.2202Z" fill="#D2B88A"/>
<path d="M91.7499 84.5901C92.0499 85.7701 91.7199 87.0201 90.8699 87.8801L87.5799 91.2401C87.1799 91.6701 86.8799 92.1701 86.7299 92.7501L85.4499 97.2701C85.1199 98.4501 84.2199 99.3501 83.0599 99.6801L78.5199 100.96C77.9699 101.11 77.4399 101.41 77.0399 101.81L73.6499 105.1C72.7999 105.95 71.5399 106.28 70.3899 105.98L65.8199 104.83C65.2399 104.68 64.6699 104.68 64.0899 104.83L59.5499 105.98C58.3699 106.28 57.1199 105.95 56.2599 105.1L52.8699 101.81C52.4699 101.41 51.9699 101.11 51.3899 100.96L46.8699 99.6801C45.6899 99.3501 44.7899 98.4501 44.4599 97.2701V97.2401L43.1799 92.7501C43.0299 92.1701 42.7299 91.6701 42.3299 91.2401L39.0399 87.8801C38.1899 87.0301 37.8599 85.7701 38.1599 84.5901L39.3099 80.0501C39.4599 79.4701 39.4599 78.9001 39.3099 78.3201L38.1599 73.7501C37.8599 72.6001 38.1899 71.3401 39.0399 70.4901L42.3299 67.1001C42.7299 66.7001 43.0299 66.1701 43.1799 65.6201L44.4599 61.0801C44.7899 59.9301 45.6899 59.0201 46.8699 58.6901L51.3899 57.4101C51.9699 57.2601 52.4699 56.9601 52.8699 56.5601L56.2599 53.2701C57.1099 52.4201 58.3699 52.0901 59.5499 52.3901L64.0899 53.5401C64.6699 53.6901 65.2399 53.6901 65.8199 53.5401L70.3899 52.3901C71.5399 52.0901 72.7999 52.4101 73.6499 53.2701L77.0399 56.5601C77.4399 56.9601 77.9699 57.2601 78.5199 57.4101L83.0599 58.6901C84.2099 59.0201 85.1199 59.9201 85.4499 61.0801L86.7299 65.6201C86.8799 66.1701 87.1799 66.7001 87.5799 67.1001L89.8099 69.4101L90.8599 70.4901C91.7099 71.3401 92.0399 72.6001 91.7399 73.7501L90.5899 78.3201C90.4399 78.9001 90.4399 79.4701 90.5899 80.0501L91.7399 84.5901H91.7499Z" fill="#A98B60"/>
<path d="M91.7499 84.5901C92.0499 85.7701 91.7199 87.0201 90.8699 87.8801L87.5799 91.2401C87.1799 91.6701 86.8799 92.1701 86.7299 92.7501L85.4499 97.2701C85.1199 98.4501 84.2199 99.3501 83.0599 99.6801L78.5199 100.96C77.9699 101.11 77.4399 101.41 77.0399 101.81L73.6499 105.1C72.7999 105.95 71.5399 106.28 70.3899 105.98L65.8199 104.83C65.2399 104.68 64.6699 104.68 64.0899 104.83L59.5499 105.98C58.3699 106.28 57.1199 105.95 56.2599 105.1L52.8699 101.81C52.4699 101.41 51.9699 101.11 51.3899 100.96L46.8699 99.6801C45.6899 99.3501 44.7899 98.4501 44.4599 97.2701V97.2401L43.1799 92.7501C43.0299 92.1701 42.7299 91.6701 42.3299 91.2401L39.0399 87.8801C38.1899 87.0301 37.8599 85.7701 38.1599 84.5901L39.3099 80.0501C39.4599 79.4701 39.4599 78.9001 39.3099 78.3201L38.1599 73.7501C37.8599 72.6001 38.1899 71.3401 39.0399 70.4901L42.3299 67.1001C42.7299 66.7001 43.0299 66.1701 43.1799 65.6201L44.4599 61.0801C44.7899 59.9301 45.6899 59.0201 46.8699 58.6901L51.3899 57.4101C51.9699 57.2601 52.4699 56.9601 52.8699 56.5601L56.2599 53.2701C57.1099 52.4201 58.3699 52.0901 59.5499 52.3901L64.0899 53.5401C64.6699 53.6901 65.2399 53.6901 65.8199 53.5401L70.3899 52.3901C71.5399 52.0901 72.7999 52.4101 73.6499 53.2701L77.0399 56.5601C77.4399 56.9601 77.9699 57.2601 78.5199 57.4101L83.0599 58.6901C84.2099 59.0201 85.1199 59.9201 85.4499 61.0801L86.7299 65.6201C86.8799 66.1701 87.1799 66.7001 87.5799 67.1001L89.8099 69.4101L90.8599 70.4901C91.7099 71.3401 92.0399 72.6001 91.7399 73.7501L90.5899 78.3201C90.4399 78.9001 90.4399 79.4701 90.5899 80.0501L91.7399 84.5901H91.7499Z" fill="url(#paint6_linear_2714_2375)"/>
<path d="M82.26 82.5502L80.51 79.1202L77.19 80.5302C76.8 80.4702 76.4 80.4201 76.02 80.3401C75.54 80.2401 75.07 80.1302 74.61 80.0002C73.8 79.7702 73.02 79.4702 72.29 79.1102C71.84 78.8802 71.41 78.6202 71 78.3302C70.17 77.7302 69.43 77.0302 68.63 76.4002C68.36 76.1802 68.03 76.0201 67.73 75.8401C67.64 75.7901 67.57 75.7302 67.49 75.6702C67.15 75.6702 66.84 75.6602 66.5 75.6602C66.11 75.8402 65.66 75.9902 65.31 76.2202C64.44 76.7802 63.62 77.4202 62.73 77.9602C60.57 79.2702 58.16 80.1302 55.72 80.4702C54.72 80.6202 53.71 80.6502 52.71 80.8002C50.45 81.1402 48.8 82.7902 48.43 85.0102C48.27 86.0002 48.11 86.9802 47.95 87.9602C47.92 88.1402 47.86 88.3202 47.82 88.5002L47.63 89.7402C47.6 90.0802 47.58 90.4102 47.54 90.7502C47.16 93.8502 47.07 96.9002 47.67 99.8602L47.26 100.37L48.46 102.63C48.69 103.23 48.95 103.81 49.26 104.37C49.52 104.85 49.82 105.3 50.13 105.75L50.19 105.86H50.2C50.61 106.44 51.04 106.99 51.53 107.51L51.66 107.64C52.35 108.35 53.1 109 53.91 109.59C55.33 110.61 56.9 111.47 58.58 112.14C59.04 112.32 59.5 112.49 59.96 112.65C60.16 112.72 60.37 112.8 60.57 112.87C61.26 112.98 62 112.91 62.7 112.65C65.05 111.9 67.32 110.96 69.45 109.67C70.54 109.03 71.59 108.32 72.58 107.56C74.45 106.08 76.07 104.35 77.35 102.43C78.71 100.42 79.75 98.2802 80.41 96.0602C80.82 94.6502 81.25 93.2302 81.52 91.8102C81.8 90.3402 82.04 88.8702 82.26 87.4002C82.39 86.5602 82.51 85.7302 82.63 84.8902C82.76 84.0302 82.65 83.2402 82.27 82.5602L82.26 82.5502Z" fill="#A98B60"/>
<path d="M82.26 82.5502L80.51 79.1202L77.19 80.5302C76.8 80.4702 76.4 80.4201 76.02 80.3401C75.54 80.2401 75.07 80.1302 74.61 80.0002C73.8 79.7702 73.02 79.4702 72.29 79.1102C71.84 78.8802 71.41 78.6202 71 78.3302C70.17 77.7302 69.43 77.0302 68.63 76.4002C68.36 76.1802 68.03 76.0201 67.73 75.8401C67.64 75.7901 67.57 75.7302 67.49 75.6702C67.15 75.6702 66.84 75.6602 66.5 75.6602C66.11 75.8402 65.66 75.9902 65.31 76.2202C64.44 76.7802 63.62 77.4202 62.73 77.9602C60.57 79.2702 58.16 80.1302 55.72 80.4702C54.72 80.6202 53.71 80.6502 52.71 80.8002C50.45 81.1402 48.8 82.7902 48.43 85.0102C48.27 86.0002 48.11 86.9802 47.95 87.9602C47.92 88.1402 47.86 88.3202 47.82 88.5002L47.63 89.7402C47.6 90.0802 47.58 90.4102 47.54 90.7502C47.16 93.8502 47.07 96.9002 47.67 99.8602L47.26 100.37L48.46 102.63C48.69 103.23 48.95 103.81 49.26 104.37C49.52 104.85 49.82 105.3 50.13 105.75L50.19 105.86H50.2C50.61 106.44 51.04 106.99 51.53 107.51L51.66 107.64C52.35 108.35 53.1 109 53.91 109.59C55.33 110.61 56.9 111.47 58.58 112.14C59.04 112.32 59.5 112.49 59.96 112.65C60.16 112.72 60.37 112.8 60.57 112.87C61.26 112.98 62 112.91 62.7 112.65C65.05 111.9 67.32 110.96 69.45 109.67C70.54 109.03 71.59 108.32 72.58 107.56C74.45 106.08 76.07 104.35 77.35 102.43C78.71 100.42 79.75 98.2802 80.41 96.0602C80.82 94.6502 81.25 93.2302 81.52 91.8102C81.8 90.3402 82.04 88.8702 82.26 87.4002C82.39 86.5602 82.51 85.7302 82.63 84.8902C82.76 84.0302 82.65 83.2402 82.27 82.5602L82.26 82.5502Z" fill="url(#paint7_linear_2714_2375)"/>
<path d="M51.8999 84.6701L53.8399 71.9301C54.7699 65.8001 60.9199 60.8101 67.5499 60.8101C74.1799 60.8101 78.8099 65.8001 77.8799 71.9301L75.9399 84.6701H51.8999ZM70.7799 79.1201L71.8699 71.9301C72.3399 68.8601 70.0199 66.3601 66.6999 66.3601C63.3799 66.3601 60.2999 68.8601 59.8399 71.9301L58.7499 79.1201H70.7899H70.7799Z" fill="white"/>
<path d="M51.8999 84.6701L53.8399 71.9301C54.7699 65.8001 60.9199 60.8101 67.5499 60.8101C74.1799 60.8101 78.8099 65.8001 77.8799 71.9301L75.9399 84.6701H51.8999ZM70.7799 79.1201L71.8699 71.9301C72.3399 68.8601 70.0199 66.3601 66.6999 66.3601C63.3799 66.3601 60.2999 68.8601 59.8399 71.9301L58.7499 79.1201H70.7899H70.7799Z" fill="url(#paint8_linear_2714_2375)"/>
<path d="M80.2499 83.3902C80.0299 84.8602 79.7899 86.3302 79.5099 87.8002C79.2399 89.2202 78.8099 90.6402 78.3999 92.0502C77.7399 94.2602 76.6999 96.4102 75.3399 98.4202C74.0599 100.34 72.4399 102.07 70.5699 103.55C69.5699 104.32 68.5199 105.02 67.4399 105.66C65.3099 106.95 63.0399 107.89 60.6899 108.64C59.9899 108.89 59.2499 108.97 58.5599 108.86C58.3599 108.79 58.1599 108.71 57.9499 108.64C57.4899 108.48 57.0299 108.31 56.5699 108.13C54.8899 107.46 53.3199 106.6 51.8999 105.58C51.0899 104.99 50.3399 104.34 49.6499 103.63L49.5199 103.5C48.6299 102.55 47.8699 101.5 47.2499 100.37C46.5799 99.1102 46.0699 97.7702 45.7599 96.3702C45.0399 93.2602 45.1299 90.0302 45.5299 86.7502C45.5699 86.4102 45.5899 86.0802 45.6199 85.7402L45.8099 84.5002C45.8499 84.3202 45.9099 84.1402 45.9399 83.9602C46.0999 82.9802 46.2599 82.0002 46.4199 81.0102C46.7899 78.7902 48.4399 77.1402 50.6999 76.8002C51.6999 76.6502 52.7099 76.6102 53.7099 76.4702C56.1599 76.1302 58.5599 75.2702 60.7199 73.9602C61.5999 73.4202 62.4299 72.7802 63.2999 72.2202C63.6599 71.9902 64.1099 71.8402 64.4899 71.6602C64.8299 71.6602 65.1399 71.6702 65.4799 71.6702C65.5599 71.7302 65.6299 71.7901 65.7199 71.8401C66.0199 72.0301 66.3499 72.1902 66.6199 72.4002C67.4199 73.0302 68.1599 73.7302 68.9899 74.3302C69.3899 74.6202 69.8199 74.8802 70.2799 75.1102C71.0099 75.4702 71.7899 75.7702 72.5999 76.0002C73.0599 76.1302 73.5399 76.2501 74.0099 76.3401C75.0799 76.5501 76.1799 76.6802 77.2899 76.7502C77.3899 76.7502 77.4999 76.7702 77.5999 76.7802C78.4199 76.9002 79.1499 77.2602 79.6799 77.8002C80.5199 78.6302 80.7799 79.6901 80.5999 80.8801C80.4799 81.7201 80.3499 82.5502 80.2299 83.3902H80.2499Z" fill="#D2B88A"/>
<path d="M59.86 105.1C59.74 105.1 59.63 105.08 59.52 105.04C59.22 104.93 58.91 104.82 58.62 104.7C57.19 104.13 55.85 103.4 54.65 102.54C54 102.07 53.39 101.54 52.83 100.96L52.71 100.83C52.01 100.08 51.41 99.2501 50.92 98.3501C50.38 97.3401 49.97 96.2501 49.72 95.1201C49.17 92.7501 49.12 90.1301 49.54 86.6201C49.58 86.3401 49.6 86.0501 49.62 85.7601V85.6201L49.77 84.7001C49.85 84.3801 49.89 84.1801 49.93 83.9901L50.37 81.2601C50.45 80.7501 50.96 80.3401 51.51 80.3401L51.77 80.3101C52.47 80.2501 53.13 80.1901 53.79 80.0901C56.84 79.6701 59.88 78.5801 62.6 76.9301C62.96 76.7101 63.3 76.4801 63.62 76.2701C64.03 75.9901 64.56 75.9901 64.88 76.2701C65.29 76.6101 65.73 76.9801 66.22 77.3301C66.77 77.7301 67.36 78.0901 67.97 78.3901C68.91 78.8601 69.9 79.2401 70.92 79.5301C71.42 79.6701 71.97 79.8101 72.6 79.9401C73.66 80.1401 74.7 80.2901 75.77 80.3801C76.28 80.4201 76.61 80.8201 76.54 81.3001L76.23 83.3801C75.97 85.1101 75.75 86.4301 75.51 87.6601C75.29 88.8001 74.94 90.0001 74.58 91.2601L74.49 91.5701C73.95 93.3801 73.1 95.1301 71.98 96.7901C70.95 98.3301 69.67 99.7101 68.18 100.88C67.38 101.49 66.49 102.09 65.59 102.62C64.03 103.56 62.27 104.35 60.2 105.03C60.08 105.07 59.96 105.09 59.84 105.09L59.86 105.1ZM52.23 82.1101L51.92 84.0201C51.88 84.2701 51.82 84.5101 51.75 84.8001L51.63 85.6401C51.61 85.9501 51.58 86.2701 51.54 86.5701C51.14 89.8801 51.18 92.3201 51.69 94.5101C51.92 95.5101 52.27 96.4701 52.75 97.3601C53.17 98.1501 53.7 98.8701 54.3 99.5101L54.41 99.6301C54.9 100.14 55.44 100.6 56.01 101.02C57.1 101.8 58.32 102.46 59.62 102.99C59.79 103.06 59.96 103.12 60.12 103.18C61.85 102.59 63.34 101.91 64.65 101.11C65.48 100.62 66.28 100.08 66.99 99.5401C68.27 98.5301 69.39 97.3301 70.29 95.9801C71.3 94.4901 72.05 92.9301 72.54 91.3201L72.62 91.0601C72.99 89.8101 73.32 88.6501 73.52 87.6001C73.75 86.3901 73.97 85.0901 74.23 83.3901L74.41 82.1401C73.58 82.0501 72.75 81.9201 71.91 81.7601C71.21 81.6201 70.62 81.4701 70.08 81.3101C68.95 80.9901 67.85 80.5601 66.82 80.0501C66.12 79.7001 65.45 79.2901 64.83 78.8401C64.52 78.6201 64.23 78.3901 63.96 78.1701C63.82 78.2601 63.68 78.3501 63.54 78.4301C60.54 80.2501 57.18 81.4501 53.82 81.9201C53.29 82.0001 52.75 82.0601 52.22 82.1101H52.23Z" fill="white"/>
<path d="M65.5999 87.5601C65.8699 85.7901 64.3599 84.4001 62.3399 84.7201C61.0499 84.9201 59.8799 85.8801 59.4899 87.0401C59.1499 88.0201 59.3699 88.9201 59.9299 89.5401C60.2999 89.9601 60.3999 90.5501 60.1799 91.1201L58.6399 95.2401C58.2499 96.2801 58.9599 97.2501 60.0999 97.2501H61.9099C63.0499 97.2501 64.0599 96.2801 63.9799 95.2401L63.6899 91.1301C63.6499 90.5701 63.8999 89.9801 64.3899 89.5801C65.0299 89.0601 65.4799 88.3501 65.5999 87.5601Z" fill="#1F1912"/>
<path d="M45.6199 28.75C45.2599 28.7 44.8999 28.66 44.5399 28.63C43.8199 28.56 43.0999 28.5 42.3699 28.46C41.3399 28.4 40.3199 28.36 39.2899 28.35C39.8499 27.77 40.3999 27.18 40.9299 26.58C41.3399 26.12 41.7399 25.65 42.1399 25.16C42.3399 24.92 42.5299 24.68 42.7199 24.43C42.9099 24.18 43.0999 23.93 43.2799 23.68C43.0199 23.86 42.7699 24.05 42.5299 24.24C42.2799 24.43 42.0399 24.63 41.7999 24.82C41.3199 25.21 40.8499 25.62 40.3799 26.03C39.7799 26.57 39.1899 27.11 38.6099 27.67C38.5899 26.64 38.5599 25.62 38.4999 24.59C38.4599 23.87 38.3999 23.15 38.3299 22.42C38.2899 22.06 38.2499 21.7 38.2099 21.34C38.1599 20.98 38.1099 20.62 38.0499 20.26C37.9899 20.62 37.9299 20.98 37.8899 21.34C37.8399 21.7 37.7999 22.06 37.7699 22.42C37.6999 23.14 37.6399 23.86 37.5999 24.59C37.5399 25.61 37.4999 26.64 37.4899 27.66C36.9099 27.1 36.3199 26.55 35.7199 26.02C35.2599 25.61 34.7899 25.21 34.2999 24.81C34.0599 24.61 33.8199 24.42 33.5699 24.23C33.3199 24.04 33.0699 23.85 32.8199 23.67C32.9999 23.93 33.1899 24.18 33.3799 24.42C33.5699 24.67 33.7599 24.91 33.9599 25.15C34.3499 25.63 34.7599 26.1 35.1699 26.57C35.7099 27.17 36.2499 27.76 36.8099 28.34C35.7899 28.36 34.7599 28.39 33.7399 28.45C33.0199 28.49 32.2999 28.55 31.5699 28.62C31.2099 28.66 30.8499 28.7 30.4899 28.74C30.1299 28.79 29.7699 28.84 29.4099 28.9C29.7699 28.97 30.1299 29.02 30.4899 29.06C30.8499 29.11 31.2099 29.15 31.5699 29.18C32.2899 29.25 33.0099 29.31 33.7399 29.35C34.7599 29.41 35.7899 29.45 36.8099 29.46C36.2499 30.04 35.6999 30.63 35.1699 31.23C34.7599 31.69 34.3599 32.16 33.9599 32.65C33.7599 32.89 33.5699 33.13 33.3799 33.38C33.1899 33.63 32.9999 33.88 32.8199 34.13C33.0799 33.95 33.3299 33.76 33.5699 33.57C33.8199 33.38 34.0599 33.19 34.2999 32.99C34.7799 32.6 35.2499 32.19 35.7199 31.78C36.3199 31.24 36.9099 30.7 37.4899 30.14C37.5099 31.16 37.5399 32.19 37.5999 33.21C37.6399 33.93 37.6999 34.65 37.7699 35.38C37.8099 35.74 37.8499 36.1 37.8899 36.46C37.9399 36.82 37.9899 37.18 38.0499 37.54C38.1199 37.18 38.1699 36.82 38.2099 36.46C38.2599 36.1 38.2999 35.74 38.3299 35.38C38.3999 34.66 38.4599 33.94 38.4999 33.21C38.5599 32.19 38.5999 31.16 38.6099 30.14C39.1899 30.7 39.7799 31.25 40.3799 31.78C40.8399 32.19 41.3099 32.59 41.7999 32.99C42.0399 33.19 42.2799 33.38 42.5299 33.57C42.7799 33.76 43.0299 33.95 43.2799 34.13C43.0999 33.87 42.9099 33.62 42.7199 33.38C42.5299 33.13 42.3299 32.89 42.1399 32.65C41.7499 32.17 41.3399 31.7 40.9299 31.23C40.3899 30.63 39.8499 30.04 39.2899 29.46C40.3199 29.44 41.3399 29.41 42.3699 29.35C43.0899 29.31 43.8099 29.25 44.5399 29.18C44.8999 29.14 45.2599 29.1 45.6199 29.06C45.9799 29.01 46.3399 28.96 46.6999 28.9C46.3399 28.84 45.9799 28.78 45.6199 28.74V28.75Z" fill="#A98B60"/>
<path d="M103.8 109.78C103.53 109.74 103.25 109.71 102.98 109.69C102.43 109.63 101.88 109.59 101.33 109.56C100.55 109.51 99.77 109.49 98.99 109.47C99.41 109.03 99.83 108.58 100.24 108.12C100.55 107.77 100.86 107.41 101.16 107.04C101.31 106.86 101.46 106.67 101.6 106.49C101.74 106.3 101.89 106.11 102.02 105.92C101.82 106.06 101.63 106.2 101.45 106.34C101.26 106.48 101.08 106.63 100.9 106.78C100.53 107.08 100.18 107.39 99.82 107.7C99.36 108.11 98.91 108.52 98.47 108.95C98.46 108.17 98.43 107.39 98.38 106.61C98.35 106.06 98.3 105.51 98.25 104.96C98.22 104.69 98.19 104.41 98.16 104.14C98.12 103.87 98.09 103.59 98.04 103.32C97.99 103.59 97.95 103.87 97.92 104.14C97.88 104.41 97.85 104.69 97.83 104.96C97.77 105.51 97.73 106.06 97.7 106.61C97.65 107.39 97.63 108.17 97.61 108.94C97.17 108.52 96.72 108.1 96.26 107.69C95.91 107.38 95.55 107.07 95.18 106.77C95 106.62 94.81 106.47 94.62 106.33C94.43 106.19 94.24 106.04 94.05 105.91C94.19 106.11 94.33 106.3 94.47 106.48C94.61 106.67 94.76 106.85 94.91 107.04C95.21 107.41 95.52 107.76 95.83 108.12C96.24 108.58 96.65 109.03 97.08 109.47C96.3 109.48 95.52 109.51 94.75 109.56C94.2 109.59 93.65 109.64 93.1 109.69C92.83 109.72 92.55 109.75 92.28 109.78C92.01 109.82 91.73 109.85 91.46 109.9C91.73 109.95 92.01 109.99 92.28 110.02C92.55 110.06 92.83 110.09 93.1 110.11C93.65 110.17 94.2 110.21 94.75 110.24C95.53 110.29 96.31 110.31 97.08 110.33C96.66 110.77 96.24 111.22 95.83 111.68C95.52 112.03 95.21 112.39 94.91 112.76C94.76 112.94 94.61 113.13 94.47 113.32C94.33 113.51 94.18 113.7 94.05 113.89C94.25 113.75 94.44 113.61 94.62 113.47C94.81 113.33 94.99 113.18 95.18 113.03C95.55 112.73 95.9 112.42 96.26 112.11C96.72 111.7 97.17 111.29 97.61 110.86C97.62 111.64 97.65 112.42 97.7 113.19C97.73 113.74 97.78 114.29 97.83 114.84C97.86 115.11 97.89 115.39 97.92 115.66C97.96 115.93 97.99 116.21 98.04 116.48C98.09 116.21 98.13 115.93 98.16 115.66C98.2 115.39 98.23 115.11 98.25 114.84C98.31 114.29 98.35 113.74 98.38 113.19C98.43 112.41 98.45 111.63 98.47 110.86C98.91 111.28 99.36 111.7 99.82 112.11C100.17 112.42 100.53 112.73 100.9 113.03C101.08 113.18 101.27 113.33 101.45 113.47C101.64 113.61 101.83 113.76 102.02 113.89C101.88 113.69 101.74 113.5 101.6 113.32C101.46 113.13 101.31 112.95 101.16 112.77C100.86 112.4 100.55 112.05 100.24 111.69C99.83 111.23 99.42 110.78 98.99 110.34C99.77 110.33 100.55 110.3 101.33 110.25C101.88 110.22 102.43 110.17 102.98 110.12C103.25 110.09 103.53 110.06 103.8 110.03C104.07 109.99 104.35 109.96 104.62 109.91C104.35 109.86 104.07 109.82 103.8 109.79V109.78Z" fill="#A98B60"/>
<path d="M47.23 72.4399C48.3401 72.4399 49.24 71.54 49.24 70.4299C49.24 69.3198 48.3401 68.4199 47.23 68.4199C46.1199 68.4199 45.22 69.3198 45.22 70.4299C45.22 71.54 46.1199 72.4399 47.23 72.4399Z" fill="#D2B88A"/>
<path d="M89.0799 32.3401C90.19 32.3401 91.0899 31.4402 91.0899 30.3301C91.0899 29.22 90.19 28.3201 89.0799 28.3201C87.9699 28.3201 87.0699 29.22 87.0699 30.3301C87.0699 31.4402 87.9699 32.3401 89.0799 32.3401Z" fill="#A98B60"/>
<path d="M28.24 111.92C29.3501 111.92 30.25 111.02 30.25 109.91C30.25 108.8 29.3501 107.9 28.24 107.9C27.1299 107.9 26.23 108.8 26.23 109.91C26.23 111.02 27.1299 111.92 28.24 111.92Z" fill="#A98B60"/>
<defs>
<linearGradient id="paint0_linear_2714_2375" x1="23.3799" y1="87.3901" x2="23.3799" y2="37.1101" gradientUnits="userSpaceOnUse">
<stop stop-color="#AB8D60" stop-opacity="0"/>
<stop offset="0.1" stop-color="#AB8D60" stop-opacity="0.1"/>
<stop offset="0.3" stop-color="#AB8D60" stop-opacity="0.36"/>
<stop offset="0.58" stop-color="#AB8D60" stop-opacity="0.76"/>
<stop offset="0.72" stop-color="#AB8D60" stop-opacity="0.99"/>
<stop offset="1" stop-color="#AB8D60"/>
</linearGradient>
<linearGradient id="paint1_linear_2714_2375" x1="22.4" y1="37.1101" x2="22.4" y2="48.3701" gradientUnits="userSpaceOnUse">
<stop offset="0.06" stop-color="#1F1912" stop-opacity="0"/>
<stop offset="0.37" stop-color="#1F1912" stop-opacity="0.17"/>
<stop offset="0.75" stop-color="#1F1912" stop-opacity="0.66"/>
<stop offset="0.95" stop-color="#1F1912"/>
</linearGradient>
<linearGradient id="paint2_linear_2714_2375" x1="24.43" y1="37.1101" x2="24.43" y2="48.3701" gradientUnits="userSpaceOnUse">
<stop offset="0.06" stop-color="#1F1912" stop-opacity="0"/>
<stop offset="0.37" stop-color="#1F1912" stop-opacity="0.17"/>
<stop offset="0.75" stop-color="#1F1912" stop-opacity="0.66"/>
<stop offset="0.95" stop-color="#1F1912"/>
</linearGradient>
<linearGradient id="paint3_linear_2714_2375" x1="106.62" y1="87.3901" x2="106.62" y2="37.1101" gradientUnits="userSpaceOnUse">
<stop stop-color="#AB8D60" stop-opacity="0"/>
<stop offset="0.1" stop-color="#AB8D60" stop-opacity="0.1"/>
<stop offset="0.3" stop-color="#AB8D60" stop-opacity="0.36"/>
<stop offset="0.58" stop-color="#AB8D60" stop-opacity="0.76"/>
<stop offset="0.72" stop-color="#AB8D60" stop-opacity="0.99"/>
<stop offset="1" stop-color="#AB8D60"/>
</linearGradient>
<linearGradient id="paint4_linear_2714_2375" x1="107.6" y1="37.1101" x2="107.6" y2="48.3701" gradientUnits="userSpaceOnUse">
<stop offset="0.06" stop-color="#1F1912" stop-opacity="0"/>
<stop offset="0.37" stop-color="#1F1912" stop-opacity="0.17"/>
<stop offset="0.75" stop-color="#1F1912" stop-opacity="0.66"/>
<stop offset="0.95" stop-color="#1F1912"/>
</linearGradient>
<linearGradient id="paint5_linear_2714_2375" x1="105.57" y1="37.1101" x2="105.57" y2="48.3701" gradientUnits="userSpaceOnUse">
<stop offset="0.06" stop-color="#1F1912" stop-opacity="0"/>
<stop offset="0.37" stop-color="#1F1912" stop-opacity="0.17"/>
<stop offset="0.75" stop-color="#1F1912" stop-opacity="0.66"/>
<stop offset="0.95" stop-color="#1F1912"/>
</linearGradient>
<linearGradient id="paint6_linear_2714_2375" x1="38.0399" y1="79.1801" x2="91.8599" y2="79.1801" gradientUnits="userSpaceOnUse">
<stop offset="0.06" stop-color="#1F1912" stop-opacity="0"/>
<stop offset="0.37" stop-color="#1F1912" stop-opacity="0.17"/>
<stop offset="0.75" stop-color="#1F1912" stop-opacity="0.66"/>
<stop offset="0.95" stop-color="#1F1912"/>
</linearGradient>
<linearGradient id="paint7_linear_2714_2375" x1="82.67" y1="94.2702" x2="47.23" y2="94.2702" gradientUnits="userSpaceOnUse">
<stop offset="0.06" stop-color="#1F1912" stop-opacity="0"/>
<stop offset="0.37" stop-color="#1F1912" stop-opacity="0.17"/>
<stop offset="0.75" stop-color="#1F1912" stop-opacity="0.66"/>
<stop offset="0.95" stop-color="#1F1912"/>
</linearGradient>
<linearGradient id="paint8_linear_2714_2375" x1="51.8999" y1="72.7401" x2="77.9899" y2="72.7401" gradientUnits="userSpaceOnUse">
<stop stop-color="#AB8D60" stop-opacity="0"/>
<stop offset="0.22" stop-color="#AB8D60" stop-opacity="0.02"/>
<stop offset="0.37" stop-color="#AB8D60" stop-opacity="0.07"/>
<stop offset="0.51" stop-color="#AB8D60" stop-opacity="0.16"/>
<stop offset="0.63" stop-color="#AB8D60" stop-opacity="0.29"/>
<stop offset="0.75" stop-color="#AB8D60" stop-opacity="0.46"/>
<stop offset="0.86" stop-color="#AB8D60" stop-opacity="0.66"/>
<stop offset="0.96" stop-color="#AB8D60" stop-opacity="0.9"/>
<stop offset="1" stop-color="#AB8D60"/>
</linearGradient>
</defs>
</svg>
