<svg width="280" height="240" viewBox="0 0 280 240" fill="none" xmlns="http://www.w3.org/2000/svg">
<rect width="280" height="240" rx="20" fill="url(#paint0_linear_1498_6186)"/>
<circle cx="140" cy="110" r="84" fill="url(#paint1_radial_1498_6186)"/>
<circle cx="140" cy="110" r="60" fill="url(#paint2_radial_1498_6186)"/>
<path fill-rule="evenodd" clip-rule="evenodd" d="M192.579 90.6022L215.758 78.6199L190.896 86.5371L192.579 90.6022Z" fill="#FCCF6B" fill-opacity="0.5"/>
<path fill-rule="evenodd" clip-rule="evenodd" d="M190.896 133.463L215.758 141.38L192.579 129.398L190.896 133.463Z" fill="#FCCF6B" fill-opacity="0.5"/>
<path fill-rule="evenodd" clip-rule="evenodd" d="M159.397 162.579L171.38 185.758L163.463 160.895L159.397 162.579Z" fill="#FCCF6B" fill-opacity="0.5"/>
<path fill-rule="evenodd" clip-rule="evenodd" d="M116.537 160.895L108.62 185.758L120.602 162.579L116.537 160.895Z" fill="#FCCF6B" fill-opacity="0.5"/>
<path fill-rule="evenodd" clip-rule="evenodd" d="M87.4212 129.398L64.2422 141.38L89.105 133.463L87.4212 129.398Z" fill="#FCCF6B" fill-opacity="0.5"/>
<path fill-rule="evenodd" clip-rule="evenodd" d="M89.105 86.5371L64.2422 78.6199L87.4212 90.6022L89.105 86.5371Z" fill="#FCCF6B" fill-opacity="0.5"/>
<path fill-rule="evenodd" clip-rule="evenodd" d="M120.602 57.4209L108.62 34.2419L116.537 59.1047L120.602 57.4209Z" fill="#FCCF6B" fill-opacity="0.5"/>
<path fill-rule="evenodd" clip-rule="evenodd" d="M163.463 59.1047L171.38 34.2419L159.397 57.4209L163.463 59.1047Z" fill="#FCCF6B" fill-opacity="0.5"/>
<g filter="url(#filter0_d_1498_6186)">
<circle cx="140" cy="110" r="46" fill="url(#paint3_linear_1498_6186)"/>
</g>
<path d="M133.47 121.858L124.868 113.358L128.166 110.094L136.156 118.016L134.116 118.084L148.804 101.458L152.136 104.79L136.564 121.858H133.47Z" fill="white"/>
<ellipse cx="33.4346" cy="43.8074" rx="5" ry="8" transform="rotate(-20 33.4346 43.8074)" fill="#FCA880" fill-opacity="0.75"/>
<ellipse cx="241.796" cy="37.4179" rx="4" ry="6.5" transform="rotate(18 241.796 37.4179)" fill="#BDA67A" fill-opacity="0.7"/>
<ellipse cx="258.847" cy="159.923" rx="5.5" ry="8.5" transform="rotate(-28 258.847 159.923)" fill="#F4C574" fill-opacity="0.7"/>
<ellipse cx="19.5501" cy="163.176" rx="4.5" ry="7" transform="rotate(22 19.5501 163.176)" fill="#8D6A35" fill-opacity="0.55"/>
<ellipse cx="136.508" cy="215.629" rx="4" ry="6" transform="rotate(-5 136.508 215.629)" fill="#FCCF6B" fill-opacity="0.65"/>
<circle cx="54" cy="54" r="2" fill="#BDA67A" fill-opacity="0.45"/>
<circle cx="227.5" cy="59.5" r="1.5" fill="#BDA67A" fill-opacity="0.45"/>
<circle cx="236" cy="180" r="2" fill="#BDA67A" fill-opacity="0.45"/>
<circle cx="47.5" cy="181.5" r="1.5" fill="#BDA67A" fill-opacity="0.45"/>
<rect y="180" width="280" height="60" fill="url(#paint4_linear_1498_6186)"/>
<defs>
<filter id="filter0_d_1498_6186" x="70" y="48" width="140" height="140" filterUnits="userSpaceOnUse" color-interpolation-filters="sRGB">
<feFlood flood-opacity="0" result="BackgroundImageFix"/>
<feColorMatrix in="SourceAlpha" type="matrix" values="0 0 0 0 0 0 0 0 0 0 0 0 0 0 0 0 0 0 127 0" result="hardAlpha"/>
<feOffset dy="8"/>
<feGaussianBlur stdDeviation="12"/>
<feColorMatrix type="matrix" values="0 0 0 0 0.647 0 0 0 0 0.463 0 0 0 0 0.204 0 0 0 0.45 0"/>
<feBlend mode="normal" in2="BackgroundImageFix" result="effect1_dropShadow_1498_6186"/>
<feBlend mode="normal" in="SourceGraphic" in2="effect1_dropShadow_1498_6186" result="shape"/>
</filter>
<linearGradient id="paint0_linear_1498_6186" x1="140" y1="0" x2="140" y2="240" gradientUnits="userSpaceOnUse">
<stop stop-color="#FFFAF1"/>
<stop offset="0.5" stop-color="#FEF4E2"/>
<stop offset="1" stop-color="#FAEDD1"/>
</linearGradient>
<radialGradient id="paint1_radial_1498_6186" cx="0" cy="0" r="1" gradientUnits="userSpaceOnUse" gradientTransform="translate(56 26) scale(168)">
<stop stop-color="#FCD980" stop-opacity="0.3"/>
<stop offset="0.7" stop-color="#FCD980" stop-opacity="0.08"/>
<stop offset="1" stop-color="#FCD980" stop-opacity="0"/>
</radialGradient>
<radialGradient id="paint2_radial_1498_6186" cx="0" cy="0" r="1" gradientUnits="userSpaceOnUse" gradientTransform="translate(80 50) scale(120)">
<stop stop-color="#FCCF6B" stop-opacity="0.22"/>
<stop offset="1" stop-color="#FCCF6B" stop-opacity="0"/>
</radialGradient>
<linearGradient id="paint3_linear_1498_6186" x1="6757.56" y1="-63.5247" x2="6822.62" y2="1.53896" gradientUnits="userSpaceOnUse">
<stop stop-color="#F4D189"/>
<stop offset="1" stop-color="#A57634"/>
</linearGradient>
<linearGradient id="paint4_linear_1498_6186" x1="140" y1="180" x2="140" y2="240" gradientUnits="userSpaceOnUse">
<stop stop-color="white" stop-opacity="0"/>
<stop offset="1" stop-color="white" stop-opacity="0.18"/>
</linearGradient>
</defs>
</svg>
