<svg width="280" height="200" viewBox="0 0 280 200" fill="none" xmlns="http://www.w3.org/2000/svg">
<g clip-path="url(#clip0_2714_2485)">
<path d="M280 0H0V200H280V0Z" fill="#F1EBE0"/>
<path d="M193.59 24.95C190.05 24.62 186.24 24.34 183.16 26.13C181.2 27.26 179.73 29.14 177.71 30.16C174.92 31.57 171.61 31.13 168.51 31.45C164.2 31.89 159.88 34.09 157.81 37.89C155.74 41.69 156.58 47.12 160.24 49.44C162.54 50.9 165.43 50.97 168.15 50.99C172.87 51.03 177.58 51.07 182.3 51.11C183.89 51.12 185.58 51.17 186.9 52.05C187.86 52.69 188.5 53.69 189.24 54.57C194.35 60.59 203.61 60.21 211.41 59.02C215.21 58.44 219.15 57.73 222.23 55.43C225.31 53.13 227.18 48.75 225.44 45.33C224.89 44.24 223.99 43.18 224.19 41.98C224.37 40.89 225.39 40.16 226.31 39.55C228.15 38.34 230.03 37.01 231.05 35.07C232.07 33.12 231.93 30.38 230.15 29.09C229.13 28.34 227.79 28.21 226.53 28.11C215.44 27.24 204.67 25.98 193.59 24.95Z" fill="url(#paint0_linear_2714_2485)"/>
<path d="M234.05 71.41C232.89 73.93 230.98 76.11 228.65 77.61C227.69 78.23 226.65 78.73 225.84 79.53C225.04 80.33 224.48 81.48 224.9 82.54C225.75 84.63 226.61 86.72 227.5 88.8C220.37 89.71 212.84 90.98 204.97 92.7C204.71 90.16 204.31 87.64 203.76 85.16C203.03 81.91 201.88 78.46 199.13 76.6C197.78 75.7 196.19 75.28 194.69 74.67C189.26 72.46 185.07 67.77 182.7 62.4C180.34 57.04 179.67 51.06 179.93 45.2C180.97 44.72 181.54 44.26 182.58 43.79C182.11 47.07 182.25 50.44 183 53.67C183.35 55.14 184.07 56.83 185.57 57.1C186.93 57.34 188.21 56.15 188.59 54.82C188.95 53.48 188.65 52.06 188.33 50.71C188.07 49.52 187.79 48.33 187.52 47.14C189.01 47.18 190.67 47.16 192.15 47.21C193 49.84 193.52 52.65 193.05 55.38C192.58 58.11 190.98 60.75 188.49 61.95C189.93 64.88 191.93 68.23 195.2 68.46C196.87 68.58 198.46 67.81 199.95 67.07C200.64 66.72 201.37 66.34 201.73 65.66C202.05 65.05 202.01 64.32 201.96 63.63C201.69 60.15 201.37 56.49 199.48 53.54C198.73 52.36 197.74 51.33 197.02 50.11C196.3 48.9 195.84 47.41 196.33 46.1C198.76 46.18 200.74 46.45 203.17 46.53C206.14 53.7 208.4 61.15 209.91 68.76C210.19 70.17 210.46 71.61 211.11 72.9C213.28 77.17 219.51 78.26 223.55 75.69C227.59 73.14 229.37 67.89 228.76 63.14C230.54 61.75 233.4 62.86 234.42 64.88C235.43 66.89 234.99 69.36 234.05 71.41Z" fill="url(#paint1_linear_2714_2485)"/>
<path d="M240.639 47.85C243.379 47.79 246.309 47.78 248.579 49.31C250.019 50.28 251.049 51.8 252.549 52.69C254.609 53.92 257.179 53.76 259.539 54.17C262.819 54.74 266.019 56.66 267.399 59.68C268.789 62.71 267.849 66.83 264.919 68.41C263.079 69.41 260.859 69.3 258.769 69.18C255.149 68.96 251.529 68.74 247.909 68.51C246.689 68.44 245.389 68.38 244.329 68.98C243.559 69.42 243.019 70.16 242.399 70.79C238.159 75.14 231.069 74.35 225.149 73.02C222.269 72.37 219.279 71.61 217.039 69.69C214.799 67.77 213.599 64.3 215.109 61.77C215.589 60.97 216.339 60.2 216.249 59.27C216.169 58.42 215.429 57.81 214.749 57.3C213.409 56.27 212.029 55.16 211.349 53.61C210.669 52.06 210.929 49.97 212.359 49.07C213.189 48.55 214.209 48.52 215.189 48.51C223.739 48.43 232.079 48.05 240.629 47.85H240.639Z" fill="url(#paint2_linear_2714_2485)"/>
<path opacity="0.6" d="M82.4102 155.46C121.44 155.46 153.08 123.82 153.08 84.7901C153.08 45.7602 121.44 14.1201 82.4102 14.1201C43.3803 14.1201 11.7402 45.7602 11.7402 84.7901C11.7402 123.82 43.3803 155.46 82.4102 155.46Z" fill="url(#paint3_radial_2714_2485)"/>
<path d="M82.4098 139.94C112.868 139.94 137.56 115.249 137.56 84.7901C137.56 54.3316 112.868 29.6401 82.4098 29.6401C51.9513 29.6401 27.2598 54.3316 27.2598 84.7901C27.2598 115.249 51.9513 139.94 82.4098 139.94Z" fill="white"/>
<path d="M253.81 86.89C246.12 87.02 237.7 87.5501 228.63 88.6601C207.45 91.2601 182.79 97.01 155.89 108.27C139.53 115.12 122.62 120.58 105.26 124.2C73.14 130.9 25.42 138.18 0 129.22V200H280V87.96C272.66 87.2 263.87 86.7 253.81 86.89Z" fill="url(#paint4_linear_2714_2485)"/>
<path d="M280 164.64V200H0V154.04C31.35 150.1 63.83 150.8 93.89 162.28C93.91 162.28 93.93 162.3 93.95 162.3C98.04 163.87 102.39 164.64 106.77 164.64H280Z" fill="#A98B60"/>
<path d="M124.78 83.8801C122.76 83.6201 120.74 83.4001 118.73 83.1901C118.71 83.1901 118.69 83.1901 118.67 83.1901C115.94 82.9201 113.59 81.0101 113.03 78.3301C112.18 74.2501 110.53 70.4701 108.26 67.1501C106.72 64.8901 106.91 61.8901 108.58 59.7201C108.59 59.7101 108.6 59.6901 108.61 59.6801C109.67 58.3001 110.72 56.9101 111.73 55.4701C110.29 56.4701 108.9 57.5201 107.52 58.5901C107.51 58.6001 107.49 58.6101 107.48 58.6201C105.31 60.2901 102.31 60.4801 100.05 58.9401C96.7302 56.6701 92.9502 55.0201 88.8702 54.1701C86.1902 53.6101 84.2802 51.2501 84.0102 48.5301C84.0102 48.5101 84.0102 48.4901 84.0102 48.4701C83.8002 46.4501 83.5802 44.4301 83.3202 42.4201C83.0602 40.4001 82.7802 38.3801 82.4202 36.3701C82.0602 38.3901 81.7702 40.4101 81.5102 42.4201C81.2502 44.4401 81.0302 46.4601 80.8202 48.4701C80.8202 48.4901 80.8202 48.5101 80.8202 48.5301C80.5502 51.2601 78.6402 53.6101 75.9602 54.1701C71.8902 55.0201 68.1102 56.6701 64.7802 58.9401C62.5202 60.4801 59.5202 60.2901 57.3502 58.6201C57.3402 58.6101 57.3202 58.6001 57.3102 58.5901C55.9302 57.5301 54.5402 56.4801 53.0902 55.4801C54.0902 56.9201 55.1402 58.3201 56.2102 59.7001C56.2202 59.7101 56.2302 59.7301 56.2402 59.7401C57.9102 61.9101 58.1002 64.9101 56.5602 67.1701C54.2902 70.4901 52.6502 74.2701 51.7902 78.3401C51.2302 81.0201 48.8702 82.9301 46.1502 83.2001C46.1302 83.2001 46.1102 83.2001 46.0902 83.2001C44.0702 83.4101 42.0502 83.6301 40.0402 83.8901C38.0202 84.1501 36.0002 84.4301 33.9902 84.8001C36.0102 85.1601 38.0302 85.4501 40.0402 85.7101C42.0602 85.9701 44.0802 86.1901 46.0902 86.4001C46.1102 86.4001 46.1302 86.4001 46.1502 86.4001C48.8802 86.6701 51.2302 88.5801 51.7902 91.2601C52.6402 95.3301 54.2902 99.1101 56.5602 102.43C58.1002 104.69 57.9102 107.69 56.2402 109.86C56.2302 109.87 56.2202 109.89 56.2102 109.9C55.1502 111.28 54.1002 112.67 53.0902 114.12C54.5302 113.12 55.9302 112.07 57.3102 111.01C57.3202 111 57.3402 110.99 57.3502 110.98C59.5202 109.31 62.5202 109.12 64.7802 110.66C68.1002 112.93 71.8802 114.57 75.9502 115.43C78.6302 115.99 80.5402 118.35 80.8102 121.07C80.8102 121.09 80.8102 121.11 80.8102 121.13C81.0202 123.15 81.2402 125.17 81.5002 127.18C81.7602 129.2 82.0402 131.22 82.4102 133.23C82.7702 131.21 83.0602 129.19 83.3202 127.18C83.5802 125.16 83.8002 123.14 84.0102 121.13C84.0102 121.11 84.0102 121.09 84.0102 121.07C84.2802 118.34 86.1902 115.99 88.8702 115.43C92.9402 114.57 96.7202 112.93 100.04 110.66C102.3 109.12 105.3 109.31 107.47 110.98C107.48 110.99 107.5 111 107.51 111.01C108.89 112.08 110.28 113.13 111.72 114.13C110.72 112.69 109.67 111.3 108.6 109.92C108.59 109.91 108.58 109.89 108.57 109.88C106.9 107.71 106.7 104.71 108.25 102.45C110.52 99.1301 112.17 95.3501 113.02 91.2701C113.58 88.5901 115.94 86.6801 118.66 86.4101C118.68 86.4101 118.7 86.4101 118.72 86.4101C120.74 86.2001 122.76 85.9801 124.77 85.7201C126.79 85.4601 128.81 85.1801 130.82 84.8201C128.8 84.4601 126.78 84.1701 124.77 83.9201L124.78 83.8801Z" fill="#F4D189"/>
<path d="M68.81 83.5401C67.96 83.3201 66.84 83.2701 66.41 84.0501C65.9 84.9801 66.9 85.9801 67.75 86.6201C71.19 89.1801 74.02 92.5601 75.92 96.4001C76.36 97.2801 77.05 98.3501 78.01 98.1501C78.48 98.0501 78.82 97.6601 79.13 97.2901C84.88 90.4001 90.63 83.5001 96.38 76.6101C95.19 75.4301 93.29 75.2001 91.67 75.6401C90.05 76.0801 88.64 77.0801 87.32 78.1201C84.05 80.6701 81.1 83.5201 78.27 86.5501C76.35 88.6001 76.24 87.3901 74.17 85.9801C72.54 84.8701 70.72 84.0401 68.8 83.5501L68.81 83.5401Z" fill="#750D33"/>
<path d="M130.839 84.7802C128.819 85.1502 126.809 85.4302 124.789 85.6902C122.769 85.9502 120.749 86.1702 118.739 86.3802C118.719 86.3802 118.699 86.3802 118.679 86.3902C115.949 86.6602 113.599 88.5702 113.029 91.2502C112.179 95.3202 110.529 99.1002 108.259 102.42C106.719 104.68 106.909 107.69 108.579 109.85C108.589 109.87 108.599 109.88 108.619 109.9C109.679 111.27 110.729 112.67 111.729 114.11C110.289 113.11 108.899 112.06 107.519 110.99C107.519 110.99 107.489 110.97 107.479 110.96C105.309 109.29 102.309 109.09 100.049 110.64C96.7294 112.91 92.9494 114.55 88.8794 115.41C86.1994 115.97 84.2894 118.33 84.0194 121.05C84.0194 121.07 84.0194 121.09 84.0194 121.11C83.8094 123.13 83.5894 125.15 83.3294 127.16C83.0694 129.18 82.7794 131.2 82.4194 133.22C82.0494 131.2 81.7694 129.18 81.5094 127.16C81.2494 125.15 81.0294 123.13 80.8194 121.11C80.8194 121.09 80.8194 121.07 80.8194 121.05C80.5394 118.33 78.6394 115.97 75.9594 115.41C71.8894 114.55 68.1094 112.91 64.7894 110.64C62.5294 109.1 59.5294 109.29 57.3694 110.96C57.3494 110.97 57.3394 110.98 57.3194 110.99C55.9394 112.06 54.5494 113.11 53.1094 114.11C54.1094 112.67 55.1594 111.27 56.2194 109.89C56.2294 109.88 56.2394 109.86 56.2494 109.85C57.9194 107.68 58.1194 104.68 56.5694 102.42C56.4994 102.32 56.4294 102.21 56.3694 102.1C70.5594 111.69 88.6894 110.95 99.0494 99.5802C109.129 88.5202 108.519 71.0602 98.4894 57.9302C99.0294 58.2402 99.5494 58.5802 100.069 58.9302C102.329 60.4802 105.329 60.2802 107.499 58.6102C107.509 58.6102 107.529 58.5902 107.539 58.5802C108.919 57.5102 110.309 56.4602 111.749 55.4602C110.749 56.9002 109.699 58.3002 108.639 59.6702C108.619 59.6902 108.609 59.7002 108.599 59.7102C106.929 61.8802 106.739 64.8902 108.279 67.1402C110.549 70.4702 112.199 74.2502 113.049 78.3202C113.619 81.0002 115.969 82.9102 118.699 83.1802C118.719 83.1902 118.739 83.1902 118.759 83.1902C120.769 83.4002 122.789 83.6202 124.809 83.8802C126.829 84.1402 128.839 84.4202 130.859 84.7802H130.839Z" fill="url(#paint5_linear_2714_2485)"/>
<g filter="url(#filter0_d_2714_2485)">
<path d="M241.92 172.59L239.52 155.49L234.23 117.86C233.57 113.15 229.21 109.33 224.5 109.33H119.7C114.99 109.33 111.7 113.15 112.37 117.86L120.06 172.58C120.72 177.28 125.08 181.1 129.79 181.1H234.59C239.3 181.1 242.59 177.28 241.92 172.58V172.59Z" fill="#AC8E60"/>
</g>
<path d="M229.029 117.87L236.719 172.59C237.379 177.29 234.099 181.11 229.389 181.11H129.799C125.089 181.11 120.729 177.29 120.069 172.59L112.379 117.87C111.719 113.16 114.999 109.34 119.709 109.34H219.299C224.009 109.34 228.369 113.16 229.029 117.87Z" fill="#1F1912"/>
<path d="M234.229 117.87L241.919 172.59C242.579 177.29 239.299 181.11 234.589 181.11H134.999C130.289 181.11 125.929 177.29 125.269 172.59L117.579 117.87C116.919 113.16 120.199 109.34 124.909 109.34H224.499C229.209 109.34 233.569 113.16 234.229 117.87Z" fill="#382F25"/>
<path opacity="0.5" d="M190.39 149.39H136.05C133.97 149.39 132.06 147.71 131.76 145.63C131.47 143.55 132.91 141.87 134.99 141.87H189.33C191.41 141.87 193.32 143.55 193.62 145.63C193.91 147.71 192.47 149.39 190.39 149.39Z" fill="#AC8E60"/>
<g opacity="0.3">
<path d="M234.23 117.87L239.52 155.5C238.66 155.55 237.8 155.58 236.93 155.58C214.76 155.58 194.24 137.6 191.12 115.41C190.83 113.35 190.7 111.32 190.71 109.33H224.5C229.21 109.33 233.57 113.15 234.23 117.86V117.87Z" fill="#AC8E60"/>
<path d="M147.989 177.26C148.179 178.58 148.239 179.86 148.179 181.11H134.999C130.289 181.11 125.929 177.29 125.269 172.59L122.869 155.54C122.969 155.53 123.089 155.53 123.199 155.53C135.209 155.53 146.309 165.26 147.989 177.27V177.26Z" fill="#AC8E60"/>
</g>
<path d="M132.009 118.66C132.099 118.56 132.139 118.45 132.119 118.34C132.089 118.14 131.929 118.01 131.719 118.01C131.639 118.01 131.559 118.04 131.479 118.09H131.469C131.119 118.38 130.759 118.75 130.409 119.2C130.059 119.65 129.739 120.18 129.469 120.79C129.199 121.4 128.999 122.08 128.889 122.82C128.769 123.56 128.769 124.38 128.889 125.25C129.009 126.12 129.239 126.93 129.569 127.68C129.899 128.42 130.279 129.1 130.719 129.71C131.159 130.31 131.619 130.85 132.099 131.3C132.579 131.75 133.039 132.12 133.469 132.4H133.479C133.569 132.46 133.659 132.49 133.739 132.49C133.949 132.49 134.069 132.36 134.039 132.16C134.019 132.05 133.959 131.94 133.829 131.83C132.859 131.05 132.079 130.08 131.519 128.95C130.959 127.81 130.579 126.57 130.389 125.27C130.199 123.97 130.239 122.73 130.479 121.59C130.719 120.46 131.229 119.49 131.989 118.7L132.009 118.66Z" fill="#D4BA8C"/>
<path d="M139.069 125.5H135.049C134.829 125.5 134.699 125.65 134.729 125.87L134.759 126.1C134.789 126.32 134.959 126.47 135.179 126.47H139.199C139.419 126.47 139.549 126.32 139.519 126.1L139.489 125.87C139.459 125.65 139.289 125.5 139.069 125.5Z" fill="white"/>
<path d="M144.469 122.8C144.139 122.06 143.759 121.38 143.319 120.77C142.879 120.17 142.409 119.63 141.939 119.18C141.459 118.73 140.999 118.36 140.569 118.09C140.479 118.03 140.389 118 140.289 118C140.079 118 139.959 118.13 139.989 118.33C140.009 118.44 140.069 118.55 140.199 118.66C141.179 119.44 141.959 120.41 142.519 121.54C143.079 122.68 143.459 123.92 143.639 125.22C143.819 126.52 143.789 127.76 143.559 128.9C143.319 130.03 142.819 131 142.049 131.79C141.959 131.89 141.919 132 141.939 132.11C141.969 132.31 142.129 132.44 142.339 132.44C142.439 132.44 142.529 132.41 142.589 132.35C142.939 132.07 143.299 131.7 143.649 131.25C143.999 130.8 144.319 130.27 144.589 129.66C144.859 129.06 145.059 128.37 145.169 127.63C145.289 126.89 145.289 126.07 145.169 125.2C145.049 124.33 144.819 123.52 144.489 122.77L144.469 122.8Z" fill="#D4BA8C"/>
<path d="M158.09 171.96H138.03C136.61 171.96 135.3 170.81 135.1 169.39C134.9 167.97 135.89 166.82 137.31 166.82H157.37C158.79 166.82 160.1 167.97 160.3 169.39C160.5 170.81 159.51 171.96 158.09 171.96Z" fill="#AC8E60"/>
<path d="M193.529 171.96H173.469C172.049 171.96 170.739 170.81 170.539 169.39C170.339 167.97 171.329 166.82 172.749 166.82H192.809C194.229 166.82 195.539 167.97 195.739 169.39C195.939 170.81 194.949 171.96 193.529 171.96Z" fill="#AC8E60"/>
<path d="M228.981 171.96H208.921C207.501 171.96 206.191 170.81 205.991 169.39C205.791 167.97 206.781 166.82 208.201 166.82H228.261C229.681 166.82 230.991 167.97 231.191 169.39C231.391 170.81 230.401 171.96 228.981 171.96Z" fill="#AC8E60"/>
<path d="M152.949 14.6101C152.719 15.0501 152.469 15.5001 152.189 15.9401C151.869 16.4401 151.509 16.9201 151.089 17.3201C151.119 17.3501 151.139 17.3801 151.169 17.4201C151.369 17.7101 151.429 18.1001 151.369 18.4601C151.309 18.8601 151.109 19.2201 150.879 19.5601C150.679 19.8601 150.459 20.1401 150.209 20.4001C150.029 20.5901 149.829 20.7701 149.619 20.9201C149.649 20.9901 149.679 21.0601 149.689 21.1301C149.879 21.9201 149.299 22.7901 148.559 23.2001C147.749 23.6501 146.799 23.7301 145.909 23.9701C145.669 24.0301 145.409 24.1401 145.319 24.3701C145.159 24.7801 145.639 25.1301 146.039 25.3201C147.639 26.0801 149.099 27.1501 150.309 28.4501C150.399 28.5501 150.499 28.6601 150.529 28.8001C150.589 29.1401 150.199 29.3701 149.879 29.4901C148.879 29.8701 147.859 30.2601 146.799 30.3801C146.619 30.4001 146.429 30.4101 146.239 30.4201H146.119C144.899 30.4201 143.619 29.9201 142.979 28.8901C142.469 28.0601 142.399 26.9501 141.659 26.3001C140.739 25.4901 139.339 25.8401 138.119 25.9801C136.569 26.1601 134.969 25.9101 133.539 25.2601C133.219 25.1201 132.889 24.9401 132.719 24.6301C132.599 24.4201 132.529 24.1201 132.599 23.9101C132.629 23.8201 132.689 23.7401 132.789 23.7001C132.639 23.6601 132.489 23.6201 132.349 23.5901C132.299 23.5901 132.259 23.5701 132.219 23.5601C131.459 23.3801 130.629 23.1301 130.219 22.4801C130.019 22.1501 129.939 21.7801 130.199 21.5401C130.219 21.5201 130.249 21.5001 130.279 21.4801C130.199 21.4601 130.109 21.4501 130.029 21.4301C129.399 21.3101 128.759 21.1401 128.249 20.7601C127.679 20.3201 127.339 19.4801 127.689 18.8501C130.489 18.7801 133.189 19.7801 135.959 20.1901C136.359 20.2501 136.869 20.2201 137.109 19.9501C137.169 19.8901 137.209 19.8101 137.229 19.7101C137.259 19.5901 137.229 19.4701 137.179 19.3701C137.089 19.1701 136.889 19.0001 136.679 18.9001C136.359 18.7501 135.989 18.7001 135.699 18.5001C135.729 18.0501 136.389 18.0101 136.749 17.7401C137.229 17.3901 137.159 16.6701 137.389 16.1301C137.689 15.4001 138.539 15.0201 139.329 15.0101C139.979 15.0001 140.679 15.2401 141.019 15.7901C141.249 16.1801 141.279 16.6501 141.379 17.0901C141.479 17.5301 141.729 18.0001 142.159 18.1101C142.499 17.9601 142.829 17.8101 143.159 17.6601C145.629 16.5501 147.969 14.7201 150.149 13.1001C150.589 12.7801 151.019 12.4101 151.549 12.2501C152.069 12.0801 152.709 12.1401 153.069 12.5501C153.549 13.1101 153.289 13.9801 152.939 14.6301L152.949 14.6101Z" fill="white"/>
<path d="M117.26 32.9001C117.12 33.1601 116.98 33.4201 116.82 33.6701C116.63 33.9601 116.43 34.2401 116.18 34.4701C116.2 34.4901 116.21 34.5101 116.22 34.5301C116.34 34.7001 116.37 34.9301 116.34 35.1301C116.3 35.3601 116.19 35.5701 116.06 35.7701C115.94 35.9501 115.81 36.1101 115.67 36.2601C115.56 36.3701 115.45 36.4701 115.33 36.5601C115.35 36.6001 115.36 36.6401 115.37 36.6801C115.48 37.1401 115.14 37.6501 114.71 37.8801C114.24 38.1401 113.69 38.1901 113.17 38.3301C113.03 38.3701 112.88 38.4301 112.82 38.5601C112.73 38.8001 113.01 39.0001 113.24 39.1101C114.17 39.5501 115.02 40.1801 115.73 40.9301C115.78 40.9901 115.84 41.0501 115.86 41.1301C115.9 41.3301 115.67 41.4601 115.48 41.5301C114.9 41.7501 114.31 41.9801 113.69 42.0501C113.58 42.0601 113.48 42.0701 113.37 42.0701H113.3C112.59 42.0701 111.85 41.7801 111.47 41.1801C111.17 40.7001 111.13 40.0501 110.7 39.6701C110.17 39.2001 109.35 39.4001 108.64 39.4801C107.74 39.5901 106.8 39.4401 105.97 39.0601C105.78 38.9801 105.59 38.8701 105.49 38.6901C105.42 38.5701 105.38 38.3901 105.42 38.2701C105.44 38.2201 105.47 38.1701 105.53 38.1501C105.44 38.1301 105.36 38.1101 105.27 38.0801C105.24 38.0801 105.22 38.0701 105.2 38.0601C104.76 37.9501 104.28 37.8101 104.04 37.4301C103.92 37.2401 103.88 37.0201 104.03 36.8801C104.04 36.8701 104.06 36.8601 104.07 36.8501C104.02 36.8501 103.97 36.8301 103.93 36.8201C103.56 36.7501 103.19 36.6501 102.9 36.4301C102.57 36.1701 102.37 35.6901 102.57 35.3201C104.2 35.2801 105.77 35.8601 107.38 36.1001C107.61 36.1301 107.91 36.1201 108.05 35.9601C108.08 35.9201 108.11 35.8801 108.12 35.8201C108.14 35.7501 108.12 35.6801 108.09 35.6201C108.04 35.5001 107.92 35.4001 107.8 35.3501C107.61 35.2601 107.4 35.2301 107.23 35.1201C107.25 34.8601 107.63 34.8401 107.84 34.6801C108.12 34.4801 108.08 34.0601 108.21 33.7401C108.39 33.3101 108.88 33.0901 109.34 33.0901C109.72 33.0901 110.13 33.2201 110.32 33.5501C110.46 33.7801 110.47 34.0501 110.53 34.3001C110.59 34.5601 110.73 34.8301 110.99 34.8901C111.19 34.8001 111.38 34.7201 111.57 34.6301C113.01 33.9801 114.37 32.9201 115.64 31.9801C115.9 31.7901 116.15 31.5801 116.45 31.4801C116.75 31.3801 117.13 31.4101 117.34 31.6601C117.62 31.9901 117.47 32.4901 117.27 32.8701L117.26 32.9001Z" fill="#D2B88A"/>
<path d="M262.011 94.11C261.491 94.04 260.961 93.98 260.441 93.93C259.391 93.82 258.341 93.75 257.301 93.68C255.811 93.59 254.331 93.54 252.841 93.51C253.651 92.67 254.451 91.81 255.221 90.94C255.821 90.27 256.401 89.58 256.971 88.89C257.251 88.54 257.541 88.19 257.811 87.83C258.091 87.47 258.361 87.11 258.621 86.74C258.251 87 257.881 87.27 257.531 87.55C257.171 87.83 256.821 88.11 256.471 88.39C255.771 88.96 255.091 89.55 254.421 90.14C253.541 90.92 252.691 91.71 251.851 92.52C251.831 91.03 251.771 89.55 251.681 88.06C251.621 87.01 251.541 85.96 251.431 84.92C251.381 84.4 251.321 83.87 251.251 83.35C251.181 82.83 251.111 82.3 251.021 81.78C250.931 82.3 250.851 82.83 250.791 83.35C250.721 83.87 250.661 84.4 250.611 84.92C250.501 85.97 250.431 87.02 250.361 88.06C250.271 89.55 250.221 91.03 250.191 92.52C249.351 91.71 248.491 90.91 247.621 90.14C246.951 89.54 246.261 88.96 245.571 88.39C245.221 88.11 244.871 87.82 244.511 87.55C244.151 87.27 243.791 87 243.421 86.74C243.681 87.11 243.951 87.48 244.231 87.83C244.511 88.19 244.791 88.54 245.071 88.89C245.641 89.59 246.231 90.27 246.821 90.94C247.601 91.81 248.391 92.67 249.201 93.51C247.711 93.53 246.231 93.59 244.741 93.67C243.691 93.73 242.641 93.81 241.601 93.92C241.081 93.97 240.551 94.03 240.031 94.1C239.511 94.17 238.981 94.24 238.461 94.34C238.981 94.43 239.511 94.51 240.031 94.58C240.551 94.65 241.081 94.71 241.601 94.76C242.651 94.87 243.701 94.95 244.741 95.01C246.231 95.1 247.711 95.15 249.201 95.17C248.391 96.01 247.601 96.87 246.821 97.74C246.221 98.41 245.641 99.1 245.071 99.79C244.791 100.14 244.501 100.49 244.231 100.85C243.951 101.21 243.681 101.57 243.421 101.94C243.791 101.68 244.161 101.41 244.511 101.13C244.871 100.85 245.221 100.57 245.571 100.29C246.271 99.72 246.951 99.13 247.621 98.54C248.491 97.76 249.351 96.97 250.191 96.16C250.211 97.65 250.271 99.13 250.351 100.62C250.411 101.67 250.491 102.72 250.601 103.76C250.651 104.28 250.711 104.81 250.781 105.33C250.851 105.85 250.921 106.38 251.021 106.9C251.111 106.38 251.191 105.85 251.261 105.33C251.331 104.81 251.391 104.28 251.441 103.76C251.551 102.71 251.631 101.66 251.691 100.62C251.781 99.13 251.831 97.65 251.851 96.16C252.691 96.97 253.551 97.77 254.421 98.54C255.091 99.14 255.781 99.72 256.471 100.29C256.821 100.57 257.171 100.86 257.531 101.13C257.891 101.41 258.251 101.68 258.621 101.94C258.361 101.57 258.091 101.2 257.811 100.85C257.531 100.49 257.251 100.14 256.971 99.79C256.401 99.09 255.811 98.41 255.221 97.74C254.441 96.86 253.651 96.01 252.841 95.17C254.331 95.15 255.811 95.09 257.301 95C258.351 94.94 259.401 94.86 260.441 94.75C260.961 94.7 261.491 94.64 262.011 94.57C262.531 94.5 263.061 94.43 263.581 94.34C263.061 94.25 262.531 94.17 262.011 94.11Z" fill="#A98B60"/>
<path d="M93.4094 174.48C92.8894 174.41 92.3594 174.35 91.8394 174.3C90.7894 174.19 89.7394 174.12 88.6994 174.05C87.2094 173.96 85.7294 173.91 84.2394 173.88C85.0494 173.04 85.8494 172.18 86.6194 171.31C87.2194 170.64 87.7994 169.95 88.3694 169.26C88.6494 168.91 88.9394 168.56 89.2094 168.2C89.4894 167.84 89.7594 167.48 90.0194 167.11C89.6494 167.37 89.2794 167.64 88.9294 167.92C88.5694 168.2 88.2194 168.48 87.8694 168.76C87.1694 169.33 86.4894 169.92 85.8194 170.51C84.9394 171.29 84.0894 172.08 83.2494 172.89C83.2294 171.4 83.1694 169.92 83.0794 168.43C83.0194 167.38 82.9394 166.33 82.8294 165.29C82.7794 164.77 82.7194 164.24 82.6494 163.72C82.5794 163.2 82.5094 162.67 82.4194 162.15C82.3294 162.67 82.2494 163.2 82.1894 163.72C82.1194 164.24 82.0594 164.77 82.0094 165.29C81.8994 166.34 81.8294 167.39 81.7594 168.43C81.6694 169.92 81.6194 171.4 81.5894 172.89C80.7494 172.08 79.8894 171.28 79.0194 170.51C78.3494 169.91 77.6594 169.33 76.9694 168.76C76.6194 168.48 76.2694 168.19 75.9094 167.92C75.5494 167.64 75.1894 167.37 74.8194 167.11C75.0794 167.48 75.3494 167.85 75.6294 168.2C75.9094 168.56 76.1894 168.91 76.4694 169.26C77.0394 169.96 77.6294 170.64 78.2194 171.31C78.9994 172.18 79.7894 173.04 80.5994 173.88C79.1094 173.9 77.6294 173.96 76.1394 174.04C75.0894 174.1 74.0394 174.18 72.9994 174.29C72.4794 174.34 71.9494 174.4 71.4294 174.47C70.9094 174.54 70.3794 174.61 69.8594 174.71C70.3794 174.8 70.9094 174.88 71.4294 174.95C71.9494 175.02 72.4794 175.08 72.9994 175.13C74.0494 175.24 75.0994 175.32 76.1394 175.38C77.6294 175.47 79.1094 175.52 80.5994 175.54C79.7894 176.38 78.9994 177.24 78.2194 178.11C77.6194 178.78 77.0394 179.47 76.4694 180.16C76.1894 180.51 75.8994 180.86 75.6294 181.22C75.3494 181.58 75.0794 181.94 74.8194 182.31C75.1894 182.05 75.5594 181.78 75.9094 181.5C76.2694 181.22 76.6194 180.94 76.9694 180.66C77.6694 180.09 78.3494 179.5 79.0194 178.91C79.8894 178.13 80.7494 177.34 81.5894 176.53C81.6094 178.02 81.6694 179.5 81.7494 180.99C81.8094 182.04 81.8894 183.09 81.9994 184.13C82.0494 184.65 82.1094 185.18 82.1794 185.7C82.2494 186.22 82.3194 186.75 82.4194 187.27C82.5094 186.75 82.5894 186.22 82.6594 185.7C82.7294 185.18 82.7894 184.65 82.8394 184.13C82.9494 183.08 83.0294 182.03 83.0894 180.99C83.1794 179.5 83.2294 178.02 83.2494 176.53C84.0894 177.34 84.9494 178.14 85.8194 178.91C86.4894 179.51 87.1794 180.09 87.8694 180.66C88.2194 180.94 88.5694 181.23 88.9294 181.5C89.2894 181.78 89.6494 182.05 90.0194 182.31C89.7594 181.94 89.4894 181.57 89.2094 181.22C88.9294 180.86 88.6494 180.51 88.3694 180.16C87.7994 179.46 87.2094 178.78 86.6194 178.11C85.8394 177.23 85.0494 176.38 84.2394 175.54C85.7294 175.52 87.2094 175.46 88.6994 175.37C89.7494 175.31 90.7994 175.23 91.8394 175.12C92.3594 175.07 92.8894 175.01 93.4094 174.94C93.9294 174.87 94.4594 174.8 94.9794 174.71C94.4594 174.62 93.9294 174.54 93.4094 174.48Z" fill="white"/>
<path d="M244.189 136.12C244.259 136.26 248.429 143.57 252.059 154.38C252.499 155.73 252.949 157.13 253.369 158.59C254.759 163.32 255.969 168.57 256.669 174.07H259.829C259.069 167.84 257.709 161.95 256.119 156.7C255.329 154.09 254.489 151.64 253.649 149.4C250.409 140.74 247.169 135.06 246.889 134.57L244.189 136.12Z" fill="#F8CEA3"/>
<path d="M256.299 163.11C256.749 164.46 257.189 165.86 257.619 167.32C258.589 166.89 259.499 166.25 260.359 165.44C264.029 162.02 266.689 155.85 267.699 152.27C268.249 150.3 268.569 147.97 267.259 146.39C263.459 148.84 260.429 152.45 258.559 156.56C258.339 157.05 258.109 157.58 257.879 158.14C257.279 159.65 256.699 161.39 256.279 163.12L256.299 163.11Z" fill="#F8CEA3"/>
<path d="M233.819 118.94C232.699 118.85 231.659 119.5 231.269 120.55C230.629 122.25 230.049 125.04 231.649 127.56C232.589 129.06 234.389 130.6 236.269 131.95C234.119 131.09 231.859 130.4 230.089 130.4C227.099 130.4 225.059 132.37 223.959 133.82C223.279 134.72 223.279 135.95 223.959 136.84C225.059 138.29 227.099 140.26 230.089 140.26C231.859 140.26 234.119 139.57 236.269 138.71C234.389 140.06 232.599 141.61 231.649 143.1C230.049 145.63 230.629 148.41 231.269 150.11C231.659 151.16 232.699 151.82 233.819 151.72C235.629 151.57 238.389 150.89 239.989 148.37C241.329 146.25 242.039 142.53 242.399 139.51C242.769 142.53 243.469 146.24 244.809 148.36C246.409 150.89 249.169 151.56 250.979 151.72C252.099 151.81 253.139 151.16 253.539 150.1C254.179 148.4 254.749 145.61 253.149 143.09C252.209 141.6 250.419 140.06 248.549 138.71C250.689 139.57 252.949 140.26 254.709 140.26C257.699 140.26 259.749 138.29 260.849 136.84C261.529 135.94 261.529 134.71 260.849 133.82C259.749 132.37 257.699 130.4 254.709 130.4C252.949 130.4 250.689 131.09 248.549 131.95C250.419 130.6 252.209 129.06 253.149 127.57C254.749 125.04 254.169 122.26 253.539 120.55C253.149 119.5 252.099 118.84 250.979 118.94C249.169 119.1 246.409 119.77 244.809 122.3C243.469 124.42 242.769 128.13 242.399 131.15C242.039 128.13 241.329 124.42 239.989 122.29C238.389 119.76 235.629 119.09 233.819 118.94Z" fill="white"/>
<path d="M233.819 118.94C232.699 118.85 231.659 119.5 231.269 120.55C230.629 122.25 230.049 125.04 231.649 127.56C232.589 129.06 234.389 130.6 236.269 131.95C234.119 131.09 231.859 130.4 230.089 130.4C227.099 130.4 225.059 132.37 223.959 133.82C223.279 134.72 223.279 135.95 223.959 136.84C225.059 138.29 227.099 140.26 230.089 140.26C231.859 140.26 234.119 139.57 236.269 138.71C234.389 140.06 232.599 141.61 231.649 143.1C230.049 145.63 230.629 148.41 231.269 150.11C231.659 151.16 232.699 151.82 233.819 151.72C235.629 151.57 238.389 150.89 239.989 148.37C241.329 146.25 242.039 142.53 242.399 139.51C242.769 142.53 243.469 146.24 244.809 148.36C246.409 150.89 249.169 151.56 250.979 151.72C252.099 151.81 253.139 151.16 253.539 150.1C254.179 148.4 254.749 145.61 253.149 143.09C252.209 141.6 250.419 140.06 248.549 138.71C250.689 139.57 252.949 140.26 254.709 140.26C257.699 140.26 259.749 138.29 260.849 136.84C261.529 135.94 261.529 134.71 260.849 133.82C259.749 132.37 257.699 130.4 254.709 130.4C252.949 130.4 250.689 131.09 248.549 131.95C250.419 130.6 252.209 129.06 253.149 127.57C254.749 125.04 254.169 122.26 253.539 120.55C253.149 119.5 252.099 118.84 250.979 118.94C249.169 119.1 246.409 119.77 244.809 122.3C243.469 124.42 242.769 128.13 242.399 131.15C242.039 128.13 241.329 124.42 239.989 122.29C238.389 119.76 235.629 119.09 233.819 118.94Z" fill="url(#paint6_linear_2714_2485)"/>
<path d="M239.27 135.34C239.27 137.07 240.67 138.48 242.4 138.48C244.13 138.48 245.54 137.08 245.54 135.34C245.54 133.6 244.14 132.2 242.4 132.2C240.66 132.2 239.27 133.6 239.27 135.34Z" fill="#750D33"/>
<path d="M106.291 163.25C106.231 164.01 106.671 164.72 107.391 164.99C108.551 165.43 110.451 165.82 112.181 164.73C113.201 164.09 114.261 162.86 115.181 161.58C114.591 163.05 114.121 164.59 114.121 165.8C114.121 167.84 115.471 169.24 116.461 169.99C117.071 170.45 117.911 170.45 118.521 169.99C119.511 169.24 120.861 167.84 120.861 165.8C120.861 164.59 120.391 163.05 119.801 161.58C120.721 162.86 121.781 164.09 122.801 164.73C124.531 165.82 126.431 165.43 127.591 164.99C128.311 164.72 128.761 164.01 128.691 163.25C128.591 162.01 128.131 160.13 126.401 159.04C124.951 158.12 122.411 157.64 120.351 157.39C122.411 157.14 124.951 156.66 126.391 155.74C128.121 154.65 128.581 152.76 128.681 151.52C128.741 150.75 128.291 150.04 127.581 149.77C126.421 149.33 124.511 148.94 122.791 150.03C121.771 150.67 120.721 151.89 119.801 153.17C120.391 151.71 120.861 150.17 120.861 148.96C120.861 146.92 119.511 145.52 118.521 144.77C117.911 144.3 117.071 144.3 116.461 144.77C115.471 145.52 114.121 146.92 114.121 148.96C114.121 150.16 114.591 151.71 115.181 153.17C114.261 151.89 113.211 150.67 112.191 150.03C110.461 148.94 108.561 149.33 107.401 149.77C106.681 150.04 106.231 150.75 106.301 151.52C106.411 152.76 106.871 154.64 108.591 155.74C110.041 156.66 112.571 157.14 114.641 157.39C112.581 157.64 110.041 158.12 108.591 159.04C106.861 160.13 106.411 162.02 106.301 163.25H106.291Z" fill="white"/>
<path d="M106.291 163.25C106.231 164.01 106.671 164.72 107.391 164.99C108.551 165.43 110.451 165.82 112.181 164.73C113.201 164.09 114.261 162.86 115.181 161.58C114.591 163.05 114.121 164.59 114.121 165.8C114.121 167.84 115.471 169.24 116.461 169.99C117.071 170.45 117.911 170.45 118.521 169.99C119.511 169.24 120.861 167.84 120.861 165.8C120.861 164.59 120.391 163.05 119.801 161.58C120.721 162.86 121.781 164.09 122.801 164.73C124.531 165.82 126.431 165.43 127.591 164.99C128.311 164.72 128.761 164.01 128.691 163.25C128.591 162.01 128.131 160.13 126.401 159.04C124.951 158.12 122.411 157.64 120.351 157.39C122.411 157.14 124.951 156.66 126.391 155.74C128.121 154.65 128.581 152.76 128.681 151.52C128.741 150.75 128.291 150.04 127.581 149.77C126.421 149.33 124.511 148.94 122.791 150.03C121.771 150.67 120.721 151.89 119.801 153.17C120.391 151.71 120.861 150.17 120.861 148.96C120.861 146.92 119.511 145.52 118.521 144.77C117.911 144.3 117.071 144.3 116.461 144.77C115.471 145.52 114.121 146.92 114.121 148.96C114.121 150.16 114.591 151.71 115.181 153.17C114.261 151.89 113.211 150.67 112.191 150.03C110.461 148.94 108.561 149.33 107.401 149.77C106.681 150.04 106.231 150.75 106.301 151.52C106.411 152.76 106.871 154.64 108.591 155.74C110.041 156.66 112.571 157.14 114.641 157.39C112.581 157.64 110.041 158.12 108.591 159.04C106.861 160.13 106.411 162.02 106.301 163.25H106.291Z" fill="url(#paint7_linear_2714_2485)"/>
<path d="M117.492 159.53C118.672 159.53 119.632 158.57 119.632 157.39C119.632 156.21 118.672 155.25 117.492 155.25C116.312 155.25 115.352 156.21 115.352 157.39C115.352 158.57 116.312 159.53 117.492 159.53Z" fill="#750D33"/>
<path d="M192.189 99.86C194.167 99.86 195.769 98.2571 195.769 96.28C195.769 94.3028 194.167 92.7 192.189 92.7C190.212 92.7 188.609 94.3028 188.609 96.28C188.609 98.2571 190.212 99.86 192.189 99.86Z" fill="white"/>
<path d="M53.0898 172.97C55.0669 172.97 56.6698 171.367 56.6698 169.39C56.6698 167.413 55.0669 165.81 53.0898 165.81C51.1126 165.81 49.5098 167.413 49.5098 169.39C49.5098 171.367 51.1126 172.97 53.0898 172.97Z" fill="#D2B88A"/>
<path d="M256.299 34.5799C258.276 34.5799 259.879 32.9771 259.879 30.9999C259.879 29.0227 258.276 27.4199 256.299 27.4199C254.322 27.4199 252.719 29.0227 252.719 30.9999C252.719 32.9771 254.322 34.5799 256.299 34.5799Z" fill="#D2B88A"/>
<path d="M44.9699 33.57C44.4499 33.5 43.9199 33.44 43.3999 33.39C42.3499 33.28 41.2999 33.21 40.2599 33.14C38.7699 33.05 37.2899 33 35.7999 32.97C36.6099 32.13 37.4099 31.27 38.1799 30.4C38.7799 29.73 39.3599 29.04 39.9299 28.35C40.2099 28 40.4999 27.65 40.7699 27.29C41.0499 26.93 41.3199 26.57 41.5799 26.2C41.2099 26.46 40.8399 26.73 40.4899 27.01C40.1299 27.29 39.7799 27.57 39.4299 27.85C38.7299 28.42 38.0499 29.01 37.3799 29.6C36.4999 30.38 35.6499 31.17 34.8099 31.98C34.7899 30.49 34.7299 29.01 34.6399 27.52C34.5799 26.47 34.4999 25.42 34.3899 24.38C34.3399 23.86 34.2799 23.33 34.2099 22.81C34.1399 22.29 34.0699 21.76 33.9799 21.24C33.8899 21.76 33.8099 22.29 33.7499 22.81C33.6799 23.33 33.6199 23.86 33.5699 24.38C33.4599 25.43 33.3899 26.48 33.3199 27.52C33.2299 29.01 33.1799 30.49 33.1499 31.98C32.3099 31.17 31.4499 30.37 30.5799 29.6C29.9099 29 29.2199 28.42 28.5299 27.85C28.1799 27.57 27.8299 27.28 27.4699 27.01C27.1099 26.73 26.7499 26.46 26.3799 26.2C26.6399 26.57 26.9099 26.94 27.1899 27.29C27.4699 27.65 27.7499 28 28.0299 28.35C28.5999 29.05 29.1899 29.73 29.7799 30.4C30.5599 31.27 31.3499 32.13 32.1599 32.97C30.6699 32.99 29.1899 33.05 27.6999 33.13C26.6499 33.19 25.5999 33.27 24.5599 33.38C24.0399 33.43 23.5099 33.49 22.9899 33.56C22.4699 33.63 21.9399 33.7 21.4199 33.8C21.9399 33.89 22.4699 33.97 22.9899 34.04C23.5099 34.11 24.0399 34.17 24.5599 34.22C25.6099 34.33 26.6599 34.41 27.6999 34.47C29.1899 34.56 30.6699 34.61 32.1599 34.63C31.3499 35.47 30.5599 36.33 29.7799 37.2C29.1799 37.87 28.5999 38.56 28.0299 39.25C27.7499 39.6 27.4599 39.95 27.1899 40.31C26.9099 40.67 26.6399 41.03 26.3799 41.4C26.7499 41.14 27.1199 40.87 27.4699 40.59C27.8299 40.31 28.1799 40.03 28.5299 39.75C29.2299 39.18 29.9099 38.59 30.5799 38C31.4499 37.22 32.3099 36.43 33.1499 35.62C33.1699 37.11 33.2299 38.59 33.3099 40.08C33.3699 41.13 33.4499 42.18 33.5599 43.22C33.6099 43.74 33.6699 44.27 33.7399 44.79C33.8099 45.31 33.8799 45.84 33.9799 46.36C34.0699 45.84 34.1499 45.31 34.2199 44.79C34.2899 44.27 34.3499 43.74 34.3999 43.22C34.5099 42.17 34.5899 41.12 34.6499 40.08C34.7399 38.59 34.7899 37.11 34.8099 35.62C35.6499 36.43 36.5099 37.23 37.3799 38C38.0499 38.6 38.7399 39.18 39.4299 39.75C39.7799 40.03 40.1299 40.32 40.4899 40.59C40.8499 40.87 41.2099 41.14 41.5799 41.4C41.3199 41.03 41.0499 40.66 40.7699 40.31C40.4899 39.95 40.2099 39.6 39.9299 39.25C39.3599 38.55 38.7699 37.87 38.1799 37.2C37.3999 36.32 36.6099 35.47 35.7999 34.63C37.2899 34.61 38.7699 34.55 40.2599 34.46C41.3099 34.4 42.3599 34.32 43.3999 34.21C43.9199 34.16 44.4499 34.1 44.9699 34.03C45.4899 33.96 46.0199 33.89 46.5399 33.8C46.0199 33.71 45.4899 33.63 44.9699 33.57Z" fill="#D2B88A"/>
</g>
<defs>
<filter id="filter0_d_2714_2485" x="102.283" y="99.3301" width="149.723" height="91.77" filterUnits="userSpaceOnUse" color-interpolation-filters="sRGB">
<feFlood flood-opacity="0" result="BackgroundImageFix"/>
<feColorMatrix in="SourceAlpha" type="matrix" values="0 0 0 0 0 0 0 0 0 0 0 0 0 0 0 0 0 0 127 0" result="hardAlpha"/>
<feOffset/>
<feGaussianBlur stdDeviation="5"/>
<feColorMatrix type="matrix" values="0 0 0 0 0.988235 0 0 0 0 0.988235 0 0 0 0 0.988235 0 0 0 0.75 0"/>
<feBlend mode="normal" in2="BackgroundImageFix" result="effect1_dropShadow_2714_2485"/>
<feBlend mode="normal" in="SourceGraphic" in2="effect1_dropShadow_2714_2485" result="shape"/>
</filter>
<linearGradient id="paint0_linear_2714_2485" x1="193.421" y1="59.4102" x2="194.621" y2="24.8711" gradientUnits="userSpaceOnUse">
<stop stop-color="#D4BA8C" stop-opacity="0"/>
<stop offset="0.18" stop-color="#D4BA8C" stop-opacity="0.35"/>
<stop offset="0.33" stop-color="#D4BA8C" stop-opacity="0.63"/>
<stop offset="0.47" stop-color="#D4BA8C" stop-opacity="0.82"/>
<stop offset="0.57" stop-color="#D4BA8C" stop-opacity="0.95"/>
<stop offset="0.63" stop-color="#D4BA8C" stop-opacity="0.99"/>
<stop offset="1" stop-color="#D4BA8C"/>
</linearGradient>
<linearGradient id="paint1_linear_2714_2485" x1="184.5" y1="40.94" x2="228.38" y2="87.98" gradientUnits="userSpaceOnUse">
<stop stop-color="#AB8D60" stop-opacity="0"/>
<stop offset="0.1" stop-color="#AB8D60" stop-opacity="0.1"/>
<stop offset="0.3" stop-color="#AB8D60" stop-opacity="0.36"/>
<stop offset="0.58" stop-color="#AB8D60" stop-opacity="0.76"/>
<stop offset="0.72" stop-color="#AB8D60" stop-opacity="0.99"/>
<stop offset="1" stop-color="#AB8D60"/>
</linearGradient>
<linearGradient id="paint2_linear_2714_2485" x1="238.934" y1="73.7816" x2="239.857" y2="47.2176" gradientUnits="userSpaceOnUse">
<stop stop-color="#D4BA8C" stop-opacity="0"/>
<stop offset="0.18" stop-color="#D4BA8C" stop-opacity="0.35"/>
<stop offset="0.33" stop-color="#D4BA8C" stop-opacity="0.63"/>
<stop offset="0.47" stop-color="#D4BA8C" stop-opacity="0.82"/>
<stop offset="0.57" stop-color="#D4BA8C" stop-opacity="0.95"/>
<stop offset="0.63" stop-color="#D4BA8C" stop-opacity="0.99"/>
<stop offset="1" stop-color="#D4BA8C"/>
</linearGradient>
<radialGradient id="paint3_radial_2714_2485" cx="0" cy="0" r="1" gradientUnits="userSpaceOnUse" gradientTransform="translate(82.4102 84.7901) scale(70.67 70.67)">
<stop stop-color="white" stop-opacity="0"/>
<stop offset="0.93" stop-color="white"/>
</radialGradient>
<linearGradient id="paint4_linear_2714_2485" x1="62.62" y1="66.6001" x2="238.01" y2="241.99" gradientUnits="userSpaceOnUse">
<stop stop-color="#D4BA8C" stop-opacity="0"/>
<stop offset="0.18" stop-color="#D4BA8C" stop-opacity="0.35"/>
<stop offset="0.33" stop-color="#D4BA8C" stop-opacity="0.63"/>
<stop offset="0.47" stop-color="#D4BA8C" stop-opacity="0.82"/>
<stop offset="0.57" stop-color="#D4BA8C" stop-opacity="0.95"/>
<stop offset="0.63" stop-color="#D4BA8C" stop-opacity="0.99"/>
<stop offset="1" stop-color="#D4BA8C"/>
</linearGradient>
<linearGradient id="paint5_linear_2714_2485" x1="91.9594" y1="55.4602" x2="91.9594" y2="133.22" gradientUnits="userSpaceOnUse">
<stop stop-color="#D4BA8C" stop-opacity="0"/>
<stop offset="0.19" stop-color="#D4BA8C" stop-opacity="0.01"/>
<stop offset="0.34" stop-color="#D4BA8C" stop-opacity="0.06"/>
<stop offset="0.46" stop-color="#D4BA8C" stop-opacity="0.13"/>
<stop offset="0.58" stop-color="#D4BA8C" stop-opacity="0.24"/>
<stop offset="0.69" stop-color="#D4BA8C" stop-opacity="0.38"/>
<stop offset="0.79" stop-color="#D4BA8C" stop-opacity="0.55"/>
<stop offset="0.89" stop-color="#D4BA8C" stop-opacity="0.75"/>
<stop offset="0.99" stop-color="#D4BA8C" stop-opacity="0.97"/>
<stop offset="1" stop-color="#D4BA8C"/>
</linearGradient>
<linearGradient id="paint6_linear_2714_2485" x1="242.409" y1="118.94" x2="242.409" y2="151.76" gradientUnits="userSpaceOnUse">
<stop stop-color="#D4BA8C" stop-opacity="0"/>
<stop offset="0.1" stop-color="#D4BA8C" stop-opacity="0.03"/>
<stop offset="0.24" stop-color="#D4BA8C" stop-opacity="0.11"/>
<stop offset="0.41" stop-color="#D4BA8C" stop-opacity="0.25"/>
<stop offset="0.59" stop-color="#D4BA8C" stop-opacity="0.44"/>
<stop offset="0.79" stop-color="#D4BA8C" stop-opacity="0.69"/>
<stop offset="0.99" stop-color="#D4BA8C" stop-opacity="0.99"/>
<stop offset="1" stop-color="#D4BA8C"/>
</linearGradient>
<linearGradient id="paint7_linear_2714_2485" x1="106.281" y1="157.39" x2="128.691" y2="157.39" gradientUnits="userSpaceOnUse">
<stop stop-color="#D4BA8C" stop-opacity="0"/>
<stop offset="0.1" stop-color="#D4BA8C" stop-opacity="0.03"/>
<stop offset="0.24" stop-color="#D4BA8C" stop-opacity="0.11"/>
<stop offset="0.41" stop-color="#D4BA8C" stop-opacity="0.25"/>
<stop offset="0.59" stop-color="#D4BA8C" stop-opacity="0.44"/>
<stop offset="0.79" stop-color="#D4BA8C" stop-opacity="0.69"/>
<stop offset="0.99" stop-color="#D4BA8C" stop-opacity="0.99"/>
<stop offset="1" stop-color="#D4BA8C"/>
</linearGradient>
<clipPath id="clip0_2714_2485">
<rect width="280" height="200" rx="16" fill="white"/>
</clipPath>
</defs>
</svg>
