<svg width="1227" height="512" viewBox="0 0 1227 512" fill="none" xmlns="http://www.w3.org/2000/svg">
<path d="M850.519 333.796C837.973 333.796 826.324 332.564 815.57 330.099C805.04 327.634 796.527 323.825 790.03 318.671C783.757 313.741 780.621 307.355 780.621 299.512C780.621 292.117 783.757 285.619 790.03 280.017C796.303 274.415 805.152 270.158 816.578 267.245L818.931 272.622C814.226 274.639 810.529 277.888 807.841 282.37C805.376 286.851 804.144 291.781 804.144 297.159C804.144 307.019 808.737 314.637 817.922 320.015C827.108 325.393 839.206 328.082 854.216 328.082C864.298 328.082 873.819 326.738 882.78 324.049C891.966 321.584 899.359 317.438 904.96 311.612C910.785 305.786 913.697 298.28 913.697 289.092C913.697 281.922 911.121 275.872 905.968 270.942C900.815 266.236 890.622 263.883 875.387 263.883H851.864C844.022 263.883 836.741 263.211 830.02 261.867C823.299 260.522 817.81 257.945 813.554 254.136C809.521 250.103 807.505 244.501 807.505 237.33C807.505 229.263 810.865 221.645 817.586 214.474C824.307 207.304 835.621 200.245 851.528 193.299L855.56 196.324C849.063 199.909 843.238 203.606 838.085 207.416C833.157 211.001 830.692 215.482 830.692 220.86C830.692 228.031 835.845 231.616 846.151 231.616H886.141C896.671 231.616 906.192 233.073 914.705 235.986C923.219 238.675 930.052 243.044 935.205 249.094C940.357 255.144 942.934 263.099 942.934 272.959C942.934 283.49 939.461 293.35 932.516 302.537C925.795 311.948 915.602 319.455 901.935 325.057C888.269 330.883 871.131 333.796 850.519 333.796ZM852.536 199.013C841.11 199.013 830.692 197.22 821.283 193.635C811.873 189.825 804.48 183.999 799.103 176.157C793.727 168.314 791.038 158.23 791.038 145.906C791.038 133.582 793.727 123.498 799.103 115.655C804.48 107.588 811.873 101.762 821.283 98.1772C830.692 94.3678 841.11 92.4632 852.536 92.4632C864.41 92.4632 874.939 94.3678 884.125 98.1772C893.31 101.762 900.591 107.588 905.968 115.655C911.345 123.498 914.033 133.582 914.033 145.906C914.033 158.23 911.345 168.314 905.968 176.157C900.591 183.999 893.31 189.825 884.125 193.635C874.939 197.22 864.41 199.013 852.536 199.013ZM852.536 192.963C860.377 192.963 866.426 189.601 870.683 182.879C874.939 176.157 877.068 163.832 877.068 145.906C877.068 127.98 874.939 115.655 870.683 108.933C866.426 101.987 860.377 98.5133 852.536 98.5133C845.143 98.5133 839.206 101.987 834.725 108.933C830.244 115.655 828.004 127.98 828.004 145.906C828.004 163.832 830.244 176.157 834.725 182.879C839.206 189.601 845.143 192.963 852.536 192.963ZM902.271 120.697L896.223 118.344C899.359 110.502 904.736 103.667 912.353 97.8411C919.97 92.015 927.923 89.102 936.213 89.102C942.486 89.102 947.414 90.8946 950.999 94.4799C954.808 97.8411 956.712 102.659 956.712 108.933C956.712 115.879 954.808 120.809 950.999 123.722C947.414 126.635 943.606 128.092 939.573 128.092C935.989 128.092 932.628 126.859 929.492 124.394C926.579 121.93 924.899 118.12 924.451 112.966C924.003 107.588 925.683 100.754 929.492 92.4632L933.188 93.8076C924.227 97.3929 917.618 101.202 913.361 105.236C909.329 109.045 905.632 114.199 902.271 120.697Z" fill="#1F1F1F"/>
<path d="M709.045 89.102C718.006 89.102 725.288 90.3344 730.888 92.7993C736.713 95.0401 741.53 98.1772 745.339 102.211C749.371 106.468 752.172 111.958 753.74 118.68C755.532 125.403 756.428 134.478 756.428 145.906V235.986C756.428 245.397 758.221 251.783 761.805 255.144C765.614 258.506 771.887 260.186 780.624 260.186V267.245C776.816 267.021 770.879 266.796 762.813 266.572C754.748 266.124 746.795 265.9 738.954 265.9C731.337 265.9 723.719 266.124 716.102 266.572C708.709 266.796 703.108 267.021 699.3 267.245V260.186C706.917 260.186 712.294 258.506 715.43 255.144C718.567 251.783 720.135 245.397 720.135 235.986V136.495C720.135 129.996 719.575 124.17 718.455 119.017C717.334 113.639 714.982 109.381 711.397 106.244C707.813 102.883 702.436 101.202 695.267 101.202C686.978 101.202 679.585 103.555 673.088 108.261C666.815 112.966 661.774 119.465 657.965 127.756C654.381 135.822 652.588 144.898 652.588 154.981V235.986C652.588 245.397 654.157 251.783 657.293 255.144C660.654 258.506 666.03 260.186 673.424 260.186V267.245C669.839 267.021 664.35 266.796 656.957 266.572C649.788 266.124 642.283 265.9 634.441 265.9C626.824 265.9 618.871 266.124 610.582 266.572C602.292 266.796 596.132 267.021 592.099 267.245V260.186C600.836 260.186 606.997 258.506 610.582 255.144C614.39 251.783 616.295 245.397 616.295 235.986V130.445C616.295 120.361 614.614 112.966 611.254 108.261C607.893 103.331 601.508 100.866 592.099 100.866V93.8076C599.268 94.4799 606.213 94.816 612.934 94.816C620.551 94.816 627.608 94.4799 634.105 93.8076C640.826 92.9113 646.987 91.6789 652.588 90.1103V126.747C658.413 112.854 666.366 103.107 676.448 97.505C686.754 91.903 697.619 89.102 709.045 89.102Z" fill="#1F1F1F"/>
<path d="M479.857 269.597C470.447 269.597 462.382 267.805 455.661 264.22C448.94 260.634 443.899 255.705 440.539 249.43C437.178 243.156 435.498 235.986 435.498 227.919C435.498 218.059 437.738 210.105 442.219 204.054C446.7 197.78 452.412 192.738 459.357 188.929C466.527 185.12 474.032 181.983 481.873 179.518C489.938 176.829 497.443 174.364 504.388 172.123C511.558 169.658 517.382 166.857 521.863 163.72C526.568 160.583 528.92 156.438 528.92 151.284V128.428C528.92 120.361 527.576 113.975 524.888 109.269C522.423 104.339 518.951 100.866 514.47 98.8494C510.213 96.8327 505.061 95.8243 499.012 95.8243C493.859 95.8243 488.37 96.6086 482.545 98.1772C476.72 99.5217 472.127 102.323 468.767 106.58C473.696 107.925 477.728 110.614 480.865 114.647C484.225 118.456 485.906 123.274 485.906 129.1C485.906 135.374 483.777 140.304 479.521 143.889C475.488 147.474 470.335 149.267 464.062 149.267C457.117 149.267 451.964 147.138 448.604 142.881C445.243 138.399 443.563 133.245 443.563 127.419C443.563 121.369 445.019 116.44 447.932 112.63C451.068 108.821 455.101 105.236 460.03 101.874C465.406 98.2892 472.239 95.2641 480.529 92.7993C489.042 90.3344 498.452 89.102 508.757 89.102C518.391 89.102 526.68 90.2224 533.625 92.4632C540.794 94.4799 546.731 97.841 551.436 102.547C557.037 107.701 560.733 114.199 562.526 122.042C564.318 129.66 565.214 138.96 565.214 149.939V242.708C565.214 248.31 565.886 252.343 567.23 254.808C568.799 257.049 571.263 258.169 574.623 258.169C576.864 258.169 578.992 257.609 581.008 256.489C583.249 255.368 585.825 253.688 588.738 251.447L592.098 257.161C587.393 260.97 582.577 263.995 577.648 266.236C572.943 268.477 566.894 269.597 559.501 269.597C552.332 269.597 546.507 268.477 542.026 266.236C537.546 263.995 534.185 260.746 531.945 256.489C529.928 252.231 528.92 246.965 528.92 240.691C523.095 250.103 516.15 257.273 508.085 262.203C500.02 267.133 490.61 269.597 479.857 269.597ZM495.987 253.464C502.26 253.464 508.085 251.671 513.462 248.086C519.063 244.501 524.216 239.123 528.92 231.952V165.065C526.456 168.65 522.871 171.787 518.167 174.476C513.462 176.941 508.421 179.518 503.044 182.207C497.667 184.896 492.515 188.033 487.586 191.618C482.881 194.979 478.961 199.349 475.824 204.727C472.688 210.105 471.119 216.939 471.119 225.23C471.119 233.969 473.36 240.915 477.84 246.069C482.321 250.999 488.37 253.464 495.987 253.464Z" fill="#1F1F1F"/>
<path d="M414.287 0V235.597C414.287 245.144 415.858 251.622 419.001 255.032C422.339 258.441 427.838 260.146 435.498 260.146V267.306C432.159 267.079 426.955 266.851 419.884 266.624C412.814 266.169 405.744 265.942 398.674 265.942C391.604 265.942 384.435 266.169 377.169 266.624C370.098 266.851 364.796 267.079 361.261 267.306V260.146C368.92 260.146 374.321 258.441 377.463 255.032C380.802 251.622 382.471 245.144 382.471 235.597V40.9142C382.471 30.6856 380.998 23.1847 378.052 18.4114C375.106 13.4108 369.509 10.9105 361.261 10.9105V3.75046C367.545 4.43237 373.633 4.77332 379.525 4.77332C386.006 4.77332 392.193 4.43237 398.085 3.75046C403.976 2.84127 409.377 1.59111 414.287 0Z" fill="#1F1F1F"/>
<path d="M337.063 89.102V229.935C337.063 240.019 338.743 247.526 342.103 252.455C345.688 257.161 352.073 259.514 361.258 259.514V266.572C354.313 265.9 347.368 265.564 340.423 265.564C333.03 265.564 325.973 265.9 319.252 266.572C312.531 267.245 306.37 268.477 300.769 270.27V233.633C295.168 247.078 287.327 256.713 277.245 262.539C267.388 268.141 256.97 270.942 245.992 270.942C237.703 270.942 230.646 269.709 224.821 267.245C218.996 265.004 214.179 261.979 210.371 258.169C206.338 253.688 203.538 247.974 201.97 241.027C200.401 233.857 199.617 224.894 199.617 214.138V129.436C199.617 119.353 197.937 111.958 194.576 107.252C191.216 102.323 184.831 99.8578 175.421 99.8578V92.7993C182.591 93.4715 189.536 93.8076 196.257 93.8076C203.65 93.8076 210.707 93.4715 217.428 92.7993C224.149 91.903 230.31 90.6705 235.911 89.102V223.549C235.911 230.048 236.359 235.986 237.255 241.363C238.151 246.741 240.28 250.999 243.64 254.136C247.001 257.273 252.377 258.842 259.771 258.842C267.612 258.842 274.557 256.489 280.606 251.783C286.879 247.078 291.808 240.691 295.392 232.624C298.977 224.558 300.769 215.482 300.769 205.399V129.436C300.769 119.353 299.089 111.958 295.728 107.252C292.368 102.323 285.983 99.8578 276.573 99.8578V92.7993C283.742 93.4715 290.687 93.8076 297.408 93.8076C304.802 93.8076 311.859 93.4715 318.58 92.7993C325.301 91.903 331.462 90.6705 337.063 89.102Z" fill="#1F1F1F"/>
<path d="M60.4894 90.1087V296.149C60.4894 306.009 63.2898 312.619 68.8907 315.98C74.4916 319.341 82.2208 321.022 92.0783 321.022V328.08C86.9255 327.856 79.7564 327.52 70.571 327.072C61.3856 326.848 51.528 326.736 40.9984 326.736C33.6052 326.736 26.3241 326.848 19.155 327.072C11.9859 327.52 6.49701 327.856 2.68842 328.08V321.022C10.5296 321.022 16.0185 319.453 19.155 316.316C22.5155 313.403 24.1958 307.801 24.1958 299.51V130.443C24.1958 120.359 22.5155 112.965 19.155 108.259C15.7945 103.329 9.40946 100.864 0 100.864V93.806C7.16912 94.4782 14.1142 94.8144 20.8352 94.8144C28.2284 94.8144 35.2855 94.4782 42.0065 93.806C48.7276 92.9097 54.8885 91.6773 60.4894 90.1087ZM113.922 89.1004C125.572 89.1004 135.989 92.3495 145.175 98.8478C154.584 105.122 161.977 114.421 167.354 126.746C172.731 139.07 175.419 154.419 175.419 172.794C175.419 186.239 173.851 199.011 170.715 211.111C167.578 222.987 162.761 233.519 156.264 242.706C149.991 251.669 142.038 258.84 132.405 264.218C122.771 269.372 111.345 271.949 98.1273 271.949C88.2697 271.949 79.5324 269.82 71.9152 265.562C64.522 261.305 59.2572 255.927 56.1207 249.429L59.4813 244.723C62.3937 250.325 66.4263 254.919 71.5791 258.504C76.956 262.089 83.565 263.882 91.4062 263.882C103.056 263.882 112.129 260.184 118.626 252.79C125.348 245.171 130.052 234.976 132.741 222.203C135.429 209.207 136.773 194.529 136.773 178.172C136.773 159.797 135.429 145.008 132.741 133.804C130.052 122.376 126.02 114.085 120.643 108.931C115.266 103.553 108.769 100.864 101.152 100.864C91.0702 100.864 81.8847 104.898 73.5955 112.965C65.5302 121.032 60.6014 133.132 58.8092 149.266L55.4486 142.207C58.3611 125.401 65.0821 112.405 75.6118 103.217C86.3654 93.806 99.1354 89.1004 113.922 89.1004Z" fill="#1F1F1F"/>
<path d="M1180.23 274.075L1172.54 266.798C1176.84 261.115 1180.51 254.601 1183.56 247.255C1186.61 239.909 1189.1 232.286 1191.04 224.385C1193.12 216.485 1194.71 208.793 1195.82 201.308C1196.93 193.685 1197.69 186.824 1198.11 180.725C1198.66 174.488 1198.94 169.499 1198.94 165.756C1198.94 162.014 1198.66 157.163 1198.11 151.203C1197.69 145.104 1196.93 138.452 1195.82 131.244C1194.71 123.898 1193.12 116.414 1191.04 108.79C1189.1 101.029 1186.61 93.5441 1183.56 86.3368C1180.51 79.1294 1176.84 72.6844 1172.54 67.0016L1180.02 59.725C1185.29 64.4375 1190.62 70.4667 1196.03 77.8127C1201.57 85.02 1206.63 93.2669 1211.2 102.553C1215.91 111.84 1219.72 121.819 1222.63 132.492C1225.54 143.164 1227 154.252 1227 165.756C1227 177.26 1225.54 188.487 1222.63 199.437C1219.72 210.387 1215.91 220.643 1211.2 230.207C1206.63 239.77 1201.57 248.294 1196.03 255.779C1190.62 263.264 1185.36 269.362 1180.23 274.075Z" fill="#1F1F1F"/>
<path d="M1083.22 163.678V141.224H1159.72V163.054L1083.22 163.678Z" fill="#1F1F1F"/>
<path d="M1062.87 59.725L1070.56 67.0016C1066.27 72.6844 1062.59 79.1987 1059.55 86.5447C1056.5 93.8906 1053.93 101.514 1051.85 109.414C1049.91 117.315 1048.39 125.076 1047.28 132.7C1046.17 140.184 1045.34 147.045 1044.79 153.282C1044.37 159.381 1044.16 164.301 1044.16 168.043C1044.16 171.786 1044.37 176.706 1044.79 182.805C1045.34 188.764 1046.17 195.417 1047.28 202.763C1048.39 209.971 1049.91 217.386 1051.85 225.009C1053.93 232.771 1056.5 240.256 1059.55 247.463C1062.59 254.67 1066.27 261.115 1070.56 266.798L1063.08 274.075C1057.95 269.362 1052.62 263.333 1047.07 255.987C1041.53 248.78 1036.4 240.533 1031.69 231.246C1027.12 221.96 1023.38 211.98 1020.47 201.308C1017.56 190.636 1016.1 179.547 1016.1 168.043C1016.1 156.539 1017.56 145.312 1020.47 134.363C1023.38 123.413 1027.12 113.156 1031.69 103.593C1036.4 94.0292 1041.46 85.5051 1046.87 78.0206C1052.41 70.536 1057.74 64.4375 1062.87 59.725Z" fill="#1F1F1F"/>
<path d="M348.884 482.75L324.286 422.719H344.579L360.199 470.326H352.696L368.685 422.719H388.978L363.397 482.75H348.884ZM333.51 507.722L351.467 468.973L363.397 482.75L352.819 507.722H333.51Z" fill="#1F1F1F"/>
<path d="M293.41 483.735C289.392 483.735 285.702 482.915 282.341 481.275C278.979 479.553 276.232 477.298 274.1 474.509C271.969 471.639 270.739 468.441 270.411 464.914V439.696C270.739 436.17 271.969 433.054 274.1 430.347C276.232 427.559 278.979 425.386 282.341 423.828C285.702 422.27 289.392 421.49 293.41 421.49C299.067 421.49 304.069 422.844 308.414 425.55C312.842 428.256 316.286 431.947 318.746 436.621C321.287 441.296 322.558 446.626 322.558 452.613C322.558 458.6 321.287 463.93 318.746 468.605C316.286 473.279 312.842 476.97 308.414 479.676C304.069 482.382 299.067 483.735 293.41 483.735ZM258.973 482.505V393.197H277.79V437.359L274.715 451.875L277.544 466.39V482.505H258.973ZM290.089 466.759C292.713 466.759 295.009 466.144 296.976 464.914C299.026 463.684 300.625 462.003 301.773 459.871C302.921 457.738 303.495 455.319 303.495 452.613C303.495 449.825 302.921 447.364 301.773 445.232C300.625 443.1 299.026 441.46 296.976 440.312C295.009 439.081 292.713 438.466 290.089 438.466C287.465 438.466 285.128 439.081 283.079 440.312C281.029 441.46 279.43 443.1 278.282 445.232C277.216 447.364 276.683 449.825 276.683 452.613C276.683 455.401 277.257 457.862 278.405 459.994C279.553 462.126 281.111 463.807 283.079 465.037C285.128 466.185 287.465 466.759 290.089 466.759Z" fill="#1F1F1F"/>
<path d="M448.368 396.566V509.973H467.401V473.446L477.982 461.412L513.952 509.973H537.829L490.63 446.271L533.479 396.827L533.664 396.664H507.535L467.432 444.342V396.664L448.368 396.566Z" fill="#1F1F1F"/>
<path d="M567.135 425.343H548.132V510.006H567.135V425.343Z" fill="#1F1F1F"/>
<path d="M567.382 395.192H547.67V413.897H567.382V395.192Z" fill="#1F1F1F"/>
<path d="M820.773 425.343H801.771V510.006H820.773V425.343Z" fill="#1F1F1F"/>
<path d="M821.02 395.192H801.308V413.897H821.02V395.192Z" fill="#1F1F1F"/>
<path d="M631.239 442.805V425.277H612.483V400.13H593.511V425.277H580.153V442.805H593.511V476.16H593.418C593.326 476.16 593.511 489.208 593.511 489.208C599.927 522.367 631.084 509.221 631.084 509.221V492.576C611.835 498.789 612.575 486.625 612.575 486.625V476.16H612.483V442.805H631.239Z" fill="#1F1F1F"/>
<path d="M788.351 467.658C787.858 459.744 787.796 451.602 785.267 445.29C779.776 431.621 768.084 423.511 753.462 423.74C748.464 423.806 742.85 424.035 737.883 425.506V393.197H719.034V462.099C718.973 463.766 718.942 465.467 718.942 467.135C719.004 479.038 717.708 491.072 723.631 499.084C729.708 507.292 736.927 511.739 753.431 511.608C776.259 511.347 789.925 492.184 788.351 467.658ZM768.269 478.744C767.097 483.878 765.184 492.151 757.719 493.296C750.253 494.44 747.847 494.08 743.991 492.936C740.135 491.791 737.79 488.946 737.79 482.831C737.79 476.716 737.821 441.595 737.945 441.693C737.945 441.693 750.839 438.554 757.348 441.17C763.241 443.524 767.559 448.397 768.454 456.474C769.349 464.322 769.441 473.61 768.269 478.744Z" fill="#1F1F1F"/>
<path d="M706.633 457.095C706.633 457.095 708.391 439.535 692.196 428.874C676 418.214 648.884 427.926 646.941 429.071V445.715C646.941 445.715 659.743 440.712 671.62 441.333C683.497 441.922 687.013 448.135 687.63 457.226C687.63 457.226 680.35 455.166 667.178 456.507C654.005 457.848 646.385 461.281 641.049 472.203C635.712 483.126 639.321 504.577 659.064 509.973C678.807 515.402 691.332 508.207 691.332 508.207C691.332 508.207 706.139 503.008 706.664 485.316C707.127 467.592 706.633 457.095 706.633 457.095ZM687.291 482.308C687.291 482.308 687.291 493.23 675.167 493.688C663.044 494.146 658.602 488.423 658.046 481.85C657.491 475.277 662.18 472.269 662.18 472.269C662.18 472.269 666.499 469.555 671.126 469.293C679.61 468.802 685.07 469.228 687.322 469.783L687.291 482.308Z" fill="#1F1F1F"/>
<path d="M967.798 457.095C967.798 457.095 969.557 439.535 953.361 428.874C937.166 418.214 910.05 427.926 908.106 429.071V445.715C908.106 445.715 920.908 440.712 932.785 441.333C944.662 441.922 948.179 448.135 948.796 457.226C948.796 457.226 941.515 455.166 928.343 456.507C915.171 457.848 907.551 461.281 902.214 472.203C896.877 483.126 900.487 504.577 920.23 509.973C939.973 515.402 952.498 508.207 952.498 508.207C952.498 508.207 967.305 503.008 967.829 485.316C968.292 467.592 967.798 457.095 967.798 457.095ZM948.456 482.308C948.456 482.308 948.456 493.23 936.333 493.688C924.209 494.146 919.767 488.423 919.181 481.85C918.626 475.277 923.315 472.269 923.315 472.269C923.315 472.269 927.633 469.555 932.261 469.293C940.744 468.802 946.204 469.228 948.456 469.783V482.308Z" fill="#1F1F1F"/>
<path d="M886.42 430.117V445.552C886.42 445.552 878.306 440.745 866.584 441.628C854.83 442.478 854.46 447.154 854.46 447.154C854.46 447.154 853.195 452.55 858.995 454.741C864.764 456.932 878.337 459.744 884.291 466.056C890.245 472.367 891.078 475.245 891.448 477.37C891.818 479.496 893.083 489.47 891.263 494.146C889.443 498.789 888.394 502.615 879.016 508.207C869.638 513.799 853.658 510.954 853.658 510.954C853.658 510.954 841.535 508.207 837.493 504.905V486.526C837.493 486.526 845.668 492.184 851.499 493.034C857.329 493.884 864.363 494.767 869.329 492.838C874.296 490.908 873.216 484.728 873.216 484.728C873.216 484.728 871.89 479.855 864.98 477.73C858.07 475.604 848.414 473.282 841.257 466.938C834.1 460.627 834.964 450.784 834.964 450.784C834.964 450.784 834.069 440.679 840.177 434.074C846.255 427.501 852.363 424.689 861.34 424.1C870.347 423.544 878.06 424.721 886.42 430.117Z" fill="#1F1F1F"/>
</svg>
