<svg preserveAspectRatio="none" width="100%" height="100%" overflow="visible" style="display: block;" viewBox="0 0 47 48" fill="none" xmlns="http://www.w3.org/2000/svg">
<g id="Vector" opacity="0.5">
<path d="M36.5772 48L34.8632 46.3705C35.8205 45.098 36.6389 43.6392 37.3183 41.9942C37.9977 40.3492 38.5536 38.6421 38.986 36.8729C39.4492 35.1038 39.8044 33.3812 40.0514 31.7051C40.2985 29.9981 40.4683 28.4617 40.561 27.096C40.6845 25.6993 40.7463 24.582 40.7463 23.7439C40.7463 22.9059 40.6845 21.8196 40.561 20.485C40.4683 19.1193 40.2985 17.6295 40.0514 16.0155C39.8044 14.3705 39.4492 12.6945 38.986 10.9874C38.5536 9.24927 37.9977 7.57323 37.3183 5.95926C36.6389 4.3453 35.8205 2.90204 34.8632 1.62949L36.5308 0C37.7044 1.05529 38.8933 2.40543 40.0978 4.05044C41.3331 5.6644 42.4603 7.51115 43.4794 9.59069C44.5294 11.6702 45.3787 13.9049 46.0272 16.2949C46.6757 18.6848 47 21.1678 47 23.7439C47 26.3201 46.6757 28.8341 46.0272 31.2861C45.3787 33.7381 44.5294 36.0349 43.4794 38.1765C42.4603 40.3181 41.3331 42.227 40.0978 43.903C38.8933 45.5791 37.7198 46.9447 36.5772 48Z" fill="var(--fill-0, #AF9160)"/>
<path d="M14.9584 23.2785V18.2504H32.0056V23.1388L14.9584 23.2785Z" fill="var(--fill-0, #AF9160)"/>
<path d="M10.4228 0L12.1368 1.62949C11.1795 2.90204 10.3611 4.36082 9.68166 6.00582C9.00225 7.65083 8.43092 9.35791 7.96769 11.1271C7.53533 12.8962 7.19562 14.6343 6.94856 16.3414C6.7015 18.0175 6.51621 19.5538 6.39268 20.9505C6.30003 22.3162 6.25371 23.418 6.25371 24.2561C6.25371 25.0941 6.30003 26.1959 6.39268 27.5616C6.51621 28.8962 6.7015 30.386 6.94856 32.031C7.19562 33.645 7.53533 35.3055 7.96769 37.0126C8.43092 38.7507 9.00225 40.4268 9.68166 42.0407C10.3611 43.6547 11.1795 45.098 12.1368 46.3705L10.4692 48C9.32652 46.9447 8.13754 45.5946 6.90224 43.9496C5.66694 42.3356 4.52429 40.4888 3.47428 38.4093C2.45516 36.3298 1.62133 34.0951 0.972799 31.7051C0.324266 29.3152 0 26.8322 0 24.2561C0 21.6799 0.324266 19.1659 0.972799 16.7139C1.62133 14.2619 2.45516 11.9651 3.47428 9.82347C4.52429 7.68186 5.6515 5.77304 6.85591 4.09699C8.09121 2.42095 9.28019 1.05529 10.4228 0Z" fill="var(--fill-0, #AF9160)"/>
</g>
</svg>
