<svg width="93" height="94" viewBox="0 0 93 94" fill="none" xmlns="http://www.w3.org/2000/svg">
<g opacity="0.5" style="mix-blend-mode:lighten">
<path d="M72.3761 94L68.9846 90.8089C70.8789 88.3168 72.4983 85.4601 73.8427 82.2386C75.187 79.0171 76.287 75.6741 77.1425 72.2095C78.0591 68.7449 78.7618 65.3715 79.2507 62.0892C79.7396 58.7462 80.0757 55.7375 80.259 53.063C80.5034 50.3278 80.6256 48.1397 80.6256 46.4985C80.6256 44.8574 80.5034 42.73 80.259 40.1164C80.0757 37.442 79.7396 34.5244 79.2507 31.3637C78.7618 28.1423 78.0591 24.86 77.1425 21.517C76.287 18.1132 75.187 14.8309 73.8427 11.6702C72.4983 8.50954 70.8789 5.68316 68.9846 3.19108L72.2844 0C74.6065 2.0666 76.9592 4.71064 79.3424 7.93211C81.7867 11.0928 84.0171 14.7093 86.0337 18.7818C88.1114 22.8542 89.7918 27.2305 91.0751 31.9108C92.3584 36.591 93 41.4536 93 46.4985C93 51.5435 92.3584 56.4669 91.0751 61.2687C89.7918 66.0705 88.1114 70.5684 86.0337 74.7624C84.0171 78.9564 81.7867 82.6945 79.3424 85.9767C76.9592 89.259 74.6371 91.9334 72.3761 94Z" fill="#876747"/>
<path d="M29.5986 45.587V35.7403H63.3302V45.3135L29.5986 45.587Z" fill="#876747"/>
<path d="M20.6239 0L24.0154 3.19108C22.1211 5.68316 20.5017 8.53993 19.1573 11.7614C17.813 14.9829 16.6825 18.3259 15.7658 21.7905C14.9103 25.2551 14.2381 28.6589 13.7493 32.0019C13.2604 35.2842 12.8938 38.2929 12.6493 41.0281C12.466 43.7026 12.3744 45.8603 12.3744 47.5015C12.3744 49.1426 12.466 51.3004 12.6493 53.9748C12.8938 56.5884 13.2604 59.506 13.7493 62.7274C14.2381 65.8881 14.9103 69.14 15.7658 72.483C16.6825 75.8868 17.813 79.1691 19.1573 82.3298C20.5017 85.4905 22.1211 88.3168 24.0154 90.8089L20.7156 94C18.4546 91.9334 16.1019 89.2894 13.6576 86.0679C11.2133 82.9072 8.95231 79.2907 6.87464 75.2182C4.85808 71.1458 3.20817 66.7695 1.9249 62.0892C0.641633 57.409 0 52.5464 0 47.5015C0 42.4565 0.641633 37.5331 1.9249 32.7313C3.20817 27.9295 4.85808 23.4316 6.87464 19.2376C8.95231 15.0436 11.1827 11.3055 13.566 8.02328C16.0103 4.74103 18.3629 2.0666 20.6239 0Z" fill="#876747"/>
</g>
</svg>
