<svg width="320" height="243" viewBox="0 0 320 243" fill="none" xmlns="http://www.w3.org/2000/svg">
<g clip-path="url(#clip0_2376_4576)">
<rect width="320" height="243" rx="16" fill="url(#paint0_linear_2376_4576)"/>
<path d="M327.307 -7H-7.77966V247.457H327.307V-7Z" fill="white"/>
<path d="M327.307 -7H-7.77966V247.457H327.307V-7Z" fill="url(#paint1_linear_2376_4576)"/>
<path d="M327.307 88.8352V247.457H-7.77966V132.04C40.787 147.025 157.418 118.637 157.418 118.637C197.932 101.087 234.959 92.8771 265.829 89.5682C276.678 88.4058 286.762 87.8508 295.966 87.7147C307.998 87.5158 318.522 88.0393 327.307 88.8352Z" fill="url(#paint2_linear_2376_4576)"/>
<path d="M251.619 3.06287C247.284 2.65448 242.624 2.31939 238.844 4.49746C236.446 5.89016 234.645 8.18341 232.174 9.42952C228.76 11.1573 224.708 10.6233 220.907 11.0107C215.629 11.5552 210.341 14.2359 207.807 18.8957C205.273 23.5555 206.299 30.1944 210.781 33.0322C213.597 34.8228 217.126 34.9066 220.467 34.9275C226.247 34.9799 232.017 35.0218 237.797 35.0741C239.745 35.0951 241.808 35.1474 243.42 36.226C244.593 37.0114 245.378 38.2365 246.289 39.3151C252.541 46.687 263.881 46.2262 273.442 44.7707C278.091 44.0587 282.919 43.1895 286.688 40.3727C290.458 37.5559 292.751 32.1945 290.626 28.0059C289.955 26.676 288.856 25.3776 289.086 23.9116C289.306 22.5712 290.552 21.6916 291.683 20.9377C293.935 19.4612 296.228 17.8381 297.484 15.4506C298.741 13.0631 298.552 9.71225 296.385 8.13106C295.128 7.22004 293.505 7.0525 291.955 6.92684C278.384 5.85875 265.19 4.31944 251.63 3.06287H251.619Z" fill="url(#paint3_linear_2376_4576)"/>
<path d="M301.16 59.9439C299.736 63.033 297.4 65.7032 294.542 67.5357C293.369 68.2897 292.091 68.9075 291.107 69.8918C290.123 70.8657 289.442 72.2688 289.955 73.5673C291.872 78.3213 293.872 83.044 295.966 87.7142C286.761 87.8504 276.677 88.4054 265.829 89.5677C265.588 85.2639 265.002 80.9811 264.07 76.782C263.18 72.8029 261.766 68.5724 258.394 66.3001C256.75 65.2006 254.803 64.677 252.97 63.9335C246.321 61.2319 241.179 55.4831 238.289 48.9175C235.388 42.3519 234.572 35.0218 234.896 27.8489C236.163 27.2625 236.865 26.697 238.132 26.1211C237.556 30.1421 237.734 34.2679 238.656 38.2261C239.074 40.0272 239.965 42.0901 241.797 42.4252C243.462 42.7184 245.033 41.2628 245.493 39.6293C245.933 37.9957 245.567 36.2575 245.179 34.603C244.855 33.1474 244.52 31.6814 244.185 30.2259C246.007 30.2783 248.038 30.2573 249.86 30.3097C250.897 33.5349 251.535 36.98 250.96 40.3204C250.384 43.6608 248.425 46.8965 245.368 48.3625C247.137 51.9542 249.588 56.0485 253.588 56.3313C255.63 56.4779 257.578 55.5354 259.41 54.6244C260.248 54.2056 261.138 53.7343 261.578 52.9071C261.976 52.1532 261.923 51.2631 261.86 50.4149C261.536 46.153 261.148 41.6817 258.834 38.069C257.913 36.624 256.698 35.3569 255.818 33.87C254.939 32.383 254.373 30.561 254.97 28.9484C257.944 29.0531 260.373 29.3777 263.347 29.4824C266.981 38.2575 269.745 47.3782 271.599 56.6978C271.944 58.4256 272.269 60.1848 273.065 61.766C275.725 66.9912 283.348 68.3316 288.301 65.1901C293.243 62.0592 295.421 55.6297 294.678 49.818C296.856 48.1216 300.364 49.4725 301.61 51.9437C302.846 54.415 302.312 57.4308 301.16 59.9439Z" fill="url(#paint4_linear_2376_4576)"/>
<path d="M309.223 31.095C312.574 31.0217 316.165 31.0112 318.94 32.8856C320.71 34.0794 321.967 35.9328 323.799 37.0219C326.323 38.5297 329.464 38.3308 332.365 38.8334C336.386 39.535 340.292 41.8806 341.988 45.5875C343.684 49.2944 342.543 54.3417 338.951 56.2789C336.689 57.504 333.977 57.3784 331.422 57.2213C326.993 56.949 322.553 56.6768 318.124 56.4045C316.626 56.3103 315.045 56.2475 313.746 56.9805C312.804 57.5145 312.144 58.4151 311.38 59.2004C306.186 64.5199 297.516 63.5565 290.259 61.9335C286.73 61.1376 283.065 60.2161 280.332 57.8496C277.599 55.483 276.123 51.2526 277.976 48.153C278.562 47.1687 279.473 46.2263 279.369 45.0849C279.274 44.0482 278.363 43.3047 277.536 42.666C275.892 41.4094 274.206 40.0376 273.379 38.1423C272.541 36.247 272.866 33.6815 274.615 32.582C275.62 31.9432 276.887 31.9118 278.081 31.9013C288.552 31.8071 298.762 31.3359 309.233 31.095H309.223Z" fill="url(#paint5_linear_2376_4576)"/>
<path d="M-10.2928 122.27C-9.37135 120.574 -8.11478 119.013 -7.63309 117.139C-6.62783 113.202 -9.23522 108.647 -7.17235 105.149C-6.43934 103.914 -5.20371 103.023 -4.50212 101.767C-3.05706 99.1909 -4.18798 96.0181 -4.52307 93.0861C-4.94192 89.421 -4.04138 85.756 -3.15131 82.1853C-1.85284 76.96 -0.554382 71.7452 0.744079 66.52C1.10011 65.1063 1.66557 63.5565 2.41951 62.1952C4.03212 59.2946 8.41966 60.2266 8.89087 63.5146C9.86472 70.342 12.4093 76.8553 13.98 83.557C15.0167 87.976 14.3675 112.95 16.0952 114.657C22.0954 120.595 23.4253 130.825 18.8283 137.904C14.2313 144.983 4.03212 147.894 -3.44451 143.977C-10.9316 140.072 -14.3139 129.694 -10.2824 122.281L-10.2928 122.27Z" fill="#F3EDE2"/>
<path d="M-10.2928 122.27C-9.37135 120.574 -8.11478 119.013 -7.63309 117.139C-6.62783 113.202 -9.23522 108.647 -7.17235 105.149C-6.43934 103.914 -5.20371 103.023 -4.50212 101.767C-3.05706 99.1909 -4.18798 96.0181 -4.52307 93.0861C-4.94192 89.421 -4.04138 85.756 -3.15131 82.1853C-1.85284 76.96 -0.554382 71.7452 0.744079 66.52C1.10011 65.1063 1.66557 63.5565 2.41951 62.1952C4.03212 59.2946 8.41966 60.2266 8.89087 63.5146C9.86472 70.342 12.4093 76.8553 13.98 83.557C15.0167 87.976 14.3675 112.95 16.0952 114.657C22.0954 120.595 23.4253 130.825 18.8283 137.904C14.2313 144.983 4.03212 147.894 -3.44451 143.977C-10.9316 140.072 -14.3139 129.694 -10.2824 122.281L-10.2928 122.27Z" fill="url(#paint6_linear_2376_4576)"/>
<path d="M22.0011 124.396C22.9226 122.699 24.1792 121.139 24.6609 119.265C25.6661 115.327 23.0587 110.772 25.1216 107.275C25.8546 106.039 27.0902 105.149 27.7918 103.893C29.2369 101.317 28.106 98.1438 27.7709 95.2118C27.352 91.5468 28.2526 87.8818 29.1426 84.311C30.4411 79.0857 31.7396 73.8709 33.038 68.6457C33.3941 67.232 33.9595 65.6823 34.7135 64.321C36.3261 61.4204 40.7136 62.3523 41.1848 65.6404C42.1587 72.4678 44.7032 78.981 46.274 85.6828C47.3106 90.1017 46.6614 115.076 48.3892 116.783C54.3893 122.72 55.7192 132.951 51.1222 140.03C46.5253 147.108 36.3261 150.019 28.8494 146.103C21.3623 142.197 17.9801 131.82 22.0116 124.406L22.0011 124.396Z" fill="#F3EDE2"/>
<path d="M22.0011 124.396C22.9226 122.699 24.1792 121.139 24.6609 119.265C25.6661 115.327 23.0587 110.772 25.1216 107.275C25.8546 106.039 27.0902 105.149 27.7918 103.893C29.2369 101.317 28.106 98.1438 27.7709 95.2118C27.352 91.5468 28.2526 87.8818 29.1426 84.311C30.4411 79.0857 31.7396 73.8709 33.038 68.6457C33.3941 67.232 33.9595 65.6823 34.7135 64.321C36.3261 61.4204 40.7136 62.3523 41.1848 65.6404C42.1587 72.4678 44.7032 78.981 46.274 85.6828C47.3106 90.1017 46.6614 115.076 48.3892 116.783C54.3893 122.72 55.7192 132.951 51.1222 140.03C46.5253 147.108 36.3261 150.019 28.8494 146.103C21.3623 142.197 17.9801 131.82 22.0116 124.406L22.0011 124.396Z" fill="url(#paint7_linear_2376_4576)"/>
<path d="M53.6669 127.778C54.5884 126.082 55.8449 124.522 56.3266 122.647C57.3319 118.71 54.7245 114.155 56.7874 110.657C57.5204 109.422 58.756 108.532 59.4576 107.275C60.9027 104.699 59.7717 101.526 59.4367 98.5944C59.0178 94.9293 59.9183 91.2643 60.8084 87.6936C62.1069 82.4683 63.4053 77.2535 64.7038 72.0283C65.0598 70.6146 65.6253 69.0648 66.3792 67.7035C67.9918 64.8029 72.3794 65.7349 72.8506 69.0229C73.8244 75.8503 76.369 82.3636 77.9397 89.0653C78.9764 93.4843 78.3272 118.459 80.055 120.166C86.0551 126.103 87.385 136.334 82.788 143.412C78.191 150.491 67.9918 153.402 60.5152 149.486C53.0281 145.58 49.6458 135.203 53.6773 127.789L53.6669 127.778Z" fill="#F3EDE2"/>
<path d="M53.6669 127.778C54.5884 126.082 55.8449 124.522 56.3266 122.647C57.3319 118.71 54.7245 114.155 56.7874 110.657C57.5204 109.422 58.756 108.532 59.4576 107.275C60.9027 104.699 59.7717 101.526 59.4367 98.5944C59.0178 94.9293 59.9183 91.2643 60.8084 87.6936C62.1069 82.4683 63.4053 77.2535 64.7038 72.0283C65.0598 70.6146 65.6253 69.0648 66.3792 67.7035C67.9918 64.8029 72.3794 65.7349 72.8506 69.0229C73.8244 75.8503 76.369 82.3636 77.9397 89.0653C78.9764 93.4843 78.3272 118.459 80.055 120.166C86.0551 126.103 87.385 136.334 82.788 143.412C78.191 150.491 67.9918 153.402 60.5152 149.486C53.0281 145.58 49.6458 135.203 53.6773 127.789L53.6669 127.778Z" fill="url(#paint8_linear_2376_4576)"/>
<path opacity="0.5" d="M320.564 181.999C318.888 181.151 316.909 180.135 316.626 178.271C315.988 173.926 325.056 171.947 323.171 167.978C324.689 171.119 329.684 171.329 332.009 168.732C334.334 166.125 334.04 161.873 332.009 159.035C329.967 156.198 326.574 154.606 323.171 153.883C320.836 153.381 318.375 153.213 316.291 152.04C311.883 149.569 312.741 139.328 304.458 143.381C303.642 143.778 302.877 144.354 301.977 144.501C300.647 144.731 299.369 143.998 298.176 143.37C290.846 139.475 282.081 138.333 273.997 140.239C270.887 140.972 267.777 142.208 265.567 144.522C263.358 146.836 262.279 150.417 263.588 153.339C266.196 159.151 274.908 158.156 280.091 161.852C284.887 165.266 286.542 172.68 292.207 174.313C294.94 175.099 298.228 174.345 300.416 176.167C301.38 176.973 301.935 178.146 302.396 179.308C304.616 184.827 305.411 190.91 304.71 196.806C313.862 197.361 323.066 196.953 332.135 195.591C331.098 189.497 326.072 184.785 320.553 181.989L320.564 181.999ZM297.704 170.805C296.982 170.9 296.259 170.648 295.589 170.376C292.479 169.14 286.573 166.051 286.563 162.145C289.045 161.831 292.301 163.371 295.024 163.402C295.38 163.402 295.746 163.402 296.081 163.528C297.485 164.041 297.296 166.104 298.06 167.392C298.458 168.062 299.191 168.627 299.17 169.423C299.149 170.146 298.448 170.721 297.715 170.816L297.704 170.805ZM306.176 170.659C305.83 170.711 305.485 170.627 305.15 170.533C304.301 170.303 303.453 169.957 302.814 169.36C302.197 168.784 301.83 167.999 301.464 167.235C300.5 165.182 299.526 163.13 298.553 161.088C298.458 160.899 298.385 160.658 298.511 160.501C298.636 160.355 298.856 160.365 299.034 160.386C299.579 160.439 300.144 160.418 300.636 160.177C301.129 159.946 301.516 159.444 301.506 158.91C303.275 159.349 305.746 158.292 306.281 156.449C306.228 157.171 306.542 157.957 307.066 158.47C307.799 159.182 309.097 159.318 309.809 158.596C309.747 159.957 309.014 161.276 307.883 162.041C307.642 162.198 307.38 162.344 307.233 162.596C307.108 162.805 307.087 163.056 307.076 163.297C307.045 165.004 307.715 166.669 307.652 168.376C307.61 169.36 307.139 170.512 306.165 170.669L306.176 170.659ZM315.558 172.659C313.789 171.193 312.658 168.983 312.501 166.69C314.668 166.774 316.825 166.858 318.993 166.931L318.836 167.35C318.836 167.35 318.867 167.329 318.888 167.318C318.239 169.339 317.087 171.193 315.569 172.669L315.558 172.659Z" fill="url(#paint9_linear_2376_4576)"/>
<path d="M327.307 188.366V247.456H-7.77966V146.511C29.7396 142.386 67.7719 145.244 104.579 155.14C125.218 160.69 145.449 168.407 166.12 173.737C199.985 182.46 234.708 184.711 269.274 186.481C288.594 187.476 307.966 188.334 327.307 188.355V188.366Z" fill="#AB8D60"/>
<path d="M327.307 188.366V247.456H-7.77966V146.512C29.7396 142.375 67.7719 145.244 104.579 155.14C125.218 160.69 145.449 168.407 166.12 173.737C199.985 182.46 234.708 184.711 269.274 186.481C288.594 187.486 307.966 188.335 327.307 188.355V188.366Z" fill="url(#paint10_linear_2376_4576)"/>
<path d="M203.901 203.183C209.608 177.329 226.446 60.363 225.2 57.0645C223.284 52.0172 218.498 48.6245 213.629 46.2894C197.618 38.5928 178.906 39.085 161.355 41.7866C152.559 43.1374 143.167 45.3783 137.355 52.1324C133.753 56.3315 106.035 174.607 103.092 200.44L203.912 203.183H203.901Z" fill="#1F1912"/>
<path d="M203.901 203.183C209.608 177.329 226.446 60.363 225.2 57.0645C223.284 52.0172 218.498 48.6245 213.629 46.2894C197.618 38.5928 178.906 39.085 161.355 41.7866C152.559 43.1374 143.167 45.3783 137.355 52.1324C133.753 56.3315 106.035 174.607 103.092 200.44L203.912 203.183H203.901Z" fill="url(#paint11_linear_2376_4576)"/>
<path d="M189.409 203.183C195.116 177.329 211.954 60.363 210.708 57.0645C208.791 52.0172 204.006 48.6245 199.137 46.2894C183.126 38.5928 164.413 39.085 146.863 41.7866C138.067 43.1374 128.674 45.3783 122.862 52.1324C119.26 56.3315 91.5423 174.607 88.5999 200.44L189.419 203.183H189.409Z" fill="#424445"/>
<path d="M189.409 203.183C195.116 177.329 211.954 60.363 210.708 57.0645C208.791 52.0172 204.006 48.6245 199.137 46.2894C183.126 38.5928 164.413 39.085 146.863 41.7866C138.067 43.1374 128.674 45.3783 122.862 52.1324C119.26 56.3315 91.5423 174.607 88.5999 200.44L189.419 203.183H189.409Z" fill="#AB8D60"/>
<path d="M189.409 203.183C195.116 177.329 211.954 60.363 210.708 57.0645C208.791 52.0172 204.006 48.6245 199.137 46.2894C183.126 38.5928 164.413 39.085 146.863 41.7866C138.067 43.1374 128.674 45.3783 122.862 52.1324C119.26 56.3315 91.5423 174.607 88.5999 200.44L189.419 203.183H189.409Z" fill="url(#paint12_linear_2376_4576)"/>
<path d="M100.778 190.293C103.438 175.507 108.548 151.402 114.904 123.883C122.915 89.2012 129.459 64.1325 131.627 58.101C135.439 54.5616 142.214 53.0956 148.444 52.1322C155.774 51.0013 162.204 50.4568 168.089 50.4568C178.55 50.4568 187.22 52.1846 194.592 55.7239C197.199 56.9805 199.157 58.3418 200.205 59.6193C199.053 74.6563 187.241 158.355 180.874 192.471L100.778 190.293Z" fill="#AB8D60"/>
<path d="M215.074 197.832C189.346 188.439 109.501 166.041 28.7449 212.597C21.5825 216.723 22.4202 227.404 30.1481 230.357C44.3265 235.77 75.877 240.451 145.062 237.969C145.062 237.969 236.624 249.509 229.671 214.45C228.143 206.743 222.467 200.523 215.085 197.822L215.074 197.832Z" fill="#AB8D60"/>
<path opacity="0.5" d="M172.047 89.463C172.047 88.8243 171.953 88.2169 171.628 87.6933C170.989 86.6881 169.712 86.3425 168.549 85.997C166.644 85.4524 164.78 84.7718 162.989 83.955C162.633 83.798 162.256 83.6095 162.078 83.2534C161.911 82.9288 161.952 82.51 162.005 82.1225C162.005 82.0911 162.005 82.0492 162.015 82.0178C164.853 79.8712 167.063 75.8082 167.398 72.6563C167.869 68.1536 164.602 64.5095 160.109 64.5095C155.617 64.5095 151.575 68.1536 151.104 72.6563C150.769 75.8292 152.183 79.9026 154.612 82.0387C154.612 82.0702 154.612 82.1016 154.612 82.133C154.581 82.5204 154.528 82.9393 154.298 83.2639C154.046 83.6199 153.628 83.798 153.23 83.9655C151.272 84.7823 149.271 85.4629 147.24 86.0074C146.004 86.3425 144.654 86.6881 143.805 87.7038C143.366 88.2274 143.125 88.8557 143.01 89.5154C142.884 90.1332 142.873 90.7719 142.873 91.3898C142.873 91.5364 142.873 91.6934 142.873 91.84C142.769 94.5207 142.842 97.2014 143.114 99.8193C143.135 100.238 143.167 100.647 143.188 101.055C143.209 101.055 143.229 101.055 143.24 101.055C143.324 101.704 143.407 102.343 143.512 102.982C147.711 103.003 151.942 102.877 156.162 102.563C160.329 102.866 164.518 103.003 168.717 102.982C168.947 102.343 169.178 101.704 169.398 101.055C169.419 101.055 169.429 101.055 169.45 101.055C169.544 100.72 169.638 100.374 169.733 100.029C170.57 97.348 171.23 94.6359 171.691 91.9133C171.733 91.7353 171.764 91.5573 171.806 91.3898C171.932 90.7719 172.057 90.1122 172.068 89.484L172.047 89.463Z" fill="url(#paint13_linear_2376_4576)"/>
<path d="M107.082 194.921C104.935 193.57 101.186 192.858 98.1393 192.492C101.186 192.125 104.935 191.413 107.071 190.062C109.626 188.45 110.307 185.664 110.464 183.832C110.558 182.701 109.899 181.654 108.831 181.256C107.103 180.617 104.297 180.031 101.752 181.643C100.255 182.596 98.6943 184.397 97.333 186.282C98.2021 184.125 98.8932 181.842 98.8932 180.062C98.8932 177.046 96.9037 174.973 95.4376 173.863C94.5371 173.172 93.291 173.172 92.3904 173.863C90.9244 174.973 88.9349 177.036 88.9349 180.062C88.9349 181.842 89.626 184.125 90.4951 186.282C89.1338 184.397 87.5736 182.586 86.0762 181.643C83.5316 180.031 80.7148 180.606 78.9975 181.256C77.9294 181.654 77.2697 182.701 77.3639 183.832C77.521 185.664 78.2016 188.45 80.7567 190.062C82.8928 191.413 86.6416 192.125 89.6888 192.492C86.6416 192.858 82.8928 193.57 80.7462 194.921C78.1912 196.534 77.5105 199.319 77.3639 201.151C77.2697 202.282 77.9294 203.33 78.9975 203.727C80.7148 204.377 83.5211 204.953 86.0762 203.34C87.584 202.387 89.1443 200.576 90.5056 198.68C89.6365 200.848 88.9349 203.131 88.9349 204.921C88.9349 207.937 90.9244 210 92.3904 211.11C93.291 211.79 94.5371 211.79 95.4376 211.11C96.9037 210 98.8932 207.937 98.8932 204.921C98.8932 203.141 98.1916 200.848 97.3225 198.68C98.6838 200.576 100.244 202.387 101.752 203.34C104.307 204.953 107.113 204.377 108.831 203.727C109.888 203.33 110.558 202.282 110.454 201.151C110.297 199.319 109.626 196.534 107.071 194.921H107.082Z" fill="#FAD0A5"/>
<path d="M93.909 195.654C92.1602 195.654 90.7466 194.24 90.7466 192.491C90.7466 190.742 92.1602 189.329 93.909 189.329C95.6577 189.329 97.0713 190.742 97.0713 192.491C97.0713 194.24 95.6577 195.654 93.909 195.654Z" fill="#F1EBE0"/>
<path d="M217.483 165.999C217.273 167.025 207.639 197.958 202.76 211.236L198.131 208.754C201.629 198.555 211.566 171.046 212.77 165.046L217.483 165.988V165.999Z" fill="#D4BA8C"/>
<path d="M234.614 177.298C235.263 180.397 233.148 183.35 230.97 185.643C225.451 191.445 211.943 201.801 203.252 198.261C205.587 193.644 211.294 188.104 215.409 184.921C220.938 180.659 227.65 177.915 234.614 177.298Z" fill="#D4BA8C"/>
<path d="M234.614 177.298C235.263 180.397 233.148 183.35 230.97 185.643C225.451 191.445 211.943 201.801 203.252 198.261C205.587 193.644 211.294 188.104 215.409 184.921C220.938 180.659 227.65 177.915 234.614 177.298Z" fill="url(#paint14_linear_2376_4576)"/>
<path d="M159.251 165.674C159.334 165.831 164.151 174.292 168.35 186.795C168.863 188.355 169.387 189.978 169.879 191.664C171.973 198.816 173.712 206.974 174.256 215.466C175.586 214.387 176.759 213.487 177.68 212.796C176.937 204.387 175.157 196.439 173.052 189.486C172.141 186.47 171.167 183.633 170.204 181.036C166.455 171.004 162.706 164.428 162.382 163.863L159.251 165.664V165.674Z" fill="url(#paint15_linear_2376_4576)"/>
<path d="M168.35 186.805C168.864 188.366 169.387 189.989 169.879 191.675C171 191.182 172.057 190.439 173.052 189.497C177.293 185.538 180.372 178.397 181.555 174.25C182.194 171.967 182.56 169.276 181.052 167.444C176.654 170.281 173.157 174.449 170.989 179.214C170.738 179.779 170.476 180.397 170.204 181.046C169.502 182.784 168.832 184.805 168.35 186.805Z" fill="url(#paint16_linear_2376_4576)"/>
<path d="M142.224 172.617C142.14 173.643 142.737 174.585 143.701 174.952C145.261 175.538 147.795 176.062 150.099 174.606C151.46 173.748 152.874 172.104 154.109 170.397C153.324 172.355 152.696 174.428 152.696 176.041C152.696 178.774 154.497 180.638 155.816 181.643C156.633 182.261 157.753 182.261 158.57 181.643C159.9 180.638 161.691 178.774 161.691 176.041C161.691 174.428 161.062 172.365 160.277 170.397C161.513 172.114 162.926 173.748 164.287 174.606C166.591 176.062 169.136 175.538 170.686 174.952C171.649 174.596 172.246 173.643 172.162 172.617C172.026 170.962 171.408 168.439 169.104 166.983C167.167 165.758 163.774 165.119 161.02 164.784C163.774 164.449 167.167 163.81 169.094 162.585C171.398 161.13 172.015 158.606 172.162 156.951C172.246 155.925 171.649 154.983 170.686 154.616C169.125 154.03 166.591 153.506 164.287 154.972C162.926 155.831 161.523 157.465 160.287 159.171C161.073 157.213 161.701 155.161 161.701 153.548C161.701 150.815 159.9 148.951 158.581 147.946C157.764 147.328 156.643 147.328 155.827 147.946C154.497 148.951 152.706 150.815 152.706 153.548C152.706 155.15 153.334 157.213 154.12 159.171C152.884 157.465 151.481 155.831 150.12 154.972C147.816 153.517 145.271 154.04 143.711 154.616C142.748 154.972 142.151 155.925 142.235 156.951C142.381 158.606 142.989 161.13 145.303 162.585C147.24 163.81 150.633 164.449 153.387 164.784C150.633 165.119 147.24 165.758 145.303 166.983C142.999 168.439 142.381 170.962 142.245 172.617H142.224Z" fill="#D4BA8C"/>
<path d="M157.188 167.643C158.769 167.643 160.047 166.365 160.047 164.784C160.047 163.203 158.769 161.925 157.188 161.925C155.607 161.925 154.329 163.203 154.329 164.784C154.329 166.365 155.607 167.643 157.188 167.643Z" fill="#F1EBE0"/>
<path d="M222.551 167.329C220.959 166.324 218.184 165.8 215.922 165.528C218.184 165.256 220.959 164.732 222.54 163.727C224.436 162.533 224.938 160.47 225.053 159.109C225.127 158.271 224.635 157.496 223.849 157.193C222.572 156.711 220.488 156.281 218.603 157.486C217.493 158.187 216.341 159.528 215.325 160.931C215.964 159.329 216.477 157.643 216.477 156.323C216.477 154.082 215.001 152.554 213.912 151.737C213.242 151.224 212.32 151.224 211.65 151.737C210.561 152.564 209.095 154.093 209.095 156.323C209.095 157.643 209.608 159.329 210.247 160.931C209.241 159.528 208.079 158.198 206.969 157.486C205.084 156.292 203 156.721 201.723 157.193C200.938 157.486 200.445 158.261 200.508 159.109C200.623 160.47 201.126 162.533 203.021 163.727C204.603 164.732 207.388 165.256 209.639 165.528C207.378 165.8 204.603 166.324 203.011 167.329C201.126 168.523 200.613 170.586 200.498 171.947C200.425 172.785 200.917 173.559 201.702 173.853C202.98 174.334 205.053 174.764 206.948 173.57C208.069 172.868 209.221 171.517 210.236 170.114C209.587 171.716 209.074 173.413 209.074 174.732C209.074 176.973 210.55 178.502 211.639 179.319C212.31 179.821 213.231 179.821 213.901 179.319C214.99 178.491 216.467 176.973 216.467 174.732C216.467 173.413 215.954 171.716 215.304 170.114C216.32 171.517 217.472 172.858 218.592 173.57C220.477 174.764 222.561 174.334 223.839 173.853C224.624 173.559 225.116 172.785 225.043 171.947C224.928 170.596 224.425 168.523 222.54 167.329H222.551Z" fill="#FAD0A5"/>
<path d="M212.791 167.874C211.493 167.874 210.446 166.826 210.446 165.528C210.446 164.23 211.493 163.182 212.791 163.182C214.09 163.182 215.137 164.23 215.137 165.528C215.137 166.826 214.09 167.874 212.791 167.874Z" fill="#F1EBE0"/>
<path d="M150.455 179.151C149.962 181.476 151.554 183.685 153.188 185.413C157.324 189.759 167.45 197.518 173.974 194.869C172.225 191.403 167.942 187.246 164.853 184.869C160.706 181.675 155.68 179.612 150.455 179.151Z" fill="url(#paint17_linear_2376_4576)"/>
<path d="M119.25 185.664C117.658 188.397 118.726 191.873 120.067 194.732C123.47 201.978 133.009 216.062 142.381 215.466C141.627 210.345 137.962 203.287 135.062 198.973C131.166 193.182 125.658 188.46 119.25 185.674V185.664Z" fill="#D4BA8C"/>
<path d="M137.868 186.366C136.015 187.183 135.271 189.392 134.894 191.382C133.941 196.419 133.617 207.32 138.706 210.524C140.235 207.581 140.978 202.545 141.093 199.215C141.24 194.743 140.161 190.23 137.868 186.377V186.366Z" fill="#D4BA8C"/>
<path d="M135.606 169.255C134.025 168.261 131.26 167.737 129.019 167.465C131.26 167.192 134.025 166.669 135.606 165.674C137.48 164.491 137.983 162.428 138.098 161.088C138.172 160.25 137.679 159.475 136.894 159.182C135.627 158.711 133.554 158.281 131.679 159.464C130.569 160.166 129.428 161.496 128.423 162.889C129.061 161.297 129.574 159.622 129.574 158.302C129.574 156.082 128.108 154.553 127.03 153.737C126.36 153.234 125.449 153.234 124.779 153.737C123.7 154.553 122.234 156.082 122.234 158.302C122.234 159.611 122.747 161.297 123.386 162.889C122.381 161.496 121.239 160.166 120.129 159.464C118.255 158.281 116.181 158.7 114.914 159.182C114.129 159.475 113.637 160.25 113.71 161.088C113.825 162.438 114.328 164.491 116.213 165.674C117.784 166.669 120.548 167.192 122.799 167.465C120.559 167.737 117.794 168.261 116.213 169.255C114.338 170.439 113.836 172.501 113.721 173.842C113.647 174.669 114.14 175.444 114.925 175.737C116.192 176.208 118.265 176.638 120.14 175.454C121.25 174.753 122.402 173.423 123.407 172.02C122.768 173.622 122.255 175.297 122.255 176.617C122.255 178.837 123.721 180.366 124.799 181.182C125.47 181.685 126.381 181.685 127.051 181.182C128.129 180.366 129.595 178.847 129.595 176.617C129.595 175.297 129.082 173.622 128.444 172.02C129.449 173.412 130.601 174.753 131.711 175.454C133.585 176.648 135.658 176.219 136.925 175.737C137.711 175.444 138.192 174.669 138.13 173.842C138.014 172.491 137.512 170.439 135.637 169.255H135.606Z" fill="#F1EBE0"/>
<path d="M125.899 169.8C124.611 169.8 123.564 168.764 123.564 167.476C123.564 166.188 124.611 165.14 125.899 165.14C127.187 165.14 128.234 166.188 128.234 167.476C128.234 168.764 127.187 169.8 125.899 169.8Z" fill="#D4BA8C"/>
<path d="M97.9407 21.7861C97.6999 22.2468 97.4381 22.718 97.1449 23.1788C96.8098 23.7023 96.4328 24.205 95.993 24.6238C96.0244 24.6552 96.0454 24.6867 96.0768 24.7285C96.2862 25.0322 96.3491 25.4406 96.2862 25.8176C96.2234 26.2364 96.014 26.6134 95.7731 26.9694C95.5637 27.2836 95.3333 27.5768 95.0715 27.849C94.8831 28.048 94.6736 28.2365 94.4537 28.3935C94.4851 28.4669 94.5165 28.5401 94.527 28.6135C94.726 29.4407 94.1186 30.3517 93.3437 30.781C92.4956 31.2523 91.5008 31.336 90.5688 31.5873C90.3175 31.6502 90.0452 31.7654 89.951 32.0062C89.7835 32.4355 90.2861 32.802 90.7049 33.001C92.3804 33.7968 93.9092 34.9173 95.1763 36.2786C95.2705 36.3833 95.3752 36.4985 95.4066 36.6451C95.4695 37.0011 95.0611 37.2419 94.726 37.3676C93.6788 37.7655 92.6107 38.1739 91.5008 38.2996C91.3123 38.3205 91.1133 38.331 90.9144 38.3414H90.7887C89.5112 38.3414 88.1708 37.8179 87.5007 36.7393C86.9666 35.8702 86.8933 34.7078 86.1184 34.0272C85.1551 33.179 83.6891 33.5455 82.4115 33.6921C80.7885 33.8806 79.113 33.6188 77.6156 32.9382C77.2805 32.7916 76.935 32.6031 76.7569 32.2785C76.6313 32.0586 76.558 31.7444 76.6313 31.5245C76.6627 31.4303 76.7255 31.3465 76.8302 31.3046C76.6732 31.2627 76.5161 31.2208 76.3695 31.1894C76.3172 31.1894 76.2753 31.1685 76.2334 31.158C75.4375 30.9695 74.5684 30.7077 74.1391 30.0271C73.9297 29.6815 73.8459 29.2941 74.1181 29.0428C74.1391 29.0218 74.1705 29.0009 74.2019 28.98C74.1181 28.959 74.0239 28.9485 73.9401 28.9276C73.2804 28.8019 72.6103 28.6239 72.0762 28.226C71.4793 27.7653 71.1233 26.8857 71.4898 26.226C74.4218 26.1527 77.2491 27.1998 80.1497 27.6291C80.5686 27.692 81.1026 27.6606 81.3539 27.3778C81.4168 27.315 81.4586 27.2312 81.4796 27.1265C81.511 27.0008 81.4796 26.8752 81.4272 26.7705C81.333 26.561 81.1236 26.383 80.9037 26.2783C80.5686 26.1212 80.1811 26.0689 79.8774 25.8595C79.9089 25.3882 80.6 25.3464 80.977 25.0636C81.4796 24.6971 81.4063 23.9432 81.6471 23.3777C81.9613 22.6133 82.8513 22.2154 83.6786 22.2049C84.3592 22.1944 85.0922 22.4458 85.4483 23.0217C85.6891 23.4301 85.7205 23.9222 85.8252 24.383C85.93 24.8437 86.1917 25.3359 86.642 25.4511C86.998 25.294 87.3436 25.1369 87.6892 24.9799C90.2756 23.8175 92.7259 21.9012 95.0087 20.2049C95.4694 19.8698 95.9197 19.4823 96.4747 19.3148C97.0192 19.1368 97.6894 19.1996 98.0664 19.6289C98.569 20.2153 98.2967 21.1264 97.9302 21.807L97.9407 21.7861Z" fill="white"/>
<path d="M74.2018 42.6451C74.0552 42.9174 73.9086 43.1897 73.7411 43.4514C73.5421 43.7551 73.3327 44.0483 73.0709 44.2892C73.0918 44.3101 73.1023 44.3311 73.1128 44.352C73.2384 44.53 73.2698 44.7709 73.2384 44.9803C73.1965 45.2211 73.0814 45.441 72.9452 45.6505C72.8196 45.8389 72.6834 46.0065 72.5368 46.1636C72.4217 46.2787 72.3065 46.3835 72.1808 46.4777C72.2018 46.5196 72.2122 46.5615 72.2227 46.6034C72.3379 47.085 71.9819 47.6191 71.5316 47.8599C71.0394 48.1322 70.4635 48.1845 69.919 48.3311C69.7724 48.373 69.6153 48.4359 69.5525 48.572C69.4582 48.8233 69.7514 49.0327 69.9923 49.1479C70.9661 49.6087 71.8562 50.2684 72.5997 51.0537C72.652 51.1166 72.7149 51.1794 72.7358 51.2632C72.7777 51.4726 72.5368 51.6087 72.3379 51.682C71.7305 51.9124 71.1127 52.1532 70.4635 52.2265C70.3483 52.237 70.2436 52.2475 70.1284 52.2475H70.0551C69.3116 52.2475 68.5367 51.9438 68.1388 51.3155C67.8247 50.8129 67.7828 50.1322 67.3325 49.7343C66.7775 49.2422 65.9189 49.4516 65.1754 49.5354C64.233 49.6506 63.2487 49.4935 62.3795 49.0956C62.1806 49.0118 61.9816 48.8966 61.8769 48.7081C61.8036 48.5825 61.7617 48.394 61.8036 48.2683C61.8245 48.216 61.8559 48.1636 61.9188 48.1427C61.8245 48.1217 61.7408 48.1008 61.6465 48.0694C61.6151 48.0694 61.5942 48.0589 61.5732 48.0484C61.1125 47.9332 60.6098 47.7866 60.3585 47.3887C60.2329 47.1898 60.191 46.9594 60.3481 46.8128C60.3585 46.8023 60.3795 46.7918 60.3899 46.7814C60.3376 46.7814 60.2852 46.7604 60.2433 46.75C59.8559 46.6767 59.4685 46.5719 59.1648 46.3416C58.8192 46.0693 58.6098 45.5667 58.8192 45.1792C60.5261 45.1374 62.1701 45.7447 63.856 45.996C64.0968 46.0274 64.411 46.017 64.5576 45.8494C64.589 45.8075 64.6204 45.7656 64.6309 45.7028C64.6518 45.6295 64.6309 45.5562 64.5995 45.4934C64.5471 45.3677 64.4215 45.263 64.2958 45.2107C64.0968 45.1164 63.8769 45.085 63.6989 44.9698C63.7199 44.6976 64.1178 44.6766 64.3377 44.5091C64.6309 44.2996 64.589 43.8598 64.7251 43.5247C64.9136 43.0745 65.4267 42.8441 65.9084 42.8441C66.3063 42.8441 66.7357 42.9802 66.9346 43.3258C67.0812 43.5666 67.0917 43.8494 67.1545 44.1112C67.2173 44.3834 67.3639 44.6661 67.6362 44.729C67.8456 44.6347 68.0446 44.5509 68.2435 44.4567C69.7514 43.7761 71.1755 42.6661 72.5054 41.6818C72.7777 41.4828 73.0395 41.2629 73.3536 41.1582C73.6678 41.0535 74.0657 41.0849 74.2856 41.3467C74.5788 41.6922 74.4217 42.2158 74.2123 42.6137L74.2018 42.6451Z" fill="#D4BA8C"/>
<path d="M239.064 205.215C240.226 205.215 241.169 204.272 241.169 203.11C241.169 201.947 240.226 201.005 239.064 201.005C237.901 201.005 236.959 201.947 236.959 203.11C236.959 204.272 237.901 205.215 239.064 205.215Z" fill="#FAD0A5"/>
<path d="M100.453 67.5672C101.615 67.5672 102.558 66.6249 102.558 65.4624C102.558 64.3 101.615 63.3577 100.453 63.3577C99.2905 63.3577 98.3481 64.3 98.3481 65.4624C98.3481 66.6249 99.2905 67.5672 100.453 67.5672Z" fill="#D4BA8C"/>
<path d="M66.578 169.13C67.7405 169.13 68.6828 168.188 68.6828 167.025C68.6828 165.863 67.7405 164.92 66.578 164.92C65.4156 164.92 64.4733 165.863 64.4733 167.025C64.4733 168.188 65.4156 169.13 66.578 169.13Z" fill="#F1EBE0"/>
<path d="M19.5929 123.516L18.9541 123.433C18.8913 123.433 18.8389 123.422 18.8075 123.412C18.8075 123.37 18.8075 123.318 18.8285 123.234L21.8233 110.322C21.8757 110.019 21.8233 109.778 21.6662 109.589C21.4987 109.39 21.1846 109.171 20.1165 109.516C19.7919 109.621 19.2683 109.736 18.5876 109.841C17.8442 109.956 17.7813 110.479 17.7813 110.626C17.7813 110.741 17.8127 110.93 17.9593 111.087C18.0431 111.192 18.2525 111.359 18.5981 111.317L19.3416 111.233C19.3416 111.233 19.352 111.233 19.3625 111.233L16.6399 123.035C16.5981 123.276 16.5352 123.338 16.5352 123.338C16.5352 123.338 16.4619 123.401 16.1687 123.433L15.3834 123.516C14.8388 123.558 14.6399 123.935 14.6399 124.249C14.6399 124.585 14.8807 124.92 15.4148 124.92H19.3835C20.0013 124.92 20.2212 124.532 20.2212 124.208C20.2212 123.831 19.9489 123.548 19.5719 123.516H19.5929Z" fill="#750D33"/>
<path d="M30.1482 113.862C30.1482 112.511 29.8864 111.432 29.3733 110.668C28.8183 109.84 28.0329 109.422 27.0486 109.422C26.4099 109.422 25.792 109.589 25.2161 109.914C24.6611 110.228 24.148 110.657 23.7082 111.181C23.2789 111.704 22.9229 112.301 22.6611 112.961C22.3993 113.621 22.2736 114.322 22.2736 115.045C22.2736 116.27 22.5459 117.275 23.0904 118.019C23.6663 118.815 24.4517 119.223 25.436 119.223C25.635 119.223 25.8339 119.212 26.0224 119.181C24.703 121.621 23.0799 123.118 21.1741 123.652C20.9647 123.715 20.8181 123.788 20.7134 123.893C20.5877 124.019 20.5249 124.197 20.5249 124.385C20.5249 124.605 20.6087 124.794 20.7553 124.93C20.8809 125.035 21.0485 125.097 21.237 125.097C21.2998 125.097 21.3626 125.097 21.4254 125.076H21.4359C22.326 124.909 23.2056 124.553 24.0643 124.04C24.902 123.537 25.6978 122.898 26.4308 122.144C27.1533 121.401 27.8026 120.563 28.3576 119.663C28.9125 118.752 29.3523 117.799 29.6665 116.835C29.9911 115.851 30.1482 114.856 30.1482 113.882V113.862ZM24.7135 113.841C24.8601 113.265 25.0695 112.731 25.3313 112.28C25.5826 111.83 25.8758 111.485 26.19 111.223C26.4727 111.003 26.7554 110.888 27.0382 110.888C27.3523 110.888 27.5827 111.024 27.7816 111.327C28.012 111.683 28.1377 112.228 28.1377 112.94C28.1377 113.809 28.0015 114.636 27.7397 115.39C27.478 116.134 27.1324 116.731 26.7135 117.171C26.3366 117.568 25.9386 117.767 25.5093 117.767C25.3104 117.767 25.0486 117.715 24.8182 117.328C24.5983 116.951 24.4831 116.396 24.4831 115.673C24.4831 115.034 24.5564 114.417 24.703 113.841H24.7135Z" fill="#750D33"/>
<path d="M34.2214 114.888C34.0434 114.888 33.8549 114.898 33.6455 114.93C34.1795 113.987 34.7973 113.181 35.478 112.532C36.3262 111.736 37.3314 111.17 38.4519 110.856C38.6089 110.814 38.7346 110.773 38.8289 110.71C38.944 110.636 39.1325 110.469 39.1325 110.113C39.1325 109.799 38.9755 109.631 38.8812 109.547C38.7032 109.411 38.4728 109.369 38.211 109.422C37.2895 109.6 36.3785 109.966 35.5094 110.49C34.6612 111.013 33.8654 111.663 33.1428 112.427C32.4308 113.181 31.7816 114.029 31.237 114.93C30.6925 115.83 30.2527 116.783 29.9595 117.757C29.6559 118.731 29.4988 119.705 29.4988 120.637C29.4988 121.422 29.6035 122.155 29.8234 122.804C30.0538 123.485 30.3993 124.04 30.8601 124.448C31.3418 124.878 31.9596 125.097 32.6716 125.097C33.4256 125.097 34.1062 124.878 34.7031 124.438C35.2686 124.029 35.7607 123.506 36.1586 122.878C36.5565 122.27 36.8602 121.61 37.0696 120.94C37.2791 120.26 37.3943 119.631 37.3943 119.066C37.3943 117.851 37.122 116.856 36.588 116.103C36.0225 115.296 35.2267 114.888 34.2319 114.888H34.2214ZM31.813 123.234C31.6035 122.888 31.4988 122.396 31.4988 121.757C31.4988 121.401 31.5302 120.972 31.6035 120.49C31.6768 120.008 31.7816 119.516 31.9386 119.003C32.0852 118.5 32.2842 118.04 32.5146 117.61C32.724 117.212 32.9858 116.888 33.2685 116.647C33.5198 116.438 33.8025 116.333 34.1376 116.333C34.4727 116.333 34.6926 116.448 34.8602 116.72C35.0591 117.055 35.1638 117.558 35.1638 118.228C35.1638 118.574 35.122 118.993 35.0487 119.464C34.9754 119.935 34.8602 120.438 34.7031 120.951C34.5565 121.453 34.368 121.925 34.1376 122.354C33.9282 122.762 33.6769 123.087 33.3942 123.338C33.1533 123.548 32.902 123.652 32.6193 123.652C32.1166 123.652 31.9177 123.443 31.813 123.255V123.234Z" fill="#750D33"/>
<path d="M44.0019 109.422C43.2689 109.422 42.5778 109.673 41.939 110.165C41.3421 110.626 40.7871 111.254 40.3055 112.019C39.8342 112.762 39.4154 113.6 39.0803 114.49C38.7452 115.369 38.473 116.291 38.2949 117.202C38.1065 118.123 38.0122 118.982 38.0122 119.767C38.0122 121.296 38.2426 122.542 38.6928 123.485C39.1955 124.532 40.0646 125.076 41.2165 125.076C41.9495 125.076 42.6406 124.825 43.2794 124.322C43.8762 123.851 44.4207 123.223 44.9129 122.459C45.3841 121.715 45.803 120.877 46.1381 119.977C46.4731 119.087 46.7454 118.176 46.9234 117.265C47.1119 116.343 47.2061 115.495 47.2061 114.72C47.2061 113.191 46.9758 111.945 46.5255 110.992C46.0229 109.945 45.1537 109.401 44.0019 109.401V109.422ZM40.651 123.38C40.4625 123.171 40.3264 122.877 40.2531 122.521C40.1589 122.113 40.117 121.663 40.117 121.171C40.117 120.678 40.1589 120.113 40.2426 119.411C40.3264 118.71 40.4521 117.956 40.6196 117.17C40.7871 116.385 40.9966 115.589 41.2374 114.825C41.4783 114.06 41.7505 113.359 42.0542 112.741C42.3474 112.144 42.672 111.662 43.0176 111.317C43.3108 111.024 43.5935 110.877 43.9076 110.877C44.2846 110.877 44.5464 111.024 44.7454 111.359C44.9862 111.757 45.1014 112.416 45.1014 113.338C45.1014 113.809 45.0595 114.396 44.9757 115.087C44.892 115.778 44.7663 116.532 44.5988 117.328C44.4312 118.113 44.2218 118.909 43.9809 119.673C43.7401 120.427 43.4678 121.129 43.1642 121.757C42.871 122.364 42.5464 122.846 42.2008 123.192C41.6353 123.767 40.9547 123.715 40.651 123.38Z" fill="#750D33"/>
<path d="M277.683 119.547C277.359 119.547 277.097 119.725 276.95 120.05L276.552 120.95C276.322 121.474 276.092 121.882 275.872 122.144C275.683 122.375 275.463 122.542 275.222 122.626C274.95 122.731 274.573 122.772 274.123 122.772H272.343L274.238 120.626C274.72 120.081 275.264 119.505 275.882 118.898C276.51 118.291 277.118 117.641 277.704 116.982C278.301 116.312 278.804 115.61 279.191 114.898C279.599 114.154 279.809 113.38 279.809 112.594C279.809 111.631 279.484 110.856 278.845 110.27C278.217 109.704 277.379 109.411 276.343 109.411C275.798 109.411 275.254 109.526 274.72 109.756C274.175 109.987 273.673 110.374 273.212 110.898C272.762 111.411 272.385 112.102 272.081 112.961C271.976 113.264 272.039 113.495 272.102 113.62C272.217 113.861 272.458 114.008 272.73 114.008C272.898 114.008 273.306 113.945 273.495 113.421C273.809 112.573 274.196 111.976 274.657 111.641C275.578 110.971 276.657 111.034 277.086 111.474C277.306 111.704 277.421 112.029 277.421 112.479C277.421 113.055 277.285 113.662 277.013 114.27C276.73 114.908 276.364 115.558 275.924 116.186C275.484 116.825 275.002 117.443 274.5 118.018L269.84 123.369C269.536 123.694 269.39 123.966 269.39 124.228C269.39 124.542 269.599 124.898 270.207 124.898H276.207C276.427 124.898 276.626 124.856 276.804 124.762C276.961 124.678 277.17 124.511 277.264 124.176L278.343 120.479C278.416 120.196 278.385 119.956 278.249 119.778C278.175 119.683 278.008 119.516 277.683 119.516V119.547Z" fill="#750D33"/>
<path d="M288.039 117.286C288.228 116.375 288.322 115.516 288.322 114.741C288.322 113.212 288.092 111.966 287.641 111.013C287.139 109.966 286.269 109.422 285.118 109.422C284.385 109.422 283.693 109.673 283.055 110.165C282.458 110.626 281.903 111.254 281.421 112.019C280.95 112.762 280.531 113.6 280.196 114.49C279.861 115.38 279.589 116.291 279.411 117.202C279.222 118.123 279.128 118.982 279.128 119.767C279.128 121.296 279.358 122.542 279.809 123.485C280.311 124.532 281.18 125.076 282.332 125.076C283.065 125.076 283.756 124.825 284.395 124.323C284.992 123.851 285.536 123.223 286.029 122.459C286.5 121.715 286.919 120.877 287.254 119.977C287.599 119.076 287.861 118.165 288.039 117.265V117.286ZM281.767 123.391C281.578 123.181 281.442 122.888 281.369 122.532C281.275 122.134 281.233 121.673 281.233 121.181C281.233 120.689 281.275 120.113 281.358 119.422C281.442 118.72 281.568 117.966 281.735 117.181C281.903 116.396 282.112 115.6 282.353 114.835C282.594 114.071 282.866 113.369 283.17 112.752C283.463 112.155 283.788 111.673 284.133 111.327C284.416 111.034 284.709 110.888 285.023 110.888C285.4 110.888 285.662 111.034 285.861 111.369C286.102 111.767 286.217 112.427 286.217 113.348C286.217 113.82 286.175 114.406 286.091 115.097C286.008 115.788 285.882 116.542 285.714 117.338C285.547 118.123 285.338 118.919 285.097 119.684C284.856 120.438 284.584 121.139 284.28 121.767C283.987 122.364 283.662 122.846 283.317 123.202C282.751 123.778 282.07 123.726 281.767 123.391Z" fill="#750D33"/>
<path d="M295.244 119.799C295.17 119.705 295.003 119.537 294.678 119.537C294.354 119.537 294.092 119.715 293.945 120.04L293.547 120.94C293.306 121.474 293.087 121.872 292.867 122.134C292.668 122.375 292.458 122.532 292.207 122.616C291.935 122.72 291.568 122.762 291.107 122.762H289.327L291.223 120.616C291.704 120.071 292.259 119.495 292.877 118.888C293.505 118.27 294.123 117.631 294.699 116.971C295.296 116.291 295.799 115.6 296.186 114.888C296.594 114.144 296.804 113.369 296.804 112.584C296.804 111.621 296.479 110.846 295.84 110.259C295.212 109.694 294.375 109.401 293.338 109.401C292.793 109.401 292.249 109.516 291.715 109.746C291.17 109.977 290.668 110.364 290.207 110.888C289.757 111.401 289.38 112.092 289.076 112.95C288.982 113.254 289.034 113.474 289.107 113.61C289.233 113.851 289.453 113.987 289.725 113.987C289.893 113.987 290.301 113.924 290.49 113.401C290.804 112.553 291.191 111.956 291.652 111.621C292.573 110.95 293.641 111.013 294.081 111.464C294.301 111.694 294.416 112.018 294.416 112.469C294.416 113.045 294.28 113.652 294.008 114.259C293.725 114.898 293.359 115.547 292.919 116.176C292.469 116.814 291.987 117.432 291.495 118.008L286.835 123.359C286.531 123.684 286.385 123.956 286.385 124.218C286.385 124.532 286.594 124.888 287.202 124.888H293.202C293.422 124.888 293.621 124.846 293.799 124.752C293.956 124.668 294.165 124.5 294.259 124.165L295.338 120.469C295.422 120.186 295.39 119.945 295.244 119.767V119.799Z" fill="#750D33"/>
<path d="M300.93 118.909C301.558 118.291 302.176 117.642 302.752 116.993C303.348 116.322 303.851 115.621 304.239 114.909C304.647 114.165 304.856 113.39 304.856 112.605C304.856 111.642 304.532 110.867 303.893 110.28C303.265 109.715 302.427 109.422 301.39 109.422C300.846 109.422 300.301 109.537 299.767 109.767C299.223 109.998 298.72 110.385 298.259 110.909C297.809 111.422 297.432 112.113 297.128 112.971C297.024 113.275 297.087 113.505 297.149 113.631C297.265 113.872 297.505 114.019 297.778 114.019C297.945 114.019 298.354 113.956 298.542 113.432C298.856 112.584 299.244 111.987 299.704 111.652C300.626 110.982 301.704 111.045 302.134 111.485C302.354 111.715 302.469 112.039 302.469 112.49C302.469 113.066 302.333 113.673 302.06 114.28C301.778 114.919 301.411 115.558 300.971 116.197C300.532 116.835 300.05 117.453 299.547 118.029L294.888 123.38C294.584 123.705 294.437 123.977 294.437 124.239C294.437 124.553 294.647 124.909 295.254 124.909H301.254C301.474 124.909 301.673 124.867 301.851 124.773C302.008 124.689 302.218 124.521 302.312 124.186L303.39 120.49C303.464 120.207 303.432 119.966 303.296 119.788C303.223 119.694 303.055 119.527 302.731 119.527C302.406 119.527 302.144 119.705 301.998 120.029L301.6 120.93C301.369 121.453 301.139 121.862 300.919 122.124C300.72 122.364 300.511 122.521 300.259 122.605C299.987 122.71 299.61 122.752 299.16 122.752H297.38L299.275 120.605C299.757 120.061 300.301 119.485 300.919 118.877L300.93 118.909Z" fill="#750D33"/>
<path d="M249.672 101.61H69.8663V135.652H249.672V101.61Z" fill="url(#paint18_radial_2376_4576)"/>
<path d="M222.519 117.998H97.0084V119.265H222.519V117.998Z" fill="url(#paint19_radial_2376_4576)"/>
<path d="M206.152 207.236C204.571 206.241 201.806 205.717 199.565 205.445C201.806 205.173 204.571 204.649 206.152 203.654C208.026 202.471 208.529 200.408 208.644 199.068C208.717 198.23 208.225 197.455 207.44 197.162C206.173 196.691 204.099 196.261 202.225 197.445C201.115 198.146 199.974 199.476 198.968 200.869C199.607 199.277 200.12 197.602 200.12 196.282C200.12 194.062 198.654 192.534 197.576 191.717C196.906 191.214 195.994 191.214 195.324 191.717C194.246 192.534 192.78 194.062 192.78 196.282C192.78 197.591 193.293 199.277 193.932 200.869C192.926 199.476 191.785 198.146 190.675 197.445C188.801 196.261 186.727 196.68 185.46 197.162C184.675 197.455 184.183 198.23 184.256 199.068C184.371 200.419 184.874 202.471 186.759 203.654C188.329 204.649 191.094 205.173 193.345 205.445C191.104 205.717 188.34 206.241 186.759 207.236C184.884 208.419 184.382 210.482 184.266 211.822C184.193 212.649 184.685 213.424 185.471 213.717C186.738 214.189 188.811 214.618 190.685 213.435C191.795 212.733 192.947 211.403 193.953 210C193.314 211.602 192.801 213.278 192.801 214.597C192.801 216.817 194.267 218.346 195.345 219.163C196.015 219.665 196.926 219.665 197.597 219.163C198.675 218.346 200.141 216.827 200.141 214.597C200.141 213.278 199.628 211.602 198.989 210C199.995 211.393 201.146 212.733 202.256 213.435C204.131 214.628 206.204 214.199 207.471 213.717C208.257 213.424 208.738 212.649 208.675 211.822C208.56 210.471 208.058 208.419 206.183 207.236H206.152Z" fill="#F1EBE0"/>
<path d="M196.455 207.78C195.167 207.78 194.12 206.743 194.12 205.455C194.12 204.168 195.167 203.12 196.455 203.12C197.743 203.12 198.79 204.168 198.79 205.455C198.79 206.743 197.743 207.78 196.455 207.78Z" fill="#D4BA8C"/>
<path d="M231.441 150.407C232.604 150.407 233.546 149.465 233.546 148.302C233.546 147.14 232.604 146.198 231.441 146.198C230.279 146.198 229.337 147.14 229.337 148.302C229.337 149.465 230.279 150.407 231.441 150.407Z" fill="#AB8D60"/>
</g>
<defs>
<linearGradient id="paint0_linear_2376_4576" x1="0" y1="121.5" x2="320" y2="121.5" gradientUnits="userSpaceOnUse">
<stop stop-color="#D1BFA3"/>
<stop offset="1" stop-color="#AD9475"/>
</linearGradient>
<linearGradient id="paint1_linear_2376_4576" x1="159.764" y1="-7" x2="159.764" y2="247.457" gradientUnits="userSpaceOnUse">
<stop stop-color="#D6BC8E" stop-opacity="0"/>
<stop offset="0.13" stop-color="#D6BC8E" stop-opacity="0.21"/>
<stop offset="0.29" stop-color="#D6BC8E" stop-opacity="0.45"/>
<stop offset="0.45" stop-color="#D6BC8E" stop-opacity="0.65"/>
<stop offset="0.6" stop-color="#D6BC8E" stop-opacity="0.8"/>
<stop offset="0.75" stop-color="#D6BC8E" stop-opacity="0.91"/>
<stop offset="0.88" stop-color="#D6BC8E" stop-opacity="0.98"/>
<stop offset="1" stop-color="#D6BC8E"/>
</linearGradient>
<linearGradient id="paint2_linear_2376_4576" x1="57.9392" y1="66.3215" x2="283.191" y2="291.573" gradientUnits="userSpaceOnUse">
<stop stop-color="#D6BC8E" stop-opacity="0.01"/>
<stop offset="0.18" stop-color="#D6BC8E" stop-opacity="0.36"/>
<stop offset="0.34" stop-color="#D6BC8E" stop-opacity="0.63"/>
<stop offset="0.47" stop-color="#D6BC8E" stop-opacity="0.83"/>
<stop offset="0.57" stop-color="#D6BC8E" stop-opacity="0.95"/>
<stop offset="0.63" stop-color="#D6BC8E" stop-opacity="0.99"/>
<stop offset="1" stop-color="#D6BC8E"/>
</linearGradient>
<linearGradient id="paint3_linear_2376_4576" x1="251.423" y1="45.2467" x2="252.892" y2="2.95707" gradientUnits="userSpaceOnUse">
<stop stop-color="#D6BC8E" stop-opacity="0.01"/>
<stop offset="0.18" stop-color="#D6BC8E" stop-opacity="0.36"/>
<stop offset="0.34" stop-color="#D6BC8E" stop-opacity="0.63"/>
<stop offset="0.47" stop-color="#D6BC8E" stop-opacity="0.83"/>
<stop offset="0.57" stop-color="#D6BC8E" stop-opacity="0.95"/>
<stop offset="0.63" stop-color="#D6BC8E" stop-opacity="0.99"/>
<stop offset="1" stop-color="#D6BC8E"/>
</linearGradient>
<linearGradient id="paint4_linear_2376_4576" x1="239.671" y1="23.3985" x2="297.945" y2="85.8713" gradientUnits="userSpaceOnUse">
<stop stop-color="#AD8F60" stop-opacity="0"/>
<stop offset="0.1" stop-color="#AD8F60" stop-opacity="0.1"/>
<stop offset="0.3" stop-color="#AD8F60" stop-opacity="0.35"/>
<stop offset="0.57" stop-color="#AD8F60" stop-opacity="0.76"/>
<stop offset="0.72" stop-color="#AD8F60" stop-opacity="0.99"/>
<stop offset="1" stop-color="#AD8F60"/>
</linearGradient>
<linearGradient id="paint5_linear_2376_4576" x1="307.145" y1="63.0523" x2="308.275" y2="30.5266" gradientUnits="userSpaceOnUse">
<stop stop-color="#D6BC8E" stop-opacity="0.01"/>
<stop offset="0.18" stop-color="#D6BC8E" stop-opacity="0.36"/>
<stop offset="0.34" stop-color="#D6BC8E" stop-opacity="0.63"/>
<stop offset="0.47" stop-color="#D6BC8E" stop-opacity="0.83"/>
<stop offset="0.57" stop-color="#D6BC8E" stop-opacity="0.95"/>
<stop offset="0.63" stop-color="#D6BC8E" stop-opacity="0.99"/>
<stop offset="1" stop-color="#D6BC8E"/>
</linearGradient>
<linearGradient id="paint6_linear_2376_4576" x1="4.78606" y1="145.726" x2="4.78606" y2="60.457" gradientUnits="userSpaceOnUse">
<stop stop-color="#AD8F60" stop-opacity="0"/>
<stop offset="0.1" stop-color="#AD8F60" stop-opacity="0.21"/>
<stop offset="0.29" stop-color="#AD8F60" stop-opacity="0.54"/>
<stop offset="0.44" stop-color="#AD8F60" stop-opacity="0.79"/>
<stop offset="0.56" stop-color="#AD8F60" stop-opacity="0.94"/>
<stop offset="0.63" stop-color="#AD8F60" stop-opacity="0.99"/>
<stop offset="1" stop-color="#AD8F60"/>
</linearGradient>
<linearGradient id="paint7_linear_2376_4576" x1="37.08" y1="147.852" x2="37.08" y2="62.5827" gradientUnits="userSpaceOnUse">
<stop stop-color="#AD8F60" stop-opacity="0"/>
<stop offset="0.1" stop-color="#AD8F60" stop-opacity="0.21"/>
<stop offset="0.29" stop-color="#AD8F60" stop-opacity="0.54"/>
<stop offset="0.44" stop-color="#AD8F60" stop-opacity="0.79"/>
<stop offset="0.56" stop-color="#AD8F60" stop-opacity="0.94"/>
<stop offset="0.63" stop-color="#AD8F60" stop-opacity="0.99"/>
<stop offset="1" stop-color="#AD8F60"/>
</linearGradient>
<linearGradient id="paint8_linear_2376_4576" x1="68.7458" y1="151.234" x2="68.7458" y2="65.9548" gradientUnits="userSpaceOnUse">
<stop stop-color="#AD8F60" stop-opacity="0"/>
<stop offset="0.1" stop-color="#AD8F60" stop-opacity="0.21"/>
<stop offset="0.29" stop-color="#AD8F60" stop-opacity="0.54"/>
<stop offset="0.44" stop-color="#AD8F60" stop-opacity="0.79"/>
<stop offset="0.56" stop-color="#AD8F60" stop-opacity="0.94"/>
<stop offset="0.63" stop-color="#AD8F60" stop-opacity="0.99"/>
<stop offset="1" stop-color="#AD8F60"/>
</linearGradient>
<linearGradient id="paint9_linear_2376_4576" x1="293.509" y1="194.771" x2="303.323" y2="141.562" gradientUnits="userSpaceOnUse">
<stop offset="0.06" stop-color="#1F1912" stop-opacity="0"/>
<stop offset="0.49" stop-color="#1F1912" stop-opacity="0.55"/>
<stop offset="0.95" stop-color="#1F1912"/>
</linearGradient>
<linearGradient id="paint10_linear_2376_4576" x1="159.764" y1="247.456" x2="159.764" y2="144.689" gradientUnits="userSpaceOnUse">
<stop stop-color="#1F1912" stop-opacity="0"/>
<stop offset="0.4" stop-color="#1F1912" stop-opacity="0.1"/>
<stop offset="0.7" stop-color="#1F1912" stop-opacity="0.41"/>
<stop offset="0.98" stop-color="#1F1912" stop-opacity="0.94"/>
<stop offset="1" stop-color="#1F1912"/>
</linearGradient>
<linearGradient id="paint11_linear_2376_4576" x1="164.183" y1="39.9855" x2="164.183" y2="203.183" gradientUnits="userSpaceOnUse">
<stop stop-color="#AD8F60" stop-opacity="0"/>
<stop offset="0.1" stop-color="#AD8F60" stop-opacity="0.21"/>
<stop offset="0.29" stop-color="#AD8F60" stop-opacity="0.54"/>
<stop offset="0.44" stop-color="#AD8F60" stop-opacity="0.79"/>
<stop offset="0.56" stop-color="#AD8F60" stop-opacity="0.94"/>
<stop offset="0.63" stop-color="#AD8F60" stop-opacity="0.99"/>
<stop offset="1" stop-color="#AD8F60"/>
</linearGradient>
<linearGradient id="paint12_linear_2376_4576" x1="149.68" y1="203.183" x2="149.68" y2="39.9855" gradientUnits="userSpaceOnUse">
<stop offset="0.06" stop-color="#1F1912" stop-opacity="0"/>
<stop offset="0.6" stop-color="#1F1912" stop-opacity="0.06"/>
<stop offset="0.79" stop-color="#1F1912" stop-opacity="0.28"/>
<stop offset="0.92" stop-color="#1F1912" stop-opacity="0.66"/>
<stop offset="1" stop-color="#1F1912"/>
</linearGradient>
<linearGradient id="paint13_linear_2376_4576" x1="157.429" y1="102.982" x2="157.429" y2="64.52" gradientUnits="userSpaceOnUse">
<stop offset="0.06" stop-color="#1F1912" stop-opacity="0"/>
<stop offset="0.31" stop-color="#1F1912" stop-opacity="0.46"/>
<stop offset="0.63" stop-color="#1F1912" stop-opacity="0.87"/>
<stop offset="0.95" stop-color="#1F1912"/>
</linearGradient>
<linearGradient id="paint14_linear_2376_4576" x1="203.252" y1="188.146" x2="234.74" y2="188.146" gradientUnits="userSpaceOnUse">
<stop stop-color="white" stop-opacity="0"/>
<stop offset="0.23" stop-color="white" stop-opacity="0"/>
<stop offset="0.37" stop-color="white" stop-opacity="0.04"/>
<stop offset="0.48" stop-color="white" stop-opacity="0.1"/>
<stop offset="0.58" stop-color="white" stop-opacity="0.18"/>
<stop offset="0.67" stop-color="white" stop-opacity="0.28"/>
<stop offset="0.75" stop-color="white" stop-opacity="0.41"/>
<stop offset="0.83" stop-color="white" stop-opacity="0.56"/>
<stop offset="0.9" stop-color="white" stop-opacity="0.73"/>
<stop offset="0.97" stop-color="white" stop-opacity="0.92"/>
<stop offset="1" stop-color="white"/>
</linearGradient>
<linearGradient id="paint15_linear_2376_4576" x1="177.691" y1="189.675" x2="159.261" y2="189.675" gradientUnits="userSpaceOnUse">
<stop stop-color="#D6BC8E" stop-opacity="0.01"/>
<stop offset="0.18" stop-color="#D6BC8E" stop-opacity="0.36"/>
<stop offset="0.34" stop-color="#D6BC8E" stop-opacity="0.63"/>
<stop offset="0.47" stop-color="#D6BC8E" stop-opacity="0.83"/>
<stop offset="0.57" stop-color="#D6BC8E" stop-opacity="0.95"/>
<stop offset="0.63" stop-color="#D6BC8E" stop-opacity="0.99"/>
<stop offset="1" stop-color="#D6BC8E"/>
</linearGradient>
<linearGradient id="paint16_linear_2376_4576" x1="182.12" y1="179.559" x2="168.361" y2="179.559" gradientUnits="userSpaceOnUse">
<stop stop-color="#D6BC8E" stop-opacity="0.01"/>
<stop offset="0.18" stop-color="#D6BC8E" stop-opacity="0.36"/>
<stop offset="0.34" stop-color="#D6BC8E" stop-opacity="0.63"/>
<stop offset="0.47" stop-color="#D6BC8E" stop-opacity="0.83"/>
<stop offset="0.57" stop-color="#D6BC8E" stop-opacity="0.95"/>
<stop offset="0.63" stop-color="#D6BC8E" stop-opacity="0.99"/>
<stop offset="1" stop-color="#D6BC8E"/>
</linearGradient>
<linearGradient id="paint17_linear_2376_4576" x1="173.974" y1="187.277" x2="150.36" y2="187.277" gradientUnits="userSpaceOnUse">
<stop stop-color="#D6BC8E" stop-opacity="0.01"/>
<stop offset="0.18" stop-color="#D6BC8E" stop-opacity="0.36"/>
<stop offset="0.34" stop-color="#D6BC8E" stop-opacity="0.63"/>
<stop offset="0.47" stop-color="#D6BC8E" stop-opacity="0.83"/>
<stop offset="0.57" stop-color="#D6BC8E" stop-opacity="0.95"/>
<stop offset="0.63" stop-color="#D6BC8E" stop-opacity="0.99"/>
<stop offset="1" stop-color="#D6BC8E"/>
</linearGradient>
<radialGradient id="paint18_radial_2376_4576" cx="0" cy="0" r="1" gradientUnits="userSpaceOnUse" gradientTransform="translate(159.764 118.636) scale(64.7032)">
<stop stop-color="white" stop-opacity="0"/>
<stop offset="0.08" stop-color="white" stop-opacity="0.1"/>
<stop offset="0.34" stop-color="white" stop-opacity="0.42"/>
<stop offset="0.57" stop-color="white" stop-opacity="0.67"/>
<stop offset="0.77" stop-color="white" stop-opacity="0.85"/>
<stop offset="0.91" stop-color="white" stop-opacity="0.96"/>
<stop offset="1" stop-color="white"/>
</radialGradient>
<radialGradient id="paint19_radial_2376_4576" cx="0" cy="0" r="1" gradientUnits="userSpaceOnUse" gradientTransform="translate(159.764 118.637) scale(44.3781 44.378)">
<stop stop-color="#750D33" stop-opacity="0"/>
<stop offset="0.2" stop-color="#750D33" stop-opacity="0.15"/>
<stop offset="0.6" stop-color="#750D33" stop-opacity="0.55"/>
<stop offset="1" stop-color="#750D33"/>
</radialGradient>
<clipPath id="clip0_2376_4576">
<rect width="320" height="243" rx="16" fill="white"/>
</clipPath>
</defs>
</svg>
