<svg width="23" height="24" viewBox="0 0 23 24" fill="none" xmlns="http://www.w3.org/2000/svg">
<path d="M18.9356 1.30591H18.004C17.8607 1.30591 17.7412 1.42535 17.7412 1.56868C17.7412 2.13404 17.6536 2.69144 17.4864 3.24088C17.4307 3.4081 17.5581 3.58328 17.7412 3.58328H18.9356C19.5328 3.58328 20.0186 4.06901 20.0186 4.66623V15.3046C20.0186 15.9018 19.5328 16.3875 18.9356 16.3875H18.3305C17.7014 16.3875 17.1918 16.8972 17.1918 17.5262V20.2495L15.4798 18.6649L13.3378 16.6901C13.1228 16.491 12.8441 16.3875 12.5654 16.3875H3.36032C2.76311 16.3875 2.27737 15.9018 2.27737 15.3046V4.67419C2.27737 4.07698 2.76311 3.59124 3.36032 3.59124H4.54678C4.72196 3.59124 4.84937 3.41606 4.80159 3.24884C4.63437 2.70737 4.53882 2.14997 4.53882 1.58461C4.53882 1.43331 4.41938 1.31387 4.27605 1.31387H3.36032C1.51294 1.30591 0 2.81885 0 4.67419V15.3125C0 17.1599 1.51294 18.6729 3.36032 18.6729H12.1115L17.5501 23.6974C17.7651 23.8965 18.0438 24 18.3225 24C18.4738 24 18.633 23.9682 18.7764 23.9045C19.1904 23.7213 19.4612 23.3152 19.4612 22.8613V18.633C21.0617 18.3782 22.296 16.9847 22.296 15.3125V4.66623C22.296 2.81089 20.791 1.30591 18.9356 1.30591Z" fill="#AE9060"/>
<path d="M15.2735 13.8792C15.9023 13.8792 16.4121 13.3694 16.4121 12.7405C16.4121 12.1116 15.9023 11.6018 15.2735 11.6018C14.6446 11.6018 14.1348 12.1116 14.1348 12.7405C14.1348 13.3694 14.6446 13.8792 15.2735 13.8792Z" fill="#AE9060"/>
<path d="M7.02345 13.8792C7.65233 13.8792 8.16214 13.3694 8.16214 12.7405C8.16214 12.1116 7.65233 11.6018 7.02345 11.6018C6.39457 11.6018 5.88477 12.1116 5.88477 12.7405C5.88477 13.3694 6.39457 13.8792 7.02345 13.8792Z" fill="#AE9060"/>
<path d="M11.1485 13.8792C11.7773 13.8792 12.2871 13.3694 12.2871 12.7405C12.2871 12.1116 11.7773 11.6018 11.1485 11.6018C10.5196 11.6018 10.0098 12.1116 10.0098 12.7405C10.0098 13.3694 10.5196 13.8792 11.1485 13.8792Z" fill="#AE9060"/>
<path d="M10.5178 9.0856C10.6771 9.22097 10.8761 9.29264 11.0752 9.29264C11.2743 9.29264 11.4574 9.22893 11.6167 9.10153C13.7348 7.37359 14.8735 5.91639 15.4389 4.72993C15.8848 3.79827 15.9724 3.03384 15.9246 2.45255C15.9007 2.18182 15.845 1.95886 15.7733 1.75979C15.415 0.732581 14.4833 0.0557399 13.4083 0.047777C12.405 0.0398142 11.6645 0.366291 11.1548 0.788321C10.908 0.573325 10.5974 0.382216 10.2232 0.238885C9.84894 0.0955541 9.41894 0.00796284 8.91729 0H8.88543C7.81841 0 6.89472 0.652953 6.51251 1.66423C6.43288 1.87923 6.36121 2.14997 6.33733 2.46052C6.28955 3.04977 6.3851 3.80624 6.82306 4.73789C7.38046 5.91639 8.47137 7.37359 10.5019 9.09356L10.5178 9.0856ZM8.09711 2.45255C8.10508 2.38885 8.12896 2.32515 8.15285 2.26145C8.30415 1.8633 8.63859 1.71997 8.90932 1.71997H8.91729C9.89671 1.72794 10.255 2.28534 10.3426 2.45255C10.3426 2.46052 10.3506 2.46848 10.3586 2.47644C10.478 2.81885 10.7886 3.04977 11.1548 3.05773C11.5211 3.05773 11.8317 2.83477 11.9591 2.49237C11.9591 2.48441 11.975 2.46848 11.983 2.44459C12.0865 2.26941 12.4607 1.76775 13.3844 1.76775H13.4083C13.6791 1.76775 14.0215 1.91904 14.1568 2.32515C14.1728 2.36496 14.1807 2.40478 14.1887 2.44459C14.3081 2.96218 14.125 3.74254 13.4641 4.72196C12.9704 5.46251 12.2059 6.3225 11.0991 7.286C10.04 6.3225 9.2995 5.46251 8.82173 4.72196C8.1847 3.74254 8.00156 2.97014 8.10508 2.44459L8.09711 2.45255Z" fill="#AE9060"/>
</svg>
