<svg width="27" height="24" viewBox="0 0 27 24" fill="none" xmlns="http://www.w3.org/2000/svg">
<path d="M22.4229 0H3.96975C1.78215 0 0 1.79157 0 3.96974V17.3311C0 19.5281 1.78215 21.3008 3.96975 21.3008H7.27002C7.62833 21.3008 7.93007 21.0085 7.93007 20.6408V19.4244C7.93007 19.0661 7.63776 18.7643 7.27002 18.7643H3.96975C3.17769 18.7643 2.52706 18.1231 2.52706 17.3216V3.97917C2.52706 3.18711 3.16826 2.53648 3.96975 2.53648H22.4229C23.215 2.53648 23.8656 3.17768 23.8656 3.97917V17.3405C23.8656 18.1326 23.2244 18.7832 22.4229 18.7832H19.1227C18.7644 18.7832 18.4626 19.0755 18.4626 19.4432V20.6596C18.4626 21.0179 18.7549 21.3197 19.1227 21.3197H22.4229C24.6105 21.3197 26.3927 19.5375 26.3927 17.3499V3.97917C26.3927 1.79157 24.6105 0.0094293 22.4229 0.0094293V0Z" fill="#AE9060"/>
<path d="M15.2075 18.2929V16.1242C15.2075 15.7564 14.9152 15.4641 14.5475 15.4641H11.8507C11.4829 15.4641 11.1906 15.7564 11.1906 16.1242V18.2929C11.1906 18.5758 10.9643 18.8021 10.6815 18.8021H9.52164C9.20105 18.8021 9.03132 19.1698 9.22933 19.415L12.9068 23.8656C13.0576 24.0448 13.3311 24.0448 13.482 23.8656L17.1594 19.415C17.3574 19.1698 17.1877 18.8021 16.8671 18.8021H15.7073C15.4244 18.8021 15.1981 18.5758 15.1981 18.2929H15.2075Z" fill="#AE9060"/>
<path d="M10.4667 9.59912H5.96895C5.27633 9.59912 4.71484 10.1585 4.71484 10.8485C4.71484 11.5385 5.27633 12.0979 5.96895 12.0979H10.4667C11.1594 12.0979 11.7208 11.5385 11.7208 10.8485C11.7208 10.1585 11.1594 9.59912 10.4667 9.59912Z" fill="#AE9060"/>
<path d="M10.4667 5.94995H5.96895C5.27633 5.94995 4.71484 6.50932 4.71484 7.19933C4.71484 7.88935 5.27633 8.44872 5.96895 8.44872H10.4667C11.1594 8.44872 11.7208 7.88935 11.7208 7.19933C11.7208 6.50932 11.1594 5.94995 10.4667 5.94995Z" fill="#AE9060"/>
<path d="M19.2834 13.6632H15.6154C14.2859 13.6632 13.2109 12.5882 13.2109 11.2587V6.79864C13.2109 5.46911 14.2859 4.39417 15.6154 4.39417H19.2834C20.613 4.39417 21.6879 5.46911 21.6879 6.79864V11.2587C21.6879 12.5882 20.613 13.6632 19.2834 13.6632ZM16.068 6.70434C15.7757 6.70434 15.5306 6.94951 15.5306 7.24182V10.8061C15.5306 11.0984 15.7757 11.3436 16.068 11.3436H18.8308C19.1231 11.3436 19.3683 11.0984 19.3683 10.8061V7.24182C19.3683 6.94951 19.1231 6.70434 18.8308 6.70434H16.068Z" fill="#AE9060"/>
</svg>
