<svg width="36" height="36" viewBox="0 0 36 36" fill="none" xmlns="http://www.w3.org/2000/svg">
<path opacity="0.6" d="M18.0011 27.8229C25.1329 27.8229 30.9144 22.0414 30.9144 14.9096C30.9144 7.77783 25.1329 1.99637 18.0011 1.99637C10.8693 1.99637 5.08789 7.77783 5.08789 14.9096C5.08789 22.0414 10.8693 27.8229 18.0011 27.8229Z" fill="url(#paint0_radial_3580_2349)"/>
<path d="M18.2307 33.051C27.1235 33.051 34.3325 31.2263 34.3325 28.9753C34.3325 26.7244 27.1235 24.8996 18.2307 24.8996C9.33794 24.8996 2.12891 26.7244 2.12891 28.9753C2.12891 31.2263 9.33794 33.051 18.2307 33.051Z" fill="url(#paint1_linear_3580_2349)"/>
<path opacity="0.3" d="M31.639 15.3772C31.639 15.3772 29.5818 15.1072 28.7671 15.6273L28.2003 15.6764C28.2003 15.6764 27.7187 14.8454 26.7275 14.7098L26.7042 14.7355L26.6574 14.2247C26.7474 14.2551 26.8538 14.2738 26.9823 14.2773C26.9823 14.2773 28.427 14.4269 29.2966 13.417C29.2966 13.417 29.7899 12.7882 28.8501 11.6579C28.8501 11.6579 28.489 11.3985 28.2762 10.8164C28.2762 10.8199 28.2739 10.8246 28.2727 10.8281C28.2949 10.7416 28.3078 10.6528 28.309 10.5628C28.309 10.5628 28.309 10.5581 28.309 10.5557C28.309 10.3699 28.2423 10.1677 28.0997 10.0578C28.1091 10.0648 28.1196 10.0718 28.129 10.08C28.122 9.96081 28.1196 9.80769 28.1255 9.6499C28.143 9.51431 28.1558 9.37756 28.164 9.24314C28.164 9.24198 28.164 9.24081 28.164 9.23964C28.1722 9.08652 28.1757 8.93457 28.171 8.78379C28.1664 8.61431 28.1453 8.45185 28.1091 8.29405C27.5445 5.76821 23.2888 4.76418 21.8126 7.13925C21.6384 7.4186 21.5227 7.726 21.4421 8.04275C21.4421 8.04275 19.0191 9.10172 19.5918 9.74574C19.5918 9.74574 19.8244 10.3126 20.9336 10.0917C20.4322 11.1308 19.6152 13.2148 20.7794 13.8086C21.5718 14.213 22.1235 14.1686 22.5922 13.9886C22.7313 14.1511 22.8914 14.2925 23.0784 14.3837C23.172 14.4292 23.2725 14.4631 23.38 14.4807C23.387 14.4807 23.394 14.4818 23.401 14.483C23.4349 14.4877 23.4677 14.4935 23.5016 14.4959C23.5062 14.4959 23.5109 14.4959 23.5156 14.4959C23.5413 14.4982 23.567 14.4994 23.5927 14.5005C23.6126 14.5005 23.6313 14.5017 23.6512 14.5029C23.6687 14.5029 23.6862 14.5052 23.7038 14.5041C23.754 14.5041 23.8055 14.4994 23.8569 14.4947C23.8662 14.4947 23.8768 14.4924 23.8861 14.4912C23.8966 14.49 23.9083 14.4889 23.9188 14.4877L23.9632 14.919L23.9866 15.2311C23.2444 15.355 23.096 15.9417 23.0679 16.1217L22.4181 16.179C22.4181 16.179 21.0856 16.2257 20.6333 16.5729C20.6192 16.5799 20.6052 16.5881 20.5912 16.5963C20.3399 16.6196 16.5131 17.072 15.0112 23.4702C15.0112 23.4702 12.9692 32.4199 18.5294 29.0338H28.4294C30.753 31.0477 32.2351 30.7005 33.1865 29.0338C33.2484 28.9274 33.3057 28.8152 33.3618 28.6995C34.0269 27.3226 34.6265 22.8016 34.6265 22.8016C34.997 18.6382 33.5278 15.1574 31.6401 15.3737L31.639 15.3772ZM19.3931 24.5572C19.3931 24.5572 19.392 24.5478 19.392 24.5443C19.3908 24.535 19.3908 24.5315 19.3908 24.5315C18.9981 21.2096 18.1647 17.0486 16.4255 16.2702L13.8914 15.6261C13.8914 15.6261 14.0492 15.1037 13.8645 14.6747C13.8645 14.6747 13.8645 14.6735 13.8634 14.6724C13.8505 14.6431 13.8365 14.6151 13.8213 14.587C13.8155 14.5754 13.8084 14.5648 13.8014 14.5531C13.7874 14.5298 13.771 14.5076 13.7535 14.4854C13.7442 14.4737 13.7348 14.462 13.7255 14.4515C13.7056 14.4281 13.6846 14.407 13.6612 14.3848C13.653 14.3778 13.6448 14.3708 13.6366 14.3638C13.6086 14.3392 13.577 14.317 13.5431 14.296C13.542 14.296 13.5408 14.2937 13.5396 14.2937C13.5571 14.2937 13.5747 14.2925 13.5922 14.2925C13.6121 14.2925 13.6308 14.2925 13.6507 14.2902C13.6764 14.289 13.7021 14.2878 13.7278 14.2855C13.764 14.282 13.8003 14.2773 13.8365 14.2726C13.8458 14.2715 13.854 14.2703 13.8634 14.2691C14.4373 14.1733 14.7996 13.6379 15.0556 13.1611C15.5558 12.2389 15.8597 11.2395 15.9603 10.2308C16.547 10.2589 16.5727 9.93626 16.5727 9.93626C16.5727 9.93626 17.2051 7.2573 15.2262 6.64133C13.4905 4.51055 9.15416 5.81029 9.07234 8.57107C9.06767 8.73938 9.07234 8.91003 9.08286 9.08185C8.62585 9.31678 8.31143 9.7925 8.31143 10.3418C8.31143 10.4435 8.32312 10.5441 8.34299 10.6399C8.25299 10.7346 8.16182 10.8281 8.08 10.9298C7.62533 11.4908 7.45936 12.2739 7.64987 12.9705C7.83923 13.6672 8.37923 14.2598 9.05481 14.5122C9.13663 14.5426 9.22195 14.5672 9.30728 14.5882C8.81637 14.8302 7.4652 15.3748 5.60442 15.1633C3.71676 14.947 2.24754 18.4278 2.61806 22.5912C2.61806 22.5912 3.21767 27.1122 3.88273 28.4891C3.93884 28.6048 3.99611 28.7182 4.05806 28.8234C5.00948 30.4902 6.49156 30.8361 8.8152 28.8234H14.2736C14.2736 28.8234 15.7452 30.8502 17.7381 29.8368C18.16 29.6217 18.4779 29.2605 18.7152 28.8234C19.5521 27.2922 19.4142 24.8354 19.3955 24.5572H19.3931ZM27.1635 11.0057C27.167 10.9976 27.1705 10.9882 27.1729 10.98C27.1694 10.9882 27.1658 10.9976 27.1635 11.0057ZM27.0186 10.0368C27.0186 10.0368 27.0151 10.0344 27.0127 10.0344C27.0151 10.0344 27.0162 10.0368 27.0186 10.0379V10.0368Z" fill="#A98B60"/>
<path d="M26.6253 12.4469C26.5225 12.572 26.3624 12.752 26.159 12.9577C26.014 13.1014 25.8492 13.2546 25.6669 13.41C25.4495 13.597 25.2064 13.7829 24.9481 13.9477C24.352 14.3275 23.674 14.5894 23.0288 14.4818C22.4549 14.386 22.0938 13.8507 21.8366 13.3738C21.2101 12.2213 20.8911 10.9461 20.8946 9.68378C20.8957 9.37287 20.9156 9.06547 20.9553 8.76157C20.9682 8.66924 20.9799 8.58157 20.9974 8.49041L20.9986 8.4869C21.0769 8.01586 21.2078 7.54833 21.4626 7.14041C22.9388 4.76534 27.1946 5.76937 27.7591 8.29521C27.7953 8.453 27.8164 8.61547 27.8211 8.78495C27.8561 10.0391 27.4388 11.4534 26.6253 12.4469Z" fill="#1F1912"/>
<path d="M27.7597 8.29521L25.906 9.12625L20.998 8.49041L20.9992 8.4869C21.0775 8.01586 21.2084 7.54833 21.4632 7.14041C22.9395 4.76534 27.1952 5.76937 27.7597 8.29521Z" fill="#1F1912"/>
<path d="M19.2402 9.74689C19.2402 9.74689 19.6049 10.6422 21.6153 9.74689L21.3161 8.3139L19.8387 8.92403L19.2402 9.74572V9.74689Z" fill="#A98B60"/>
<path d="M20.8952 9.49326C20.8952 9.49326 18.8579 13.0091 20.4289 13.8109C21.8513 14.5368 22.4977 13.8179 23.2796 13.4591L20.8952 9.49326Z" fill="#1F1912"/>
<path d="M34.2761 22.8051C34.2761 22.8051 33.6764 27.3261 33.0114 28.703C32.9553 28.8187 32.898 28.9309 32.8361 29.0373C31.8846 30.704 30.4026 31.0512 28.0789 29.0373H18.1789C13.804 22.403 18.7271 17.2625 20.4663 16.484L21.4364 16.2374L30.939 15.4075C31.0536 15.4005 31.1705 15.39 31.2897 15.3771C33.1774 15.1609 34.6466 18.6417 34.2761 22.8051Z" fill="white"/>
<path opacity="0.5" d="M29.7766 22.2347C29.7766 22.2347 30.5738 18.8918 29.2845 19.0578L28.748 20.7994C28.748 20.7994 29.4458 22.2744 29.7766 22.2347Z" fill="#D2B88A"/>
<path d="M20.2539 16.5986C20.2539 16.5986 16.2145 16.8557 14.6611 23.4736C14.6611 23.4736 12.6191 32.4234 18.1793 29.0373L22.1837 22.8939L20.2551 16.5986H20.2539Z" fill="white"/>
<path d="M24.5476 17.8574C24.7174 17.8574 24.855 17.7198 24.855 17.55C24.855 17.3802 24.7174 17.2426 24.5476 17.2426C24.3779 17.2426 24.2402 17.3802 24.2402 17.55C24.2402 17.7198 24.3779 17.8574 24.5476 17.8574Z" fill="#750D33"/>
<path d="M24.4246 19.0566C24.5944 19.0566 24.732 18.919 24.732 18.7492C24.732 18.5795 24.5944 18.4418 24.4246 18.4418C24.2548 18.4418 24.1172 18.5795 24.1172 18.7492C24.1172 18.919 24.2548 19.0566 24.4246 19.0566Z" fill="#750D33"/>
<path d="M22.0664 16.1825L23.5286 21.4527C23.6151 21.766 24.0266 21.8373 24.2147 21.5719C24.2147 21.5719 26.8832 16.6079 28.4167 15.6284C29.2302 15.1083 31.2885 15.3783 31.2885 15.3783C31.2885 15.3783 28.7124 19.2004 29.7772 22.2358L28.0777 29.0384H18.1777C18.1777 29.0384 18.304 18.3016 20.2536 16.5997C20.6755 16.2316 22.0664 16.1836 22.0664 16.1836V16.1825Z" fill="#1F1912"/>
<path d="M22.0664 16.1825L23.5286 21.4527C23.6151 21.766 24.0266 21.8373 24.2147 21.5719C24.2147 21.5719 26.8832 16.6079 28.4167 15.6284C29.2302 15.1083 31.2885 15.3783 31.2885 15.3783C31.2885 15.3783 28.7124 19.2004 29.7772 22.2358L28.0777 29.0384H18.1777C18.1777 29.0384 18.304 18.3016 20.2536 16.5997C20.6755 16.2316 22.0664 16.1836 22.0664 16.1836V16.1825Z" fill="url(#paint2_linear_3580_2349)"/>
<path d="M26.5135 16.4571L23.7468 16.74L23.6124 14.9236L23.3494 12.3545L23.2793 11.6708L26.0459 11.3856L26.5135 16.4571Z" fill="#F8CEA3"/>
<path d="M25.7481 13.306C25.7481 13.306 24.9369 14.8091 23.6126 14.9236L23.3496 12.3557L23.4303 12.1827L25.7469 13.3072L25.7481 13.306Z" fill="#D2B88A"/>
<path d="M27.9582 10.5639C27.9605 10.3348 27.8635 10.0777 27.6473 10.0017C27.5222 9.95612 27.3831 9.98183 27.2569 10.0181C26.9951 10.0975 26.787 10.2331 26.5708 10.3898C26.531 10.419 26.4983 10.4494 26.4656 10.4774C26.4177 10.0999 26.3078 9.72703 26.0764 9.41027C25.7643 8.98482 25.2687 8.7043 24.7649 8.49157C24.0484 8.19352 23.2653 8.00651 22.4892 8.04859C21.9539 8.07664 21.4431 8.2356 20.9966 8.48807C20.9791 8.57923 20.9662 8.66807 20.9534 8.7604C20.9148 9.0643 20.8949 9.3717 20.8926 9.68261C20.8891 10.9449 21.2082 12.2201 21.8347 13.3726C22.0918 13.8495 22.453 14.3848 23.0281 14.4807C23.6721 14.5882 24.35 14.3264 24.9461 13.9465C25.2044 13.7829 25.4475 13.597 25.6649 13.4088C25.9595 13.0442 26.1757 12.6234 26.3136 12.1781C26.5684 12.1874 26.8244 12.1243 27.0442 11.9957C27.2627 11.8683 27.4439 11.679 27.5935 11.4756C27.7922 11.2103 27.9523 10.897 27.9582 10.5627V10.5639Z" fill="white"/>
<path d="M27.9598 10.5639C27.9539 10.8982 27.7926 11.2114 27.5951 11.4756C27.4455 11.6801 27.2643 11.8683 27.0458 11.9957C26.8284 12.1243 26.5712 12.1874 26.3164 12.1781C26.1773 12.6234 25.9623 13.0442 25.6677 13.41C25.4503 13.597 25.2072 13.784 24.9489 13.9477C24.5176 14.2223 24.0419 14.4362 23.5685 14.4923C23.496 14.5017 23.4235 14.5064 23.3534 14.5075C23.2447 14.5087 23.1372 14.5005 23.0297 14.483C22.4558 14.3871 22.0934 13.8518 21.8374 13.3749C21.211 12.2213 20.8919 10.9473 20.8965 9.68494C20.8965 9.37403 20.9176 9.06663 20.9561 8.76273C20.969 8.67156 20.9807 8.58039 20.9994 8.49039C21.4471 8.23676 21.9578 8.07897 22.492 8.04975C23.2681 8.00767 24.0512 8.19468 24.7677 8.49273C25.2715 8.70546 25.7671 8.98598 26.0791 9.41026C26.3094 9.72702 26.4193 10.0999 26.4684 10.4774C26.4999 10.4482 26.5338 10.419 26.5724 10.3897C26.7886 10.2331 26.999 10.0964 27.2597 10.0181C27.3859 9.98065 27.525 9.95611 27.65 10.0017C27.8663 10.0777 27.9621 10.336 27.961 10.5639H27.9598Z" fill="url(#paint3_linear_3580_2349)"/>
<path d="M27.7789 10.0812C27.7415 10.0473 27.6982 10.0192 27.648 10.0017C27.5229 9.95611 27.3838 9.98066 27.2576 10.0181C26.9969 10.0975 26.7877 10.2331 26.5703 10.3909C26.5317 10.4201 26.499 10.4494 26.4663 10.4786C25.0111 10.6387 24.7656 8.49274 24.7656 8.49274L27.8139 9.24079C27.7672 9.5178 27.7648 9.85793 27.7789 10.0812Z" fill="#1F1912"/>
<path d="M28.9469 13.4182C28.0773 14.4281 26.6326 14.2784 26.6326 14.2784C25.5491 14.2516 25.9254 13.133 26.0996 12.7227C26.1265 12.6608 26.1487 12.6152 26.1604 12.5907C26.1627 12.5883 26.1627 12.586 26.1639 12.5836C26.165 12.5801 26.1662 12.5766 26.1674 12.5755L26.3147 12.1792C26.5683 12.1886 26.8254 12.1255 27.0428 11.9969C27.2626 11.8695 27.4426 11.6801 27.5934 11.4768C27.7406 11.2792 27.8669 11.056 27.9253 10.8175C28.138 11.3996 28.4992 11.6591 28.4992 11.6591C29.4389 12.7894 28.9457 13.4182 28.9457 13.4182H28.9469Z" fill="#1F1912"/>
<path d="M26.1604 12.5907C26.1429 12.6351 26.123 12.6783 26.0996 12.7227C26.1265 12.6608 26.1487 12.6152 26.1604 12.5907Z" fill="url(#paint4_linear_3580_2349)"/>
<path d="M26.3152 12.1792C26.2732 12.3136 26.2241 12.4457 26.168 12.5743L26.3152 12.1792Z" fill="url(#paint5_linear_3580_2349)"/>
<path d="M27.2628 10.5534C27.015 10.6422 26.7123 10.8339 26.6328 11.25C26.6328 11.25 27.0302 11.271 26.8818 11.6579C26.8818 11.6579 27.3937 11.3342 27.562 10.8491C27.6251 10.6656 27.4463 10.4868 27.264 10.5522L27.2628 10.5534Z" fill="url(#paint6_linear_3580_2349)"/>
<path d="M22.1816 12.4165C22.1816 12.4165 22.6059 12.8747 23.5211 12.3896C23.5211 12.3896 22.4715 13.2744 22.1816 12.4165Z" fill="#750D33"/>
<path d="M23.7471 11.3856C23.8717 11.3856 23.9727 11.2187 23.9727 11.0127C23.9727 10.8068 23.8717 10.6399 23.7471 10.6399C23.6225 10.6399 23.5215 10.8068 23.5215 11.0127C23.5215 11.2187 23.6225 11.3856 23.7471 11.3856Z" fill="#1F1912"/>
<path d="M21.8408 11.4347C21.9654 11.4347 22.0664 11.2677 22.0664 11.0618C22.0664 10.8559 21.9654 10.689 21.8408 10.689C21.7162 10.689 21.6152 10.8559 21.6152 11.0618C21.6152 11.2677 21.7162 11.4347 21.8408 11.4347Z" fill="#1F1912"/>
<path d="M27.7597 8.29521L25.906 9.12625L20.998 8.49041L20.9992 8.4869C21.0775 8.01586 21.2084 7.54833 21.4632 7.14041C22.9395 4.76534 27.1952 5.76937 27.7597 8.29521Z" fill="url(#paint7_linear_3580_2349)"/>
<path d="M19.2399 9.74691C19.2399 9.74691 20.8938 7.49574 23.9714 9.93509C23.9714 9.93509 25.0257 10.5815 25.9046 9.12509C25.9046 9.12509 24.5406 6.93587 21.0902 8.04276C21.0902 8.04276 18.6672 9.10172 19.2399 9.74574V9.74691Z" fill="#1F1912"/>
<path d="M26.3775 14.7098L24.6406 16.6477L25.5453 18.4407L27.8491 15.6752C27.8491 15.6752 27.3675 14.8442 26.3763 14.7086L26.3775 14.7098Z" fill="white"/>
<path d="M23.6425 15.2334L24.6418 16.6477L23.1516 18.1567L22.7109 16.1778C22.7109 16.1778 22.7577 15.376 23.6425 15.2322V15.2334Z" fill="white"/>
<path d="M8.21097 10.2495C8.03798 10.4973 7.80187 10.6948 7.61135 10.9298C7.15668 11.4908 6.99071 12.2739 7.18122 12.9705C7.37174 13.6672 7.91058 14.2598 8.58616 14.5122C8.8246 14.6011 9.07824 14.6501 9.33187 14.6478C9.96187 14.6396 10.5627 14.303 10.9601 13.8144C11.3575 13.3259 11.5632 12.7005 11.6146 12.0729C11.6333 11.8473 11.6321 11.6159 11.5608 11.4008C11.4907 11.1869 11.3551 11.0011 11.2078 10.8304C10.759 10.3091 10.1933 9.91405 9.5633 9.64288C8.72993 9.28288 8.68551 9.56807 8.21097 10.2507V10.2495Z" fill="#1F1912"/>
<path d="M10.6057 15.9101C10.1218 15.1434 9.57242 14.372 8.77645 13.9383C8.1558 13.5994 7.41125 13.4942 6.72164 13.6473C6.03203 13.8004 5.40203 14.2107 4.98242 14.7799L4.9871 15.2579C5.02216 15.3432 5.08528 15.4145 5.15073 15.4812C5.80762 16.1497 6.74853 16.4817 7.68125 16.5682C8.61398 16.6547 9.55255 16.5168 10.4771 16.3625C10.539 16.352 10.6045 16.3403 10.6489 16.297C10.7506 16.1988 10.6805 16.0294 10.6057 15.9101Z" fill="white"/>
<path d="M9.25842 11.7584C10.0408 11.7584 10.675 11.1242 10.675 10.3418C10.675 9.55945 10.0408 8.9252 9.25842 8.9252C8.47604 8.9252 7.8418 9.55945 7.8418 10.3418C7.8418 11.1242 8.47604 11.7584 9.25842 11.7584Z" fill="#750D33"/>
<path d="M9.79945 12.233C9.90231 12.3581 10.0624 12.5381 10.2658 12.7426C10.4108 12.8875 10.5756 13.0407 10.7579 13.1949C10.9753 13.3831 11.2184 13.569 11.4767 13.7326C12.0728 14.1125 12.7508 14.3755 13.3948 14.2668C13.9687 14.1709 14.3298 13.6356 14.5882 13.1587C15.2146 12.0062 15.5337 10.7311 15.5302 9.46872C15.5291 9.15781 15.5092 8.8504 15.4695 8.54651C15.4566 8.45417 15.4437 8.36534 15.4262 8.27417V8.27183C15.3467 7.80079 15.2158 7.33326 14.9622 6.92534C13.3936 4.40183 8.68906 5.69222 8.60374 8.56988C8.5675 9.82404 8.98478 11.2383 9.79945 12.233Z" fill="#1F1912"/>
<path d="M16.1048 9.93624C16.1048 9.93624 16.0534 10.6025 14.3574 9.93624L15.6291 8.75455L16.1048 9.93624Z" fill="#A98B60"/>
<path d="M9.91016 15.7383L12.6768 16.0224L12.8124 14.7098L13.0742 12.1418L13.1455 11.4569L10.3777 11.1729L9.91016 15.7383Z" fill="#F8CEA3"/>
<path d="M10.6758 13.0921C10.6758 13.0921 11.4869 14.5952 12.8112 14.7098L13.0742 12.1419L12.9936 11.9689L10.6769 13.0933L10.6758 13.0921Z" fill="#D2B88A"/>
<path d="M7.66102 14.2422C7.63413 14.185 7.60374 14.123 7.54647 14.0973C7.47985 14.0669 7.39686 14.0973 7.3466 14.1511C7.29634 14.2048 7.26946 14.2761 7.24608 14.3463C7.20751 14.4573 7.16894 14.5707 7.15491 14.6876C7.12102 14.9692 7.22621 15.2486 7.33024 15.5128C7.3466 15.5537 7.36297 15.5946 7.39335 15.625C7.43777 15.6694 7.50206 15.6846 7.56284 15.6974C7.65517 15.7173 7.74985 15.7372 7.84452 15.7313C8.14608 15.7115 8.23959 15.3947 8.11452 15.1574C7.95673 14.8559 7.80712 14.5531 7.66219 14.2434L7.66102 14.2422Z" fill="#F8CEA3"/>
<path d="M18.2445 28.8234C18.0072 29.2606 17.6893 29.6217 17.2674 29.8368C15.2745 30.8513 13.8029 28.8234 13.8029 28.8234H8.3445C6.02086 30.8361 4.53878 30.4902 3.58735 28.8234C3.52657 28.7171 3.46813 28.6048 3.41203 28.4891C2.74696 27.1122 2.14735 22.5912 2.14735 22.5912C1.77683 18.4278 3.24605 14.9471 5.13372 15.1633C7.49826 15.4333 9.03995 14.4795 9.03995 14.4795C9.14631 12.8689 10.1889 13.0115 10.1889 13.0115L10.1293 13.5982C10.9346 15.0254 12.8106 14.7098 12.8106 14.7098L12.8632 14.1967C13.7644 14.5029 13.4242 15.6273 13.4242 15.6273L15.9583 16.2713C17.6963 17.0498 18.5309 21.2108 18.9236 24.5326C18.9236 24.5326 18.9236 24.5361 18.9248 24.5455C18.9248 24.549 18.9248 24.5537 18.9259 24.5583C18.9435 24.8365 19.0814 27.2934 18.2445 28.8246V28.8234Z" fill="#A98B60"/>
<path d="M18.2445 28.8234C18.0072 29.2606 17.6893 29.6217 17.2674 29.8368C15.2745 30.8513 13.8029 28.8234 13.8029 28.8234H8.3445C6.02086 30.8361 4.53878 30.4902 3.58735 28.8234C3.52657 28.7171 3.46813 28.6048 3.41203 28.4891C2.74696 27.1122 2.14735 22.5912 2.14735 22.5912C1.77683 18.4278 3.24605 14.9471 5.13372 15.1633C7.49826 15.4333 9.03995 14.4795 9.03995 14.4795C9.14631 12.8689 10.1889 13.0115 10.1889 13.0115L10.1293 13.5982C10.9346 15.0254 12.8106 14.7098 12.8106 14.7098L12.8632 14.1967C13.7644 14.5029 13.4242 15.6273 13.4242 15.6273L15.9583 16.2713C17.6963 17.0498 18.5309 21.2108 18.9236 24.5326C18.9236 24.5326 18.9236 24.5361 18.9248 24.5455C18.9248 24.549 18.9248 24.5537 18.9259 24.5583C18.9435 24.8365 19.0814 27.2934 18.2445 28.8246V28.8234Z" fill="url(#paint8_linear_3580_2349)"/>
<path d="M5.41602 25.8429C6.8303 23.2492 9.33511 21.5778 9.33511 21.5778" stroke="#A98B60" stroke-width="0.5" stroke-linecap="round" stroke-linejoin="round"/>
<path d="M6.94517 23.7109C6.94517 23.7109 6.15154 22.645 4.79102 23.7109" stroke="#A98B60" stroke-width="0.5" stroke-linecap="round" stroke-linejoin="round"/>
<path d="M14.6602 21.5778C14.6602 21.5778 17.3169 24.8389 16.937 27.0211" stroke="#A98B60" stroke-width="0.5" stroke-linecap="round" stroke-linejoin="round"/>
<path d="M17.8852 25.5893C17.8852 25.5893 17.7507 23.6584 15.9355 23.4737" stroke="#A98B60" stroke-width="0.5" stroke-linecap="round" stroke-linejoin="round"/>
<path d="M13.803 28.8234H8.3457C10.2486 27.3401 11.5273 23.7425 11.5273 23.7425L11.1404 23.3182L11.1719 22.9886L11.9971 22.2347L13.1449 23.0377L12.5266 23.7892C12.4238 25.1427 13.339 27.6557 13.803 28.8246V28.8234Z" fill="url(#paint9_linear_3580_2349)"/>
<path opacity="0.5" d="M12.8125 14.7098C12.8125 14.7098 13.0802 14.7156 13.3981 14.6747C13.3373 14.5274 13.2344 14.393 13.072 14.2925C13.0007 14.2913 12.9294 14.2867 12.8569 14.2773L12.8125 14.7086V14.7098Z" fill="#1F1912"/>
<path opacity="0.5" d="M11.3828 16.5448C11.3828 16.5448 13.1372 17.5921 14.0583 15.7886L13.4236 15.6273C13.4236 15.6273 13.0367 16.9714 11.3828 16.5448Z" fill="url(#paint10_linear_3580_2349)"/>
<path d="M8.46293 10.3512C8.46059 10.1221 8.55761 9.86494 8.77384 9.78896C8.89891 9.74338 9.038 9.76909 9.16423 9.80533C9.42605 9.88481 9.6341 10.0204 9.85033 10.177C9.89007 10.2062 9.9228 10.2366 9.95553 10.2647C10.0035 9.88715 10.1133 9.51429 10.3447 9.19754C10.6568 8.77208 11.1524 8.49156 11.6562 8.27883C12.3727 7.98078 13.1558 7.79377 13.9319 7.83585C14.4672 7.8639 14.978 8.02286 15.4245 8.27533C15.442 8.3665 15.4549 8.45533 15.4677 8.54767C15.5063 8.85156 15.5262 9.15896 15.5285 9.46987C15.532 10.7322 15.2129 12.0074 14.5864 13.1599C14.3293 13.6368 13.9681 14.1721 13.3931 14.2679C12.749 14.3755 12.0711 14.1136 11.475 13.7338C11.2167 13.5701 10.9736 13.3843 10.7562 13.1961C10.4616 12.8314 10.2454 12.4107 10.1075 11.9653C9.85267 11.9747 9.5967 11.9116 9.37696 11.783C9.15839 11.6556 8.97722 11.4662 8.82761 11.2629C8.62891 10.9975 8.46878 10.6843 8.46293 10.35V10.3512Z" fill="white"/>
<path d="M8.46407 10.35C8.46991 10.6843 8.63121 10.9975 8.82875 11.2617C8.97836 11.4662 9.15952 11.6544 9.3781 11.7818C9.5955 11.9104 9.85264 11.9735 10.1074 11.9642C10.2465 12.4095 10.4616 12.8303 10.7561 13.1961C10.9736 13.3831 11.2167 13.5701 11.475 13.7338C11.9063 14.0084 12.382 14.2223 12.8554 14.2784C12.9278 14.2878 13.0003 14.2925 13.0704 14.2936C13.1791 14.2948 13.2867 14.2866 13.3942 14.2691C13.9681 14.1733 14.3304 13.6379 14.5864 13.161C15.2129 12.0074 15.532 10.7334 15.5273 9.47104C15.5273 9.16013 15.5063 8.85273 15.4677 8.54883C15.4549 8.45767 15.4432 8.3665 15.4245 8.2765C14.9768 8.02286 14.466 7.86507 13.9319 7.83585C13.1558 7.79377 12.3726 7.98078 11.6561 8.27883C11.1524 8.49156 10.6568 8.77208 10.3447 9.19637C10.1145 9.51312 10.0046 9.88598 9.9555 10.2635C9.92394 10.2343 9.89004 10.2051 9.85147 10.1758C9.63524 10.0192 9.42485 9.88247 9.1642 9.80416C9.03797 9.76676 8.89888 9.74221 8.77381 9.7878C8.55758 9.86377 8.46173 10.1221 8.4629 10.35H8.46407Z" fill="url(#paint11_linear_3580_2349)"/>
<path d="M9.95703 10.2635L10.4246 10.9636V9.49326L9.95703 10.2635Z" fill="#1F1912"/>
<path d="M16.1037 9.93625C15.5999 9.67443 15.0435 9.53534 14.4778 9.47807L14.6602 8.45301L14.1272 9.45119C13.5392 9.4243 12.9525 9.47807 12.4113 9.5669L12.2617 8.58859L12.0642 9.63119C10.8568 9.8743 9.95677 10.2647 9.95677 10.2647L9.25781 9.29106L9.7008 7.83119L14.7572 6.64249C16.736 7.25846 16.1037 9.93742 16.1037 9.93742V9.93625Z" fill="#1F1912"/>
<path d="M13.0091 10.5721C13.0091 10.5721 12.6526 11.1986 11.707 10.8397C11.707 10.8397 12.8326 11.6322 13.0091 10.5721Z" fill="#1F1912"/>
<path d="M15.0877 10.5592C15.0877 10.5592 14.8715 11.2535 14.1328 10.8725C14.1328 10.8725 15.0258 11.693 15.0877 10.5592Z" fill="#1F1912"/>
<path d="M9.16177 10.3407C9.40956 10.4295 9.71229 10.6212 9.79177 11.0373C9.79177 11.0373 9.39436 11.0583 9.54281 11.4452C9.54281 11.4452 9.03086 11.1215 8.86255 10.6364C8.79943 10.4529 8.97826 10.2741 9.1606 10.3395L9.16177 10.3407Z" fill="url(#paint12_linear_3580_2349)"/>
<path d="M13.8148 19.7381C13.5448 18.9783 12.8529 18.3366 12.8529 18.3366C12.5993 18.3203 12.3807 18.5389 12.7512 19.1642C13.1229 19.7883 13.0048 19.9917 13.0048 19.9917C10.6578 17.4086 10.2873 17.8142 10.2873 17.8142C10.1096 17.9252 10.188 18.1672 10.3726 18.443C9.74146 17.9194 9.62925 18.1683 9.62925 18.1683C9.46211 18.2689 9.56146 18.533 9.76951 18.8439C9.52055 18.6756 9.45042 18.7598 9.45042 18.7598C9.13133 18.9398 9.5264 19.5709 9.93315 20.0887C9.60588 19.8234 9.51237 19.9929 9.51237 19.9929C9.12432 20.2804 10.7104 21.8326 10.7104 21.8326L12.8541 23.3182L14.6599 21.579C14.6599 21.579 14.086 20.499 13.816 19.7392L13.8148 19.7381Z" fill="#F8CEA3"/>
<path d="M13.8148 19.7381C13.5448 18.9783 12.8529 18.3366 12.8529 18.3366C12.5993 18.3203 12.3807 18.5389 12.7512 19.1642C13.1229 19.7883 13.0048 19.9917 13.0048 19.9917C10.6578 17.4086 10.2873 17.8142 10.2873 17.8142C10.1096 17.9252 10.188 18.1672 10.3726 18.443C9.74146 17.9194 9.62925 18.1683 9.62925 18.1683C9.46211 18.2689 9.56146 18.533 9.76951 18.8439C9.52055 18.6756 9.45042 18.7598 9.45042 18.7598C9.13133 18.9398 9.5264 19.5709 9.93315 20.0887C9.60588 19.8234 9.51237 19.9929 9.51237 19.9929C9.12432 20.2804 10.7104 21.8326 10.7104 21.8326L12.8541 23.3182L14.6599 21.579C14.6599 21.579 14.086 20.499 13.816 19.7392L13.8148 19.7381Z" fill="url(#paint13_linear_3580_2349)"/>
<path d="M10.3711 18.4418L11.6194 19.7205" stroke="#A98B60" stroke-width="0.75" stroke-linecap="round" stroke-linejoin="round"/>
<path d="M9.76758 18.8427L11.1702 20.3798" stroke="#A98B60" stroke-width="0.75" stroke-linecap="round" stroke-linejoin="round"/>
<path d="M9.93164 20.0876L10.7522 20.9689" stroke="#A98B60" stroke-width="0.75" stroke-linecap="round" stroke-linejoin="round"/>
<path d="M10.1771 19.7381C10.4471 18.9783 11.139 18.3366 11.139 18.3366C11.3927 18.3203 11.6113 18.5389 11.2407 19.1642C10.869 19.7883 10.9871 19.9917 10.9871 19.9917C13.3341 17.4086 13.7046 17.8142 13.7046 17.8142C13.8823 17.9252 13.804 18.1672 13.6193 18.443C14.2505 17.9194 14.3627 18.1683 14.3627 18.1683C14.5298 18.2689 14.4305 18.533 14.2224 18.8439C14.4714 18.6756 14.5415 18.7598 14.5415 18.7598C14.8606 18.9398 14.4655 19.5709 14.0588 20.0887C14.3861 19.8234 14.4796 19.9929 14.4796 19.9929C14.8676 20.2804 13.2815 21.8326 13.2815 21.8326L11.1379 23.3182L9.33203 21.579C9.33203 21.579 9.90593 20.499 10.1759 19.7392L10.1771 19.7381Z" fill="white"/>
<path d="M10.1771 19.7381C10.4471 18.9783 11.139 18.3366 11.139 18.3366C11.3927 18.3203 11.6113 18.5389 11.2407 19.1642C10.869 19.7883 10.9871 19.9917 10.9871 19.9917C13.3341 17.4086 13.7046 17.8142 13.7046 17.8142C13.8823 17.9252 13.804 18.1672 13.6193 18.443C14.2505 17.9194 14.3627 18.1683 14.3627 18.1683C14.5298 18.2689 14.4305 18.533 14.2224 18.8439C14.4714 18.6756 14.5415 18.7598 14.5415 18.7598C14.8606 18.9398 14.4655 19.5709 14.0588 20.0887C14.3861 19.8234 14.4796 19.9929 14.4796 19.9929C14.8676 20.2804 13.2815 21.8326 13.2815 21.8326L11.1379 23.3182L9.33203 21.579C9.33203 21.579 9.90593 20.499 10.1759 19.7392L10.1771 19.7381Z" fill="url(#paint14_linear_3580_2349)"/>
<path d="M13.6214 18.4418L12.373 19.7205" stroke="#A98B60" stroke-width="0.75" stroke-linecap="round" stroke-linejoin="round"/>
<path d="M14.2229 18.8427L12.8203 20.3798" stroke="#A98B60" stroke-width="0.75" stroke-linecap="round" stroke-linejoin="round"/>
<path d="M14.0608 20.0876L13.2402 20.9689" stroke="#A98B60" stroke-width="0.75" stroke-linecap="round" stroke-linejoin="round"/>
<path d="M13.6096 12.8513C13.8891 12.8513 14.1157 12.7828 14.1157 12.6982C14.1157 12.6136 13.8891 12.5451 13.6096 12.5451C13.3301 12.5451 13.1035 12.6136 13.1035 12.6982C13.1035 12.7828 13.3301 12.8513 13.6096 12.8513Z" fill="#750D33"/>
<path d="M21.2019 22.8086C20.7051 22.1739 19.8448 21.7847 19.8448 21.7847C19.5994 21.849 19.4603 22.126 20.0108 22.6017C20.5613 23.0762 20.5134 23.3065 20.5134 23.3065C17.4698 21.6 17.2454 22.1014 17.2454 22.1014C17.1121 22.2627 17.2629 22.4684 17.5259 22.6706C16.7615 22.3738 16.7334 22.6461 16.7334 22.6461C16.6072 22.7934 16.7848 23.0143 17.0794 23.2422C16.7895 23.1616 16.7498 23.2632 16.7498 23.2632C16.5043 23.5356 17.0782 24.0078 17.6276 24.3701C17.2325 24.2228 17.1974 24.4122 17.1974 24.4122C16.9204 24.8073 18.9168 25.7786 18.9168 25.7786L21.4204 26.5091L22.5834 24.2883C22.5834 24.2883 21.6963 23.4456 21.2007 22.8097L21.2019 22.8086Z" fill="white"/>
<path d="M21.2019 22.8086C20.7051 22.1739 19.8448 21.7847 19.8448 21.7847C19.5994 21.849 19.4603 22.126 20.0108 22.6017C20.5613 23.0762 20.5134 23.3065 20.5134 23.3065C17.4698 21.6 17.2454 22.1014 17.2454 22.1014C17.1121 22.2627 17.2629 22.4684 17.5259 22.6706C16.7615 22.3738 16.7334 22.6461 16.7334 22.6461C16.6072 22.7934 16.7848 23.0143 17.0794 23.2422C16.7895 23.1616 16.7498 23.2632 16.7498 23.2632C16.5043 23.5356 17.0782 24.0078 17.6276 24.3701C17.2325 24.2228 17.1974 24.4122 17.1974 24.4122C16.9204 24.8073 18.9168 25.7786 18.9168 25.7786L21.4204 26.5091L22.5834 24.2883C22.5834 24.2883 21.6963 23.4456 21.2007 22.8097L21.2019 22.8086Z" fill="url(#paint15_linear_3580_2349)"/>
<path d="M17.5254 22.6707L19.1138 23.4877" stroke="#A98B60" stroke-width="0.75" stroke-linecap="round" stroke-linejoin="round"/>
<path d="M17.0801 23.2422L18.8976 24.2544" stroke="#A98B60" stroke-width="0.75" stroke-linecap="round" stroke-linejoin="round"/>
<path d="M17.6289 24.3701L18.6855 24.9464" stroke="#A98B60" stroke-width="0.75" stroke-linecap="round" stroke-linejoin="round"/>
<path d="M31.2878 25.7669L30.5467 30.42C23.5127 29.264 20.8945 26.55 20.8945 26.55L21.9839 23.6501L28.1308 25.0492C28.1308 25.0492 28.7152 23.1137 31.2878 25.7669Z" fill="white"/>
<path d="M23.1004 25.1065C23.2701 25.1065 23.4078 24.9689 23.4078 24.7991C23.4078 24.6293 23.2701 24.4917 23.1004 24.4917C22.9306 24.4917 22.793 24.6293 22.793 24.7991C22.793 24.9689 22.9306 25.1065 23.1004 25.1065Z" fill="#750D33"/>
<path d="M30.0209 25.7435C30.0209 25.7435 29.5627 24.9908 28.1309 25.0492C28.1309 25.0492 28.7153 23.1136 31.2879 25.7669" stroke="#D2B88A" stroke-width="0.59" stroke-miterlimit="10"/>
<path d="M6.89471 14.296C6.74042 14.2282 6.52886 14.2586 6.44822 14.4059C6.40497 14.4842 6.38042 14.6022 6.29159 14.6022C6.2612 14.6022 6.23315 14.5859 6.20627 14.5707C6.07185 14.4924 5.92575 14.4176 5.77029 14.4281C5.61484 14.4386 5.45821 14.5672 5.47458 14.7215C5.42315 14.552 5.24783 14.4292 5.07016 14.4386C4.89367 14.4479 4.7312 14.5894 4.69847 14.7635C4.70432 14.6186 4.48692 14.559 4.3712 14.6466C4.25549 14.7343 4.22159 14.8898 4.19705 15.0335C4.09653 15.6004 4.14562 16.1837 4.25899 16.7482C4.27068 16.8055 4.28471 16.8639 4.32211 16.9095C4.37821 16.9773 4.48224 16.9995 4.56055 16.9598C4.59912 16.9399 4.62834 16.906 4.64705 16.8663C4.64237 17.0217 4.67977 17.1772 4.73237 17.3256C4.77094 17.4343 4.86562 17.5559 4.97666 17.522C5.06081 17.4963 5.09237 17.3969 5.11224 17.3104C5.14497 17.1702 5.17653 17.0311 5.20925 16.8908C5.19406 17.0696 5.23146 17.2029 5.25718 17.3805C5.27003 17.4682 5.29575 17.5652 5.37289 17.6073C5.44302 17.6459 5.53536 17.6213 5.59614 17.5687C5.65692 17.5161 5.69432 17.4413 5.72705 17.3689C5.87081 17.0498 5.97484 16.712 6.03562 16.3672C6.03094 16.7003 5.9912 17.0346 5.98653 17.3665C5.98536 17.4612 5.99705 17.5792 6.08588 17.6143C6.18523 17.6552 6.28224 17.5547 6.33951 17.4635C6.50432 17.2005 6.63406 16.9165 6.72523 16.6208C6.79419 16.3941 6.84094 16.1615 6.90289 15.9324C7.01627 15.5069 7.05718 15.466 7.26523 15.0779C7.26523 14.8278 7.0525 14.3638 6.89821 14.296H6.89471Z" fill="white"/>
<path d="M6.89471 14.296C6.74042 14.2282 6.52886 14.2586 6.44822 14.4059C6.40497 14.4842 6.38042 14.6022 6.29159 14.6022C6.2612 14.6022 6.23315 14.5859 6.20627 14.5707C6.07185 14.4924 5.92575 14.4176 5.77029 14.4281C5.61484 14.4386 5.45821 14.5672 5.47458 14.7215C5.42315 14.552 5.24783 14.4292 5.07016 14.4386C4.89367 14.4479 4.7312 14.5894 4.69847 14.7635C4.70432 14.6186 4.48692 14.559 4.3712 14.6466C4.25549 14.7343 4.22159 14.8898 4.19705 15.0335C4.09653 15.6004 4.14562 16.1837 4.25899 16.7482C4.27068 16.8055 4.28471 16.8639 4.32211 16.9095C4.37821 16.9773 4.48224 16.9995 4.56055 16.9598C4.59912 16.9399 4.62834 16.906 4.64705 16.8663C4.64237 17.0217 4.67977 17.1772 4.73237 17.3256C4.77094 17.4343 4.86562 17.5559 4.97666 17.522C5.06081 17.4963 5.09237 17.3969 5.11224 17.3104C5.14497 17.1702 5.17653 17.0311 5.20925 16.8908C5.19406 17.0696 5.23146 17.2029 5.25718 17.3805C5.27003 17.4682 5.29575 17.5652 5.37289 17.6073C5.44302 17.6459 5.53536 17.6213 5.59614 17.5687C5.65692 17.5161 5.69432 17.4413 5.72705 17.3689C5.87081 17.0498 5.97484 16.712 6.03562 16.3672C6.03094 16.7003 5.9912 17.0346 5.98653 17.3665C5.98536 17.4612 5.99705 17.5792 6.08588 17.6143C6.18523 17.6552 6.28224 17.5547 6.33951 17.4635C6.50432 17.2005 6.63406 16.9165 6.72523 16.6208C6.79419 16.3941 6.84094 16.1615 6.90289 15.9324C7.01627 15.5069 7.05718 15.466 7.26523 15.0779C7.26523 14.8278 7.0525 14.3638 6.89821 14.296H6.89471Z" fill="url(#paint16_linear_3580_2349)"/>
<path d="M6.01953 16.4759C6.03005 15.9791 6.13174 15.4835 6.31875 15.0219" stroke="#A98B60" stroke-width="0.84" stroke-linecap="round" stroke-linejoin="round"/>
<path d="M5.4292 15.2965C5.28777 15.8353 5.21647 16.3929 5.21881 16.9504" stroke="#A98B60" stroke-width="0.84" stroke-linecap="round" stroke-linejoin="round"/>
<path d="M4.73102 15.2965C4.65505 15.8201 4.62466 16.3496 4.64102 16.8779" stroke="#A98B60" stroke-width="0.84" stroke-linecap="round" stroke-linejoin="round"/>
<path d="M9.67833 28.1385C10.5655 26.8305 11.2294 25.546 11.6373 24.3468C11.6408 24.3363 11.6455 24.3246 11.6502 24.3105C11.6689 24.2556 11.6864 24.2007 11.7039 24.1457C11.7203 24.0966 11.7343 24.0499 11.7495 24.002C12.1866 22.5585 12.2381 21.2505 11.8418 20.1881C11.2878 18.6978 9.92379 17.8434 8.09457 17.8422H8.09223C6.4395 17.8422 5.16548 18.5412 4.52612 19.7778C4.45833 19.9087 4.39755 20.0455 4.34496 20.1881C3.94755 21.2587 4.00132 22.5807 4.44898 24.0382C4.44898 24.0382 4.44898 24.0394 4.44898 24.0405C4.45366 24.0592 4.46067 24.0779 4.46651 24.0966C4.48054 24.1422 4.49573 24.189 4.51093 24.2369C4.5121 24.2416 4.51444 24.2474 4.5156 24.2521C4.51794 24.2603 4.52145 24.2696 4.52496 24.279C4.92937 25.4969 5.60145 26.806 6.50612 28.1385C5.63301 29.2185 4.49106 30.4294 3.00781 31.7092L4.67807 33.6448C5.96262 32.5368 7.10807 31.3808 8.09223 30.2178C9.07638 31.3796 10.2218 32.5356 11.5064 33.6448L13.1766 31.7092C11.6934 30.4294 10.5514 29.2185 9.67833 28.1385ZM7.70885 25.2187C6.78197 23.4888 6.41846 21.9401 6.73989 21.0787C6.80768 20.8952 6.95846 20.4943 7.78599 20.4137C7.81755 20.4101 7.85028 20.4078 7.88418 20.4055C7.92041 20.4043 7.95664 20.4008 7.99405 20.4008C8.02677 20.3996 8.06067 20.3996 8.0934 20.3996C8.12729 20.3996 8.16119 20.3996 8.19392 20.4008C8.23015 20.4008 8.26638 20.4043 8.30262 20.4055C9.21547 20.4616 9.3756 20.8882 9.44573 21.0787C9.76599 21.9401 9.40366 23.4877 8.47677 25.2187C8.36573 25.4279 8.23716 25.6535 8.0934 25.8931C7.94846 25.6524 7.82106 25.4268 7.70885 25.2187Z" fill="#1F1912"/>
<path d="M9.67833 28.1385C10.5655 26.8305 11.2294 25.546 11.6373 24.3468C11.6408 24.3363 11.6455 24.3246 11.6502 24.3105C11.6689 24.2556 11.6864 24.2007 11.7039 24.1457C11.7203 24.0966 11.7343 24.0499 11.7495 24.002C12.1866 22.5585 12.2381 21.2505 11.8418 20.1881C11.2878 18.6978 9.92379 17.8434 8.09457 17.8422H8.09223C6.4395 17.8422 5.16548 18.5412 4.52612 19.7778C4.45833 19.9087 4.39755 20.0455 4.34496 20.1881C3.94755 21.2587 4.00132 22.5807 4.44898 24.0382C4.44898 24.0382 4.44898 24.0394 4.44898 24.0405C4.45366 24.0592 4.46067 24.0779 4.46651 24.0966C4.48054 24.1422 4.49573 24.189 4.51093 24.2369C4.5121 24.2416 4.51444 24.2474 4.5156 24.2521C4.51794 24.2603 4.52145 24.2696 4.52496 24.279C4.92937 25.4969 5.60145 26.806 6.50612 28.1385C5.63301 29.2185 4.49106 30.4294 3.00781 31.7092L4.67807 33.6448C5.96262 32.5368 7.10807 31.3808 8.09223 30.2178C9.07638 31.3796 10.2218 32.5356 11.5064 33.6448L13.1766 31.7092C11.6934 30.4294 10.5514 29.2185 9.67833 28.1385ZM7.70885 25.2187C6.78197 23.4888 6.41846 21.9401 6.73989 21.0787C6.80768 20.8952 6.95846 20.4943 7.78599 20.4137C7.81755 20.4101 7.85028 20.4078 7.88418 20.4055C7.92041 20.4043 7.95664 20.4008 7.99405 20.4008C8.02677 20.3996 8.06067 20.3996 8.0934 20.3996C8.12729 20.3996 8.16119 20.3996 8.19392 20.4008C8.23015 20.4008 8.26638 20.4043 8.30262 20.4055C9.21547 20.4616 9.3756 20.8882 9.44573 21.0787C9.76599 21.9401 9.40366 23.4877 8.47677 25.2187C8.36573 25.4279 8.23716 25.6535 8.0934 25.8931C7.94846 25.6524 7.82106 25.4268 7.70885 25.2187Z" fill="url(#paint17_linear_3580_2349)"/>
<path d="M4.46484 24.0966C4.54432 24.3269 4.57355 24.4099 4.57588 24.4204C4.57004 24.4064 4.54199 24.3281 4.52445 24.2778C4.52095 24.2684 4.51744 24.2591 4.5151 24.2509C4.51393 24.2462 4.5116 24.2404 4.51043 24.2357C4.49523 24.189 4.48004 24.1422 4.46601 24.0955L4.46484 24.0966Z" fill="#9934B8"/>
<path d="M11.6094 24.4204C11.6117 24.4099 11.6363 24.3386 11.7029 24.1458C11.6853 24.2007 11.6678 24.2545 11.6491 24.3106C11.6444 24.3246 11.6398 24.3363 11.6363 24.3468C11.6246 24.3807 11.6129 24.4122 11.6094 24.4204Z" fill="#9934B8"/>
<path d="M11.8407 20.1881C11.2867 18.6978 9.92265 17.8434 8.09342 17.8422H8.09109C6.2642 17.8422 4.89784 18.6966 4.34381 20.1881C3.94641 21.2587 4.00018 22.5807 4.44784 24.0382C4.2468 23.3053 4.81836 20.4581 7.99407 20.4008C8.0268 20.3996 8.0607 20.3996 8.09342 20.3996C8.12732 20.3996 8.16122 20.3996 8.19394 20.4008C11.3194 20.4592 11.9225 23.2177 11.7484 24.002C12.1855 22.5585 12.2369 21.2505 11.8407 20.1881Z" fill="#1F1912"/>
<path d="M13.1762 31.708L11.506 33.6436C10.2226 32.5356 9.07595 31.3796 8.0918 30.2166C9.03154 29.1518 9.67673 28.1373 9.67673 28.1373C9.79946 28.2892 9.92803 28.4447 10.0624 28.6013L10.0648 28.6048C10.8806 29.5621 11.901 30.6093 13.1739 31.708H13.1762Z" fill="#1F1912"/>
<path d="M13.1762 31.708L11.506 33.6436C10.2226 32.5356 9.07595 31.3796 8.0918 30.2166C9.03154 29.1518 9.67673 28.1373 9.67673 28.1373C9.79946 28.2892 9.92803 28.4447 10.0624 28.6013L10.0648 28.6048C10.8806 29.5621 11.901 30.6093 13.1739 31.708H13.1762Z" fill="url(#paint18_linear_3580_2349)"/>
<path d="M10.066 28.606C10.066 28.606 9.07478 29.8707 8.0918 30.2178C9.03154 29.153 9.67673 28.1385 9.67673 28.1385C9.79946 28.2904 9.92803 28.4459 10.0624 28.6025L10.0648 28.606H10.066Z" fill="#1F1912"/>
<path d="M6.6261 9.66974C8.29866 9.66974 9.65454 8.31386 9.65454 6.6413C9.65454 4.96873 8.29866 3.61285 6.6261 3.61285C4.95354 3.61285 3.59766 4.96873 3.59766 6.6413C3.59766 8.31386 4.95354 9.66974 6.6261 9.66974Z" fill="url(#paint19_radial_3580_2349)"/>
<path d="M8.73705 6.5957C8.63653 6.58285 8.53601 6.57116 8.43549 6.56181C8.23445 6.54194 8.03341 6.52674 7.83238 6.51389C7.54718 6.49752 7.26199 6.487 6.97679 6.48233C7.13225 6.32103 7.28536 6.15622 7.43381 5.98791C7.54835 5.85817 7.66056 5.72726 7.77043 5.59402C7.82536 5.52739 7.87913 5.4596 7.93173 5.39064C7.98432 5.32168 8.03692 5.25272 8.08718 5.18142C8.01588 5.23168 7.94575 5.28311 7.87796 5.33687C7.809 5.38947 7.74121 5.44441 7.67458 5.49817C7.54017 5.60804 7.40926 5.72025 7.28069 5.83363C7.11238 5.98324 6.94874 6.13518 6.78627 6.29064C6.7816 6.00544 6.77108 5.72025 6.75471 5.43505C6.74186 5.23402 6.72666 5.03298 6.70679 4.83194C6.69627 4.73142 6.68575 4.6309 6.6729 4.53038C6.66004 4.42986 6.64601 4.32934 6.62731 4.22882C6.60978 4.32934 6.59458 4.42986 6.58173 4.53038C6.56887 4.6309 6.55718 4.73142 6.54783 4.83194C6.52796 5.03298 6.51277 5.23402 6.49991 5.43505C6.48355 5.72025 6.47303 6.00544 6.46835 6.29064C6.30705 6.13518 6.14225 5.98324 5.9751 5.83363C5.84536 5.71908 5.71562 5.60687 5.58121 5.49817C5.51458 5.44324 5.44679 5.38947 5.37783 5.33687C5.30887 5.28428 5.23991 5.23168 5.16744 5.18142C5.2177 5.25272 5.26913 5.32285 5.3229 5.39181C5.37549 5.46077 5.43043 5.52856 5.48419 5.59518C5.59406 5.7296 5.70627 5.86051 5.81965 5.98908C5.96809 6.15622 6.12121 6.32103 6.27666 6.48233C5.99147 6.487 5.70627 6.49752 5.42108 6.51389C5.22004 6.52674 5.019 6.54194 4.81796 6.56181C4.71744 6.57233 4.61692 6.58285 4.5164 6.59687C4.41588 6.60973 4.31536 6.62376 4.21484 6.64246C4.31536 6.66116 4.41588 6.67518 4.5164 6.68804C4.61692 6.7009 4.71744 6.71259 4.81796 6.72311C5.019 6.74298 5.22004 6.75817 5.42108 6.77103C5.70627 6.78739 5.99147 6.79791 6.27666 6.80259C6.12121 6.96389 5.96926 7.12869 5.81965 7.29583C5.7051 7.42557 5.5929 7.55531 5.48419 7.68973C5.42926 7.75635 5.37549 7.82415 5.3229 7.89311C5.2703 7.96207 5.2177 8.03103 5.16744 8.1035C5.23874 8.05324 5.30887 8.00181 5.37783 7.94804C5.44679 7.89544 5.51458 7.84051 5.58121 7.78674C5.71562 7.67687 5.84653 7.56467 5.9751 7.45129C6.14225 7.30285 6.30705 7.14973 6.46835 6.99428C6.47303 7.27947 6.48355 7.56467 6.49991 7.84986C6.51277 8.0509 6.52796 8.25194 6.54783 8.45298C6.55835 8.5535 6.56887 8.65402 6.5829 8.75454C6.59575 8.85505 6.60978 8.95557 6.62848 9.05609C6.64718 8.95557 6.66121 8.85505 6.67406 8.75454C6.68692 8.65402 6.69861 8.5535 6.70913 8.45298C6.729 8.25194 6.74419 8.0509 6.75705 7.84986C6.77342 7.56467 6.78393 7.27947 6.78861 6.99428C6.94991 7.14973 7.11471 7.30168 7.28186 7.45129C7.4116 7.56583 7.54251 7.67804 7.67575 7.78674C7.74238 7.84168 7.81017 7.89544 7.87913 7.94804C7.94809 8.00064 8.01705 8.05324 8.08835 8.1035C8.03809 8.0322 7.98666 7.96207 7.9329 7.89428C7.8803 7.82531 7.82536 7.75752 7.7716 7.6909C7.66173 7.55648 7.54952 7.42557 7.43614 7.297C7.28653 7.12869 7.13458 6.96505 6.97913 6.80259C7.26432 6.79791 7.54952 6.78739 7.83471 6.77103C8.03575 6.75817 8.23679 6.74298 8.43783 6.72311C8.53835 6.71259 8.63887 6.70207 8.73939 6.68921C8.83991 6.67635 8.94043 6.66233 9.04095 6.64363C8.94043 6.62609 8.83991 6.6109 8.73939 6.59804L8.73705 6.5957Z" fill="white"/>
<path d="M28.7489 22.8763C29.896 22.8763 30.8259 21.9464 30.8259 20.7993C30.8259 19.6522 29.896 18.7223 28.7489 18.7223C27.6018 18.7223 26.6719 19.6522 26.6719 20.7993C26.6719 21.9464 27.6018 22.8763 28.7489 22.8763Z" fill="url(#paint20_radial_3580_2349)"/>
<path d="M30.1966 20.7678C30.1276 20.7584 30.0587 20.7514 29.9897 20.7444C29.8518 20.7304 29.7139 20.7198 29.576 20.7117C29.3808 20.7 29.1844 20.693 28.9892 20.6895C29.0956 20.5784 29.2008 20.4662 29.3025 20.3505C29.3808 20.2617 29.4579 20.1717 29.5327 20.0805C29.5701 20.0349 29.6075 19.9882 29.6438 19.9414C29.68 19.8946 29.7162 19.8467 29.7501 19.7976C29.701 19.8315 29.6531 19.8678 29.6064 19.904C29.5596 19.9402 29.5128 19.9776 29.4673 20.015C29.3749 20.0898 29.2861 20.167 29.1973 20.2453C29.0827 20.347 28.9693 20.4522 28.8583 20.5585C28.8548 20.3633 28.8478 20.167 28.8361 19.9718C28.8279 19.8339 28.8174 19.6959 28.8034 19.558C28.7964 19.4891 28.7882 19.4201 28.78 19.3511C28.7706 19.2822 28.7613 19.2132 28.7496 19.1443C28.7367 19.2132 28.7274 19.2822 28.7192 19.3511C28.7099 19.4201 28.7028 19.4891 28.6958 19.558C28.6818 19.6959 28.6713 19.8339 28.6631 19.9718C28.6514 20.167 28.6444 20.3633 28.6409 20.5585C28.5299 20.4522 28.4177 20.347 28.3019 20.2453C28.2131 20.167 28.1231 20.0898 28.0319 20.015C27.9864 19.9776 27.9396 19.9402 27.8928 19.904C27.8461 19.8678 27.7982 19.8315 27.7491 19.7976C27.783 19.8467 27.8192 19.8946 27.8554 19.9414C27.8917 19.9882 27.9291 20.0349 27.9665 20.0805C28.0413 20.1728 28.1184 20.2617 28.1967 20.3505C28.2984 20.465 28.4036 20.5784 28.51 20.6883C28.3148 20.6918 28.1196 20.6988 27.9232 20.7105C27.7853 20.7187 27.6474 20.7292 27.5095 20.7432C27.4405 20.7502 27.3715 20.7584 27.3026 20.7666C27.2336 20.7759 27.1647 20.7853 27.0957 20.7982C27.1647 20.811 27.2336 20.8204 27.3026 20.8297C27.3715 20.8391 27.4405 20.8461 27.5095 20.8531C27.6474 20.8671 27.7853 20.8776 27.9232 20.8858C28.1184 20.8975 28.3136 20.9045 28.51 20.908C28.4036 21.0191 28.2984 21.1313 28.1967 21.2458C28.1184 21.3346 28.0413 21.4246 27.9665 21.5158C27.9291 21.5614 27.8917 21.6082 27.8554 21.6549C27.8192 21.7017 27.783 21.7496 27.7491 21.7987C27.7982 21.7648 27.8461 21.7285 27.8928 21.6923C27.9396 21.6561 27.9864 21.6187 28.0319 21.5813C28.1243 21.5065 28.2131 21.4293 28.3019 21.351C28.4165 21.2493 28.5299 21.1441 28.6397 21.0378C28.6432 21.233 28.6502 21.4282 28.6619 21.6245C28.6701 21.7624 28.6806 21.9004 28.6947 22.0383C28.7017 22.1072 28.7099 22.1762 28.718 22.2452C28.7274 22.3141 28.7367 22.3831 28.7496 22.452C28.7625 22.3831 28.7718 22.3141 28.7812 22.2452C28.7905 22.1762 28.7975 22.1072 28.8045 22.0383C28.8186 21.9004 28.8291 21.7624 28.8373 21.6245C28.8489 21.4293 28.856 21.233 28.8595 21.0378C28.9705 21.1441 29.0827 21.2493 29.1984 21.351C29.2873 21.4293 29.3773 21.5065 29.4684 21.5813C29.514 21.6187 29.5608 21.6561 29.6075 21.6923C29.6543 21.7285 29.7022 21.7648 29.7513 21.7987C29.7174 21.7496 29.6812 21.7017 29.6449 21.6549C29.6087 21.6082 29.5713 21.5614 29.5339 21.5158C29.4591 21.4235 29.3819 21.3346 29.3036 21.2458C29.2019 21.1313 29.0967 21.0179 28.9904 20.9069C29.1856 20.9033 29.3819 20.8963 29.5771 20.8846C29.7151 20.8765 29.853 20.8659 29.9909 20.8519C30.0599 20.8449 30.1288 20.8367 30.1978 20.8285C30.2667 20.8192 30.3357 20.8098 30.4047 20.7982C30.3357 20.7853 30.2667 20.7759 30.1978 20.7678H30.1966Z" fill="white"/>
<path d="M31.9741 5.38365C31.9098 5.37547 31.8443 5.36846 31.78 5.36144C31.6503 5.34859 31.5206 5.33807 31.392 5.33106C31.2085 5.32054 31.0238 5.31352 30.8403 5.31002C30.9408 5.20599 31.039 5.09963 31.1348 4.99209C31.2085 4.90911 31.2809 4.82495 31.3511 4.73846C31.3861 4.69521 31.4212 4.65196 31.4551 4.60755C31.489 4.56313 31.5229 4.51872 31.5556 4.47196C31.5089 4.50469 31.4644 4.53742 31.42 4.57248C31.3756 4.60638 31.3324 4.64144 31.2891 4.67651C31.2026 4.74664 31.1185 4.81911 31.0355 4.89274C30.9268 4.98859 30.8216 5.08677 30.7176 5.18729C30.7141 5.00378 30.7082 4.81911 30.6965 4.6356C30.6883 4.50586 30.679 4.37612 30.6661 4.24755C30.6591 4.18326 30.6521 4.11781 30.6439 4.05352C30.6357 3.98924 30.6264 3.92378 30.6147 3.8595C30.603 3.92378 30.5937 3.98924 30.5855 4.05352C30.5773 4.11781 30.5703 4.18326 30.5633 4.24755C30.5504 4.37729 30.5399 4.50703 30.5329 4.6356C30.5224 4.81911 30.5154 5.00261 30.5118 5.18729C30.4078 5.08677 30.3015 4.98859 30.1939 4.89274C30.1109 4.81911 30.0268 4.74664 29.9403 4.67651C29.897 4.64144 29.8538 4.60638 29.8094 4.57248C29.765 4.53859 29.7206 4.50469 29.6738 4.47196C29.7054 4.51872 29.7393 4.56313 29.7743 4.60755C29.8082 4.65196 29.8433 4.69521 29.8783 4.73846C29.9485 4.82495 30.0209 4.90911 30.0946 4.99209C30.1904 5.09963 30.2886 5.20599 30.3891 5.31002C30.2056 5.31352 30.0221 5.31937 29.8386 5.32989C29.7089 5.33807 29.5791 5.34742 29.4506 5.36028C29.3863 5.36729 29.3208 5.3743 29.2565 5.38248C29.1922 5.39067 29.1268 5.40002 29.0625 5.4117C29.1268 5.42339 29.1922 5.43274 29.2565 5.44093C29.3208 5.44911 29.3863 5.45612 29.4506 5.46313C29.5803 5.47599 29.71 5.48651 29.8386 5.49352C30.0221 5.50404 30.2056 5.51106 30.3891 5.51339C30.2886 5.61742 30.1904 5.72261 30.0946 5.83131C30.0209 5.9143 29.9485 5.99846 29.8783 6.08495C29.8433 6.1282 29.8082 6.17144 29.7743 6.21586C29.7404 6.26028 29.7065 6.30469 29.6738 6.35144C29.7206 6.31989 29.765 6.28599 29.8094 6.25209C29.8538 6.2182 29.897 6.18313 29.9403 6.14807C30.0268 6.07794 30.1109 6.00547 30.1939 5.93183C30.3015 5.83599 30.4078 5.73781 30.5118 5.63729C30.5154 5.8208 30.5212 6.0043 30.5317 6.18781C30.5399 6.31755 30.5493 6.44729 30.5621 6.57586C30.5691 6.64015 30.5761 6.7056 30.5843 6.76989C30.5925 6.83417 30.6018 6.89963 30.6135 6.96391C30.6252 6.89963 30.6346 6.83417 30.6428 6.76989C30.6509 6.7056 30.658 6.64015 30.665 6.57586C30.6778 6.44612 30.6883 6.31638 30.6954 6.18781C30.7059 6.0043 30.7129 5.8208 30.7152 5.63612C30.8193 5.73664 30.9256 5.83482 31.0331 5.93067C31.1161 6.0043 31.2003 6.07677 31.2868 6.1469C31.33 6.18196 31.3733 6.21703 31.4177 6.25093C31.4621 6.28482 31.5065 6.31872 31.5533 6.35144C31.5206 6.30469 31.4878 6.26028 31.4528 6.21586C31.4189 6.17144 31.3838 6.1282 31.3487 6.08495C31.2786 5.99846 31.2061 5.9143 31.1325 5.83131C31.0367 5.72261 30.9385 5.61742 30.838 5.51339C31.0215 5.50989 31.2061 5.50404 31.3896 5.49235C31.5194 5.48417 31.6491 5.47482 31.7777 5.46196C31.842 5.45495 31.9074 5.44794 31.9717 5.43976C32.036 5.43157 32.1015 5.42222 32.1657 5.41054C32.1015 5.39885 32.036 5.3895 31.9717 5.38132L31.9741 5.38365Z" fill="#D2B88A"/>
<path d="M19.6948 14.0868C19.6142 14.0762 19.5335 14.0681 19.4529 14.0587C19.2916 14.0424 19.1303 14.0307 18.969 14.0201C18.7399 14.0061 18.5108 13.9979 18.2817 13.9944C18.4068 13.8647 18.5295 13.7326 18.6487 13.5982C18.7399 13.4942 18.8311 13.389 18.9187 13.2814C18.962 13.2277 19.0064 13.1739 19.0485 13.1178C19.0906 13.0629 19.1326 13.0068 19.1735 12.9495C19.1163 12.9892 19.0602 13.0313 19.0052 13.0746C18.9503 13.1166 18.8954 13.1611 18.8416 13.2043C18.7341 13.292 18.6289 13.382 18.5248 13.4743C18.3904 13.5935 18.2583 13.7162 18.1286 13.8413C18.1251 13.6122 18.1169 13.3831 18.1029 13.154C18.0924 12.9927 18.0807 12.8314 18.0643 12.6701C18.0561 12.5895 18.0468 12.5088 18.0363 12.4282C18.0258 12.3475 18.0141 12.2669 18 12.1862C17.986 12.2669 17.9743 12.3475 17.9638 12.4282C17.9533 12.5088 17.9451 12.5895 17.9358 12.6701C17.9194 12.8314 17.9077 12.9927 17.8972 13.154C17.8832 13.3831 17.875 13.6122 17.8715 13.8401C17.7417 13.7151 17.6096 13.5935 17.4752 13.4731C17.3712 13.382 17.266 13.2908 17.1585 13.2031C17.1047 13.1599 17.0509 13.1155 16.9948 13.0734C16.9399 13.0313 16.8838 12.9892 16.8265 12.9483C16.8663 13.0056 16.9084 13.0617 16.9516 13.1166C16.9937 13.1716 17.0381 13.2265 17.0813 13.2803C17.169 13.3878 17.259 13.493 17.3513 13.597C17.4706 13.7314 17.5933 13.8635 17.7184 13.9933C17.4893 13.9968 17.2602 14.005 17.0322 14.019C16.8709 14.0283 16.7096 14.0412 16.5484 14.0575C16.4677 14.0657 16.3871 14.0751 16.3064 14.0856C16.2258 14.0961 16.1451 14.1078 16.0645 14.1218C16.1451 14.1359 16.2258 14.1475 16.3064 14.1581C16.3871 14.1686 16.4677 14.1779 16.5484 14.1861C16.7096 14.2025 16.8709 14.2142 17.0322 14.2247C17.2613 14.2387 17.4904 14.2469 17.7184 14.2504C17.5933 14.3801 17.4717 14.5122 17.3513 14.6466C17.2602 14.7507 17.169 14.8559 17.0813 14.9634C17.0381 15.0172 16.9937 15.0709 16.9516 15.127C16.9095 15.182 16.8674 15.2381 16.8265 15.2953C16.8838 15.2556 16.9399 15.2135 16.9948 15.1703C17.0498 15.1282 17.1047 15.0838 17.1585 15.0405C17.266 14.9529 17.3712 14.8629 17.4752 14.7705C17.6096 14.6513 17.7417 14.5286 17.8715 14.4035C17.875 14.6326 17.8832 14.8617 17.8972 15.0896C17.9065 15.2509 17.9194 15.4122 17.9358 15.5735C17.9439 15.6542 17.9533 15.7348 17.9638 15.8155C17.9743 15.8961 17.986 15.9768 18 16.0574C18.0141 15.9768 18.0258 15.8961 18.0363 15.8155C18.0468 15.7348 18.0561 15.6542 18.0643 15.5735C18.0807 15.4122 18.0924 15.2509 18.1029 15.0896C18.1169 14.8605 18.1251 14.6314 18.1286 14.4024C18.2583 14.5274 18.3904 14.649 18.5248 14.7694C18.6289 14.8605 18.7341 14.9517 18.8416 15.0394C18.8954 15.0826 18.9491 15.127 19.0052 15.1691C19.0602 15.2112 19.1163 15.2533 19.1735 15.2942C19.1338 15.2369 19.0917 15.1808 19.0485 15.1259C19.0064 15.0709 18.962 15.016 18.9187 14.9622C18.8311 14.8547 18.7411 14.7495 18.6487 14.6455C18.5295 14.5111 18.4068 14.379 18.2817 14.2492C18.5108 14.2457 18.7399 14.2375 18.969 14.2235C19.1303 14.213 19.2916 14.2013 19.4529 14.1849C19.5335 14.1768 19.6142 14.1674 19.6948 14.1569C19.7755 14.1464 19.8561 14.1347 19.9368 14.1207C19.8561 14.1066 19.7755 14.0949 19.6948 14.0844V14.0868Z" fill="#D2B88A"/>
<path d="M31.2874 9.47219C31.4785 9.47219 31.6334 9.31729 31.6334 9.12622C31.6334 8.93514 31.4785 8.78024 31.2874 8.78024C31.0963 8.78024 30.9414 8.93514 30.9414 9.12622C30.9414 9.31729 31.0963 9.47219 31.2874 9.47219Z" fill="white"/>
<path d="M19.9358 6.1387C20.1269 6.1387 20.2818 5.9838 20.2818 5.79272C20.2818 5.60165 20.1269 5.44675 19.9358 5.44675C19.7447 5.44675 19.5898 5.60165 19.5898 5.79272C19.5898 5.9838 19.7447 6.1387 19.9358 6.1387Z" fill="#D2B88A"/>
<path d="M3.59597 11.6614C3.78705 11.6614 3.94195 11.5065 3.94195 11.3155C3.94195 11.1244 3.78705 10.9695 3.59597 10.9695C3.4049 10.9695 3.25 11.1244 3.25 11.3155C3.25 11.5065 3.4049 11.6614 3.59597 11.6614Z" fill="#D2B88A"/>
<path d="M13.2405 27.775C13.4316 27.775 13.5865 27.6201 13.5865 27.429C13.5865 27.2379 13.4316 27.083 13.2405 27.083C13.0494 27.083 12.8945 27.2379 12.8945 27.429C12.8945 27.6201 13.0494 27.775 13.2405 27.775Z" fill="white"/>
<defs>
<radialGradient id="paint0_radial_3580_2349" cx="0" cy="0" r="1" gradientUnits="userSpaceOnUse" gradientTransform="translate(18.0011 14.9096) scale(12.9132)">
<stop stop-color="white" stop-opacity="0"/>
<stop offset="0.93" stop-color="white"/>
</radialGradient>
<linearGradient id="paint1_linear_3580_2349" x1="2.12774" y1="28.9753" x2="34.3325" y2="28.9753" gradientUnits="userSpaceOnUse">
<stop offset="0.06" stop-color="#F8CEA3" stop-opacity="0"/>
<stop offset="0.09" stop-color="#F8CEA3" stop-opacity="0.06"/>
<stop offset="0.19" stop-color="#F8CEA3" stop-opacity="0.28"/>
<stop offset="0.3" stop-color="#F8CEA3" stop-opacity="0.47"/>
<stop offset="0.4" stop-color="#F8CEA3" stop-opacity="0.63"/>
<stop offset="0.51" stop-color="#F8CEA3" stop-opacity="0.77"/>
<stop offset="0.63" stop-color="#F8CEA3" stop-opacity="0.87"/>
<stop offset="0.74" stop-color="#F8CEA3" stop-opacity="0.94"/>
<stop offset="0.86" stop-color="#F8CEA3" stop-opacity="0.99"/>
<stop offset="1" stop-color="#F8CEA3"/>
</linearGradient>
<linearGradient id="paint2_linear_3580_2349" x1="24.7325" y1="29.0373" x2="24.7325" y2="15.307" gradientUnits="userSpaceOnUse">
<stop stop-color="#AB8D60" stop-opacity="0"/>
<stop offset="0.17" stop-color="#AB8D60" stop-opacity="0.13"/>
<stop offset="0.52" stop-color="#AB8D60" stop-opacity="0.47"/>
<stop offset="1" stop-color="#AB8D60"/>
</linearGradient>
<linearGradient id="paint3_linear_3580_2349" x1="20.8954" y1="11.2757" x2="27.9586" y2="11.2757" gradientUnits="userSpaceOnUse">
<stop offset="0.06" stop-color="#F8CEA3" stop-opacity="0"/>
<stop offset="0.09" stop-color="#F8CEA3" stop-opacity="0.06"/>
<stop offset="0.19" stop-color="#F8CEA3" stop-opacity="0.28"/>
<stop offset="0.3" stop-color="#F8CEA3" stop-opacity="0.47"/>
<stop offset="0.4" stop-color="#F8CEA3" stop-opacity="0.63"/>
<stop offset="0.51" stop-color="#F8CEA3" stop-opacity="0.77"/>
<stop offset="0.63" stop-color="#F8CEA3" stop-opacity="0.87"/>
<stop offset="0.74" stop-color="#F8CEA3" stop-opacity="0.94"/>
<stop offset="0.86" stop-color="#F8CEA3" stop-opacity="0.99"/>
<stop offset="1" stop-color="#F8CEA3"/>
</linearGradient>
<linearGradient id="paint4_linear_3580_2349" x1="26.0996" y1="12.6561" x2="26.1604" y2="12.6561" gradientUnits="userSpaceOnUse">
<stop offset="0.06" stop-color="#F8CEA3" stop-opacity="0"/>
<stop offset="0.09" stop-color="#F8CEA3" stop-opacity="0.06"/>
<stop offset="0.19" stop-color="#F8CEA3" stop-opacity="0.28"/>
<stop offset="0.3" stop-color="#F8CEA3" stop-opacity="0.47"/>
<stop offset="0.4" stop-color="#F8CEA3" stop-opacity="0.63"/>
<stop offset="0.51" stop-color="#F8CEA3" stop-opacity="0.77"/>
<stop offset="0.63" stop-color="#F8CEA3" stop-opacity="0.87"/>
<stop offset="0.74" stop-color="#F8CEA3" stop-opacity="0.94"/>
<stop offset="0.86" stop-color="#F8CEA3" stop-opacity="0.99"/>
<stop offset="1" stop-color="#F8CEA3"/>
</linearGradient>
<linearGradient id="paint5_linear_3580_2349" x1="26.168" y1="12.3768" x2="26.3152" y2="12.3768" gradientUnits="userSpaceOnUse">
<stop offset="0.06" stop-color="#F8CEA3" stop-opacity="0"/>
<stop offset="0.09" stop-color="#F8CEA3" stop-opacity="0.06"/>
<stop offset="0.19" stop-color="#F8CEA3" stop-opacity="0.28"/>
<stop offset="0.3" stop-color="#F8CEA3" stop-opacity="0.47"/>
<stop offset="0.4" stop-color="#F8CEA3" stop-opacity="0.63"/>
<stop offset="0.51" stop-color="#F8CEA3" stop-opacity="0.77"/>
<stop offset="0.63" stop-color="#F8CEA3" stop-opacity="0.87"/>
<stop offset="0.74" stop-color="#F8CEA3" stop-opacity="0.94"/>
<stop offset="0.86" stop-color="#F8CEA3" stop-opacity="0.99"/>
<stop offset="1" stop-color="#F8CEA3"/>
</linearGradient>
<linearGradient id="paint6_linear_3580_2349" x1="26.6479" y1="11.0609" x2="27.5435" y2="11.1377" gradientUnits="userSpaceOnUse">
<stop stop-color="#D4BA8C" stop-opacity="0"/>
<stop offset="0.18" stop-color="#D4BA8C" stop-opacity="0.35"/>
<stop offset="0.33" stop-color="#D4BA8C" stop-opacity="0.63"/>
<stop offset="0.47" stop-color="#D4BA8C" stop-opacity="0.82"/>
<stop offset="0.57" stop-color="#D4BA8C" stop-opacity="0.95"/>
<stop offset="0.63" stop-color="#D4BA8C" stop-opacity="0.99"/>
<stop offset="1" stop-color="#D4BA8C"/>
</linearGradient>
<linearGradient id="paint7_linear_3580_2349" x1="20.998" y1="7.4595" x2="27.7597" y2="7.4595" gradientUnits="userSpaceOnUse">
<stop stop-color="#AB8D60" stop-opacity="0"/>
<stop offset="0.22" stop-color="#AB8D60" stop-opacity="0.02"/>
<stop offset="0.37" stop-color="#AB8D60" stop-opacity="0.07"/>
<stop offset="0.51" stop-color="#AB8D60" stop-opacity="0.16"/>
<stop offset="0.63" stop-color="#AB8D60" stop-opacity="0.29"/>
<stop offset="0.75" stop-color="#AB8D60" stop-opacity="0.46"/>
<stop offset="0.86" stop-color="#AB8D60" stop-opacity="0.66"/>
<stop offset="0.96" stop-color="#AB8D60" stop-opacity="0.9"/>
<stop offset="1" stop-color="#AB8D60"/>
</linearGradient>
<linearGradient id="paint8_linear_3580_2349" x1="10.5174" y1="13.0091" x2="10.5174" y2="30.2073" gradientUnits="userSpaceOnUse">
<stop stop-color="#D4BA8C" stop-opacity="0"/>
<stop offset="0.18" stop-color="#D4BA8C" stop-opacity="0.35"/>
<stop offset="0.33" stop-color="#D4BA8C" stop-opacity="0.63"/>
<stop offset="0.47" stop-color="#D4BA8C" stop-opacity="0.82"/>
<stop offset="0.57" stop-color="#D4BA8C" stop-opacity="0.95"/>
<stop offset="0.63" stop-color="#D4BA8C" stop-opacity="0.99"/>
<stop offset="1" stop-color="#D4BA8C"/>
</linearGradient>
<linearGradient id="paint9_linear_3580_2349" x1="11.0738" y1="28.8234" x2="11.0738" y2="22.2347" gradientUnits="userSpaceOnUse">
<stop offset="0.06" stop-color="#1F1912" stop-opacity="0"/>
<stop offset="0.37" stop-color="#1F1912" stop-opacity="0.17"/>
<stop offset="0.75" stop-color="#1F1912" stop-opacity="0.66"/>
<stop offset="0.95" stop-color="#1F1912"/>
</linearGradient>
<linearGradient id="paint10_linear_3580_2349" x1="11.3828" y1="16.2374" x2="14.0583" y2="16.2374" gradientUnits="userSpaceOnUse">
<stop offset="0.06" stop-color="#1F1912" stop-opacity="0"/>
<stop offset="0.37" stop-color="#1F1912" stop-opacity="0.17"/>
<stop offset="0.75" stop-color="#1F1912" stop-opacity="0.66"/>
<stop offset="0.95" stop-color="#1F1912"/>
</linearGradient>
<linearGradient id="paint11_linear_3580_2349" x1="15.5285" y1="11.0618" x2="8.46524" y2="11.0618" gradientUnits="userSpaceOnUse">
<stop offset="0.06" stop-color="#F8CEA3" stop-opacity="0"/>
<stop offset="0.09" stop-color="#F8CEA3" stop-opacity="0.06"/>
<stop offset="0.19" stop-color="#F8CEA3" stop-opacity="0.28"/>
<stop offset="0.3" stop-color="#F8CEA3" stop-opacity="0.47"/>
<stop offset="0.4" stop-color="#F8CEA3" stop-opacity="0.63"/>
<stop offset="0.51" stop-color="#F8CEA3" stop-opacity="0.77"/>
<stop offset="0.63" stop-color="#F8CEA3" stop-opacity="0.87"/>
<stop offset="0.74" stop-color="#F8CEA3" stop-opacity="0.94"/>
<stop offset="0.86" stop-color="#F8CEA3" stop-opacity="0.99"/>
<stop offset="1" stop-color="#F8CEA3"/>
</linearGradient>
<linearGradient id="paint12_linear_3580_2349" x1="9.77598" y1="10.8471" x2="8.88043" y2="10.9238" gradientUnits="userSpaceOnUse">
<stop stop-color="#D4BA8C" stop-opacity="0"/>
<stop offset="0.18" stop-color="#D4BA8C" stop-opacity="0.35"/>
<stop offset="0.33" stop-color="#D4BA8C" stop-opacity="0.63"/>
<stop offset="0.47" stop-color="#D4BA8C" stop-opacity="0.82"/>
<stop offset="0.57" stop-color="#D4BA8C" stop-opacity="0.95"/>
<stop offset="0.63" stop-color="#D4BA8C" stop-opacity="0.99"/>
<stop offset="1" stop-color="#D4BA8C"/>
</linearGradient>
<linearGradient id="paint13_linear_3580_2349" x1="14.6587" y1="20.5539" x2="9.33237" y2="20.5539" gradientUnits="userSpaceOnUse">
<stop stop-color="#AB8D60" stop-opacity="0"/>
<stop offset="0.18" stop-color="#AB8D60" stop-opacity="0.02"/>
<stop offset="0.33" stop-color="#AB8D60" stop-opacity="0.08"/>
<stop offset="0.48" stop-color="#AB8D60" stop-opacity="0.18"/>
<stop offset="0.62" stop-color="#AB8D60" stop-opacity="0.33"/>
<stop offset="0.75" stop-color="#AB8D60" stop-opacity="0.51"/>
<stop offset="0.88" stop-color="#AB8D60" stop-opacity="0.74"/>
<stop offset="1" stop-color="#AB8D60"/>
</linearGradient>
<linearGradient id="paint14_linear_3580_2349" x1="14.6596" y1="20.5539" x2="9.3332" y2="20.5539" gradientUnits="userSpaceOnUse">
<stop offset="0.06" stop-color="#F8CEA3" stop-opacity="0"/>
<stop offset="0.09" stop-color="#F8CEA3" stop-opacity="0.06"/>
<stop offset="0.19" stop-color="#F8CEA3" stop-opacity="0.28"/>
<stop offset="0.3" stop-color="#F8CEA3" stop-opacity="0.47"/>
<stop offset="0.4" stop-color="#F8CEA3" stop-opacity="0.63"/>
<stop offset="0.51" stop-color="#F8CEA3" stop-opacity="0.77"/>
<stop offset="0.63" stop-color="#F8CEA3" stop-opacity="0.87"/>
<stop offset="0.74" stop-color="#F8CEA3" stop-opacity="0.94"/>
<stop offset="0.86" stop-color="#F8CEA3" stop-opacity="0.99"/>
<stop offset="1" stop-color="#F8CEA3"/>
</linearGradient>
<linearGradient id="paint15_linear_3580_2349" x1="17.2079" y1="25.003" x2="22.2602" y2="23.3165" gradientUnits="userSpaceOnUse">
<stop offset="0.06" stop-color="#F8CEA3" stop-opacity="0"/>
<stop offset="0.09" stop-color="#F8CEA3" stop-opacity="0.06"/>
<stop offset="0.19" stop-color="#F8CEA3" stop-opacity="0.28"/>
<stop offset="0.3" stop-color="#F8CEA3" stop-opacity="0.47"/>
<stop offset="0.4" stop-color="#F8CEA3" stop-opacity="0.63"/>
<stop offset="0.51" stop-color="#F8CEA3" stop-opacity="0.77"/>
<stop offset="0.63" stop-color="#F8CEA3" stop-opacity="0.87"/>
<stop offset="0.74" stop-color="#F8CEA3" stop-opacity="0.94"/>
<stop offset="0.86" stop-color="#F8CEA3" stop-opacity="0.99"/>
<stop offset="1" stop-color="#F8CEA3"/>
</linearGradient>
<linearGradient id="paint16_linear_3580_2349" x1="5.70133" y1="17.6248" x2="5.70133" y2="14.2609" gradientUnits="userSpaceOnUse">
<stop offset="0.06" stop-color="#F8CEA3" stop-opacity="0"/>
<stop offset="0.09" stop-color="#F8CEA3" stop-opacity="0.06"/>
<stop offset="0.19" stop-color="#F8CEA3" stop-opacity="0.28"/>
<stop offset="0.3" stop-color="#F8CEA3" stop-opacity="0.47"/>
<stop offset="0.4" stop-color="#F8CEA3" stop-opacity="0.63"/>
<stop offset="0.51" stop-color="#F8CEA3" stop-opacity="0.77"/>
<stop offset="0.63" stop-color="#F8CEA3" stop-opacity="0.87"/>
<stop offset="0.74" stop-color="#F8CEA3" stop-opacity="0.94"/>
<stop offset="0.86" stop-color="#F8CEA3" stop-opacity="0.99"/>
<stop offset="1" stop-color="#F8CEA3"/>
</linearGradient>
<linearGradient id="paint17_linear_3580_2349" x1="8.09223" y1="33.6437" x2="8.09223" y2="17.8434" gradientUnits="userSpaceOnUse">
<stop stop-color="#AB8D60" stop-opacity="0"/>
<stop offset="0.22" stop-color="#AB8D60" stop-opacity="0.02"/>
<stop offset="0.37" stop-color="#AB8D60" stop-opacity="0.07"/>
<stop offset="0.51" stop-color="#AB8D60" stop-opacity="0.16"/>
<stop offset="0.63" stop-color="#AB8D60" stop-opacity="0.29"/>
<stop offset="0.75" stop-color="#AB8D60" stop-opacity="0.46"/>
<stop offset="0.86" stop-color="#AB8D60" stop-opacity="0.66"/>
<stop offset="0.96" stop-color="#AB8D60" stop-opacity="0.9"/>
<stop offset="1" stop-color="#AB8D60"/>
</linearGradient>
<linearGradient id="paint18_linear_3580_2349" x1="13.1762" y1="30.891" x2="8.0918" y2="30.891" gradientUnits="userSpaceOnUse">
<stop stop-color="#AB8D60" stop-opacity="0"/>
<stop offset="0.22" stop-color="#AB8D60" stop-opacity="0.02"/>
<stop offset="0.37" stop-color="#AB8D60" stop-opacity="0.07"/>
<stop offset="0.51" stop-color="#AB8D60" stop-opacity="0.16"/>
<stop offset="0.63" stop-color="#AB8D60" stop-opacity="0.29"/>
<stop offset="0.75" stop-color="#AB8D60" stop-opacity="0.46"/>
<stop offset="0.86" stop-color="#AB8D60" stop-opacity="0.66"/>
<stop offset="0.96" stop-color="#AB8D60" stop-opacity="0.9"/>
<stop offset="1" stop-color="#AB8D60"/>
</linearGradient>
<radialGradient id="paint19_radial_3580_2349" cx="0" cy="0" r="1" gradientUnits="userSpaceOnUse" gradientTransform="translate(6.6261 6.6413) scale(3.02844)">
<stop stop-color="#F8CEA3" stop-opacity="0"/>
<stop offset="0.15" stop-color="#F8CEA3" stop-opacity="0.01"/>
<stop offset="0.28" stop-color="#F8CEA3" stop-opacity="0.06"/>
<stop offset="0.41" stop-color="#F8CEA3" stop-opacity="0.13"/>
<stop offset="0.52" stop-color="#F8CEA3" stop-opacity="0.23"/>
<stop offset="0.64" stop-color="#F8CEA3" stop-opacity="0.36"/>
<stop offset="0.75" stop-color="#F8CEA3" stop-opacity="0.52"/>
<stop offset="0.86" stop-color="#F8CEA3" stop-opacity="0.71"/>
<stop offset="0.96" stop-color="#F8CEA3" stop-opacity="0.92"/>
<stop offset="1" stop-color="#F8CEA3"/>
</radialGradient>
<radialGradient id="paint20_radial_3580_2349" cx="0" cy="0" r="1" gradientUnits="userSpaceOnUse" gradientTransform="translate(28.7489 20.7993) scale(2.07701)">
<stop stop-color="#F8CEA3" stop-opacity="0"/>
<stop offset="0.15" stop-color="#F8CEA3" stop-opacity="0.01"/>
<stop offset="0.28" stop-color="#F8CEA3" stop-opacity="0.06"/>
<stop offset="0.41" stop-color="#F8CEA3" stop-opacity="0.13"/>
<stop offset="0.52" stop-color="#F8CEA3" stop-opacity="0.23"/>
<stop offset="0.64" stop-color="#F8CEA3" stop-opacity="0.36"/>
<stop offset="0.75" stop-color="#F8CEA3" stop-opacity="0.52"/>
<stop offset="0.86" stop-color="#F8CEA3" stop-opacity="0.71"/>
<stop offset="0.96" stop-color="#F8CEA3" stop-opacity="0.92"/>
<stop offset="1" stop-color="#F8CEA3"/>
</radialGradient>
</defs>
</svg>
