<svg width="36" height="36" viewBox="0 0 36 36" fill="none" xmlns="http://www.w3.org/2000/svg">
<g clip-path="url(#clip0_3580_2310)">
<path d="M18.0002 33.075C25.4022 33.075 31.4027 27.0745 31.4027 19.6725C31.4027 12.2705 25.4022 6.27002 18.0002 6.27002C10.5982 6.27002 4.59766 12.2705 4.59766 19.6725C4.59766 27.0745 10.5982 33.075 18.0002 33.075Z" fill="url(#paint0_radial_3580_2310)"/>
<path fill-rule="evenodd" clip-rule="evenodd" d="M31.4025 21.555C29.37 23.0775 28.095 25.29 27.5625 26.67L27 26.46C27.555 24.9975 28.8975 22.6875 31.035 21.075L31.4025 21.555Z" fill="#AF903B"/>
<path fill-rule="evenodd" clip-rule="evenodd" d="M34.1777 19.5225C34.3802 20.0175 34.1477 20.58 33.6527 20.775C33.4052 20.8725 32.8502 21.1725 32.1077 21.9075C31.7327 22.2825 31.1177 22.275 30.7502 21.9C30.3752 21.525 30.3827 20.91 30.7577 20.535C31.6577 19.65 32.4152 19.2 32.9252 18.99C33.4127 18.795 33.9752 19.0275 34.1777 19.5225Z" fill="#AF903B"/>
<path opacity="0.5" fill-rule="evenodd" clip-rule="evenodd" d="M34.1777 19.5225C34.3802 20.0175 34.1477 20.58 33.6527 20.775C33.4052 20.8725 32.8502 21.1725 32.1077 21.9075C31.7327 22.2825 31.1177 22.275 30.7502 21.9C30.3752 21.525 30.3827 20.91 30.7577 20.535C31.6577 19.65 32.4152 19.2 32.9252 18.99C33.4127 18.795 33.9752 19.0275 34.1777 19.5225Z" fill="#F5EBC9"/>
<path d="M33.0454 27.7725C33.0454 29.97 30.0379 31.89 25.5529 32.91C23.3329 33.4275 20.7529 33.72 18.0004 33.72C9.69039 33.72 2.96289 31.0575 2.96289 27.7725C2.96289 26.8575 3.48789 25.9875 4.42539 25.215C5.00289 24.735 5.73039 24.2925 6.59289 23.9025C9.35289 22.6275 13.4404 21.825 18.0004 21.825C18.3004 21.825 18.6004 21.825 18.8929 21.8325C26.7904 22.02 33.0454 24.6075 33.0454 27.7725Z" fill="#6B5828"/>
<path opacity="0.2" d="M25.5529 32.91C23.3329 33.4275 20.7529 33.72 18.0004 33.72C9.69039 33.72 2.96289 31.0575 2.96289 27.7725C2.96289 26.8575 3.48789 25.9875 4.42539 25.215C6.49539 27.81 11.9179 32.055 25.5529 32.91Z" fill="#362919"/>
<path d="M18.8938 21.8325L18.0013 27.0675C18.0013 27.0675 10.7263 26.565 6.59375 23.9025C9.35375 22.6275 13.4413 21.825 18.0013 21.825C18.3013 21.825 18.6013 21.825 18.8938 21.8325Z" fill="#362919"/>
<path d="M27.294 11.58C27.294 14.2575 25.0215 18.3525 22.7115 21.66C20.5965 24.6975 18.4515 27.0675 18.0015 27.0675C17.064 27.0675 8.70898 16.71 8.70898 11.58C8.70898 10.6875 8.83648 9.81751 9.07648 9.00001C9.07648 8.99251 9.07648 8.99251 9.07648 8.99251C10.194 5.12251 13.7715 2.28751 18.0015 2.28751C23.1315 2.28751 27.294 6.45001 27.294 11.58Z" fill="#AF903B"/>
<path d="M18.0016 17.28C14.5066 17.28 11.6641 14.4375 11.6641 10.9425C11.6641 7.44751 14.5066 4.60501 18.0016 4.60501C21.4966 4.60501 24.3391 7.44751 24.3391 10.9425C24.3391 14.4375 21.4966 17.28 18.0016 17.28ZM18.0016 5.96251C15.2566 5.96251 13.0216 8.19751 13.0216 10.9425C13.0216 13.6875 15.2566 15.9225 18.0016 15.9225C20.7466 15.9225 22.9816 13.6875 22.9816 10.9425C22.9816 8.19751 20.7466 5.96251 18.0016 5.96251Z" fill="#6B5828"/>
<path opacity="0.2" d="M22.7115 21.66C20.5965 24.6975 18.4515 27.0675 18.0015 27.0675C17.064 27.0675 8.70898 16.71 8.70898 11.58C8.70898 10.6875 8.83648 9.8175 9.07648 9C9.12898 9.4425 10.8765 23.88 22.7115 21.66Z" fill="#6B5828"/>
<path d="M20.746 11.4525C20.296 11.1675 19.516 11.025 18.886 10.9425C19.5235 10.8675 20.3035 10.7175 20.746 10.4325C21.2785 10.095 21.421 9.5175 21.451 9.135C21.4735 8.9025 21.331 8.6775 21.1135 8.595C20.7535 8.46 20.1685 8.34 19.636 8.6775C19.321 8.8725 18.9985 9.2475 18.7135 9.645C18.8935 9.195 19.036 8.7225 19.036 8.3475C19.036 7.7175 18.6235 7.29 18.316 7.0575C18.1285 6.915 17.866 6.915 17.6785 7.0575C17.371 7.29 16.9585 7.7175 16.9585 8.3475C16.9585 8.715 17.101 9.195 17.281 9.645C16.996 9.255 16.6735 8.8725 16.3585 8.6775C15.826 8.34 15.241 8.46 14.881 8.595C14.656 8.6775 14.521 8.895 14.5435 9.135C14.5735 9.5175 14.716 10.095 15.2485 10.4325C15.691 10.7175 16.471 10.86 17.1085 10.9425C16.471 11.0175 15.691 11.1675 15.2485 11.4525C14.716 11.79 14.5735 12.3675 14.5435 12.75C14.521 12.9825 14.6635 13.2075 14.881 13.29C15.241 13.425 15.826 13.545 16.3585 13.2075C16.6735 13.0125 16.996 12.63 17.281 12.24C17.101 12.69 16.951 13.17 16.951 13.5375C16.951 14.1675 17.3635 14.595 17.671 14.8275C17.8585 14.97 18.121 14.97 18.3085 14.8275C18.616 14.595 19.0285 14.1675 19.0285 13.5375C19.0285 13.1625 18.886 12.69 18.6985 12.24C18.9835 12.6375 19.306 13.0125 19.621 13.2075C20.1535 13.545 20.7385 13.425 21.0985 13.29C21.316 13.2075 21.4585 12.99 21.436 12.75C21.4135 12.3675 21.2785 11.7825 20.746 11.4525Z" fill="#F5EBC9"/>
<path opacity="0.2" d="M22.7121 10.995C24.0169 10.995 25.0746 9.93729 25.0746 8.63252C25.0746 7.32775 24.0169 6.27002 22.7121 6.27002C21.4073 6.27002 20.3496 7.32775 20.3496 8.63252C20.3496 9.93729 21.4073 10.995 22.7121 10.995Z" fill="#F5EBC9"/>
<path d="M29.2055 5.62499C29.7689 5.62499 30.2255 5.16832 30.2255 4.60499C30.2255 4.04166 29.7689 3.58499 29.2055 3.58499C28.6422 3.58499 28.1855 4.04166 28.1855 4.60499C28.1855 5.16832 28.6422 5.62499 29.2055 5.62499Z" fill="#A98B60"/>
<path d="M3.98289 8.99248C4.54622 8.99248 5.00289 8.53581 5.00289 7.97248C5.00289 7.40915 4.54622 6.95248 3.98289 6.95248C3.41956 6.95248 2.96289 7.40915 2.96289 7.97248C2.96289 8.53581 3.41956 8.99248 3.98289 8.99248Z" fill="#D2B88A"/>
<path d="M13.4106 31.5C13.974 31.5 14.4306 31.0433 14.4306 30.48C14.4306 29.9167 13.974 29.46 13.4106 29.46C12.8473 29.46 12.3906 29.9167 12.3906 30.48C12.3906 31.0433 12.8473 31.5 13.4106 31.5Z" fill="#D2B88A"/>
<path fill-rule="evenodd" clip-rule="evenodd" d="M29.7155 18.0975C27.638 20.4375 26.6405 23.43 26.3405 25.23L25.6055 25.11C25.9205 23.205 26.963 20.0775 29.153 17.6025L29.7155 18.0975Z" fill="#362919"/>
<path fill-rule="evenodd" clip-rule="evenodd" d="M32.5653 14.955C32.9328 15.5025 32.7828 16.2375 32.2428 16.605C31.9728 16.785 31.3728 17.2875 30.6528 18.3525C30.2853 18.9 29.5503 19.0425 29.0028 18.675C28.4553 18.3075 28.3128 17.5725 28.6728 17.025C29.5353 15.7275 30.3528 15 30.9153 14.625C31.4628 14.2575 32.2053 14.4075 32.5653 14.955Z" fill="#AF903B"/>
<path fill-rule="evenodd" clip-rule="evenodd" d="M4.59766 21.555C6.63016 23.0775 7.90516 25.29 8.43766 26.67L9.00016 26.46C8.44516 24.9975 7.10266 22.6875 4.96516 21.075L4.59766 21.555Z" fill="#AF903B"/>
<path fill-rule="evenodd" clip-rule="evenodd" d="M1.82304 19.5225C1.62054 20.0175 1.85304 20.58 2.34804 20.775C2.59554 20.8725 3.15054 21.1725 3.89304 21.9075C4.26804 22.2825 4.88304 22.275 5.25054 21.9C5.62554 21.525 5.61804 20.91 5.24304 20.535C4.35054 19.65 3.58554 19.2 3.07554 18.9975C2.58804 18.795 2.02554 19.0275 1.82304 19.5225Z" fill="#AF903B"/>
<path opacity="0.5" fill-rule="evenodd" clip-rule="evenodd" d="M1.82304 19.5225C1.62054 20.0175 1.85304 20.58 2.34804 20.775C2.59554 20.8725 3.15054 21.1725 3.89304 21.9075C4.26804 22.2825 4.88304 22.275 5.25054 21.9C5.62554 21.525 5.61804 20.91 5.24304 20.535C4.35054 19.65 3.58554 19.2 3.07554 18.9975C2.58804 18.795 2.02554 19.0275 1.82304 19.5225Z" fill="#F5EBC9"/>
<path fill-rule="evenodd" clip-rule="evenodd" d="M6.28711 18.0975C8.36461 20.4375 9.36211 23.43 9.66211 25.23L10.3971 25.11C10.0821 23.205 9.03961 20.0775 6.84961 17.6025L6.28711 18.0975Z" fill="#362919"/>
<path fill-rule="evenodd" clip-rule="evenodd" d="M3.43623 14.955C3.06873 15.5025 3.21873 16.2375 3.75873 16.605C4.02873 16.785 4.62873 17.2875 5.34873 18.3525C5.71623 18.9 6.45123 19.0425 6.99873 18.675C7.54623 18.3075 7.68873 17.5725 7.32873 17.025C6.46623 15.7275 5.64873 15 5.08623 14.625C4.53873 14.2575 3.79623 14.4075 3.43623 14.955Z" fill="#AF903B"/>
<path d="M27.7739 27.24C27.4214 27.015 26.8064 26.9025 26.3039 26.8425C26.8064 26.7825 27.4214 26.6625 27.7739 26.445C28.1939 26.1825 28.3064 25.725 28.3289 25.425C28.3439 25.2375 28.2389 25.065 28.0589 24.9975C27.7739 24.8925 27.3164 24.795 26.8964 25.065C26.6489 25.2225 26.3939 25.515 26.1689 25.83C26.3114 25.4775 26.4239 25.1025 26.4239 24.81C26.4239 24.315 26.0939 23.9775 25.8539 23.79C25.7039 23.6775 25.5014 23.6775 25.3514 23.79C25.1114 23.97 24.7814 24.315 24.7814 24.81C24.7814 25.1025 24.8939 25.4775 25.0364 25.83C24.8114 25.5225 24.5564 25.2225 24.3089 25.065C23.8889 24.8025 23.4314 24.8925 23.1464 24.9975C22.9739 25.065 22.8614 25.2375 22.8764 25.425C22.8989 25.725 23.0114 26.1825 23.4314 26.445C23.7839 26.67 24.3989 26.7825 24.9014 26.8425C24.3989 26.9025 23.7839 27.0225 23.4314 27.24C23.0114 27.5025 22.8989 27.96 22.8764 28.26C22.8614 28.4475 22.9664 28.62 23.1464 28.68C23.4314 28.785 23.8889 28.8825 24.3089 28.62C24.5564 28.4625 24.8114 28.1625 25.0364 27.855C24.8939 28.2075 24.7814 28.59 24.7814 28.8825C24.7814 29.3775 25.1114 29.715 25.3514 29.9025C25.5014 30.015 25.7039 30.015 25.8539 29.9025C26.0939 29.7225 26.4239 29.385 26.4239 28.8825C26.4239 28.59 26.3114 28.215 26.1689 27.855C26.3939 28.17 26.6489 28.4625 26.8964 28.62C27.3164 28.8825 27.7739 28.7925 28.0589 28.68C28.2314 28.6125 28.3439 28.44 28.3289 28.26C28.3064 27.9675 28.1939 27.51 27.7739 27.24Z" fill="#AF903B"/>
</g>
<defs>
<radialGradient id="paint0_radial_3580_2310" cx="0" cy="0" r="1" gradientUnits="userSpaceOnUse" gradientTransform="translate(17.9999 19.669) scale(13.4016)">
<stop stop-color="#F8CEA3" stop-opacity="0"/>
<stop offset="0.9297" stop-color="#F8CEA3" stop-opacity="0.9297"/>
<stop offset="1" stop-color="#F8CEA3"/>
</radialGradient>
<clipPath id="clip0_3580_2310">
<rect width="36" height="36" fill="white"/>
</clipPath>
</defs>
</svg>
