<svg width="36" height="36" viewBox="0 0 36 36" fill="none" xmlns="http://www.w3.org/2000/svg">
<path d="M18.2288 33.8774C27.1216 33.8774 34.3306 32.0526 34.3306 29.8017C34.3306 27.5507 27.1216 25.726 18.2288 25.726C9.33598 25.726 2.12695 27.5507 2.12695 29.8017C2.12695 32.0526 9.33598 33.8774 18.2288 33.8774Z" fill="url(#paint0_linear_3580_2467)"/>
<path opacity="0.6" d="M17.7882 29.9314C24.92 29.9314 30.7015 24.15 30.7015 17.0182C30.7015 9.88638 24.92 4.10492 17.7882 4.10492C10.6565 4.10492 4.875 9.88638 4.875 17.0182C4.875 24.15 10.6565 29.9314 17.7882 29.9314Z" fill="url(#paint1_radial_3580_2467)"/>
<path opacity="0.3" d="M29.9241 12.5696C28.0633 12.7823 26.7122 12.2365 26.2213 11.9946C26.3066 11.9735 26.3919 11.9501 26.4737 11.9186C27.1505 11.6649 27.6893 11.0735 27.8787 10.3769C28.068 9.68026 27.9032 8.89598 27.4485 8.33611C27.3667 8.23442 27.2755 8.14091 27.1855 8.04624C27.2066 7.95039 27.2171 7.85104 27.2171 7.74819C27.2171 7.19884 26.9038 6.72312 26.4457 6.48819C26.4574 6.31637 26.4609 6.14455 26.4562 5.97741C26.3744 3.21663 22.038 1.91689 20.3023 4.04767C18.3235 4.66364 18.9558 7.34143 18.9558 7.34143C18.9558 7.34143 18.9815 7.66403 19.5683 7.63598C19.6676 8.64351 19.9715 9.64169 20.4718 10.5627C20.4718 10.5627 20.4729 10.5651 20.4741 10.5662C20.7313 11.042 21.0936 11.5784 21.6663 11.6743C21.6757 11.6755 21.685 11.6766 21.6932 11.6778C21.7294 11.6836 21.7645 11.6883 21.8007 11.6907C21.8264 11.693 21.8522 11.6942 21.8779 11.6953C21.8977 11.6953 21.9164 11.6965 21.9363 11.6977C21.9538 11.6977 21.9714 11.7 21.9889 11.6988C21.9877 11.6988 21.9866 11.7012 21.9854 11.7012C21.9515 11.7222 21.9211 11.7456 21.8919 11.769C21.8837 11.776 21.8755 11.783 21.8674 11.79C21.844 11.811 21.8229 11.8333 21.8031 11.8566C21.7937 11.8683 21.7844 11.8788 21.775 11.8905C21.7575 11.9127 21.7411 11.9349 21.7271 11.9583C21.7201 11.97 21.7142 11.9805 21.7072 11.9922C21.6909 12.0203 21.6768 12.0483 21.664 12.0775C21.664 12.0775 21.664 12.0787 21.6628 12.0799C21.4781 12.51 21.6359 13.0313 21.6359 13.0313L19.1019 13.6753C17.3638 14.4538 16.5293 18.6148 16.1366 21.9366C16.1366 21.9366 16.1366 21.9401 16.1354 21.9495C16.1354 21.953 16.1354 21.9577 16.1342 21.9623C16.1167 22.2405 15.9788 24.6974 16.8157 26.2286C17.0529 26.6657 17.3709 27.0269 17.7928 27.242C19.7857 28.2565 21.2572 26.2286 21.2572 26.2286H26.7157C29.0393 28.2413 30.5214 27.8953 31.4728 26.2286C31.5336 26.1222 31.592 26.01 31.6481 25.8943C32.3132 24.5174 32.9128 19.9964 32.9128 19.9964C33.2833 15.833 31.8141 12.3522 29.9264 12.5684L29.9241 12.5696Z" fill="#A98B60"/>
<path d="M27.3162 7.65584C27.4892 7.90363 27.7253 8.10117 27.9158 8.3361C28.3705 8.89714 28.5365 9.68026 28.3459 10.3769C28.1566 11.0735 27.6166 11.6661 26.941 11.9186C26.7026 12.0074 26.4489 12.0565 26.1953 12.0542C25.5653 12.046 24.9645 11.7093 24.5671 11.2208C24.1697 10.7322 23.964 10.1069 23.9126 9.47922C23.8939 9.25363 23.895 9.0222 23.9663 8.80714C24.0365 8.59324 24.172 8.4074 24.3193 8.23675C24.7681 7.71545 25.3339 7.32039 25.9639 7.04922C26.7972 6.68922 26.8417 6.97441 27.3162 7.65701V7.65584Z" fill="#1F1912"/>
<path d="M26.2662 9.16479C27.0486 9.16479 27.6829 8.53055 27.6829 7.74817C27.6829 6.96579 27.0486 6.33154 26.2662 6.33154C25.4839 6.33154 24.8496 6.96579 24.8496 7.74817C24.8496 8.53055 25.4839 9.16479 26.2662 9.16479Z" fill="#750D33"/>
<path d="M25.7269 9.64053C25.624 9.7656 25.4639 9.9456 25.2605 10.1501C25.1156 10.2951 24.9508 10.4482 24.7685 10.6025C24.5511 10.7907 24.3079 10.9765 24.0496 11.1401C23.4535 11.52 22.7756 11.783 22.1316 11.6743C21.5577 11.5785 21.1965 11.0431 20.9382 10.5662C20.3117 9.41378 19.9926 8.13859 19.9961 6.87625C19.9973 6.56534 20.0172 6.25794 20.0569 5.95404C20.0698 5.8617 20.0826 5.77287 20.1001 5.6817V5.67936C20.1796 5.20833 20.3105 4.74079 20.5642 4.33287C22.1327 1.80936 26.8373 3.09975 26.9226 5.97742C26.9589 7.23157 26.5416 8.64586 25.7269 9.64053Z" fill="#1F1912"/>
<path d="M19.4219 7.34264C19.4219 7.34264 19.4733 8.00887 21.1693 7.34264L19.8976 6.16095L19.4219 7.34264Z" fill="#A98B60"/>
<path d="M25.6162 13.1447L22.8484 13.4287L22.714 12.1161L22.4522 9.54818L22.3809 8.86325L25.1475 8.57922L25.6162 13.1447Z" fill="#F8CEA3"/>
<path d="M24.8496 10.4984C24.8496 10.4984 24.0384 12.0015 22.7142 12.1161L22.4512 9.54817L22.5318 9.37518L24.8484 10.4996L24.8496 10.4984Z" fill="#D2B88A"/>
<path d="M17.2805 26.2297C17.5178 26.6669 17.8357 27.028 18.2577 27.2431C20.2505 28.2576 21.7221 26.2297 21.7221 26.2297H27.1805C29.5041 28.2425 30.9862 27.8965 31.9377 26.2297C31.9984 26.1234 32.0569 26.0112 32.113 25.8954C32.778 24.5186 33.3777 19.9975 33.3777 19.9975C33.7482 15.8341 32.279 12.3534 30.3913 12.5696C28.0267 12.8396 26.4851 11.8858 26.4851 11.8858C26.3787 10.2752 25.3361 10.4178 25.3361 10.4178L25.3957 11.0045C24.5904 12.4317 22.7144 12.1161 22.7144 12.1161L22.6618 11.603C21.7606 11.9092 22.1008 13.0336 22.1008 13.0336L19.5667 13.6776C17.8287 14.4561 16.9941 18.6171 16.6014 21.9389C16.6014 21.9389 16.6014 21.9425 16.6003 21.9518C16.6003 21.9553 16.6003 21.96 16.5991 21.9647C16.5816 22.2428 16.4436 24.6997 17.2805 26.2309V26.2297Z" fill="#A98B60"/>
<path d="M17.2805 26.2297C17.5178 26.6669 17.8357 27.028 18.2577 27.2431C20.2505 28.2576 21.7221 26.2297 21.7221 26.2297H27.1805C29.5041 28.2425 30.9862 27.8965 31.9377 26.2297C31.9984 26.1234 32.0569 26.0112 32.113 25.8954C32.778 24.5186 33.3777 19.9975 33.3777 19.9975C33.7482 15.8341 32.279 12.3534 30.3913 12.5696C28.0267 12.8396 26.4851 11.8858 26.4851 11.8858C26.3787 10.2752 25.3361 10.4178 25.3361 10.4178L25.3957 11.0045C24.5904 12.4317 22.7144 12.1161 22.7144 12.1161L22.6618 11.603C21.7606 11.9092 22.1008 13.0336 22.1008 13.0336L19.5667 13.6776C17.8287 14.4561 16.9941 18.6171 16.6014 21.9389C16.6014 21.9389 16.6014 21.9425 16.6003 21.9518C16.6003 21.9553 16.6003 21.96 16.5991 21.9647C16.5816 22.2428 16.4436 24.6997 17.2805 26.2309V26.2297Z" fill="url(#paint2_linear_3580_2467)"/>
<path d="M17.2805 26.2297C17.5178 26.6669 17.8357 27.028 18.2577 27.2431C20.2505 28.2576 21.7221 26.2297 21.7221 26.2297H27.1805C29.5041 28.2425 30.9862 27.8965 31.9377 26.2297C31.9984 26.1234 32.0569 26.0112 32.113 25.8954C32.778 24.5186 33.3777 19.9975 33.3777 19.9975C33.7482 15.8341 32.279 12.3534 30.3913 12.5696C28.0267 12.8396 26.4851 11.8858 26.4851 11.8858C26.3787 10.2752 25.3361 10.4178 25.3361 10.4178L25.3957 11.0045C24.5904 12.4317 22.7144 12.1161 22.7144 12.1161L22.6618 11.603C21.7606 11.9092 22.1008 13.0336 22.1008 13.0336L19.5667 13.6776C17.8287 14.4561 16.9941 18.6171 16.6014 21.9389C16.6014 21.9389 16.6014 21.9425 16.6003 21.9518C16.6003 21.9553 16.6003 21.96 16.5991 21.9647C16.5816 22.2428 16.4436 24.6997 17.2805 26.2309V26.2297Z" fill="url(#paint3_linear_3580_2467)"/>
<path d="M30.4668 21.33C30.4668 21.33 31.8098 21.8127 31.6952 23.7694" stroke="#A98B60" stroke-width="0.5" stroke-linecap="round" stroke-linejoin="round"/>
<path opacity="0.3" d="M30.5008 15.307C30.5008 15.307 30.364 17.4705 29.6066 20.1413C29.3904 20.9069 29.1216 21.7145 28.7908 22.5245C28.2695 23.8044 27.5916 25.0913 26.7138 26.2297L18.9551 23.6127C18.9551 23.6127 22.9911 18.7843 22.9934 14.3895L30.5008 15.307Z" fill="url(#paint4_linear_3580_2467)"/>
<path d="M30.9676 15.307C30.9676 15.307 30.8308 17.4705 30.0734 20.1413C29.8572 20.9069 29.5884 21.7145 29.2576 22.5245C28.7363 23.8044 28.0584 25.0913 27.1806 26.2297L19.4219 23.6127C19.4219 23.6127 23.4578 18.7843 23.4602 14.3895L30.9676 15.307Z" fill="#F8CEA3"/>
<path d="M20.0059 23.4397C20.3869 22.9418 21.0625 22.0103 21.7439 20.8239C23.0191 18.6043 23.7099 16.574 23.7999 14.7845L30.5885 15.6144C30.5195 16.3122 30.3033 18.0432 29.7352 20.0466C29.505 20.8636 29.2338 21.6526 28.9322 22.3936C28.4016 23.6969 27.7692 24.8482 27.0527 25.8183L20.0059 23.4409V23.4397Z" fill="white"/>
<path d="M26.3924 18.5599C26.9359 18.5599 27.3765 18.1192 27.3765 17.5757C27.3765 17.0322 26.9359 16.5916 26.3924 16.5916C25.8488 16.5916 25.4082 17.0322 25.4082 17.5757C25.4082 18.1192 25.8488 18.5599 26.3924 18.5599Z" fill="#A98B60"/>
<path d="M25.9908 17.7768C26.0329 17.8036 26.0995 17.8025 26.0563 17.882C26.0212 17.9462 25.9827 17.9743 25.9125 17.9322C25.8786 17.9112 25.8564 17.8539 25.7734 17.9065C25.9347 18.076 26.0434 18.3191 26.3158 18.3027C26.5005 18.2922 26.6828 18.2081 26.8476 18.0853C26.7705 18.0199 26.7366 18.0701 26.6968 18.0818C26.6325 18.1005 26.5928 18.0783 26.5823 18.0129C26.5717 17.9486 26.5986 17.9275 26.6664 17.9123C27.0066 17.8305 27.141 17.5582 27.0159 17.2134C26.9995 17.2321 26.9832 17.2473 26.9727 17.266C26.8967 17.4074 26.7447 17.4285 26.6208 17.4366C26.4911 17.4448 26.5577 17.3022 26.5355 17.2262C26.5121 17.1468 26.4362 17.1736 26.3812 17.1643C26.3275 17.1549 26.2959 17.1877 26.2842 17.2368C26.2515 17.384 26.2597 17.3724 26.1393 17.2952C26.0329 17.2274 25.9873 17.1374 25.9628 17.0252C25.7045 17.2543 25.7162 17.6049 25.9908 17.7779V17.7768Z" fill="white"/>
<path d="M28.9226 20.3657C28.9027 20.3657 28.8828 20.3634 28.863 20.3599L23.4712 19.2355C23.3134 19.2027 23.2117 19.0473 23.2444 18.8895C23.2771 18.7317 23.4326 18.63 23.5904 18.6627L28.9822 19.7872C29.14 19.8199 29.2417 19.9753 29.209 20.1331C29.1797 20.2711 29.0582 20.3657 28.9238 20.3657H28.9226Z" fill="url(#paint5_linear_3580_2467)"/>
<path d="M28.4701 21.33C28.4619 21.33 28.4537 21.33 28.4455 21.3277L23.0537 20.2033C22.9906 20.1904 22.9497 20.1285 22.9637 20.0654C22.9766 20.0022 23.0385 19.9613 23.1016 19.9754L28.4934 21.0998C28.5566 21.1126 28.5975 21.1746 28.5834 21.2377C28.5717 21.2926 28.5238 21.3312 28.4689 21.3312L28.4701 21.33Z" fill="url(#paint6_linear_3580_2467)"/>
<path d="M28.3119 21.8922C28.3037 21.8922 28.2955 21.8922 28.2873 21.8899L22.8955 20.7655C22.8324 20.7526 22.7915 20.6907 22.8055 20.6275C22.8183 20.5644 22.8803 20.5235 22.9434 20.5375L28.3352 21.662C28.3983 21.6748 28.4393 21.7368 28.4252 21.7999C28.4135 21.8548 28.3656 21.8934 28.3107 21.8934L28.3119 21.8922Z" fill="url(#paint7_linear_3580_2467)"/>
<path d="M28.1537 22.4544C28.1455 22.4544 28.1373 22.4544 28.1291 22.4521L22.7373 21.3277C22.6742 21.3148 22.6333 21.2529 22.6473 21.1897C22.6601 21.1266 22.7221 21.0857 22.7852 21.0997L28.177 22.2242C28.2401 22.237 28.2811 22.299 28.267 22.3621C28.2553 22.417 28.2074 22.4556 28.1525 22.4556L28.1537 22.4544Z" fill="url(#paint8_linear_3580_2467)"/>
<path d="M27.9954 23.0178C27.9873 23.0178 27.9791 23.0178 27.9709 23.0154L22.5791 21.891C22.516 21.8782 22.4751 21.8162 22.4891 21.7531C22.5019 21.69 22.5639 21.6491 22.627 21.6631L28.0188 22.7875C28.0819 22.8004 28.1229 22.8623 28.1088 22.9254C28.0971 22.9804 28.0492 23.0189 27.9943 23.0189L27.9954 23.0178Z" fill="url(#paint9_linear_3580_2467)"/>
<path opacity="0.3" d="M30.0727 20.1413C29.8564 20.9069 29.5876 21.7145 29.2568 22.5245C29.2101 22.4918 29.1703 22.4451 29.1376 22.3995C28.8466 22.0009 28.7495 21.4667 28.8828 20.991C28.6104 20.6976 28.3253 20.3809 28.2551 19.9858C28.2212 19.7976 28.2399 19.6048 28.2586 19.4143C28.2738 19.2576 28.2902 19.101 28.3054 18.9444C28.3159 18.8404 28.3264 18.734 28.3708 18.6393C28.6806 17.9801 29.3807 18.2034 29.7092 18.6919C29.8997 18.9771 29.9873 19.3184 30.0329 19.6586C30.0551 19.8187 30.068 19.98 30.0727 20.1413Z" fill="#A98B60"/>
<path d="M31.0688 18.7972L31.6626 17.799C31.7233 17.6962 31.7093 17.5641 31.6263 17.4904C31.4837 17.3654 31.2336 17.252 30.9122 17.5489C30.4026 18.0211 30.3359 18.5494 30.3359 18.5494L31.0676 18.7972H31.0688Z" fill="white"/>
<path d="M31.0688 18.7972L31.6626 17.799C31.7233 17.6962 31.7093 17.5641 31.6263 17.4904C31.4837 17.3654 31.2336 17.252 30.9122 17.5489C30.4026 18.0211 30.3359 18.5494 30.3359 18.5494L31.0676 18.7972H31.0688Z" fill="url(#paint10_linear_3580_2467)"/>
<path d="M31.6935 19.3313C31.6596 18.8895 31.2564 18.4547 30.8648 18.1321C30.672 17.9217 30.3996 17.7487 30.1133 17.6096C30.1121 17.6096 30.1098 17.6073 30.1098 17.6073C29.8643 17.4881 29.6083 17.3911 29.3851 17.3139C29.3547 17.3022 29.3232 17.2929 29.2904 17.2952C29.2507 17.2987 29.2156 17.3186 29.1852 17.3431C29.0648 17.4448 29.0391 17.6412 29.1256 17.7709C28.9842 17.737 28.8393 17.8633 28.8124 18.007C28.7878 18.1508 28.8252 18.3717 28.9199 18.4828C28.7376 18.4676 28.5973 18.5412 28.5576 18.7177C28.5178 18.8954 28.5926 19.0847 28.7212 19.2133C28.5681 19.1665 28.4173 19.3325 28.422 19.4915C28.4255 19.6516 28.533 19.7895 28.6452 19.9041C28.8732 20.1355 29.142 20.3237 29.4085 20.5083C28.706 21.8864 29.1595 22.1926 29.6235 22.2195C29.9683 22.2394 30.3026 22.0968 30.5504 21.8572C31.7625 20.6837 31.6912 19.3313 31.6912 19.3313H31.6935Z" fill="white"/>
<path d="M31.6935 19.3313C31.6596 18.8895 31.2564 18.4547 30.8648 18.1321C30.672 17.9217 30.3996 17.7487 30.1133 17.6096C30.1121 17.6096 30.1098 17.6073 30.1098 17.6073C29.8643 17.4881 29.6083 17.3911 29.3851 17.3139C29.3547 17.3022 29.3232 17.2929 29.2904 17.2952C29.2507 17.2987 29.2156 17.3186 29.1852 17.3431C29.0648 17.4448 29.0391 17.6412 29.1256 17.7709C28.9842 17.737 28.8393 17.8633 28.8124 18.007C28.7878 18.1508 28.8252 18.3717 28.9199 18.4828C28.7376 18.4676 28.5973 18.5412 28.5576 18.7177C28.5178 18.8954 28.5926 19.0847 28.7212 19.2133C28.5681 19.1665 28.4173 19.3325 28.422 19.4915C28.4255 19.6516 28.533 19.7895 28.6452 19.9041C28.8732 20.1355 29.142 20.3237 29.4085 20.5083C28.706 21.8864 29.1595 22.1926 29.6235 22.2195C29.9683 22.2394 30.3026 22.0968 30.5504 21.8572C31.7625 20.6837 31.6912 19.3313 31.6912 19.3313H31.6935Z" fill="url(#paint11_linear_3580_2467)"/>
<path d="M28.7227 19.2133C28.7227 19.2133 29.5163 19.4833 30.0469 19.9964" stroke="#A98B60" stroke-width="0.68" stroke-linecap="round" stroke-linejoin="round"/>
<path d="M28.9219 18.4827C28.9219 18.4827 29.8733 18.8603 30.4671 19.4832" stroke="#A98B60" stroke-width="0.68" stroke-linecap="round" stroke-linejoin="round"/>
<path d="M29.1289 17.7721C29.1289 17.7721 30.2323 18.173 30.9698 19.0192" stroke="#A98B60" stroke-width="0.68" stroke-linecap="round" stroke-linejoin="round"/>
<path opacity="0.5" d="M22.7145 12.1161C22.7145 12.1161 22.4468 12.122 22.1289 12.0811C22.1897 11.9338 22.2925 11.7994 22.455 11.6988C22.5263 11.6977 22.5976 11.693 22.6701 11.6837L22.7145 12.115V12.1161Z" fill="#1F1912"/>
<path opacity="0.5" d="M24.1423 13.9512C24.1423 13.9512 22.3878 14.9984 21.4668 13.1949L22.1015 13.0336C22.1015 13.0336 22.4884 14.3778 24.1423 13.9512Z" fill="url(#paint12_linear_3580_2467)"/>
<path d="M27.0617 7.75754C27.064 7.52845 26.967 7.27131 26.7508 7.19534C26.6257 7.14975 26.4866 7.17547 26.3604 7.2117C26.0986 7.29118 25.8905 7.42676 25.6743 7.58339C25.6346 7.61261 25.6018 7.643 25.5691 7.67105C25.5212 7.29352 25.4113 6.92066 25.1799 6.60391C24.8678 6.17845 24.3722 5.89793 23.8685 5.68521C23.152 5.38715 22.3688 5.20014 21.5927 5.24222C21.0574 5.27027 20.5466 5.42923 20.1001 5.6817C20.0826 5.77287 20.0698 5.8617 20.0569 5.95404C20.0183 6.25793 19.9985 6.56534 19.9961 6.87625C19.9926 8.13858 20.3117 9.41378 20.9382 10.5662C21.1953 11.0431 21.5565 11.5785 22.1316 11.6743C22.7756 11.7818 23.4535 11.52 24.0496 11.1401C24.3079 10.9765 24.5511 10.7907 24.7685 10.6025C25.063 10.2378 25.2792 9.81702 25.4172 9.3717C25.672 9.38105 25.9279 9.31793 26.1477 9.18936C26.3663 9.06196 26.5474 8.87261 26.697 8.66923C26.8957 8.40391 27.0559 8.09066 27.0617 7.75638V7.75754Z" fill="white"/>
<path d="M27.0613 7.75638C27.0555 8.09066 26.8942 8.40391 26.6967 8.66806C26.5471 8.87261 26.3659 9.06079 26.1473 9.18819C25.9299 9.31677 25.6728 9.37988 25.418 9.37053C25.2789 9.81586 25.0638 10.2366 24.7693 10.6025C24.5519 10.7895 24.3087 10.9765 24.0504 11.1401C23.6191 11.4148 23.1434 11.6287 22.67 11.6848C22.5976 11.6942 22.5251 11.6988 22.455 11.7C22.3463 11.7012 22.2387 11.693 22.1312 11.6755C21.5573 11.5796 21.195 11.0443 20.939 10.5674C20.3125 9.41378 19.9934 8.13975 19.9981 6.87741C19.9981 6.56651 20.0191 6.2591 20.0577 5.95521C20.0706 5.86404 20.0823 5.77287 20.101 5.68287C20.5486 5.42923 21.0594 5.27144 21.5936 5.24222C22.3697 5.20014 23.1528 5.38715 23.8693 5.68521C24.373 5.89793 24.8686 6.17845 25.1807 6.60274C25.411 6.91949 25.5208 7.29235 25.5699 7.66988C25.6015 7.64066 25.6354 7.61144 25.6739 7.58222C25.8902 7.4256 26.1006 7.28884 26.3612 7.21053C26.4874 7.17313 26.6265 7.14858 26.7516 7.19417C26.9678 7.27014 27.0637 7.52845 27.0625 7.75638H27.0613Z" fill="url(#paint13_linear_3580_2467)"/>
<path d="M21.3184 9.92224C21.3184 9.92224 21.8256 10.4693 22.9173 9.89069C22.9173 9.89069 21.6643 10.9473 21.3184 9.92224Z" fill="#750D33"/>
<path d="M20.9521 8.81651C21.0767 8.81651 21.1777 8.64958 21.1777 8.44366C21.1777 8.23773 21.0767 8.0708 20.9521 8.0708C20.8276 8.0708 20.7266 8.23773 20.7266 8.44366C20.7266 8.64958 20.8276 8.81651 20.9521 8.81651Z" fill="#1F1912"/>
<path d="M22.8584 8.86559C22.983 8.86559 23.084 8.69865 23.084 8.49273C23.084 8.28681 22.983 8.11987 22.8584 8.11987C22.7338 8.11987 22.6328 8.28681 22.6328 8.49273C22.6328 8.69865 22.7338 8.86559 22.8584 8.86559Z" fill="#1F1912"/>
<path d="M25.5691 7.67103L25.1016 8.36999V6.8996L25.5691 7.67103Z" fill="#1F1912"/>
<path d="M19.4223 7.34259C19.9261 7.08078 20.4824 6.94169 21.0482 6.88441L20.8658 5.85935L21.3988 6.85753C21.9867 6.83065 22.5735 6.88441 23.1146 6.97324L23.2643 5.99493L23.4618 7.03753C24.6692 7.28065 25.5692 7.67104 25.5692 7.67104L26.2682 6.6974L25.8252 5.23753L20.7688 4.04883C18.79 4.6648 19.4223 7.34376 19.4223 7.34376V7.34259Z" fill="#1F1912"/>
<path d="M26.3644 7.74702C26.1166 7.83585 25.8139 8.02754 25.7344 8.44364C25.7344 8.44364 26.1318 8.46468 25.9833 8.85157C25.9833 8.85157 26.4953 8.5278 26.6636 8.04273C26.7267 7.85923 26.5479 7.6804 26.3655 7.74585L26.3644 7.74702Z" fill="url(#paint14_linear_3580_2467)"/>
<path d="M9.58145 11.1402L7.85392 11.8356L7.45535 11.9957C6.75288 12.2786 5.96275 12.2576 5.28132 11.9291C4.92366 11.7573 4.61275 11.5633 4.34509 11.3576C2.66314 10.0707 2.60938 8.31158 2.60938 8.31158L6.23275 8.31509L9.58262 11.1402H9.58145Z" fill="#D2B88A"/>
<path d="M9.58145 11.1402L7.85392 11.8356L7.45535 11.9957C6.75288 12.2786 5.96275 12.2576 5.28132 11.9291C4.92366 11.7573 4.61275 11.5633 4.34509 11.3576C2.66314 10.0707 2.60938 8.31158 2.60938 8.31158L6.23275 8.31509L9.58262 11.1402H9.58145Z" fill="url(#paint15_linear_3580_2467)"/>
<path d="M7.85453 11.8344L7.45596 11.9946C6.7535 12.2774 5.96337 12.2564 5.28194 11.9279C4.92427 11.7561 4.61337 11.5621 4.3457 11.3564C4.3796 11.3599 5.76934 11.5048 6.24739 10.952C6.24739 10.952 6.98843 11.7865 7.8557 11.8333L7.85453 11.8344Z" fill="#A98B60"/>
<path opacity="0.3" d="M9.30078 13.8892C9.30429 13.8974 9.30779 13.9067 9.31013 13.9149C9.30663 13.9067 9.30312 13.8974 9.30078 13.8892ZM9.46091 12.9425C9.45857 12.9425 9.45624 12.9448 9.45507 12.9448C9.4574 12.9436 9.45857 12.9425 9.46091 12.9413V12.9425Z" fill="#A98B60"/>
<path opacity="0.3" d="M25.1512 24.7898C25.129 24.4964 24.9432 24.2065 24.7071 23.9505L25.1208 23.2562C25.1816 23.1534 25.1676 23.0213 25.0846 22.9477C24.942 22.8226 24.6919 22.7092 24.3704 23.0061C24.243 23.1242 24.1437 23.2457 24.0654 23.3626C23.9158 23.2516 23.7463 23.1534 23.571 23.0681C23.5698 23.0681 23.5674 23.0657 23.5674 23.0657C23.4938 23.0295 23.419 22.9968 23.3442 22.9652L23.391 22.6718L24.1297 21.8805L24.3961 20.0583L23.8386 19.8398L24.042 18.5505L23.3804 18.6931L23.4424 18.3179C23.4704 18.1461 23.3056 18.0059 23.1397 18.062L22.4921 18.2817L22.5833 17.7955L18.178 19.689C17.6648 19.1513 17.1634 18.7644 16.773 18.5505C16.3219 18.2022 14.9882 18.1566 14.9882 18.1566L14.3384 18.0994C14.3103 17.9194 14.1619 17.3326 13.4197 17.2087L13.443 16.8966L13.4874 16.4653C13.498 16.4665 13.5097 16.4677 13.5202 16.4688C13.5295 16.4688 13.54 16.4712 13.5494 16.4724C13.6008 16.477 13.6522 16.4805 13.7025 16.4817C13.72 16.4817 13.7376 16.4805 13.7551 16.4805C13.775 16.4805 13.7937 16.4805 13.8135 16.4782C13.8393 16.477 13.865 16.4759 13.8907 16.4735C13.8954 16.4735 13.9 16.4735 13.9047 16.4735C13.9386 16.47 13.9725 16.4653 14.0064 16.4607C14.0134 16.4607 14.0193 16.4595 14.0263 16.4583C14.1303 16.4408 14.2273 16.4092 14.3173 16.366C14.5429 16.2585 14.7299 16.0796 14.8877 15.8751C15.0163 15.7091 15.125 15.5256 15.2197 15.3503C15.6533 14.5508 15.9397 13.6929 16.0741 12.8221C16.1395 12.7601 16.4037 12.489 16.4925 12.074C17.5865 12.2844 17.8156 11.7246 17.8156 11.7246C18.3884 11.0794 15.9654 10.0216 15.9654 10.0216C15.8847 9.70482 15.769 9.39742 15.5948 9.11807C14.1186 6.743 9.8629 7.74703 9.29835 10.2729C9.29835 10.2729 8.25108 10.9753 8.98511 12.8162C9.04355 12.9635 9.11952 13.1026 9.20952 13.2335C9.5216 13.6905 10.3445 15.0405 9.72498 15.7652C9.72498 15.7652 10.106 16.034 10.4263 15.6249L10.3643 15.9698C10.3643 15.9698 10.6028 15.9464 10.791 15.7664L10.7033 16.7143L10.6799 16.6886C9.68874 16.8242 9.20718 17.6552 9.20718 17.6552L8.6403 17.6061C7.82679 17.086 5.76848 17.356 5.76848 17.356C3.88082 17.1398 2.4116 20.6205 2.78212 24.7839C2.78212 24.7839 3.38173 29.3049 4.04679 30.6818C4.1029 30.7975 4.16017 30.9098 4.22212 31.0161C4.77965 31.9933 5.52069 32.5157 6.50601 32.3755L6.50952 32.3988C8.67069 32.0435 10.4134 31.5409 11.7926 31.0161H18.8793C18.8956 31.036 21.9895 34.5881 24.4768 29.0139V29.0116C24.4943 28.9637 24.7819 28.1221 24.0432 27.2875C25.2213 26.1211 25.1512 24.7944 25.1512 24.7944V24.7898Z" fill="#A98B60"/>
<path d="M9.84815 14.6548C9.951 14.7798 10.1111 14.9598 10.3145 15.1656C10.4594 15.3093 10.6243 15.4624 10.8066 15.6179C11.024 15.8049 11.2671 15.9908 11.5254 16.1556C12.1215 16.5354 12.7994 16.7973 13.4446 16.6897C14.0185 16.5939 14.3797 16.0586 14.6368 15.5817C15.2633 14.4292 15.5824 13.154 15.5789 11.8917C15.5778 11.5808 15.5579 11.2734 15.5181 10.9695C15.5053 10.8771 15.4936 10.7895 15.4761 10.6983L15.4749 10.6948C15.3966 10.2237 15.2657 9.75621 15.0109 9.34829C13.5346 6.97323 9.27893 7.97725 8.71438 10.5031C8.67815 10.6609 8.65711 10.8234 8.65243 10.9928C8.61737 12.247 9.03464 13.6613 9.84815 14.6548Z" fill="#1F1912"/>
<path d="M8.71484 10.5031L10.5686 11.3341L15.4765 10.6983L15.4754 10.6948C15.3971 10.2237 15.2661 9.75621 15.0113 9.34829C13.5351 6.97323 9.27939 7.97725 8.71484 10.5031Z" fill="#1F1912"/>
<path d="M17.2325 11.9559C17.2325 11.9559 16.8678 12.8513 14.8574 11.9559L15.1566 10.5229L16.634 11.1331L17.2325 11.9548V11.9559Z" fill="#A98B60"/>
<path d="M2.19813 25.013C2.19813 25.013 2.79774 29.534 3.46281 30.9109C3.51891 31.0266 3.57619 31.1388 3.63813 31.2452C4.58956 32.9119 6.07164 33.2591 8.39528 31.2452H18.2953C22.6702 24.6109 17.7471 19.4704 16.0079 18.6919L15.0377 18.4453L5.53515 17.6155C5.4206 17.6084 5.30372 17.5979 5.1845 17.5851C3.29684 17.3688 1.82762 20.8496 2.19813 25.013Z" fill="white"/>
<path opacity="0.5" d="M6.69486 24.4426C6.69486 24.4426 5.89771 21.0997 7.18693 21.2657L7.72343 23.0072C7.72343 23.0072 7.02563 24.4823 6.69486 24.4426Z" fill="#D2B88A"/>
<path d="M11.9246 20.0665C12.0944 20.0665 12.232 19.9288 12.232 19.7591C12.232 19.5893 12.0944 19.4517 11.9246 19.4517C11.7548 19.4517 11.6172 19.5893 11.6172 19.7591C11.6172 19.9288 11.7548 20.0665 11.9246 20.0665Z" fill="#750D33"/>
<path d="M12.0476 21.2657C12.2174 21.2657 12.355 21.1281 12.355 20.9583C12.355 20.7885 12.2174 20.6509 12.0476 20.6509C11.8779 20.6509 11.7402 20.7885 11.7402 20.9583C11.7402 21.1281 11.8779 21.2657 12.0476 21.2657Z" fill="#750D33"/>
<path d="M14.4057 18.3904L12.9435 23.6606C12.857 23.9739 12.4455 24.0452 12.2574 23.7799C12.2574 23.7799 9.58892 18.8158 8.05541 17.8364C7.24191 17.3162 5.18359 17.5862 5.18359 17.5862C5.18359 17.5862 7.7597 21.4083 6.69489 24.4438L8.39437 31.2464H18.2944C18.2944 31.2464 18.1681 20.5095 16.2185 18.8077C15.7966 18.4395 14.4057 18.3916 14.4057 18.3916V18.3904Z" fill="#1F1912"/>
<path d="M14.4057 18.3904L12.9435 23.6606C12.857 23.9739 12.4455 24.0452 12.2574 23.7799C12.2574 23.7799 9.58892 18.8158 8.05541 17.8364C7.24191 17.3162 5.18359 17.5862 5.18359 17.5862C5.18359 17.5862 7.7597 21.4083 6.69489 24.4438L8.39437 31.2464H18.2944C18.2944 31.2464 18.1681 20.5095 16.2185 18.8077C15.7966 18.4395 14.4057 18.3916 14.4057 18.3916V18.3904Z" fill="url(#paint16_linear_3580_2467)"/>
<path d="M9.95898 18.6651L12.7268 18.9491L12.8612 17.1315L13.123 14.5636L13.1943 13.8787L10.4265 13.5947L9.95898 18.6651Z" fill="#F8CEA3"/>
<path d="M8.71488 10.5031C8.71488 10.5031 7.66761 11.2056 8.40163 13.0465C8.46008 13.1938 8.53605 13.3329 8.62605 13.4638C8.93813 13.9208 9.76098 15.2708 9.1415 15.9955C9.1415 15.9955 9.52254 16.2643 9.8428 15.8552L9.78085 16.2C9.78085 16.2 10.7709 16.1065 10.3068 14.7834L10.0088 12.6877L10.4307 11.4393L8.71605 10.5043L8.71488 10.5031Z" fill="#1F1912"/>
<path d="M10.7266 15.5139C10.7266 15.5139 11.5377 17.017 12.862 17.1315L13.125 14.5636L13.0444 14.3906L10.7277 15.515L10.7266 15.5139Z" fill="#D2B88A"/>
<path d="M8.51371 12.773C8.51138 12.5439 8.60839 12.2868 8.82462 12.2108C8.94969 12.1652 9.08878 12.1909 9.21501 12.2271C9.47683 12.3066 9.68488 12.4422 9.90112 12.5988C9.94086 12.6281 9.97358 12.6584 10.0063 12.6865C10.0542 12.309 10.1641 11.9361 10.3955 11.6193C10.7076 11.1939 11.2032 10.9134 11.707 10.7006C12.4235 10.4026 13.2066 10.2156 13.9827 10.2577C14.518 10.2857 15.0288 10.4447 15.4753 10.6971C15.4928 10.7883 15.5057 10.8771 15.5185 10.9695C15.5571 11.2734 15.577 11.5808 15.5793 11.8917C15.5828 13.154 15.2637 14.4292 14.6372 15.5817C14.3801 16.0586 14.0189 16.5939 13.4438 16.6897C12.7998 16.7973 12.1219 16.5355 11.5258 16.1556C11.2675 15.9919 11.0244 15.8061 10.807 15.6179C10.5124 15.2532 10.2962 14.8325 10.1583 14.3871C9.90345 14.3965 9.64748 14.3334 9.42774 14.2048C9.20917 14.0774 9.028 13.8881 8.87839 13.6847C8.67969 13.4193 8.51956 13.1061 8.51371 12.7718V12.773Z" fill="white"/>
<path d="M8.51485 12.7718C8.5207 13.1061 8.68199 13.4193 8.87953 13.6835C9.02914 13.8881 9.21031 14.0762 9.42888 14.2036C9.64628 14.3322 9.90342 14.3953 10.1582 14.386C10.2973 14.8313 10.5124 15.2521 10.8069 15.6179C11.0243 15.8049 11.2674 15.9919 11.5258 16.1556C11.9571 16.4303 12.4328 16.6442 12.9062 16.7003C12.9786 16.7096 13.0511 16.7143 13.1212 16.7155C13.2299 16.7166 13.3374 16.7084 13.445 16.6909C14.0189 16.5951 14.3812 16.0597 14.6372 15.5829C15.2637 14.4292 15.5828 13.1552 15.5781 11.8929C15.5781 11.5819 15.5571 11.2745 15.5185 10.9706C15.5056 10.8795 15.4939 10.7883 15.4752 10.6983C15.0276 10.4447 14.5168 10.2869 13.9826 10.2577C13.2065 10.2156 12.4234 10.4026 11.7069 10.7006C11.2032 10.9134 10.7076 11.1939 10.3955 11.6182C10.1652 11.9349 10.0554 12.3078 10.0063 12.6853C9.97472 12.6561 9.94083 12.6269 9.90225 12.5977C9.68602 12.441 9.47563 12.3043 9.21498 12.226C9.08875 12.1886 8.94966 12.164 8.82459 12.2096C8.60836 12.2856 8.51251 12.5439 8.51368 12.7718H8.51485Z" fill="url(#paint17_linear_3580_2467)"/>
<path d="M14.6328 11.0665C14.6328 11.0665 15.7315 11.1962 15.4767 13.0675C15.4767 13.0675 16.4901 12.192 15.5188 10.9694L15.1576 10.5229L14.6328 11.0665Z" fill="#1F1912"/>
<path d="M14.6328 11.0665C14.6328 11.0665 15.7315 11.1962 15.4767 13.0675C15.4767 13.0675 16.4901 12.192 15.5188 10.9694L15.1576 10.5229L14.6328 11.0665Z" fill="url(#paint18_linear_3580_2467)"/>
<path d="M10.3125 14.7985C10.33 14.8429 10.3499 14.8862 10.3733 14.9306C10.3464 14.8687 10.3242 14.8231 10.3125 14.7985Z" fill="url(#paint19_linear_3580_2467)"/>
<path d="M10.1582 14.3871C10.2003 14.5216 10.2494 14.6536 10.3055 14.7822L10.1582 14.3871Z" fill="url(#paint20_linear_3580_2467)"/>
<path d="M9.21059 12.7625C9.45839 12.8513 9.76111 13.043 9.84059 13.4591C9.84059 13.4591 9.44319 13.4801 9.59163 13.867C9.59163 13.867 9.07969 13.5432 8.91137 13.0582C8.84826 12.8747 9.02709 12.6958 9.20943 12.7613L9.21059 12.7625Z" fill="url(#paint21_linear_3580_2467)"/>
<path d="M14.2907 14.6244C14.2907 14.6244 13.8664 15.0826 12.9512 14.5975C12.9512 14.5975 14.0008 15.4823 14.2907 14.6244Z" fill="#750D33"/>
<path d="M12.7275 13.5947C12.8521 13.5947 12.9531 13.4277 12.9531 13.2218C12.9531 13.0159 12.8521 12.8489 12.7275 12.8489C12.603 12.8489 12.502 13.0159 12.502 13.2218C12.502 13.4277 12.603 13.5947 12.7275 13.5947Z" fill="#1F1912"/>
<path d="M14.6318 13.6426C14.7564 13.6426 14.8574 13.4756 14.8574 13.2697C14.8574 13.0638 14.7564 12.8969 14.6318 12.8969C14.5072 12.8969 14.4062 13.0638 14.4062 13.2697C14.4062 13.4756 14.5072 13.6426 14.6318 13.6426Z" fill="#1F1912"/>
<path d="M8.71484 10.5031L10.5686 11.3341L15.4765 10.6983L15.4754 10.6948C15.3971 10.2237 15.2661 9.75621 15.0113 9.34829C13.5351 6.97323 9.27939 7.97725 8.71484 10.5031Z" fill="url(#paint22_linear_3580_2467)"/>
<path d="M17.233 11.9559C17.233 11.9559 15.5791 9.70476 12.5016 12.1441C12.5016 12.1441 11.4473 12.7905 10.5684 11.3341C10.5684 11.3341 11.9324 9.14489 15.3828 10.2518C15.3828 10.2518 17.8058 11.3107 17.233 11.9548V11.9559Z" fill="#1F1912"/>
<path d="M10.0946 16.9188L11.8315 18.8568L10.9268 20.6497L8.62305 17.8843C8.62305 17.8843 9.10461 17.0532 10.0958 16.9177L10.0946 16.9188Z" fill="white"/>
<path d="M12.8314 17.4425L11.832 18.8567L13.3223 20.3657L13.7629 18.3869C13.7629 18.3869 13.7162 17.5851 12.8314 17.4413V17.4425Z" fill="white"/>
<path d="M23.8932 29.2406V29.243C21.399 34.8323 18.2945 31.2452 18.2945 31.2452L18 25.6079C19.5195 25.6301 20.6042 26.8667 20.6042 26.8667L21.2973 26.3338C24.5688 27.263 23.919 29.1682 23.8932 29.2406Z" fill="white"/>
<path d="M23.8932 29.2406V29.243C21.399 34.8323 18.2945 31.2452 18.2945 31.2452L18 25.6079C19.5195 25.6301 20.6042 26.8667 20.6042 26.8667L21.2973 26.3338C24.5688 27.263 23.919 29.1682 23.8932 29.2406Z" fill="url(#paint23_linear_3580_2467)"/>
<path d="M23.8935 29.2406V29.243C23.8935 29.243 23.1233 29.2336 22.4068 28.9017C21.8259 28.6317 21.28 28.1489 21.2075 27.2863C21.1842 27.0093 21.2087 26.6937 21.2975 26.3337C24.5691 27.263 23.9192 29.1682 23.8935 29.2406Z" fill="#A98B60"/>
<path d="M23.2104 27.7188L22.4063 28.9017C21.8253 28.6317 21.2795 28.1489 21.207 27.2863L22.0614 26.6996L23.2104 27.7188Z" fill="#F8CEA3"/>
<path d="M17.0022 20.1787L22.0025 18.0292L19.7817 29.804L14.8574 30.621L17.0022 20.1787Z" fill="#1F1912"/>
<path d="M17.003 20.1787L22.5585 18.2957C22.7233 18.2396 22.8892 18.3799 22.8612 18.5517L21.2365 28.4318C21.1956 28.6831 21.0121 28.8876 20.7678 28.9566L14.8594 30.6199L17.0042 20.1787H17.003Z" fill="white"/>
<path d="M23.4588 18.7842L23.2555 20.0735L22.5963 24.245L22.2129 26.668L21.7699 29.4744L14.8574 30.621L15.0129 29.8671L15.415 27.9035L17.0022 20.1787L23.4588 18.7842Z" fill="#750D33"/>
<path opacity="0.2" d="M19.0719 27.0724C19.0719 27.3564 18.9187 27.6241 18.7119 27.8193C18.5061 28.0145 18.2525 28.1501 18.0012 28.2833C17.4869 28.5568 16.9563 28.8338 16.3777 28.8969C16.2328 28.9133 16.0808 28.9168 15.9546 28.9904C15.8634 29.043 15.7956 29.1272 15.7267 29.2067C15.5478 29.4112 15.2895 29.6742 15.0137 29.8671L15.4158 27.9034C15.4987 27.8356 15.5817 27.7679 15.6647 27.7001C16.0948 27.3482 16.5296 26.9929 17.0322 26.7556C17.5348 26.5184 18.1193 26.4085 18.6511 26.5686C18.7773 26.6072 18.9047 26.6645 18.983 26.7708C19.0461 26.8562 19.0707 26.966 19.0719 27.0724Z" fill="#1F1912"/>
<path opacity="0.2" d="M22.5967 24.245L22.2134 26.668C21.8697 26.5897 21.5132 26.495 21.2643 26.2472C20.8856 25.8709 20.8903 25.2035 21.2222 24.785C21.117 24.5793 21.1217 24.321 21.2327 24.1188C21.4571 23.7085 22.0638 23.4467 22.4039 23.8675C22.4927 23.9785 22.5488 24.1094 22.5967 24.245Z" fill="#1F1912"/>
<path d="M23.815 20.2921L23.2563 20.0735L22.8086 22.9056L23.5485 22.1143L23.815 20.2921Z" fill="#750D33"/>
<path d="M23.9438 24.4881L24.5376 23.4899C24.5983 23.3871 24.5843 23.255 24.5013 23.1814C24.3587 23.0563 24.1086 22.9429 23.7872 23.2398C23.2776 23.712 23.2109 24.2403 23.2109 24.2403L23.9426 24.4881H23.9438Z" fill="white"/>
<path d="M23.9438 24.4881L24.5376 23.4899C24.5983 23.3871 24.5843 23.255 24.5013 23.1814C24.3587 23.0563 24.1086 22.9429 23.7872 23.2398C23.2776 23.712 23.2109 24.2403 23.2109 24.2403L23.9426 24.4881H23.9438Z" fill="url(#paint24_linear_3580_2467)"/>
<path d="M24.5685 25.0235C24.5346 24.5816 24.1314 24.1468 23.7398 23.8242C23.547 23.6139 23.2746 23.4409 22.9883 23.3018C22.9871 23.3018 22.9848 23.2994 22.9848 23.2994C22.7393 23.1802 22.4833 23.0832 22.2601 23.0061C22.2297 22.9944 22.1982 22.985 22.1654 22.9874C22.1257 22.9909 22.0906 23.0107 22.0602 23.0353C21.9398 23.137 21.9141 23.3333 22.0006 23.4631C21.8592 23.4292 21.7143 23.5554 21.6874 23.6992C21.6628 23.8429 21.7002 24.0639 21.7949 24.1749C21.6126 24.1597 21.4723 24.2333 21.4326 24.4098C21.3928 24.5875 21.4676 24.7768 21.5962 24.9054C21.4431 24.8587 21.2923 25.0246 21.297 25.1836C21.3005 25.3437 21.408 25.4816 21.5202 25.5962C21.7482 25.8276 22.017 26.0158 22.2835 26.2005C21.581 27.5785 22.0345 27.8848 22.4985 27.9116C22.8433 27.9315 23.1776 27.7889 23.4254 27.5493C24.6375 26.3758 24.5662 25.0235 24.5662 25.0235H24.5685Z" fill="white"/>
<path d="M24.5685 25.0235C24.5346 24.5816 24.1314 24.1468 23.7398 23.8242C23.547 23.6139 23.2746 23.4409 22.9883 23.3018C22.9871 23.3018 22.9848 23.2994 22.9848 23.2994C22.7393 23.1802 22.4833 23.0832 22.2601 23.0061C22.2297 22.9944 22.1982 22.985 22.1654 22.9874C22.1257 22.9909 22.0906 23.0107 22.0602 23.0353C21.9398 23.137 21.9141 23.3333 22.0006 23.4631C21.8592 23.4292 21.7143 23.5554 21.6874 23.6992C21.6628 23.8429 21.7002 24.0639 21.7949 24.1749C21.6126 24.1597 21.4723 24.2333 21.4326 24.4098C21.3928 24.5875 21.4676 24.7768 21.5962 24.9054C21.4431 24.8587 21.2923 25.0246 21.297 25.1836C21.3005 25.3437 21.408 25.4816 21.5202 25.5962C21.7482 25.8276 22.017 26.0158 22.2835 26.2005C21.581 27.5785 22.0345 27.8848 22.4985 27.9116C22.8433 27.9315 23.1776 27.7889 23.4254 27.5493C24.6375 26.3758 24.5662 25.0235 24.5662 25.0235H24.5685Z" fill="url(#paint25_linear_3580_2467)"/>
<path d="M21.5977 24.9042C21.5977 24.9042 22.3913 25.1742 22.9219 25.6874" stroke="#A98B60" stroke-width="0.68" stroke-linecap="round" stroke-linejoin="round"/>
<path d="M21.7969 24.1749C21.7969 24.1749 22.7483 24.5524 23.3421 25.1754" stroke="#A98B60" stroke-width="0.68" stroke-linecap="round" stroke-linejoin="round"/>
<path d="M22.0039 23.4631C22.0039 23.4631 23.1073 23.864 23.8448 24.7102" stroke="#A98B60" stroke-width="0.68" stroke-linecap="round" stroke-linejoin="round"/>
<path d="M15.2702 25.0177C15.767 24.383 16.6272 23.9938 16.6272 23.9938C16.8727 24.0581 17.0118 24.3351 16.4613 24.8108C15.9108 25.2853 15.9587 25.5156 15.9587 25.5156C19.0023 23.8091 19.2267 24.3105 19.2267 24.3105C19.36 24.4718 19.2092 24.6775 18.9462 24.8797C19.7106 24.5829 19.7387 24.8552 19.7387 24.8552C19.8649 25.0025 19.6872 25.2234 19.3927 25.4513C19.6826 25.3707 19.7223 25.4723 19.7223 25.4723C19.9678 25.7447 19.3939 26.2169 18.8445 26.5792C19.2396 26.432 19.2746 26.6213 19.2746 26.6213C19.5517 27.0164 17.5553 27.9877 17.5553 27.9877L15.0517 28.7182L13.8887 26.4974C13.8887 26.4974 14.7758 25.6547 15.2714 25.0188L15.2702 25.0177Z" fill="white"/>
<path d="M15.2702 25.0177C15.767 24.383 16.6272 23.9938 16.6272 23.9938C16.8727 24.0581 17.0118 24.3351 16.4613 24.8108C15.9108 25.2853 15.9587 25.5156 15.9587 25.5156C19.0023 23.8091 19.2267 24.3105 19.2267 24.3105C19.36 24.4718 19.2092 24.6775 18.9462 24.8797C19.7106 24.5829 19.7387 24.8552 19.7387 24.8552C19.8649 25.0025 19.6872 25.2234 19.3927 25.4513C19.6826 25.3707 19.7223 25.4723 19.7223 25.4723C19.9678 25.7447 19.3939 26.2169 18.8445 26.5792C19.2396 26.432 19.2746 26.6213 19.2746 26.6213C19.5517 27.0164 17.5553 27.9877 17.5553 27.9877L15.0517 28.7182L13.8887 26.4974C13.8887 26.4974 14.7758 25.6547 15.2714 25.0188L15.2702 25.0177Z" fill="url(#paint26_linear_3580_2467)"/>
<path d="M18.947 24.8786L17.3574 25.6968" stroke="#A98B60" stroke-width="0.75" stroke-linecap="round" stroke-linejoin="round"/>
<path d="M19.3918 25.4501L17.5742 26.4635" stroke="#A98B60" stroke-width="0.75" stroke-linecap="round" stroke-linejoin="round"/>
<path d="M18.8437 26.5781L17.7871 27.1555" stroke="#A98B60" stroke-width="0.75" stroke-linecap="round" stroke-linejoin="round"/>
<path d="M5.18359 27.9748L5.92463 32.6279C12.9587 31.4719 15.5768 28.7579 15.5768 28.7579L14.4875 25.858L8.34061 27.2571C8.34061 27.2571 7.75619 25.3215 5.18359 27.9748Z" fill="white"/>
<path d="M13.3719 27.3145C13.5416 27.3145 13.6793 27.1768 13.6793 27.007C13.6793 26.8373 13.5416 26.6996 13.3719 26.6996C13.2021 26.6996 13.0645 26.8373 13.0645 27.007C13.0645 27.1768 13.2021 27.3145 13.3719 27.3145Z" fill="#750D33"/>
<path d="M6.45061 27.9514C6.45061 27.9514 6.90879 27.1987 8.34061 27.2572C8.34061 27.2572 7.75619 25.3216 5.18359 27.9748" stroke="#D2B88A" stroke-width="0.59" stroke-miterlimit="10"/>
<path d="M8.51451 24.5291C9.66162 24.5291 10.5915 23.5992 10.5915 22.4521C10.5915 21.305 9.66162 20.3751 8.51451 20.3751C7.36741 20.3751 6.4375 21.305 6.4375 22.4521C6.4375 23.5992 7.36741 24.5291 8.51451 24.5291Z" fill="url(#paint27_radial_3580_2467)"/>
<path d="M9.96028 22.4205C9.89132 22.4112 9.82236 22.4041 9.7534 22.3971C9.61548 22.3831 9.47756 22.3726 9.33964 22.3644C9.14444 22.3527 8.94808 22.3457 8.75288 22.3422C8.85925 22.2312 8.96444 22.1189 9.06613 22.0032C9.14444 21.9144 9.22158 21.8244 9.29639 21.7332C9.33379 21.6876 9.37119 21.6409 9.40743 21.5941C9.44366 21.5474 9.47989 21.4995 9.51379 21.4504C9.4647 21.4843 9.41678 21.5205 9.37002 21.5567C9.32327 21.593 9.27652 21.6304 9.23093 21.6678C9.1386 21.7426 9.04976 21.8197 8.96093 21.898C8.84639 21.9997 8.73301 22.1049 8.62197 22.2113C8.61847 22.0161 8.61145 21.8197 8.59976 21.6245C8.59158 21.4866 8.58106 21.3487 8.56704 21.2108C8.56002 21.1418 8.55184 21.0728 8.54366 21.0039C8.53431 20.9349 8.52496 20.866 8.51327 20.797C8.50041 20.866 8.49106 20.9349 8.48288 21.0039C8.47353 21.0728 8.46652 21.1418 8.4595 21.2108C8.44548 21.3487 8.43496 21.4866 8.42678 21.6245C8.41509 21.8197 8.40808 22.0161 8.40457 22.2113C8.29353 22.1049 8.18132 21.9997 8.06561 21.898C7.97678 21.8197 7.88678 21.7426 7.79561 21.6678C7.75002 21.6304 7.70327 21.593 7.65652 21.5567C7.60977 21.5205 7.56184 21.4843 7.51275 21.4504C7.54665 21.4995 7.58288 21.5474 7.61912 21.5941C7.65535 21.6409 7.69275 21.6876 7.73015 21.7332C7.80496 21.8256 7.8821 21.9144 7.96041 22.0032C8.0621 22.1178 8.1673 22.2312 8.27366 22.341C8.07847 22.3445 7.88327 22.3515 7.68691 22.3632C7.54899 22.3714 7.41106 22.3819 7.27314 22.396C7.20418 22.403 7.13522 22.4112 7.06626 22.4193C6.9973 22.4287 6.92834 22.438 6.85938 22.4509C6.92834 22.4638 6.9973 22.4731 7.06626 22.4825C7.13522 22.4918 7.20418 22.4988 7.27314 22.5058C7.41106 22.5199 7.54899 22.5304 7.68691 22.5386C7.8821 22.5502 8.0773 22.5573 8.27366 22.5608C8.1673 22.6718 8.0621 22.784 7.96041 22.8986C7.8821 22.9874 7.80496 23.0774 7.73015 23.1686C7.69275 23.2141 7.65535 23.2609 7.61912 23.3076C7.58288 23.3544 7.54665 23.4023 7.51275 23.4514C7.56184 23.4175 7.60977 23.3813 7.65652 23.345C7.70327 23.3088 7.75002 23.2714 7.79561 23.234C7.88795 23.1592 7.97678 23.0821 8.06561 23.0038C8.18015 22.9021 8.29353 22.7969 8.4034 22.6905C8.40691 22.8857 8.41392 23.0809 8.42561 23.2773C8.43379 23.4152 8.44431 23.5531 8.45834 23.691C8.46535 23.76 8.47353 23.8289 8.48171 23.8979C8.49106 23.9669 8.50041 24.0358 8.51327 24.1048C8.52613 24.0358 8.53548 23.9669 8.54483 23.8979C8.55418 23.8289 8.56119 23.76 8.56821 23.691C8.58223 23.5531 8.59275 23.4152 8.60093 23.2773C8.61262 23.0821 8.61963 22.8857 8.62314 22.6905C8.73418 22.7969 8.84639 22.9021 8.9621 23.0038C9.05093 23.0821 9.14093 23.1592 9.2321 23.234C9.27769 23.2714 9.32444 23.3088 9.37119 23.345C9.41795 23.3813 9.46587 23.4175 9.51496 23.4514C9.48106 23.4023 9.44483 23.3544 9.4086 23.3076C9.37236 23.2609 9.33496 23.2141 9.29756 23.1686C9.22275 23.0762 9.14561 22.9874 9.0673 22.8986C8.96561 22.784 8.86041 22.6706 8.75405 22.5596C8.94925 22.5561 9.14561 22.5491 9.3408 22.5374C9.47873 22.5292 9.61665 22.5187 9.75457 22.5047C9.82353 22.4976 9.89249 22.4895 9.96145 22.4813C10.0304 22.4719 10.0994 22.4626 10.1683 22.4509C10.0994 22.438 10.0304 22.4287 9.96145 22.4205H9.96028Z" fill="white"/>
<path d="M31.0746 28.26C31.1179 28.4294 31.0711 28.6106 30.9484 28.7333L30.475 29.2172C30.4177 29.2792 30.3745 29.3505 30.3523 29.4335L30.1676 30.0833C30.1209 30.2528 29.9911 30.3826 29.8251 30.4293L29.1718 30.614C29.0923 30.6362 29.0163 30.6794 28.959 30.7367L28.4716 31.2101C28.3489 31.3328 28.1689 31.3796 28.0029 31.3363L27.3461 31.1704C27.2631 31.1481 27.1801 31.1481 27.0971 31.1704L26.4437 31.3363C26.2742 31.3796 26.0931 31.3328 25.9703 31.2101L25.4829 30.7367C25.4257 30.6794 25.3532 30.6362 25.2702 30.614L24.6203 30.4293C24.4509 30.3826 24.3211 30.2528 24.2744 30.0833V30.0798L24.0897 29.4335C24.0675 29.3505 24.0242 29.278 23.967 29.2172L23.4936 28.7333C23.3709 28.6106 23.3241 28.4306 23.3673 28.26L23.5333 27.6066C23.5555 27.5236 23.5555 27.4406 23.5333 27.3576L23.3673 26.7007C23.3241 26.5348 23.3709 26.3548 23.4936 26.232L23.967 25.7446C24.0242 25.6874 24.0675 25.6114 24.0897 25.5319L24.2744 24.8785C24.3211 24.7126 24.4509 24.5828 24.6203 24.5361L25.2702 24.3526C25.3532 24.3304 25.4257 24.2871 25.4829 24.2298L25.9703 23.7565C26.0931 23.6337 26.2731 23.587 26.4437 23.6302L27.0971 23.7962C27.1801 23.8184 27.2631 23.8184 27.3461 23.7962L28.0029 23.6302C28.1689 23.587 28.3489 23.6337 28.4716 23.7565L28.959 24.2298C29.0163 24.2871 29.0923 24.3304 29.1718 24.3526L29.8251 24.5361C29.9911 24.5828 30.1209 24.7126 30.1676 24.8785L30.3523 25.5319C30.3745 25.6114 30.4177 25.6874 30.475 25.7446L30.7964 26.0766L30.9484 26.232C31.0711 26.3548 31.1179 26.5348 31.0746 26.7007L30.9086 27.3576C30.8864 27.4406 30.8864 27.5236 30.9086 27.6066L31.0746 28.26Z" fill="#A98B60"/>
<path d="M31.0746 28.26C31.1179 28.4294 31.0711 28.6106 30.9484 28.7333L30.475 29.2172C30.4177 29.2792 30.3745 29.3505 30.3523 29.4335L30.1676 30.0833C30.1209 30.2528 29.9911 30.3826 29.8251 30.4293L29.1718 30.614C29.0923 30.6362 29.0163 30.6794 28.959 30.7367L28.4716 31.2101C28.3489 31.3328 28.1689 31.3796 28.0029 31.3363L27.3461 31.1704C27.2631 31.1481 27.1801 31.1481 27.0971 31.1704L26.4437 31.3363C26.2742 31.3796 26.0931 31.3328 25.9703 31.2101L25.4829 30.7367C25.4257 30.6794 25.3532 30.6362 25.2702 30.614L24.6203 30.4293C24.4509 30.3826 24.3211 30.2528 24.2744 30.0833V30.0798L24.0897 29.4335C24.0675 29.3505 24.0242 29.278 23.967 29.2172L23.4936 28.7333C23.3709 28.6106 23.3241 28.4306 23.3673 28.26L23.5333 27.6066C23.5555 27.5236 23.5555 27.4406 23.5333 27.3576L23.3673 26.7007C23.3241 26.5348 23.3709 26.3548 23.4936 26.232L23.967 25.7446C24.0242 25.6874 24.0675 25.6114 24.0897 25.5319L24.2744 24.8785C24.3211 24.7126 24.4509 24.5828 24.6203 24.5361L25.2702 24.3526C25.3532 24.3304 25.4257 24.2871 25.4829 24.2298L25.9703 23.7565C26.0931 23.6337 26.2731 23.587 26.4437 23.6302L27.0971 23.7962C27.1801 23.8184 27.2631 23.8184 27.3461 23.7962L28.0029 23.6302C28.1689 23.587 28.3489 23.6337 28.4716 23.7565L28.959 24.2298C29.0163 24.2871 29.0923 24.3304 29.1718 24.3526L29.8251 24.5361C29.9911 24.5828 30.1209 24.7126 30.1676 24.8785L30.3523 25.5319C30.3745 25.6114 30.4177 25.6874 30.475 25.7446L30.7964 26.0766L30.9484 26.232C31.0711 26.3548 31.1179 26.5348 31.0746 26.7007L30.9086 27.3576C30.8864 27.4406 30.8864 27.5236 30.9086 27.6066L31.0746 28.26Z" fill="url(#paint28_linear_3580_2467)"/>
<path d="M25.5523 27.1788C25.4389 27.1496 25.2893 27.1437 25.2332 27.2466C25.1654 27.3705 25.2987 27.5037 25.4121 27.5891C25.8702 27.9292 26.2466 28.3804 26.5014 28.8923C26.5599 29.0092 26.651 29.1518 26.7796 29.1249C26.8427 29.112 26.8883 29.0595 26.9292 29.0104C27.696 28.0917 28.4615 27.173 29.2283 26.2543C29.0693 26.0965 28.8157 26.0661 28.5995 26.1245C28.3832 26.183 28.1962 26.3174 28.0197 26.4541C27.5838 26.7943 27.191 27.1741 26.8147 27.5774C26.5587 27.8497 26.5447 27.6896 26.2676 27.5014C26.0502 27.3541 25.8071 27.2431 25.5523 27.1776V27.1788Z" fill="white"/>
<path d="M30.9679 13.569C32.6405 13.569 33.9963 12.2131 33.9963 10.5405C33.9963 8.86796 32.6405 7.51208 30.9679 7.51208C29.2953 7.51208 27.9395 8.86796 27.9395 10.5405C27.9395 12.2131 29.2953 13.569 30.9679 13.569Z" fill="url(#paint29_radial_3580_2467)"/>
<path d="M33.0788 10.4938C32.9783 10.4809 32.8778 10.4692 32.7773 10.4599C32.5762 10.44 32.3752 10.4248 32.1742 10.412C31.889 10.3956 31.6038 10.3851 31.3186 10.3804C31.474 10.2191 31.6272 10.0543 31.7756 9.88598C31.8901 9.75624 32.0024 9.62533 32.1122 9.49209C32.1672 9.42546 32.2209 9.35767 32.2735 9.28871C32.3261 9.21975 32.3787 9.15079 32.429 9.07949C32.3577 9.12975 32.2875 9.18118 32.2198 9.23494C32.1508 9.28754 32.083 9.34248 32.0164 9.39624C31.882 9.50611 31.7511 9.61832 31.6225 9.7317C31.4542 9.88131 31.2905 10.0333 31.1281 10.1887C31.1234 9.90352 31.1129 9.61832 31.0965 9.33313C31.0837 9.13209 31.0685 8.93105 31.0486 8.73001C31.0381 8.62949 31.0275 8.52897 31.0147 8.42845C31.0018 8.32793 30.9878 8.22741 30.9691 8.12689C30.9516 8.22741 30.9364 8.32793 30.9235 8.42845C30.9107 8.52897 30.899 8.62949 30.8896 8.73001C30.8698 8.93105 30.8546 9.13209 30.8417 9.33313C30.8253 9.61832 30.8148 9.90352 30.8101 10.1887C30.6488 10.0333 30.484 9.88131 30.3169 9.7317C30.1872 9.61715 30.0574 9.50494 29.923 9.39624C29.8564 9.34131 29.7886 9.28754 29.7196 9.23494C29.6507 9.18235 29.5817 9.12975 29.5092 9.07949C29.5595 9.15079 29.6109 9.22092 29.6647 9.28988C29.7173 9.35884 29.7722 9.42663 29.826 9.49326C29.9359 9.62767 30.0481 9.75858 30.1614 9.88715C30.3099 10.0543 30.463 10.2191 30.6185 10.3804C30.3333 10.3851 30.0481 10.3956 29.7629 10.412C29.5618 10.4248 29.3608 10.44 29.1598 10.4599C29.0592 10.4704 28.9587 10.4809 28.8582 10.4949C28.7577 10.5078 28.6572 10.5218 28.5566 10.5405C28.6572 10.5592 28.7577 10.5733 28.8582 10.5861C28.9587 10.599 29.0592 10.6107 29.1598 10.6212C29.3608 10.641 29.5618 10.6562 29.7629 10.6691C30.0481 10.6855 30.3333 10.696 30.6185 10.7007C30.463 10.862 30.3111 11.0268 30.1614 11.1939C30.0469 11.3236 29.9347 11.4534 29.826 11.5878C29.7711 11.6544 29.7173 11.7222 29.6647 11.7912C29.6121 11.8601 29.5595 11.9291 29.5092 12.0016C29.5805 11.9513 29.6507 11.8999 29.7196 11.8461C29.7886 11.7935 29.8564 11.7386 29.923 11.6848C30.0574 11.5749 30.1883 11.4627 30.3169 11.3494C30.484 11.2009 30.6488 11.0478 30.8101 10.8923C30.8148 11.1775 30.8253 11.4627 30.8417 11.7479C30.8546 11.949 30.8698 12.15 30.8896 12.351C30.9001 12.4516 30.9107 12.5521 30.9247 12.6526C30.9375 12.7531 30.9516 12.8536 30.9703 12.9542C30.989 12.8536 31.003 12.7531 31.0159 12.6526C31.0287 12.5521 31.0404 12.4516 31.0509 12.351C31.0708 12.15 31.086 11.949 31.0988 11.7479C31.1152 11.4627 31.1257 11.1775 31.1304 10.8923C31.2917 11.0478 31.4565 11.1997 31.6237 11.3494C31.7534 11.4639 31.8843 11.5761 32.0175 11.6848C32.0842 11.7397 32.152 11.7935 32.2209 11.8461C32.2899 11.8987 32.3588 11.9513 32.4301 12.0016C32.3799 11.9303 32.3285 11.8601 32.2747 11.7923C32.2221 11.7234 32.1672 11.6556 32.1134 11.589C32.0035 11.4546 31.8913 11.3236 31.7779 11.1951C31.6283 11.0268 31.4764 10.8631 31.3209 10.7007C31.6061 10.696 31.8913 10.6855 32.1765 10.6691C32.3775 10.6562 32.5786 10.641 32.7796 10.6212C32.8801 10.6107 32.9807 10.6001 33.0812 10.5873C33.1817 10.5744 33.2822 10.5604 33.3827 10.5417C33.2822 10.5242 33.1817 10.509 33.0812 10.4961L33.0788 10.4938Z" fill="white"/>
<path d="M14.2902 2.42297C14.2902 2.42297 12.9507 4.26739 11.5762 4.71739L13.6205 6.53025C13.6205 6.53025 15.7197 5.52856 16.5799 3.6783L14.2902 2.42297Z" fill="#A98B60"/>
<path opacity="0.3" d="M16.9952 14.853L20.5939 14.0644C20.6944 14.0424 20.7946 14.1066 20.8166 14.2071L21.2665 16.2599C21.2885 16.3604 21.2243 16.4606 21.1238 16.4826L17.5251 17.2712C17.4246 17.2933 17.3244 17.2291 17.3024 17.1286L16.8525 15.0757C16.8305 14.9753 16.8947 14.8751 16.9952 14.853Z" fill="#1F1912"/>
<path d="M16.6601 14.6002L20.2588 13.8116C20.3593 13.7895 20.4595 13.8537 20.4815 13.9542L20.9314 16.0071C20.9534 16.1075 20.8892 16.2078 20.7887 16.2298L17.19 17.0184C17.0895 17.0404 16.9907 16.9771 16.9686 16.8766L16.5185 14.8226C16.4965 14.7222 16.5607 14.6219 16.6612 14.5999L16.6601 14.6002Z" fill="white"/>
<path d="M19.3282 14.8547L20.1857 14.6668C20.2302 14.6571 20.2733 14.6847 20.2831 14.7292L20.5178 15.8002C20.5275 15.8447 20.4999 15.8879 20.4554 15.8976L19.5979 16.0855C19.5534 16.0953 19.5102 16.0676 19.5005 16.0231L19.2658 14.9522C19.2561 14.9076 19.2846 14.8631 19.3291 14.8533L19.3282 14.8547Z" fill="#A98B60"/>
<path d="M17.4542 15.3216L17.0786 15.4039C17.0395 15.4125 17.0148 15.4511 17.0233 15.4902C17.0319 15.5293 17.0705 15.5541 17.1096 15.5455L17.4853 15.4632C17.5244 15.4546 17.5491 15.416 17.5405 15.3769C17.532 15.3378 17.4933 15.313 17.4542 15.3216Z" fill="#D2B88A"/>
<path d="M17.5304 15.671L17.1548 15.7533C17.1157 15.7619 17.0909 15.8006 17.0995 15.8396C17.1081 15.8787 17.1467 15.9035 17.1858 15.8949L17.5614 15.8126C17.6005 15.804 17.6253 15.7654 17.6167 15.7263C17.6081 15.6872 17.5695 15.6625 17.5304 15.671Z" fill="#D2B88A"/>
<path d="M17.6085 16.0216L17.2329 16.1039C17.1938 16.1124 17.1691 16.1511 17.1776 16.1902C17.1862 16.2293 17.2248 16.254 17.2639 16.2454L17.6396 16.1631C17.6786 16.1546 17.7034 16.1159 17.6948 16.0768C17.6863 16.0377 17.6476 16.013 17.6085 16.0216Z" fill="#D2B88A"/>
<path d="M18.793 15.0274L17.7095 15.2648C17.6704 15.2734 17.6456 15.312 17.6542 15.3511C17.6628 15.3902 17.7014 15.415 17.7405 15.4064L18.824 15.169C18.8631 15.1604 18.8878 15.1218 18.8793 15.0827C18.8707 15.0436 18.8321 15.0188 18.793 15.0274Z" fill="#D2B88A"/>
<path d="M18.8691 15.3768L17.7856 15.6142C17.7465 15.6228 17.7218 15.6615 17.7304 15.7005C17.7389 15.7396 17.7776 15.7644 17.8167 15.7558L18.9002 15.5184C18.9393 15.5098 18.964 15.4712 18.9554 15.4321C18.9469 15.393 18.9082 15.3682 18.8691 15.3768Z" fill="#D2B88A"/>
<path d="M18.9473 15.7276L17.8638 15.9651C17.8247 15.9736 17.7999 16.0123 17.8085 16.0514C17.817 16.0905 17.8557 16.1152 17.8948 16.1067L18.9783 15.8692C19.0174 15.8607 19.0421 15.822 19.0336 15.7829C19.025 15.7438 18.9864 15.7191 18.9473 15.7276Z" fill="#D2B88A"/>
<path d="M20.066 14.0902L16.9822 14.7659C16.9197 14.7796 16.8802 14.8411 16.8938 14.9032C16.9074 14.9653 16.969 15.0045 17.0315 14.9909L20.1153 14.3151C20.1777 14.3014 20.2173 14.24 20.2037 14.1779C20.1901 14.1158 20.1284 14.0765 20.066 14.0902Z" fill="#750D33"/>
<path d="M19.8447 15.39C19.9661 15.39 20.0645 15.2917 20.0645 15.1703C20.0645 15.0489 19.9661 14.9506 19.8447 14.9506C19.7234 14.9506 19.625 15.0489 19.625 15.1703C19.625 15.2917 19.7234 15.39 19.8447 15.39Z" fill="#D2B88A"/>
<path d="M20.3836 15.7512L20.4187 15.909L19.6344 16.0808L19.5994 15.923C19.5514 15.7068 19.6894 15.4929 19.9056 15.4449C20.1218 15.397 20.3369 15.5349 20.3836 15.7512Z" fill="#D2B88A"/>
<path d="M8.44867 5.38365C8.38438 5.37547 8.31893 5.36846 8.25464 5.36145C8.1249 5.34859 7.99516 5.33807 7.86659 5.33106C7.68308 5.32054 7.49841 5.31352 7.3149 5.31002C7.41542 5.20599 7.5136 5.09963 7.60945 4.99209C7.68308 4.90911 7.75555 4.82495 7.82568 4.73846C7.86075 4.69521 7.89581 4.65196 7.92971 4.60755C7.9636 4.56313 7.9975 4.51872 8.03023 4.47196C7.98347 4.50469 7.93906 4.53742 7.89464 4.57248C7.85023 4.60638 7.80698 4.64144 7.76373 4.67651C7.67724 4.74664 7.59308 4.81911 7.5101 4.89274C7.4014 4.98859 7.2962 5.08677 7.19217 5.18729C7.18867 5.00378 7.18282 4.81911 7.17114 4.6356C7.16295 4.50586 7.1536 4.37612 7.14075 4.24755C7.13373 4.18326 7.12672 4.11781 7.11854 4.05352C7.11036 3.98924 7.10101 3.92378 7.08932 3.8595C7.07763 3.92378 7.06828 3.98924 7.0601 4.05352C7.05191 4.11781 7.0449 4.18326 7.03789 4.24755C7.02503 4.37729 7.01451 4.50703 7.0075 4.6356C6.99698 4.81911 6.98997 5.00261 6.98646 5.18729C6.88243 5.08677 6.77607 4.98859 6.66854 4.89274C6.58555 4.81911 6.5014 4.74664 6.4149 4.67651C6.37166 4.64144 6.32841 4.60638 6.28399 4.57248C6.23958 4.53859 6.19516 4.50469 6.14841 4.47196C6.17997 4.51872 6.21386 4.56313 6.24893 4.60755C6.28282 4.65196 6.31789 4.69521 6.35295 4.73846C6.42308 4.82495 6.49555 4.90911 6.56919 4.99209C6.66503 5.09963 6.76321 5.20599 6.86373 5.31002C6.68023 5.31352 6.49672 5.31937 6.31321 5.32989C6.18347 5.33807 6.05373 5.34742 5.92516 5.36028C5.86088 5.36729 5.79542 5.3743 5.73114 5.38248C5.66685 5.39067 5.6014 5.40002 5.53711 5.4117C5.6014 5.42339 5.66685 5.43274 5.73114 5.44093C5.79542 5.44911 5.86088 5.45612 5.92516 5.46313C6.0549 5.47599 6.18464 5.48651 6.31321 5.49352C6.49672 5.50404 6.68023 5.51106 6.86373 5.51339C6.76321 5.61742 6.66503 5.72261 6.56919 5.83132C6.49555 5.9143 6.42308 5.99846 6.35295 6.08495C6.31789 6.1282 6.28282 6.17145 6.24893 6.21586C6.21503 6.26028 6.18114 6.30469 6.14841 6.35145C6.19516 6.31989 6.23958 6.28599 6.28399 6.25209C6.32841 6.2182 6.37166 6.18313 6.4149 6.14807C6.5014 6.07794 6.58555 6.00547 6.66854 5.93183C6.77607 5.83599 6.88243 5.73781 6.98646 5.63729C6.98997 5.8208 6.99581 6.0043 7.00633 6.18781C7.01451 6.31755 7.02386 6.44729 7.03672 6.57586C7.04373 6.64015 7.05075 6.7056 7.05893 6.76989C7.06711 6.83417 7.07646 6.89963 7.08815 6.96391C7.09984 6.89963 7.10919 6.83417 7.11737 6.76989C7.12555 6.7056 7.13256 6.64015 7.13958 6.57586C7.15243 6.44612 7.16295 6.31638 7.16997 6.18781C7.18049 6.0043 7.1875 5.8208 7.18984 5.63612C7.29386 5.73664 7.40023 5.83482 7.50776 5.93067C7.59075 6.0043 7.6749 6.07677 7.7614 6.1469C7.80464 6.18196 7.84789 6.21703 7.8923 6.25093C7.93672 6.28482 7.98114 6.31872 8.02789 6.35145C7.99516 6.30469 7.96243 6.26028 7.92737 6.21586C7.89347 6.17145 7.85841 6.1282 7.82334 6.08495C7.75321 5.99846 7.68075 5.9143 7.60711 5.83132C7.51127 5.72261 7.41308 5.61742 7.31256 5.51339C7.49607 5.50989 7.68075 5.50404 7.86425 5.49235C7.99399 5.48417 8.12373 5.47482 8.2523 5.46196C8.31659 5.45495 8.38204 5.44794 8.44633 5.43976C8.51062 5.43158 8.57607 5.42222 8.64036 5.41054C8.57607 5.39885 8.51062 5.3895 8.44633 5.38132L8.44867 5.38365Z" fill="#D2B88A"/>
<path d="M31.2854 4.83776C31.4765 4.83776 31.6314 4.68286 31.6314 4.49179C31.6314 4.30071 31.4765 4.14581 31.2854 4.14581C31.0943 4.14581 30.9395 4.30071 30.9395 4.49179C30.9395 4.68286 31.0943 4.83776 31.2854 4.83776Z" fill="white"/>
<path d="M16.971 7.68853C17.1621 7.68853 17.3169 7.53363 17.3169 7.34256C17.3169 7.15148 17.1621 6.99658 16.971 6.99658C16.7799 6.99658 16.625 7.15148 16.625 7.34256C16.625 7.53363 16.7799 7.68853 16.971 7.68853Z" fill="#D2B88A"/>
<path d="M3.24832 14.7354C3.43939 14.7354 3.59429 14.5805 3.59429 14.3894C3.59429 14.1984 3.43939 14.0435 3.24832 14.0435C3.05724 14.0435 2.90234 14.1984 2.90234 14.3894C2.90234 14.5805 3.05724 14.7354 3.24832 14.7354Z" fill="#D2B88A"/>
<path d="M31.885 30.5532C32.0761 30.5532 32.231 30.3983 32.231 30.2072C32.231 30.0162 32.0761 29.8613 31.885 29.8613C31.694 29.8613 31.5391 30.0162 31.5391 30.2072C31.5391 30.3983 31.694 30.5532 31.885 30.5532Z" fill="white"/>
<defs>
<linearGradient id="paint0_linear_3580_2467" x1="2.12578" y1="29.8017" x2="34.3306" y2="29.8017" gradientUnits="userSpaceOnUse">
<stop offset="0.06" stop-color="#F8CEA3" stop-opacity="0"/>
<stop offset="0.09" stop-color="#F8CEA3" stop-opacity="0.06"/>
<stop offset="0.19" stop-color="#F8CEA3" stop-opacity="0.28"/>
<stop offset="0.3" stop-color="#F8CEA3" stop-opacity="0.47"/>
<stop offset="0.4" stop-color="#F8CEA3" stop-opacity="0.63"/>
<stop offset="0.51" stop-color="#F8CEA3" stop-opacity="0.77"/>
<stop offset="0.63" stop-color="#F8CEA3" stop-opacity="0.87"/>
<stop offset="0.74" stop-color="#F8CEA3" stop-opacity="0.94"/>
<stop offset="0.86" stop-color="#F8CEA3" stop-opacity="0.99"/>
<stop offset="1" stop-color="#F8CEA3"/>
</linearGradient>
<radialGradient id="paint1_radial_3580_2467" cx="0" cy="0" r="1" gradientUnits="userSpaceOnUse" gradientTransform="translate(17.7882 17.0182) scale(12.9132 12.9132)">
<stop stop-color="white" stop-opacity="0"/>
<stop offset="0.14" stop-color="white" stop-opacity="0.01"/>
<stop offset="0.25" stop-color="white" stop-opacity="0.05"/>
<stop offset="0.34" stop-color="white" stop-opacity="0.11"/>
<stop offset="0.43" stop-color="white" stop-opacity="0.2"/>
<stop offset="0.52" stop-color="white" stop-opacity="0.32"/>
<stop offset="0.6" stop-color="white" stop-opacity="0.46"/>
<stop offset="0.67" stop-color="white" stop-opacity="0.63"/>
<stop offset="0.74" stop-color="white" stop-opacity="0.82"/>
<stop offset="0.81" stop-color="white"/>
</radialGradient>
<linearGradient id="paint2_linear_3580_2467" x1="25.0077" y1="10.4154" x2="25.0077" y2="27.6136" gradientUnits="userSpaceOnUse">
<stop stop-color="#D4BA8C" stop-opacity="0"/>
<stop offset="0.18" stop-color="#D4BA8C" stop-opacity="0.35"/>
<stop offset="0.33" stop-color="#D4BA8C" stop-opacity="0.63"/>
<stop offset="0.47" stop-color="#D4BA8C" stop-opacity="0.82"/>
<stop offset="0.57" stop-color="#D4BA8C" stop-opacity="0.95"/>
<stop offset="0.63" stop-color="#D4BA8C" stop-opacity="0.99"/>
<stop offset="1" stop-color="#D4BA8C"/>
</linearGradient>
<linearGradient id="paint3_linear_3580_2467" x1="33.4349" y1="19.0145" x2="16.5804" y2="19.0145" gradientUnits="userSpaceOnUse">
<stop stop-color="#AB8D60" stop-opacity="0"/>
<stop offset="0.1" stop-color="#AB8D60" stop-opacity="0.1"/>
<stop offset="0.3" stop-color="#AB8D60" stop-opacity="0.36"/>
<stop offset="0.58" stop-color="#AB8D60" stop-opacity="0.76"/>
<stop offset="0.72" stop-color="#AB8D60" stop-opacity="0.99"/>
<stop offset="1" stop-color="#AB8D60"/>
</linearGradient>
<linearGradient id="paint4_linear_3580_2467" x1="24.7279" y1="26.2297" x2="24.7279" y2="14.3895" gradientUnits="userSpaceOnUse">
<stop offset="0.06" stop-color="#1F1912" stop-opacity="0"/>
<stop offset="0.37" stop-color="#1F1912" stop-opacity="0.17"/>
<stop offset="0.75" stop-color="#1F1912" stop-opacity="0.66"/>
<stop offset="0.95" stop-color="#1F1912"/>
</linearGradient>
<linearGradient id="paint5_linear_3580_2467" x1="23.2374" y1="19.5113" x2="29.2136" y2="19.5113" gradientUnits="userSpaceOnUse">
<stop stop-color="#D4BA8C" stop-opacity="0"/>
<stop offset="0.18" stop-color="#D4BA8C" stop-opacity="0.35"/>
<stop offset="0.33" stop-color="#D4BA8C" stop-opacity="0.63"/>
<stop offset="0.47" stop-color="#D4BA8C" stop-opacity="0.82"/>
<stop offset="0.57" stop-color="#D4BA8C" stop-opacity="0.95"/>
<stop offset="0.63" stop-color="#D4BA8C" stop-opacity="0.99"/>
<stop offset="1" stop-color="#D4BA8C"/>
</linearGradient>
<linearGradient id="paint6_linear_3580_2467" x1="22.9614" y1="20.6509" x2="28.5869" y2="20.6509" gradientUnits="userSpaceOnUse">
<stop stop-color="#D4BA8C" stop-opacity="0"/>
<stop offset="0.18" stop-color="#D4BA8C" stop-opacity="0.35"/>
<stop offset="0.33" stop-color="#D4BA8C" stop-opacity="0.63"/>
<stop offset="0.47" stop-color="#D4BA8C" stop-opacity="0.82"/>
<stop offset="0.57" stop-color="#D4BA8C" stop-opacity="0.95"/>
<stop offset="0.63" stop-color="#D4BA8C" stop-opacity="0.99"/>
<stop offset="1" stop-color="#D4BA8C"/>
</linearGradient>
<linearGradient id="paint7_linear_3580_2467" x1="22.8032" y1="21.2131" x2="28.4287" y2="21.2131" gradientUnits="userSpaceOnUse">
<stop stop-color="#D4BA8C" stop-opacity="0"/>
<stop offset="0.18" stop-color="#D4BA8C" stop-opacity="0.35"/>
<stop offset="0.33" stop-color="#D4BA8C" stop-opacity="0.63"/>
<stop offset="0.47" stop-color="#D4BA8C" stop-opacity="0.82"/>
<stop offset="0.57" stop-color="#D4BA8C" stop-opacity="0.95"/>
<stop offset="0.63" stop-color="#D4BA8C" stop-opacity="0.99"/>
<stop offset="1" stop-color="#D4BA8C"/>
</linearGradient>
<linearGradient id="paint8_linear_3580_2467" x1="22.645" y1="21.7753" x2="28.2705" y2="21.7753" gradientUnits="userSpaceOnUse">
<stop stop-color="#D4BA8C" stop-opacity="0"/>
<stop offset="0.18" stop-color="#D4BA8C" stop-opacity="0.35"/>
<stop offset="0.33" stop-color="#D4BA8C" stop-opacity="0.63"/>
<stop offset="0.47" stop-color="#D4BA8C" stop-opacity="0.82"/>
<stop offset="0.57" stop-color="#D4BA8C" stop-opacity="0.95"/>
<stop offset="0.63" stop-color="#D4BA8C" stop-opacity="0.99"/>
<stop offset="1" stop-color="#D4BA8C"/>
</linearGradient>
<linearGradient id="paint9_linear_3580_2467" x1="22.4867" y1="22.3375" x2="28.1123" y2="22.3375" gradientUnits="userSpaceOnUse">
<stop stop-color="#D4BA8C" stop-opacity="0"/>
<stop offset="0.18" stop-color="#D4BA8C" stop-opacity="0.35"/>
<stop offset="0.33" stop-color="#D4BA8C" stop-opacity="0.63"/>
<stop offset="0.47" stop-color="#D4BA8C" stop-opacity="0.82"/>
<stop offset="0.57" stop-color="#D4BA8C" stop-opacity="0.95"/>
<stop offset="0.63" stop-color="#D4BA8C" stop-opacity="0.99"/>
<stop offset="1" stop-color="#D4BA8C"/>
</linearGradient>
<linearGradient id="paint10_linear_3580_2467" x1="30.3371" y1="18.0784" x2="31.7011" y2="18.0784" gradientUnits="userSpaceOnUse">
<stop stop-color="#F8CEA3" stop-opacity="0"/>
<stop offset="0.09" stop-color="#F8CEA3" stop-opacity="0.02"/>
<stop offset="0.17" stop-color="#F8CEA3" stop-opacity="0.06"/>
<stop offset="0.25" stop-color="#F8CEA3" stop-opacity="0.14"/>
<stop offset="0.33" stop-color="#F8CEA3" stop-opacity="0.25"/>
<stop offset="0.41" stop-color="#F8CEA3" stop-opacity="0.39"/>
<stop offset="0.49" stop-color="#F8CEA3" stop-opacity="0.56"/>
<stop offset="0.57" stop-color="#F8CEA3" stop-opacity="0.77"/>
<stop offset="0.65" stop-color="#F8CEA3"/>
</linearGradient>
<linearGradient id="paint11_linear_3580_2467" x1="28.4231" y1="19.7591" x2="31.6947" y2="19.7591" gradientUnits="userSpaceOnUse">
<stop offset="0.06" stop-color="#F8CEA3" stop-opacity="0"/>
<stop offset="0.09" stop-color="#F8CEA3" stop-opacity="0.06"/>
<stop offset="0.19" stop-color="#F8CEA3" stop-opacity="0.28"/>
<stop offset="0.3" stop-color="#F8CEA3" stop-opacity="0.47"/>
<stop offset="0.4" stop-color="#F8CEA3" stop-opacity="0.63"/>
<stop offset="0.51" stop-color="#F8CEA3" stop-opacity="0.77"/>
<stop offset="0.63" stop-color="#F8CEA3" stop-opacity="0.87"/>
<stop offset="0.74" stop-color="#F8CEA3" stop-opacity="0.94"/>
<stop offset="0.86" stop-color="#F8CEA3" stop-opacity="0.99"/>
<stop offset="1" stop-color="#F8CEA3"/>
</linearGradient>
<linearGradient id="paint12_linear_3580_2467" x1="24.1423" y1="13.6438" x2="21.4668" y2="13.6438" gradientUnits="userSpaceOnUse">
<stop offset="0.06" stop-color="#1F1912" stop-opacity="0"/>
<stop offset="0.37" stop-color="#1F1912" stop-opacity="0.17"/>
<stop offset="0.75" stop-color="#1F1912" stop-opacity="0.66"/>
<stop offset="0.95" stop-color="#1F1912"/>
</linearGradient>
<linearGradient id="paint13_linear_3580_2467" x1="19.9981" y1="8.46819" x2="27.0625" y2="8.46819" gradientUnits="userSpaceOnUse">
<stop offset="0.06" stop-color="#F8CEA3" stop-opacity="0"/>
<stop offset="0.09" stop-color="#F8CEA3" stop-opacity="0.06"/>
<stop offset="0.19" stop-color="#F8CEA3" stop-opacity="0.28"/>
<stop offset="0.3" stop-color="#F8CEA3" stop-opacity="0.47"/>
<stop offset="0.4" stop-color="#F8CEA3" stop-opacity="0.63"/>
<stop offset="0.51" stop-color="#F8CEA3" stop-opacity="0.77"/>
<stop offset="0.63" stop-color="#F8CEA3" stop-opacity="0.87"/>
<stop offset="0.74" stop-color="#F8CEA3" stop-opacity="0.94"/>
<stop offset="0.86" stop-color="#F8CEA3" stop-opacity="0.99"/>
<stop offset="1" stop-color="#F8CEA3"/>
</linearGradient>
<linearGradient id="paint14_linear_3580_2467" x1="25.751" y1="8.24918" x2="26.6465" y2="8.32596" gradientUnits="userSpaceOnUse">
<stop stop-color="#D4BA8C" stop-opacity="0"/>
<stop offset="0.18" stop-color="#D4BA8C" stop-opacity="0.35"/>
<stop offset="0.33" stop-color="#D4BA8C" stop-opacity="0.63"/>
<stop offset="0.47" stop-color="#D4BA8C" stop-opacity="0.82"/>
<stop offset="0.57" stop-color="#D4BA8C" stop-opacity="0.95"/>
<stop offset="0.63" stop-color="#D4BA8C" stop-opacity="0.99"/>
<stop offset="1" stop-color="#D4BA8C"/>
</linearGradient>
<linearGradient id="paint15_linear_3580_2467" x1="9.58145" y1="10.2518" x2="2.60821" y2="10.2518" gradientUnits="userSpaceOnUse">
<stop offset="0.06" stop-color="#F8CEA3" stop-opacity="0"/>
<stop offset="0.53" stop-color="#F8CEA3" stop-opacity="0.53"/>
<stop offset="0.85" stop-color="#F8CEA3" stop-opacity="0.87"/>
<stop offset="1" stop-color="#F8CEA3"/>
</linearGradient>
<linearGradient id="paint16_linear_3580_2467" x1="11.7384" y1="31.2452" x2="11.7384" y2="17.5149" gradientUnits="userSpaceOnUse">
<stop stop-color="#AB8D60" stop-opacity="0"/>
<stop offset="0.17" stop-color="#AB8D60" stop-opacity="0.13"/>
<stop offset="0.52" stop-color="#AB8D60" stop-opacity="0.47"/>
<stop offset="1" stop-color="#AB8D60"/>
</linearGradient>
<linearGradient id="paint17_linear_3580_2467" x1="15.5781" y1="13.4836" x2="8.51485" y2="13.4836" gradientUnits="userSpaceOnUse">
<stop offset="0.06" stop-color="#F8CEA3" stop-opacity="0"/>
<stop offset="0.09" stop-color="#F8CEA3" stop-opacity="0.06"/>
<stop offset="0.19" stop-color="#F8CEA3" stop-opacity="0.28"/>
<stop offset="0.3" stop-color="#F8CEA3" stop-opacity="0.47"/>
<stop offset="0.4" stop-color="#F8CEA3" stop-opacity="0.63"/>
<stop offset="0.51" stop-color="#F8CEA3" stop-opacity="0.77"/>
<stop offset="0.63" stop-color="#F8CEA3" stop-opacity="0.87"/>
<stop offset="0.74" stop-color="#F8CEA3" stop-opacity="0.94"/>
<stop offset="0.86" stop-color="#F8CEA3" stop-opacity="0.99"/>
<stop offset="1" stop-color="#F8CEA3"/>
</linearGradient>
<linearGradient id="paint18_linear_3580_2467" x1="15.2862" y1="13.0675" x2="15.2862" y2="10.5229" gradientUnits="userSpaceOnUse">
<stop stop-color="#AB8D60" stop-opacity="0"/>
<stop offset="0.22" stop-color="#AB8D60" stop-opacity="0.02"/>
<stop offset="0.37" stop-color="#AB8D60" stop-opacity="0.07"/>
<stop offset="0.51" stop-color="#AB8D60" stop-opacity="0.16"/>
<stop offset="0.63" stop-color="#AB8D60" stop-opacity="0.29"/>
<stop offset="0.75" stop-color="#AB8D60" stop-opacity="0.46"/>
<stop offset="0.86" stop-color="#AB8D60" stop-opacity="0.66"/>
<stop offset="0.96" stop-color="#AB8D60" stop-opacity="0.9"/>
<stop offset="1" stop-color="#AB8D60"/>
</linearGradient>
<linearGradient id="paint19_linear_3580_2467" x1="10.3721" y1="14.8651" x2="10.3113" y2="14.8651" gradientUnits="userSpaceOnUse">
<stop offset="0.06" stop-color="#F8CEA3" stop-opacity="0"/>
<stop offset="0.09" stop-color="#F8CEA3" stop-opacity="0.06"/>
<stop offset="0.19" stop-color="#F8CEA3" stop-opacity="0.28"/>
<stop offset="0.3" stop-color="#F8CEA3" stop-opacity="0.47"/>
<stop offset="0.4" stop-color="#F8CEA3" stop-opacity="0.63"/>
<stop offset="0.51" stop-color="#F8CEA3" stop-opacity="0.77"/>
<stop offset="0.63" stop-color="#F8CEA3" stop-opacity="0.87"/>
<stop offset="0.74" stop-color="#F8CEA3" stop-opacity="0.94"/>
<stop offset="0.86" stop-color="#F8CEA3" stop-opacity="0.99"/>
<stop offset="1" stop-color="#F8CEA3"/>
</linearGradient>
<linearGradient id="paint20_linear_3580_2467" x1="10.3043" y1="14.5847" x2="10.157" y2="14.5847" gradientUnits="userSpaceOnUse">
<stop offset="0.06" stop-color="#F8CEA3" stop-opacity="0"/>
<stop offset="0.09" stop-color="#F8CEA3" stop-opacity="0.06"/>
<stop offset="0.19" stop-color="#F8CEA3" stop-opacity="0.28"/>
<stop offset="0.3" stop-color="#F8CEA3" stop-opacity="0.47"/>
<stop offset="0.4" stop-color="#F8CEA3" stop-opacity="0.63"/>
<stop offset="0.51" stop-color="#F8CEA3" stop-opacity="0.77"/>
<stop offset="0.63" stop-color="#F8CEA3" stop-opacity="0.87"/>
<stop offset="0.74" stop-color="#F8CEA3" stop-opacity="0.94"/>
<stop offset="0.86" stop-color="#F8CEA3" stop-opacity="0.99"/>
<stop offset="1" stop-color="#F8CEA3"/>
</linearGradient>
<linearGradient id="paint21_linear_3580_2467" x1="9.82518" y1="13.2699" x2="8.92964" y2="13.3466" gradientUnits="userSpaceOnUse">
<stop stop-color="#D4BA8C" stop-opacity="0"/>
<stop offset="0.18" stop-color="#D4BA8C" stop-opacity="0.35"/>
<stop offset="0.33" stop-color="#D4BA8C" stop-opacity="0.63"/>
<stop offset="0.47" stop-color="#D4BA8C" stop-opacity="0.82"/>
<stop offset="0.57" stop-color="#D4BA8C" stop-opacity="0.95"/>
<stop offset="0.63" stop-color="#D4BA8C" stop-opacity="0.99"/>
<stop offset="1" stop-color="#D4BA8C"/>
</linearGradient>
<linearGradient id="paint22_linear_3580_2467" x1="15.4754" y1="9.66738" x2="8.71367" y2="9.66738" gradientUnits="userSpaceOnUse">
<stop stop-color="#AB8D60" stop-opacity="0"/>
<stop offset="0.22" stop-color="#AB8D60" stop-opacity="0.02"/>
<stop offset="0.37" stop-color="#AB8D60" stop-opacity="0.07"/>
<stop offset="0.51" stop-color="#AB8D60" stop-opacity="0.16"/>
<stop offset="0.63" stop-color="#AB8D60" stop-opacity="0.29"/>
<stop offset="0.75" stop-color="#AB8D60" stop-opacity="0.46"/>
<stop offset="0.86" stop-color="#AB8D60" stop-opacity="0.66"/>
<stop offset="0.96" stop-color="#AB8D60" stop-opacity="0.9"/>
<stop offset="1" stop-color="#AB8D60"/>
</linearGradient>
<linearGradient id="paint23_linear_3580_2467" x1="23.9622" y1="28.9928" x2="18" y2="28.9928" gradientUnits="userSpaceOnUse">
<stop stop-color="#AB8D60" stop-opacity="0"/>
<stop offset="0.24" stop-color="#AB8D60" stop-opacity="0.02"/>
<stop offset="0.4" stop-color="#AB8D60" stop-opacity="0.07"/>
<stop offset="0.53" stop-color="#AB8D60" stop-opacity="0.15"/>
<stop offset="0.64" stop-color="#AB8D60" stop-opacity="0.28"/>
<stop offset="0.75" stop-color="#AB8D60" stop-opacity="0.43"/>
<stop offset="0.85" stop-color="#AB8D60" stop-opacity="0.63"/>
<stop offset="0.95" stop-color="#AB8D60" stop-opacity="0.85"/>
<stop offset="1" stop-color="#AB8D60"/>
</linearGradient>
<linearGradient id="paint24_linear_3580_2467" x1="23.2121" y1="23.7693" x2="24.5761" y2="23.7693" gradientUnits="userSpaceOnUse">
<stop stop-color="#F8CEA3" stop-opacity="0"/>
<stop offset="0.09" stop-color="#F8CEA3" stop-opacity="0.02"/>
<stop offset="0.17" stop-color="#F8CEA3" stop-opacity="0.06"/>
<stop offset="0.25" stop-color="#F8CEA3" stop-opacity="0.14"/>
<stop offset="0.33" stop-color="#F8CEA3" stop-opacity="0.25"/>
<stop offset="0.41" stop-color="#F8CEA3" stop-opacity="0.39"/>
<stop offset="0.49" stop-color="#F8CEA3" stop-opacity="0.56"/>
<stop offset="0.57" stop-color="#F8CEA3" stop-opacity="0.77"/>
<stop offset="0.65" stop-color="#F8CEA3"/>
</linearGradient>
<linearGradient id="paint25_linear_3580_2467" x1="21.2981" y1="25.4501" x2="24.5697" y2="25.4501" gradientUnits="userSpaceOnUse">
<stop offset="0.06" stop-color="#F8CEA3" stop-opacity="0"/>
<stop offset="0.09" stop-color="#F8CEA3" stop-opacity="0.06"/>
<stop offset="0.19" stop-color="#F8CEA3" stop-opacity="0.28"/>
<stop offset="0.3" stop-color="#F8CEA3" stop-opacity="0.47"/>
<stop offset="0.4" stop-color="#F8CEA3" stop-opacity="0.63"/>
<stop offset="0.51" stop-color="#F8CEA3" stop-opacity="0.77"/>
<stop offset="0.63" stop-color="#F8CEA3" stop-opacity="0.87"/>
<stop offset="0.74" stop-color="#F8CEA3" stop-opacity="0.94"/>
<stop offset="0.86" stop-color="#F8CEA3" stop-opacity="0.99"/>
<stop offset="1" stop-color="#F8CEA3"/>
</linearGradient>
<linearGradient id="paint26_linear_3580_2467" x1="19.2644" y1="27.2114" x2="14.2121" y2="25.5249" gradientUnits="userSpaceOnUse">
<stop offset="0.06" stop-color="#F8CEA3" stop-opacity="0"/>
<stop offset="0.09" stop-color="#F8CEA3" stop-opacity="0.06"/>
<stop offset="0.19" stop-color="#F8CEA3" stop-opacity="0.28"/>
<stop offset="0.3" stop-color="#F8CEA3" stop-opacity="0.47"/>
<stop offset="0.4" stop-color="#F8CEA3" stop-opacity="0.63"/>
<stop offset="0.51" stop-color="#F8CEA3" stop-opacity="0.77"/>
<stop offset="0.63" stop-color="#F8CEA3" stop-opacity="0.87"/>
<stop offset="0.74" stop-color="#F8CEA3" stop-opacity="0.94"/>
<stop offset="0.86" stop-color="#F8CEA3" stop-opacity="0.99"/>
<stop offset="1" stop-color="#F8CEA3"/>
</linearGradient>
<radialGradient id="paint27_radial_3580_2467" cx="0" cy="0" r="1" gradientUnits="userSpaceOnUse" gradientTransform="translate(8.51451 22.4521) scale(2.07701)">
<stop stop-color="#F8CEA3" stop-opacity="0"/>
<stop offset="0.15" stop-color="#F8CEA3" stop-opacity="0.01"/>
<stop offset="0.28" stop-color="#F8CEA3" stop-opacity="0.06"/>
<stop offset="0.41" stop-color="#F8CEA3" stop-opacity="0.13"/>
<stop offset="0.52" stop-color="#F8CEA3" stop-opacity="0.23"/>
<stop offset="0.64" stop-color="#F8CEA3" stop-opacity="0.36"/>
<stop offset="0.75" stop-color="#F8CEA3" stop-opacity="0.52"/>
<stop offset="0.86" stop-color="#F8CEA3" stop-opacity="0.71"/>
<stop offset="0.96" stop-color="#F8CEA3" stop-opacity="0.92"/>
<stop offset="1" stop-color="#F8CEA3"/>
</radialGradient>
<linearGradient id="paint28_linear_3580_2467" x1="31.0898" y1="27.4815" x2="23.3522" y2="27.4815" gradientUnits="userSpaceOnUse">
<stop offset="0.06" stop-color="#1F1912" stop-opacity="0"/>
<stop offset="0.37" stop-color="#1F1912" stop-opacity="0.17"/>
<stop offset="0.75" stop-color="#1F1912" stop-opacity="0.66"/>
<stop offset="0.95" stop-color="#1F1912"/>
</linearGradient>
<radialGradient id="paint29_radial_3580_2467" cx="0" cy="0" r="1" gradientUnits="userSpaceOnUse" gradientTransform="translate(30.9679 10.5405) scale(3.02844)">
<stop stop-color="#F8CEA3" stop-opacity="0"/>
<stop offset="0.15" stop-color="#F8CEA3" stop-opacity="0.01"/>
<stop offset="0.28" stop-color="#F8CEA3" stop-opacity="0.06"/>
<stop offset="0.41" stop-color="#F8CEA3" stop-opacity="0.13"/>
<stop offset="0.52" stop-color="#F8CEA3" stop-opacity="0.23"/>
<stop offset="0.64" stop-color="#F8CEA3" stop-opacity="0.36"/>
<stop offset="0.75" stop-color="#F8CEA3" stop-opacity="0.52"/>
<stop offset="0.86" stop-color="#F8CEA3" stop-opacity="0.71"/>
<stop offset="0.96" stop-color="#F8CEA3" stop-opacity="0.92"/>
<stop offset="1" stop-color="#F8CEA3"/>
</radialGradient>
</defs>
</svg>
